<?xml version="1.0" encoding="utf-8"?>
<!-- Generator: Adobe Illustrator 21.0.0, SVG Export Plug-In . SVG Version: 6.00 Build 0)  -->
<svg version="1.1" id="Layer_1" xmlns="http://www.w3.org/2000/svg" xmlns:xlink="http://www.w3.org/1999/xlink" x="0px" y="0px"
	 viewBox="0 0 375.8 340.2" style="enable-background:new 0 0 375.8 340.2;" xml:space="preserve">
<style type="text/css">
	.st0{fill:#121515;}
</style>
<g>
	<path class="st0" d="M171,0c-0.6,0-1.2,0-1.7,0c-11.2,0.1-22.5,1.5-33.5,3.9c-11.2,2.4-22.2,5.8-32.6,10.5
		C92.4,19.3,82.3,25,72.7,31.7c-9.2,6.4-17.8,14-25.5,22.2C39.4,62.1,32.2,71,26.3,80.7c-6.1,10.1-11.3,20.5-15.5,31.5
		c-4.1,10.5-6.8,21.7-8.6,32.9c-1.8,11.1-2.5,22.5-2,33.7c0.6,11.8,2.2,23.2,4.9,34.7c2.6,11.1,6.7,22,11.5,32.3
		c4.7,10.2,10.6,19.9,17.3,28.9c7,9.3,14.8,17.7,23.3,25.6c-5.4-8.2-10.2-16.7-14-25.7c-4.3-10.1-7.5-20.8-9.3-31.7
		c-1.7-10.9-2.6-22-1.8-33.1c0.8-11.1,2.5-22.1,5.8-32.7c3.3-10.6,7.5-20.9,13.2-30.6c5.6-9.6,12.2-18.7,19.8-26.8
		c7.6-8.1,16.2-15.4,25.4-21.5c9.3-6.2,19.2-11.2,29.6-15.1c10.4-4,21.2-6.4,32.2-7.9c5.8-0.8,11.6-1.1,17.4-1.1
		c5.2,0,10.5,0.3,15.7,0.8c11,1,21.8,3.7,32.2,7.2c10.4,3.5,20.3,8.5,29.6,14.2c2.4-3.8,4.8-7.5,7.2-11.2
		c8.2-12.7,16.4-25.4,24.5-38.1c0.7-1,1.3-2.1,2-3.1c0.1-0.2-5.8-5-6.3-5.4c-4.4-3.6-9-6.9-13.7-10c-9.3-6.2-19.4-11.6-29.8-15.7
		c-10.8-4.3-21.9-7.6-33.3-9.7C193,0.9,182,0,171,0"/>
	<path class="st0" d="M176,117.9c-8.8,0-17.5,1.1-26,3.3c-10.4,2.7-20.6,7-29.5,12.9c-9.2,6.1-17.4,13.3-24.3,21.8
		c-6.7,8.3-12.4,17.9-16,27.9c-3.8,10.3-6.1,21-6.6,32c-0.3,5.6,0,11.1,0.6,16.6c0.6,5.6,2.2,11,3.6,16.5c0.8,3.3,1.7,6.6,2.5,9.9
		c0.6,2.2,1.4,4.3,2,6.5c1.4,5.4,2.2,11.1,1.8,16.7c-0.3,5.8-1.2,11.4-3,17c-0.8,2.6-1.9,5.1-3.1,7.5c-0.7,1.4-1.4,2.8-2.2,4.1
		c-0.3,0.6,0.3,0.6,0.8,0.9c0.7,0.4,1.4,0.9,2.2,1.3c9.2,5.8,19.5,10.6,29.9,13.9c5.4,1.7,10.8,3.2,16.3,4.4
		c2.8,0.6,5.6,1.1,8.3,1.6c1.2,0.2,2.4,0.7,3.7,0.9c1,0.2,2.1,0.3,3.1,0.3c0.3,0,0.7,0,1,0c5.7-0.3,11.1-3.1,14.7-7.6
		c3.3-4.1,5.5-10.5,4.1-15.7c-2.9-11-5.5-22.1-7.2-33.4c-1.7-11.5-2.9-23.1-3.3-34.8c-0.2-5.5,0.7-10.9,4-15.5
		c3.3-4.6,8.1-7.8,13.6-9.1c0.7-0.2,1.4-0.3,2-0.3c0.6,0,1.2,0.1,1.9,0.3c1.4,0.4,2.6,0.9,3.9,1.6c2.4,1.3,4.5,3.2,6.2,5.5
		c3.4,4.4,4.4,10.2,3.4,15.6c-1,5.6-1,11.5-1,17.2c0.1,5.6,0.7,11.2,1.6,16.8c1.8,11,5.3,21.9,10.4,31.9c4.2,8.4,9.4,16.1,15.4,23.3
		c-2.6-10.8-2.6-22.4,1.2-33c1.9-5.3,4.3-10.5,7.7-15c0.9-1.2,1.8-2.4,2.8-3.6c0.4-0.5,0.8-1,1.2-1.5l0.3-0.6
		c-0.3-0.4-0.6-0.8-0.9-1.2c-1.7-2.2-3.2-4.5-4.6-6.9c-5.7-9.6-9.5-20.7-10.5-31.9c-0.5-5.7-0.7-11.5,0.1-17.2
		c0.4-2.8,0.8-5.7,1.4-8.5c0.2-0.7,0-1.1,0.7-1.2c0.6-0.1,1.2-0.2,1.8-0.3c14.3-2.3,28.7-4.7,43-7c7-1.1,14-2.3,20.9-3.4
		c-2.5-10.7-6.4-21-12.1-30.5c-5.7-9.4-12.7-17.9-21-25.1c-8.3-7.2-17.8-13-28-17.2c-10.2-4.2-21-6.7-31.9-7.5
		C180.6,118,178.3,117.9,176,117.9"/>
	<g>
		<path class="st0" d="M301.7,101.2c-2.2,0-4.3-1.3-5.3-3.5c-0.9-2.4-0.2-4.5,1.6-6.2c1.7-1.6,3.3-3.2,5.5-3.2c0.4,0,0.8,0,1.3,0.2
			c2.4,0.6,4.2,2.7,4.3,5.2c0.1,2.7-2,4.7-4,6.3C304.1,100.8,302.9,101.2,301.7,101.2 M308.5,77.2c-0.6,0-1.2,0.1-1.8,0.2
			c-4.7,0.9-7.2,4.2-10.3,7.5c-5.5,5.8-11,11.5-16.4,17.2c-1.2,1.2-2.3,2.4-3.5,3.6c-0.4,0.4,0.5,0.8,0.8,1.1
			c0.9,0.9,1.8,1.8,2.6,2.7c2.3-2.3,4.5-4.6,6.8-6.9c0.3-0.3,0.9-1.3,1.4-1.3c0.1,0,0.2,0,0.3,0.1c1.2,1.1,2.4,2.3,3.6,3.4
			c1.3,1.2,2.7,2.5,4,3.8c0.8,0.8,0.5,0.7-0.3,1.5c-2.4,2.6-4.8,5.2-7.2,7.8c-0.4,0.5,0.5,1,0.9,1.4c0.8,0.9,1.6,1.7,2.4,2.5
			c8.4-8.5,16.9-17,25.3-25.5c3.2-3.2,3.7-8.6,1.8-12.6C316.9,79.8,312.8,77.2,308.5,77.2"/>
		<path class="st0" d="M329.4,101.5c-1.7,0-3.3,0.3-4.9,1c-1.8,0.8-3.6,2.2-5.2,3.3c-5.6,3.7-11.1,7.4-16.7,11.1l-0.5,0.4
			c-4,2.9-6,8.1-4.3,12.9c1.6,4.6,5.9,7.8,10.8,7.8c0.2,0,0.3,0,0.5,0c3.9-0.2,10.2-3.1,8.5-8c-0.4-1.3-1.5-1.9-2.4-2.8
			c-0.9-1-1.8-2.2-2.3-3.4c-1.1-2.7-1.6-5.2-0.4-8c1.4-3,4.3-4.5,7.2-4.5c2.3,0,4.6,0.9,6.2,2.6c0.9,0.9,1.5,2.2,1.9,3.4
			c0.3,1.2,0.1,2.5,0.3,3.7c0.5,2.1,2.2,3.2,4.1,3.2c0.5,0,1-0.1,1.5-0.2c1-0.3,1.9-1.1,2.7-1.8c1-0.8,1.9-1.7,2.6-2.7
			c1.4-2,2.1-4.5,2-7c-0.2-5.1-4-9.7-9.1-10.8C331.3,101.6,330.4,101.5,329.4,101.5"/>
		<path class="st0" d="M350.9,122.9c-0.1,0-0.1,0-0.2,0c-1.8,0.8-3.5,1.7-5.3,2.6c-7.1,3.5-14.1,6.9-21.2,10.4
			c-5.8,2.8-11.5,5.7-17.3,8.5c1,1.9,1.9,3.8,2.8,5.8c5.6-2.7,11.1-5.3,16.7-8c1.1,2.9,2.3,5.8,3.4,8.7c0.3,0.8,0,0.7-0.8,1.1
			c-1.5,0.7-3,1.4-4.5,2.1c-3.3,1.5-6.5,3.1-9.8,4.6c-1,0.5-0.8,0.5-0.3,1.6c0.6,1.5,1.2,2.9,1.8,4.4c11.8-5.1,23.6-10.3,35.3-15.4
			c2.9-1.3,5.9-2.6,8.9-3.9c0.7-0.3,1-0.2,0.7-0.9c-0.7-1.8-1.4-3.7-2.1-5.5c-2.7,1.2-5.4,2.3-8.1,3.5c-1.7,0.8-3.4,1.5-5.2,2.2
			c-0.3,0.1-1,0.6-1.4,0.6c-0.1,0-0.2,0-0.3-0.2c-1.4-3.1-2.9-6.1-4.3-9.2c-0.3-0.6,0.7-0.8,1.2-1c1.6-0.8,3.2-1.6,4.9-2.4
			c2.8-1.4,5.5-2.8,8.3-4.1c-0.8-1.3-1.6-2.6-2.4-4C351.6,123.7,351.4,122.9,350.9,122.9"/>
		<path class="st0" d="M366,153.7c-12.2,3.9-24.3,7.8-36.5,11.7c-3.9,1.3-7.9,2.5-11.8,3.8c0.6,1.8,1.2,3.6,1.8,5.4
			c12.2-3.8,24.4-7.6,36.7-11.4c3.4-1.1,6.8-2.1,10.1-3.2l1.3-0.5C367.1,157.5,366.6,155.5,366,153.7"/>
		<path class="st0" d="M370.5,168.7c-12.6,2.4-25.2,4.9-37.7,7.4c-3.9,0.8-7.7,1.5-11.6,2.3c-0.1,0,2.2,12.8,2.4,14.2
			c5.4-0.8,10.8-1.6,16.2-2.4c-0.6-3-1.2-6-1.8-9c3.2-0.6,33.6-6.2,33.6-6.3C371.3,172.8,370.9,170.7,370.5,168.7"/>
		<path class="st0" d="M374.9,191.6c-12.7,1.1-25.5,2.2-38.3,3.3c-4.1,0.4-8.2,0.7-12.3,1c-0.1,0,0.9,13.3,1,14.7
			c5.7-0.3,11.3-0.5,16.9-0.7c-0.2-3.1-0.5-6.3-0.7-9.4c0-0.7-0.1-0.7,0.6-0.7c1-0.1,2.1-0.2,3.2-0.3c7.8-0.6,15.6-1.2,23.3-1.8
			c2.1-0.2,4.1-0.3,6.1-0.5c0.7,0,0.3-0.9,0.3-1.5C375,194.4,374.9,193,374.9,191.6"/>
		<path class="st0" d="M326,215.2c-0.2,6.4-0.5,12.9-0.7,19.3c5.1,0.2,10.2,0.3,15.3,0.5c0,0,0,0,0,0c0.4,0,0.2-1,0.2-1.3
			c0.1-1.5,0.1-3.1,0.2-4.6c0.1-2.5,0.2-5,0.3-7.4c2.1,0.1,4.1,0.2,6.2,0.4c0.7,0,0.6,0.1,0.5,0.8c0,1.2-0.1,2.4-0.1,3.5
			c-0.1,2.2-0.1,4.3-0.2,6.5c0,0.2,4.7,0.3,5.3,0.4c0.1-3.1,0.3-6.2,0.4-9.3c0-0.5,0-1.1,0.1-1.6l0.8-0.1c1.6,0,3.2,0,4.8,0.1
			c-0.2,4.1-0.3,8.2-0.5,12.3c1.1,0,8.1,0.2,12.5,0.2c2.2,0,3.7,0,3.7-0.1c0.3-6.1,0.6-12.3,0.8-18.4v0c-12.8-0.2-25.7-0.4-38.6-0.6
			C333.5,215.3,329.8,215.2,326,215.2"/>
		<path class="st0" d="M325.5,239.4c-0.6,0-1.5,2.3-1.8,2.8c-1.1,2.4-1.4,5.5-0.7,8c1.5,5.7,6.1,9.6,12.1,10c0.2,0,0.5,0,0.8,0
			c2.4,0,5-0.8,7-2.2c2.3-1.6,4.2-3.7,6.4-5.4c0.8-0.6,1.5-1.1,2.5-1.1c0.2,0,0.4,0,0.6,0.1c1.2,0.3,2,1.3,2.2,2.5
			c0.4,2.3-2.3,4.1-4.3,4.4c-0.2,0-0.4,0-0.5,0c-0.2,0-0.3,0-0.5,0c-0.1,0-0.1,0-0.2,0c-0.7,0-1.3,0-1.8,0.7c-0.8,1-0.6,2.6,0.5,3.3
			c0.7,0.4,1.5,0.4,2.2,0.4c1.7,0.1,3.3,0.2,5,0.3c4.3,0.3,8.7,0.6,13.1,0.9l1.3-2c0.4-0.9,0.8-1.8,1-2.7c0.5-1.9,0.5-3.7,0.2-5.6
			c-1.2-5.5-5.5-9.9-11.2-10.5c-0.5,0-0.9-0.1-1.4-0.1c-2.3,0-4.5,0.6-6.6,1.7c-1.1,0.6-1.9,1.4-2.8,2.2c-1.2,1-2.5,2-3.8,3
			c-1.6,1.3-3.4,3.3-5.5,3.3c-0.3,0-0.7,0-1-0.2c-2.1-0.6-3-3-2.3-5.1c0.8-2.4,3.8-3.3,6.1-3.6c0.7-0.1,1.4-0.2,2-0.2
			c0.5,0,1,0.1,1.6,0.1c0.2,0,0.4,0,0.6-0.1c1.2-0.3,1.7-1.8,1-2.8c-0.5-0.8-1.2-0.8-2-0.9c-1.5-0.1-2.9-0.2-4.4-0.3
			c-4-0.3-8-0.6-12.1-0.9C327.6,239.6,326.6,239.5,325.5,239.4C325.5,239.4,325.5,239.4,325.5,239.4"/>
		<path class="st0" d="M353.4,279.7c-0.9,0-1.7,0.2-2.5,0.6l-1.3,0.7c-0.8-0.4-1.6-0.8-2.5-1.1c-0.1-0.1-0.2-0.1-0.3-0.1
			c-0.2,0-0.2,0.3-0.4,0.6c-0.5,0.9-1,1.8-1.4,2.6c-0.4,0.7-0.7,1.3-1,1.9l0.9,1.3c1.9,2.1,4.2,3.4,6.9,4c0.7,0.2,1.4,0.3,2.2,0.3
			c1.3,0,2.5-0.3,3.5-1.1c1.5-1.2,2.2-3.2,1.9-5c-0.5-2.4-2.5-4.2-4.9-4.6C354.1,279.7,353.7,279.7,353.4,279.7"/>
		<path class="st0" d="M313.3,277.3c-0.5,0.9-0.9,1.7-1.4,2.5c-1.9,3.5-3.8,7-5.8,10.5c-0.8,1.4-1.6,2.8-2.4,4.2
			c-0.1,0.3-0.8,1.1-0.5,1.3c4.5,2.5,9.1,5.1,13.7,7.7c2.8-5.1,5.6-10.1,8.4-15.2l2.1,1.8c0.6,0.9,0.8,2,0.7,3
			c-0.1,1.3-1,2.5-1.6,3.7c-0.6,1.2-1.3,2.3-1.5,3.6c-1.2,5.5,3.5,9.9,8.4,11.4c2.2,0.7,4.5,1,6.8,1c0.2,0,0.5,0,0.7,0
			c2.4-0.1,4.8-0.9,6.5-2.6c1.5-1.5,2.3-3.3,3.1-5.2c1.2-2.6,2.4-5.2,3.6-7.8c-4.4-2-8.8-4-13.1-6c-0.3-0.1-0.5-0.3-0.6-0.3
			c-0.1,0-0.2,0.1-0.3,0.3c-0.5,1-1,2.1-1.5,3.2c-1,2.2-2.1,4.3-3.2,6.4c-0.5,1-1.4,1.5-2.4,1.5c-1.2,0-2.4-0.7-2.6-2.1
			c-0.2-1.2,0.5-2.1,0.9-3.1c0.5-1.3,1-2.7,1.5-4.1c0.9-2.3,0.3-4.9-1.3-6.7c-0.6-0.7-1.1-0.8-1.9-1.2c-1.5-0.7-3-1.4-4.6-2.2
			c-3.5-1.6-6.9-3.3-10.4-4.9L313.3,277.3"/>
		<path class="st0" d="M315.5,328.2c-1.4,0-2.8-0.5-3.9-1.3c-0.6-0.4-1-0.9-1.5-1.4l0.9-1.3c1.7-2.2,3-4.9,6-5.2c0.1,0,0.3,0,0.4,0
			c1,0,1.9,0.3,2.7,0.8c0.9,0.6,1.3,2.1,1.3,3.1l0,0.8C321,326.5,318.1,328.2,315.5,328.2 M301.1,299c-0.2,0-0.3,0.2-0.6,0.6
			c-2.4,2.8-4.8,5.6-7.3,8.4c-1.4,1.7-2.4,3.5-2.5,5.7c-0.2,2.4,0.6,4.8,2.1,6.7c1.2,1.4,2.9,2.5,4.4,3.7
			c5.9,4.6,11.8,9.3,17.7,13.9c1.4,1.1,2.6,1.8,4.5,2.1c0.6,0.1,1.2,0.1,1.8,0.1c1.9,0,3.8-0.4,5.5-1.2c4.4-2.2,7.6-6.9,7.2-11.9
			c-0.4-2.3-1.3-4.6-3.1-6.1c-2.3-1.9-4.5-4.2-7.1-5.6c-1.5-0.8-3.1-1.2-4.7-1.2c-0.8,0-1.6,0.1-2.4,0.3c-1.2,0.3-2.4,0.9-3.4,1.6
			c-1,0.7-1.7,2.2-2.4,3.2c-0.9,1.2-1.8,2.4-2.7,3.6c-0.2,0.3-0.4,0.4-0.6,0.4c-0.2,0-0.5-0.2-0.9-0.5c-1.4-1.1-2-2.9-1.7-4.6
			c0.3-1.7,1.7-2.9,2.8-4.1c1.7-2,3.4-4,5.1-5.9c-2.4-1.9-4.8-3.8-7.2-5.6c-1.3-1-2.6-2.1-4-3.1C301.4,299.1,301.3,299,301.1,299"/>
	</g>
</g>
</svg>
