<?xml version="1.0" encoding="UTF-8" standalone="no"?>
<svg xmlns:dc="http://purl.org/dc/elements/1.1/" xmlns:cc="http://creativecommons.org/ns#" xmlns:rdf="http://www.w3.org/1999/02/22-rdf-syntax-ns#" xmlns:svg="http://www.w3.org/2000/svg" xmlns="http://www.w3.org/2000/svg" xml:space="preserve" id="HQFL" viewBox="0 0 287 349" height="349" width="287" version="1.0"><metadata id="metadata9453"><rdf:RDF><cc:Work rdf:about=""><dc:format>image/svg+xml</dc:format><dc:type rdf:resource="http://purl.org/dc/dcmitype/StillImage"/><dc:title/></cc:Work></rdf:RDF></metadata><defs id="defs68"/><g transform="matrix(0.35854735,0,0,0.35854735,0,1.5880022e-5)" id="g10030"><path d="m 779.084,165.667 -2.657,-10.14 -7.274,-7.545 C 675.936,51.218 548.288,0.046 400.009,0 251.815,-0.055 124.161,51.116 30.846,147.983 c -0.006,0.007 -7.277,7.539 -7.277,7.539 l -2.67,10.144 C 7.03,218.426 0,272.298 0,325.79 c 0,49.77 6.11,100.169 18.162,149.8 27.989,125.383 85.022,235.844 169.491,328.227 52.31,59.332 116.809,112.216 191.645,157.116 L 400,973.372 420.708,960.931 C 495.534,916.034 560.033,863.148 612.407,803.748 696.817,711.432 753.845,600.97 781.847,475.494 793.886,425.992 800,375.596 800,325.798 800,272.291 792.962,218.415 779.084,165.667 Z" style="fill:#006d2c" id="path3"/><path d="m 769.157,168.272 c 0,0 -1.483,-5.665 -1.977,-7.553 -1.757,-1.823 -5.414,-5.616 -5.414,-5.616 C 670.527,60.392 545.432,10.307 400.004,10.263 254.667,10.208 129.57,60.293 38.236,155.103 l -0.005,0.004 c 0,0 -4.067,4.214 -5.421,5.617 -0.497,1.886 -1.989,7.553 -1.989,7.553 -13.643,51.906 -20.56,104.902 -20.56,157.514 0,48.955 6.012,98.54 17.893,147.471 27.615,123.703 83.826,232.588 167.134,323.7 51.673,58.608 115.358,110.816 189.292,155.173 0,0 11.57,6.953 15.42,9.265 5.01,-3.009 15.424,-9.265 15.424,-9.265 73.925,-44.357 137.611,-96.565 189.349,-155.242 83.246,-91.043 139.454,-199.931 167.08,-323.729 11.87,-48.804 17.885,-98.384 17.885,-147.366 0,-52.626 -6.924,-105.624 -20.581,-157.526 z" style="fill:#ffed00" id="path5"/><path d="m 762.813,169.945 c 0,-0.004 -1.552,-5.891 -1.552,-5.891 l -4.236,-4.401 C 667.068,66.264 543.609,16.874 399.994,16.819 256.479,16.774 133.016,66.165 42.952,159.652 l -4.237,4.402 -1.549,5.889 c -26.229,99.771 -27.102,201.385 -2.591,302.024 27.294,122.472 83.03,230.381 165.64,320.666 51.025,57.967 114.202,109.756 187.729,153.878 l 12.049,7.234 12.047,-7.234 c 73.513,-44.114 136.776,-95.999 188.027,-154.21 82.405,-90.06 138.08,-198.005 165.43,-320.789 24.446,-100.286 23.548,-201.771 -2.684,-301.567 z m -4.156,299.972 c -27.096,121.637 -82.206,228.502 -163.813,317.692 -50.819,57.719 -113.525,109.138 -186.417,152.88 0,0 -5.502,3.302 -8.434,5.063 -2.452,-1.471 -8.435,-5.063 -8.435,-5.063 C 318.65,896.741 256.032,845.417 205.439,787.943 123.624,698.527 68.452,591.697 41.413,470.373 29.701,422.282 23.847,373.982 23.847,325.779 c 0,-51.587 6.704,-103.062 20.109,-154.049 0,0 0.769,-2.924 1.085,-4.122 0.861,-0.894 2.968,-3.085 2.968,-3.085 v 0.001 C 136.717,72.444 258.431,23.797 399.992,23.842 c 141.663,0.053 263.372,48.7 351.973,140.682 0,0 1.94,2.013 2.97,3.085 0.316,1.197 1.089,4.124 1.089,4.124 13.42,51.059 20.132,102.567 20.132,154.136 0,48.067 -5.831,96.188 -17.499,144.048 z" style="fill:#ffffff" id="path7"/><path d="m 79.436,166.604 c -26.601,101.186 -27.244,202.368 -2.6,303.549 5.74,25.772 12.684,50.791 20.789,75.091 h 95.966 V 86.247 c -16.68,6.944 -32.655,14.838 -47.945,23.609 -23.905,16.757 -45.978,35.743 -66.21,56.748 z" style="fill:#006d2c" id="path9"/><path d="m 722.854,184.013 c -33.383,-34.654 -72.29,-63.49 -116.42,-85.438 v 446.67 H 709.74 c 5.93,-18.988 11.131,-38.427 15.568,-58.346 C 748.612,391.267 748,279.678 722.854,184.013 Z" style="fill:#006d2c" id="path11"/><path d="M 567.114,793.525 C 632.902,721.609 680.431,639.076 709.739,545.245 H 97.625 C 89.52,520.945 82.576,495.926 76.836,470.154 52.192,368.972 52.835,267.791 79.436,166.605 99.665,145.603 121.733,126.62 145.634,109.865 121.299,123.819 98.702,140 77.865,158.234 c -6.173,5.715 -12.199,11.596 -18.051,17.669 -25.453,96.841 -26.07,193.675 -2.476,290.508 6.049,27.135 13.479,53.402 22.262,78.834 30.003,86.861 75.956,163.876 137.894,231.588 50.283,57.101 111.117,106.764 182.506,149.605 62.573,-37.551 117.033,-80.347 163.399,-128.796 v -0.001 c 1.237,-1.382 2.497,-2.733 3.715,-4.116 z" style="fill:#003716" id="path13"/><path d="M 740.178,175.902 C 658.249,90.843 543.522,40.285 400,40.239 265.161,40.194 157.725,83.918 77.39,158.643 155.7,89.912 258.74,49.966 386.833,50.011 c 141.775,0.058 255.093,49.993 336.021,134.002 25.146,95.665 25.758,207.253 2.453,302.885 -26.361,118.358 -79.095,220.157 -158.193,306.626 -1.218,1.383 -2.479,2.734 -3.715,4.115 6.532,-6.827 12.907,-13.762 19.115,-20.807 80.067,-87.536 133.447,-190.609 160.139,-310.422 23.602,-96.833 22.985,-193.666 -2.475,-290.508 z" style="fill:#b0da1f" id="path15"/><path d="m 386.833,50.011 c -19.111,-0.007 -37.652,0.896 -55.647,2.633 v 492.601 h -8.384 c -11.56,2.6 -18.809,4.622 -21.603,6.034 -2.438,1.23 -4.784,3.351 -6.991,6.241 -9.412,4.486 -12.046,13.88 -12.046,21.437 0,2.634 0.313,5.037 0.754,6.923 l 1.396,5.958 c 0,0 16.971,-15.55 18.147,-16.629 0.515,-0.139 3.581,-0.962 6.628,-1.781 -6.566,6.671 -8.433,9.522 -9.193,11.133 -1.994,4.174 -2.563,9.851 -2.563,14.972 0,6.145 0.819,11.491 0.982,12.499 l 1.659,10.197 c 0,0 15.756,-28.409 16.222,-29.249 2.789,-2.762 20.955,-18.949 37.394,-33.474 0.874,-0.328 4.906,-1.845 6.855,-2.579 1.587,0.877 3.965,2.192 4.552,2.516 0.66,0.665 12.239,12.305 12.239,12.305 l 1.777,-5.656 c 0.061,-0.196 1.293,-4.178 1.293,-8.562 0,-0.751 -0.037,-1.516 -0.121,-2.275 -0.188,-1.615 -0.77,-3.341 -1.655,-5.144 1.934,-0.729 6.816,-2.569 12.913,-4.866 h 36.909 c -6.332,30.763 -19.56,95.055 -20.108,97.716 -0.307,0.138 -0.979,0.438 -1.618,0.723 -1.411,-0.004 -37.952,-0.085 -37.952,-0.085 -16.213,0 -28.006,21.344 -28.5,22.252 l -5.888,10.827 10.775,-5.983 c 4.14,-2.299 7.632,-4.061 10.543,-5.412 -1.259,0.76 -1.865,1.266 -2.232,1.578 -0.922,0.784 -1.763,1.748 -2.534,2.838 0.969,-0.608 1.933,-1.217 2.93,-1.793 30.944,-17.869 67.855,-16.211 96.428,1.12 l -2.676,-5.711 c -0.799,-1.709 -7.349,-15.124 -16.84,-18.89 1.002,-4.52 14.212,-64.112 21.981,-99.178 h 16.156 V 55.996 c -26.164,-3.913 -53.488,-5.974 -81.982,-5.985 z" style="fill:#006d2c" id="path17"/><path d="m 505.483,276.157 c -51.62,-43.233 -94.941,-36.258 -108.785,-34.609 -20.49,2.434 -35.682,11.649 -48.703,20.072 -2.766,1.789 -5.155,3.334 -6.835,4.158 -7.429,3.641 -14.666,3.677 -18.435,0.093 -3.152,-2.996 -4.552,-6.033 -4.406,-9.557 0.586,-14.135 25.027,-33.783 46.592,-51.118 7.398,-5.948 15.05,-12.098 21.7,-17.971 15.766,-13.924 24.755,-31.092 25.318,-48.341 0.458,-14.027 -4.774,-27.272 -14.731,-37.294 -17.353,-17.464 -47.45,-18.024 -66.956,-9.684 -9.435,4.033 -16.405,9.972 -20.491,17.15 l -95.412,34.446 c -4.612,-6.478 -14.666,-5.765 -21.514,-4.882 -5.397,0.687 -15.545,4.027 -20.001,-0.725 -4.281,-4.542 0.513,-11.665 4.39,-14.549 5.626,-4.211 12.877,-5.038 19.772,-5.259 0.349,3.157 2.825,6.365 6.718,8.185 5.558,2.582 13.205,1.564 15.469,-2.512 2.271,-4.077 -1.738,-9.671 -7.291,-12.235 -4.752,-2.239 -10.076,-1.659 -12.923,1.111 -3.148,-0.414 -6.341,-0.549 -9.518,-0.409 -9.054,0.395 -18.957,3.071 -25.046,10.263 -4.502,5.299 -6.578,13.832 -1.56,19.567 1.467,1.655 3.45,2.904 5.523,3.667 8.95,3.269 17.628,0.462 26.639,-0.594 3.336,-0.386 8.375,-0.98 10.164,1.683 l -49.77,17.967 44.404,-4.555 c -2.831,2.527 -5.944,4.562 -9.087,7.593 -6.303,6.075 -8.65,10.156 -8.837,15.209 -0.314,8.516 7.509,13.207 11.747,14.143 7.762,1.739 15.954,-2.086 21.458,-7.419 1.1,-1.074 1.953,-2.183 3.044,-3.465 -4.032,1.703 -6.998,3.336 -11.307,4.315 -4.947,1.112 -10.552,-0.157 -12.441,-4.909 -1.657,-4.171 -0.551,-8.211 2.139,-11.322 3.381,-3.925 9.003,-8.655 12.64,-12.37 0.901,-0.934 1.826,-1.944 2.702,-3.012 l 101.852,-10.449 c 1.539,1.741 3.278,3.312 5.231,4.683 8.075,5.662 18.27,7.125 26.354,7.008 -6.411,6.605 -17.5,14.228 -29.153,22.183 -34.176,23.336 -82.971,56.653 -82.971,109.978 0,10.405 1.763,24.069 8.36,39.361 0.534,-0.915 8.814,-6.863 10.283,-7.955 -1.117,4.199 -1.612,8.091 -1.612,11.697 0,17.228 12.993,31.206 24.537,40.201 0,0 3.118,-7.237 3.24,-7.532 4.565,21.44 15.173,30.725 32.715,39.571 0.257,-5.333 1.811,-15.246 2.233,-18.413 32.47,46.46 78.618,65.964 123.392,84.81 3.128,1.317 6.259,2.634 9.396,3.961 l -5.827,28.869 -97.264,37.756 c -14.715,2.96 -34.969,7.315 -39.805,9.757 -2.371,1.196 -4.469,3.368 -6.253,5.836 -14.54,6.046 -10.157,24.75 -10.157,24.75 l 14.281,-13.085 20.857,-5.607 c -8.618,8.03 -16.725,16.156 -18.409,19.72 -4.034,8.451 -1.283,25.367 -1.283,25.367 l 11.457,-20.652 c 2.492,-2.654 31.539,-28.354 38.403,-34.418 l 9.021,-3.393 6.443,3.562 8.419,8.464 c 0,0 1.53,-4.876 1.028,-9.367 -0.311,-2.682 -2.026,-5.529 -3.353,-7.388 l 63.001,-23.739 c 0,0 -20.239,98.433 -24.889,120.958 -1.127,0.503 -2.48,1.108 -3.998,1.784 -11.822,-0.018 -31.952,-0.085 -38.711,-0.085 -14.271,0 -25.354,20.381 -25.354,20.381 17.966,-9.976 24.303,-10.263 24.303,-10.263 1.365,0.083 5.823,0.289 11.44,0.533 -8.669,2.072 -17.189,5.39 -25.297,10.072 -45.13,26.058 -60.604,83.952 -34.595,129.104 26.104,45.152 83.975,60.635 129.123,34.592 45.13,-26.086 60.68,-83.979 34.637,-129.109 -10.046,-17.382 -24.809,-30.349 -41.736,-38.266 l 3.079,0.606 c 0,0 -7.984,-17.04 -17.845,-17.794 L 455.16,517.404 c 0,0 9.373,-3.853 16.424,-6.46 8.529,-3.155 12.522,-8.976 13.245,-14.826 33.979,17.771 65.18,42.081 85.918,86.815 1.302,-5.427 7.824,-24.101 10.724,-31.346 7.649,13.286 22.225,37.956 29.556,55.014 -0.65,-157.963 -42.51,-277.659 -105.544,-330.444 z m -46.351,223.337 3.125,-14.225 c 2.439,1.091 4.875,2.196 7.303,3.326 -1.061,9.384 -10.428,10.899 -10.428,10.899 z" style="fill:#00210d" id="path19"/><path d="m 306.156,131.936 -44.455,7.983 43.974,-12.193 c -0.043,-0.643 -0.078,-1.289 -0.096,-1.947 -0.045,-1.746 0.052,-3.457 0.27,-5.132 l -89.685,29.695 c -0.022,0.192 -0.054,0.382 -0.088,0.572 l 91.687,-12.606 c -0.704,-2.007 -1.239,-4.135 -1.607,-6.372 z" style="fill:#ffffff" id="path21"/><path d="m 448.328,437.664 c -44.558,-20.041 -91.91,-50.909 -118.21,-101.057 28.303,39.167 83.869,72.835 140.666,92.396 l 2.138,-9.427 c 42.458,23.238 90.627,68.113 128.499,147.062 -7.523,-26.566 -31.711,-101.704 -109,-154.002 6.776,-0.093 13.124,-1.114 18.88,-3.069 58.282,42.755 82.651,109.846 86.631,121.789 -0.109,-0.91 -0.21,-1.839 -0.32,-2.747 -10.675,-51.082 -37.742,-96.016 -72.892,-126.218 1.874,-1.477 3.63,-3.105 5.234,-4.913 2.155,-2.428 3.973,-5.079 5.484,-7.911 24.032,24.949 43.758,56.083 53.458,83.534 -1.335,-6.866 -2.751,-13.586 -4.247,-20.151 -12.481,-43.513 -35.333,-71.714 -44.013,-81.032 2.086,-20.143 -6.231,-44.792 -23.083,-67.852 -6.087,-6.951 -12.464,-13.23 -19.13,-18.812 -46.611,-39.041 -83.952,-34.264 -100.864,-32.25 -18.085,2.149 -31.323,9.094 -43.532,16.994 -3.044,1.97 -5.674,3.671 -7.911,4.766 -11.558,5.665 -23.871,5.748 -30.941,-0.972 -5.34,-5.077 -7.171,-11.349 -6.898,-17.914 0.781,-18.863 24.55,-38.266 50.104,-58.809 7.643,-6.144 14.862,-11.947 21.331,-17.66 13.591,-12.003 21.334,-26.518 21.804,-40.868 0.361,-11.129 -3.797,-21.644 -11.712,-29.609 -13.6,-13.689 -38.88,-14.536 -55.463,-7.447 -7.005,2.994 -18.701,10.097 -18.34,24.02 0.229,8.856 3.148,15.13 8.922,19.181 9.988,7.004 27.03,6.108 38.425,2.06 -1.049,13.644 -21.471,30.711 -41.331,44.272 -33.932,23.168 -78.367,53.508 -78.367,101.531 0,6.989 0.943,14.355 2.995,22.125 5.016,-3.494 17.294,-7.502 21.045,-7.5 -4.056,7.895 -7.017,22.534 -7.017,28.223 0,9.896 4.907,16.925 10.417,22.769 1.757,-3.599 9.343,-16.957 14.742,-20.706 -2.699,29.986 8.73,46.565 16.429,53.094 0.28,-2.41 0.636,-4.9 0.994,-7.361 0.493,-3.408 3.568,-18.594 4.468,-21.892 32.986,62.221 83.536,82.553 132.639,103.221 47.369,19.939 96.238,40.528 127.612,93.314 2.356,-6.786 5.231,-13.679 6.812,-17.348 -39.125,-62.31 -80.99,-82.371 -126.458,-102.824 z" style="fill:#ffffff" id="path23"/><path d="m 369.033,130.248 c -0.361,-9.612 -4.992,-17.615 -12.495,-19.995 -1.41,-0.448 -2.85,-0.673 -4.297,-0.694 -6.274,-0.092 -12.688,3.658 -17.421,9.888 4.219,-2.927 8.978,-4.559 13.755,-4.562 -2.289,0.67 -4.106,2.615 -4.477,5.132 -0.457,3.434 1.91,6.613 5.348,7.107 3.453,0.484 6.608,-1.903 7.117,-5.325 0.368,-2.634 -0.941,-5.094 -3.113,-6.334 0.447,0.109 0.895,0.232 1.341,0.374 6.743,2.108 11.712,7.505 14.242,14.409 z" style="fill:#00210d" id="path25"/><path d="m 146.388,631.275 h 6.608 l 4.526,-9.865 h 17.397 l 4.261,9.865 h 6.716 l -19.4,-43.222 z m 13.688,-15.61 6.313,-13.824 6.028,13.824 z" style="fill:#ffffff" id="path27"/><path d="m 216.203,591.826 c -2.368,-0.806 -5.601,-1.209 -9.691,-1.209 h -8.53 v 40.658 h 8.425 c 4.125,0 7.315,-0.375 9.559,-1.13 2.404,-0.759 4.703,-2.095 6.9,-4.028 4.363,-3.855 6.553,-8.912 6.553,-15.161 0,-6.227 -2.099,-11.267 -6.291,-15.097 -2.074,-1.9 -4.384,-3.238 -6.925,-4.033 z m 2.486,29.91 c -1.478,1.341 -3.134,2.315 -4.966,2.932 -1.829,0.578 -4.131,0.87 -6.895,0.87 h -2.771 v -29.174 h 2.771 c 5.251,0 9.22,1.236 11.916,3.718 2.989,2.781 4.489,6.411 4.489,10.875 0,4.428 -1.518,8.022 -4.544,10.779 z" style="fill:#ffffff" id="path29"/><path d="m 263.48,589.835 c -5.86,0 -10.88,2.055 -15.052,6.164 -4.191,4.11 -6.292,9.036 -6.292,14.758 0,6.514 2.301,11.778 6.896,15.798 4.176,3.628 8.885,5.447 14.134,5.447 5.929,0 10.988,-2.047 15.182,-6.137 4.177,-4.073 6.261,-9.024 6.261,-14.871 0,-5.815 -2.076,-10.794 -6.232,-14.939 -4.14,-4.147 -9.109,-6.22 -14.897,-6.22 z m 10.551,32.001 c -2.931,2.949 -6.526,4.424 -10.787,4.424 -3.928,0 -7.396,-1.449 -10.394,-4.347 -3.018,-2.897 -4.526,-6.592 -4.526,-11.094 0,-4.284 1.455,-7.888 4.368,-10.81 2.911,-2.955 6.481,-4.432 10.711,-4.432 4.245,0 7.801,1.477 10.681,4.432 2.892,2.941 4.341,6.586 4.341,10.922 -0.001,4.282 -1.465,7.918 -4.394,10.905 z" style="fill:#ffffff" id="path31"/><path d="m 341.211,591.826 c -2.373,-0.806 -5.604,-1.209 -9.69,-1.209 h -8.533 v 40.658 h 8.425 c 4.124,0 7.313,-0.375 9.557,-1.13 2.404,-0.759 4.706,-2.095 6.899,-4.028 4.374,-3.855 6.557,-8.912 6.557,-15.161 0,-6.227 -2.097,-11.267 -6.292,-15.097 -2.071,-1.9 -4.38,-3.238 -6.923,-4.033 z m 2.481,29.91 c -1.471,1.341 -3.134,2.315 -4.96,2.932 -1.834,0.578 -4.131,0.87 -6.895,0.87 h -2.771 v -29.174 h 2.771 c 5.248,0 9.216,1.236 11.913,3.718 2.992,2.781 4.489,6.411 4.489,10.875 0.001,4.428 -1.514,8.022 -4.547,10.779 z" style="fill:#ffffff" id="path33"/><polygon points="391.522,596.364 391.522,590.617 369.156,590.617 369.156,631.275 391.522,631.275 391.522,625.538 375.23,625.538 375.23,611.932 391.046,611.932 391.046,606.188 375.23,606.188 375.23,596.364 " style="fill:#ffffff" id="polygon35"/><polygon points="406.652,587.827 406.652,631.275 412.73,631.275 412.73,602.814 442.384,633.731 442.384,590.617 436.306,590.617 436.306,618.88 " style="fill:#ffffff" id="polygon37"/><polygon points="512.657,631.275 512.657,590.617 506.583,590.617 506.583,606.529 488.91,606.529 488.91,590.617 482.836,590.617 482.836,631.275 488.91,631.275 488.91,612.268 506.583,612.268 506.583,631.275 " style="fill:#ffffff" id="polygon39"/><path d="m 524.758,631.275 h 6.611 l 4.52,-9.865 h 17.4 l 4.263,9.865 h 6.715 l -19.4,-43.222 z m 13.69,-15.61 6.313,-13.824 6.028,13.824 z" style="fill:#ffffff" id="path41"/><path d="m 571.715,631.275 h 6.605 l 4.526,-9.865 h 17.393 l 4.265,9.865 h 6.714 l -19.4,-43.222 z m 13.682,-15.61 6.315,-13.824 6.026,13.824 z" style="fill:#ffffff" id="path43"/><path d="m 642.352,610.149 v 5.74 h 10.132 c -0.283,2.86 -1.618,5.32 -4.023,7.372 -2.404,2.036 -5.122,3.052 -8.134,3.052 -3.547,0 -6.837,-1.361 -9.868,-4.088 -3.254,-2.934 -4.868,-6.667 -4.868,-11.207 0,-4.395 1.454,-8.053 4.366,-10.977 2.908,-2.973 6.514,-4.463 10.819,-4.463 4.787,0 8.846,2.226 12.179,6.671 l 4.371,-4.191 c -2.542,-2.905 -5.132,-5.001 -7.761,-6.292 -2.756,-1.283 -5.722,-1.931 -8.9,-1.931 -5.909,0 -10.93,2.063 -15.052,6.19 -4.108,4.115 -6.158,9.125 -6.158,15.023 0,5.774 2.018,10.726 6.052,14.851 4.053,4.104 8.924,6.158 14.607,6.158 5.827,0 10.621,-2.123 14.395,-6.367 1.667,-1.894 2.856,-3.923 3.555,-6.1 0.716,-2.349 1.08,-5.053 1.08,-8.102 v -1.34 h -16.792 z" style="fill:#ffffff" id="path45"/><polygon points="366.625,882.742 366.625,852.615 359.394,852.615 356.898,856.893 362.104,856.893 362.104,882.742 " style="fill:#ffffff" id="polygon47"/><path d="m 384.92,852.13 c -2.763,0 -5.135,0.989 -7.119,2.958 -1.973,1.955 -2.955,4.317 -2.955,7.077 0,2.591 0.884,4.81 2.663,6.65 1.783,1.853 3.896,2.778 6.333,2.778 0.173,0 0.392,-0.009 0.667,-0.034 0.274,-0.028 0.608,-0.067 0.997,-0.121 l -7.219,9.844 3.347,2.483 10.546,-14.266 c 1.982,-2.717 2.973,-5.243 2.973,-7.584 0,-2.634 -1.018,-4.924 -3.052,-6.861 -2.037,-1.945 -4.427,-2.924 -7.181,-2.924 z m 4.098,13.83 c -1.107,1.103 -2.447,1.657 -4.021,1.657 -1.573,0 -2.917,-0.556 -4.035,-1.677 -1.103,-1.106 -1.657,-2.47 -1.657,-4.097 0,-1.519 0.557,-2.839 1.675,-3.958 1.109,-1.103 2.441,-1.657 4.001,-1.657 1.583,0 2.929,0.554 4.037,1.657 1.114,1.118 1.675,2.461 1.675,4.037 0,1.575 -0.561,2.918 -1.675,4.038 z" style="fill:#ffffff" id="path49"/><path d="m 409.654,852.13 c -2.853,0 -5.278,1.298 -7.28,3.881 -2.236,2.859 -3.356,6.687 -3.356,11.48 0,5.043 1.12,8.994 3.356,11.853 2.031,2.586 4.46,3.88 7.298,3.88 2.836,0 5.256,-1.293 7.259,-3.88 2.239,-2.859 3.359,-6.743 3.359,-11.658 0,-4.923 -1.12,-8.816 -3.359,-11.675 -2.002,-2.583 -4.427,-3.881 -7.277,-3.881 z m 4.42,23.682 c -1.17,2.169 -2.646,3.255 -4.434,3.255 -1.792,0 -3.268,-1.086 -4.427,-3.255 -1.157,-2.207 -1.738,-4.983 -1.738,-8.324 0,-3.208 0.585,-5.881 1.756,-8.026 1.17,-2.158 2.642,-3.233 4.409,-3.233 1.787,0 3.263,1.075 4.434,3.233 1.172,2.17 1.753,4.9 1.753,8.186 0,3.288 -0.581,6.01 -1.753,8.164 z" style="fill:#ffffff" id="path51"/><path d="m 440.59,864.74 c -1.88,-1.977 -4.284,-2.967 -7.206,-2.967 -0.175,0 -0.356,0.008 -0.56,0.018 -0.2,0.015 -0.412,0.031 -0.633,0.06 l 1.483,-4.959 h 9.313 v -4.278 h -12.476 l -4.736,15.809 h 1.499 c 1.483,-1.781 3.245,-2.676 5.288,-2.676 1.835,0 3.359,0.633 4.583,1.895 1.223,1.226 1.833,2.799 1.833,4.727 0,1.877 -0.618,3.468 -1.851,4.784 -1.238,1.277 -2.766,1.915 -4.586,1.915 -1.392,0 -2.567,-0.325 -3.531,-0.979 -0.959,-0.662 -1.916,-1.797 -2.868,-3.416 l -3.434,2.91 c 2.301,3.762 5.448,5.642 9.443,5.642 3.238,0 5.929,-1.028 8.072,-3.083 2.145,-2.06 3.213,-4.671 3.213,-7.845 0.002,-3.074 -0.945,-5.59 -2.846,-7.557 z" style="fill:#ffffff" id="path53"/><path d="m 486.917,747.449 c -5.614,5.354 -11.332,8.063 -17.109,7.774 -8.295,-0.473 -14.624,-6.093 -18.672,-11.131 -6.152,10.773 -13.606,17.157 -22.132,18.831 -12.866,2.476 -24.14,-5.077 -28.796,-8.83 -3.85,1.47 -14.297,6.342 -17.554,15.832 -2.12,6.207 -0.754,13.592 4.055,21.962 0,0 2.115,3.28 2.468,3.844 9.014,1.483 73.934,10.801 94.264,-23.778 0,0 1.064,-1.82 1.217,-2.061 1.741,-7.222 2.453,-14.781 2.259,-22.443 z" style="fill:#914a00" id="path55"/><path d="m 379.99,795.829 c -5.965,-10.394 -7.534,-19.933 -4.624,-28.448 4.715,-13.695 19.09,-19.515 23.116,-20.923 0.554,-4.481 0.748,-12.346 -2.977,-18.807 -0.617,-1.065 -1.325,-2.088 -2.141,-2.983 -4.968,-5.71 -13.609,-8.169 -25.607,-7.28 -5.875,7.183 -46.318,58.633 -26.547,93.535 0,0 0.691,1.256 0.825,1.501 5.295,4.958 11.25,9.211 17.665,12.721 -1.79,-7.45 -1.229,-13.727 1.934,-18.566 4.432,-6.8 12.253,-9.473 18.563,-10.512 -0.116,-0.137 -0.176,-0.238 -0.207,-0.238 z" style="fill:#914a00" id="path57"/><path d="m 386.52,803.094 c -1.63,0.03 -13.72,0.479 -18.4,7.713 -2.766,4.254 -2.443,10.533 0.928,18.71 24.79,9.958 52.118,8.051 75.064,-5.157 13.911,-8.035 25.079,-19.729 32.634,-33.917 -31.242,23.363 -87.062,13.281 -90.226,12.651 z" style="fill:#914a00" id="path59"/><path d="m 362.694,711.429 c 0.423,-0.753 6.635,-11.828 2.56,-19.837 l -0.282,-0.482 c -1.435,-2.495 -3.902,-4.447 -7.349,-5.87 l -10.925,10.452 c 0,0 0.609,-6.142 2.329,-12.644 -0.623,-0.088 -1.259,-0.17 -1.913,-0.241 -32.766,26.376 -41.687,73.583 -20.642,110.007 0.603,1.058 1.313,2.19 2.127,3.39 -4.772,-38.592 31.89,-82.2 34.095,-84.775 z" style="fill:#914a00" id="path61"/><path d="m 371.665,687.261 c 0,0 0.461,0.843 0.461,0.873 3.794,7.412 2.043,15.719 -0.328,21.82 12.521,-0.081 21.741,3.158 27.394,9.651 1.144,1.299 2.157,2.705 3.014,4.183 5.168,8.999 4.628,19.283 3.773,24.989 3.744,2.794 12.486,8.328 21.57,6.571 7.401,-1.448 13.829,-7.712 19.117,-18.583 -1.352,-3.52 -5.58,-14.209 -12.534,-26.222 -7.017,-12.149 -16.84,-25.724 -29.18,-34.425 l -14.179,12.152 -15.39,19.026 c 0,0 -1.866,-18.671 2.798,-24.592 2.071,-2.645 8.138,-7.935 14.382,-13.158 -0.717,-0.259 -1.441,-0.499 -2.173,-0.72 -11.061,3.614 -21.891,7.201 -24.055,8.078 l -2.925,2.799 c 3.671,1.934 6.454,4.44 8.255,7.558 z" style="fill:#914a00" id="path63"/><path d="m 440.902,706.69 c 8.352,14.487 12.871,27.056 13.459,28.701 0.462,0.753 7.005,11.646 15.857,12.132 5.135,0.244 10.48,-3.265 15.914,-10.439 -1.557,-10.814 -5.082,-21.067 -10.472,-30.401 -12.776,-22.099 -33.926,-36.805 -58.077,-41.391 l -6.677,5.722 c 13.094,9.731 23.188,23.907 29.996,35.676 z" style="fill:#914a00" id="path65"/></g></svg>