<?xml version="1.0" encoding="UTF-8"?>
<!-- Generator: Adobe Illustrator 13.0.0, SVG Export Plug-In . SVG Version: 6.00 Build 14948)  -->
<!DOCTYPE svg PUBLIC "-//W3C//DTD SVG 1.1//EN" "http://www.w3.org/Graphics/SVG/1.1/DTD/svg11.dtd">
<svg version="1.1" id="Layer_1" xmlns="http://www.w3.org/2000/svg" xmlns:xlink="http://www.w3.org/1999/xlink" x="0px" y="0px" width="306px" height="308px" viewBox="0 0 306 308" enable-background="new 0 0 306 308" xml:space="preserve">
<path fill="#FFFFFF" d="M153.379,304.378c82.843,0,149.999-67.159,149.999-150c0-82.84-67.156-150-149.999-150  c-82.842,0-150.001,67.16-150.001,150C3.377,237.219,70.537,304.378,153.379,304.378L153.379,304.378L153.379,304.378z"/>
<path fill="#D2122E" d="M277.569,179.492c0.83-4.134,1.457-8.297,1.87-12.466c0.407-4.11,0.616-8.328,0.616-12.648  c0-34.98-14.179-66.648-37.103-89.574c-22.925-22.921-54.594-37.102-89.574-37.102c-0.503,0-1.017,0.003-1.54,0.008l-0.058-4.935  c0.522-0.007,1.055-0.011,1.598-0.011c36.343,0,69.245,14.733,93.063,38.551c23.818,23.818,38.551,56.72,38.551,93.063  c0,4.381-0.222,8.762-0.654,13.131c-0.439,4.429-1.086,8.751-1.931,12.946L277.569,179.492L277.569,179.492L277.569,179.492z"/>
<path fill="#D2122E" d="M273.046,178.598c0.797-3.954,1.402-7.966,1.803-12.022c0.396-3.999,0.602-8.066,0.602-12.197  c0-33.707-13.665-64.225-35.757-86.316c-22.088-22.089-52.606-35.754-86.314-35.754c-0.273,0-0.546,0.002-0.822,0.003  c-0.268,0.003-0.539,0.003-0.817,0.01l-0.014-1.234c0.27-0.004,0.549-0.007,0.827-0.009c0.274-0.001,0.55-0.002,0.826-0.002  c34.048,0,64.876,13.802,87.188,36.116c22.314,22.312,36.117,53.139,36.117,87.187c0,4.146-0.207,8.255-0.611,12.315  c-0.409,4.125-1.019,8.179-1.817,12.146L273.046,178.598L273.046,178.598L273.046,178.598z"/>
<path fill="#D2122E" d="M285.692,181.236c0.885-4.386,1.558-8.833,2.006-13.332c0.44-4.436,0.667-8.948,0.667-13.526  c0-37.274-15.109-71.02-39.537-95.449c-24.427-24.427-58.174-39.535-95.449-39.535c-0.273,0-0.546,0.001-0.822,0.001  c-0.268,0.001-0.541,0.005-0.817,0.007l-0.015-1.233c0.271-0.004,0.548-0.005,0.828-0.008c0.274,0,0.55-0.004,0.826-0.004  c37.615,0,71.67,15.25,96.323,39.9c24.649,24.651,39.896,58.705,39.896,96.32c0,4.593-0.229,9.147-0.675,13.646  c-0.455,4.567-1.134,9.055-2.021,13.453L285.692,181.236L285.692,181.236L285.692,181.236z"/>
<path fill="#D2122E" d="M26.904,147.235c-0.071,1.253-0.121,2.441-0.153,3.568c-0.033,1.208-0.049,2.402-0.049,3.575  c0,34.981,14.179,66.651,37.101,89.574c22.926,22.921,54.595,37.104,89.576,37.104c3.072,0,6.179-0.117,9.309-0.346  c3.186-0.232,6.257-0.563,9.217-0.998l0.712,4.88c-3.238,0.472-6.435,0.83-9.581,1.055c-3.132,0.229-6.352,0.344-9.656,0.344  c-36.342,0-69.248-14.732-93.065-38.55c-23.817-23.819-38.549-56.721-38.549-93.063c0-1.263,0.019-2.501,0.05-3.711  c0.038-1.304,0.088-2.54,0.151-3.7L26.904,147.235L26.904,147.235L26.904,147.235z"/>
<path fill="#D2122E" d="M31.484,147.756c-0.059,1.114-0.103,2.214-0.132,3.302c-0.029,1.107-0.044,2.216-0.044,3.32  c0,33.707,13.664,64.225,35.754,86.316c22.09,22.09,52.608,35.752,86.317,35.752c3.028,0,6.051-0.111,9.051-0.331  c3.043-0.223,6.034-0.554,8.969-0.989l0.179,1.222c-3.008,0.444-6.028,0.78-9.06,1.002c-3.002,0.219-6.052,0.333-9.139,0.333  c-34.049,0-64.876-13.804-87.19-36.118c-22.314-22.311-36.115-53.138-36.115-87.187c0-1.124,0.014-2.24,0.044-3.348  c0.028-1.133,0.074-2.247,0.132-3.337L31.484,147.756L31.484,147.756L31.484,147.756z"/>
<path fill="#D2122E" d="M18.618,146.524c-0.075,1.318-0.132,2.628-0.169,3.925c-0.037,1.309-0.056,2.62-0.056,3.929  c0,37.274,15.109,71.021,39.536,95.449c24.428,24.425,58.175,39.536,95.45,39.536c3.288,0,6.564-0.122,9.821-0.354  c3.304-0.237,6.549-0.591,9.735-1.052l0.172,1.218c-3.262,0.474-6.538,0.834-9.819,1.069c-3.257,0.23-6.563,0.354-9.909,0.354  c-37.616,0-71.671-15.248-96.322-39.9c-24.65-24.651-39.899-58.703-39.899-96.319c0-1.333,0.02-2.653,0.057-3.963  c0.039-1.34,0.095-2.661,0.17-3.958L18.618,146.524L18.618,146.524L18.618,146.524z"/>
<path fill-rule="evenodd" clip-rule="evenodd" d="M188.269,280.24l-3.207,0.847l0.193-5.464L188.269,280.24L188.269,280.24  L188.269,280.24z M185.902,272.126l-3.012,0.792l-0.77,14.129l2.75-0.728l0.101-2.781l4.658-1.227l1.536,2.352l2.796-0.737  L185.902,272.126L185.902,272.126L185.902,272.126z"/>
<polygon fill-rule="evenodd" clip-rule="evenodd" points="203.701,265.763 205.86,264.865 211.036,277.293 208.559,278.327   205.324,270.561 204.266,275.58 203.888,275.737 199.578,272.952 202.813,280.719 200.335,281.75 195.157,269.319 197.314,268.42   202.429,271.702 203.701,265.763 203.701,265.763 "/>
<path fill-rule="evenodd" clip-rule="evenodd" d="M219.249,261.475c-1.79,0.028-2.765,0.2-3.56,0.658  c-0.834,0.479-1.152,1.165-0.817,1.745c1.015,1.762,5.479-1.467,7.823,2.608c1.289,2.24,0.53,4.409-1.55,5.604  c-1.628,0.937-2.741,0.871-4.02,0.809l-1.446-2.516c1.982,0.338,3.03,0.26,4.056-0.327c0.893-0.516,1.143-1.182,0.75-1.867  c-1.103-1.917-5.45,1.516-7.862-2.674c-1.159-2.021-0.532-4.159,1.631-5.402c1.04-0.602,2.143-0.869,3.685-0.914L219.249,261.475  L219.249,261.475L219.249,261.475z"/>
<polygon fill-rule="evenodd" clip-rule="evenodd" points="231.87,251.346 228.738,253.674 235.298,262.503 233.143,264.103   226.584,255.277 223.452,257.601 221.979,255.621 230.398,249.368 231.87,251.346 231.87,251.346 "/>
<polygon fill-rule="evenodd" clip-rule="evenodd" points="249.497,250.159 243.723,255.619 234.472,245.834 240.163,240.451   241.86,242.245 238.119,245.78 240.059,247.832 243.628,244.459 245.323,246.251 241.754,249.628 243.979,251.979 247.8,248.364   249.497,250.159 249.497,250.159 "/>
<path fill-rule="evenodd" clip-rule="evenodd" d="M247.842,235.681l0.874-1.044c0.649-0.773,1.377-0.843,2.148-0.193  c0.878,0.735,0.713,1.543,0.236,2.113l-0.914,1.09L247.842,235.681L247.842,235.681L247.842,235.681z M244.226,236.151l10.315,8.655  l1.727-2.058l-4.189-3.518l0.496-0.592c0.936-1.112,3.19,0.223,6.14,1.193l1.899-2.264c-4.001-1.375-5.483-2.19-6.723-1.786  c0.246-1.398-0.205-2.583-1.339-3.536c-1.543-1.292-3.809-1.48-5.229,0.211L244.226,236.151L244.226,236.151L244.226,236.151z"/>
<path fill-rule="evenodd" clip-rule="evenodd" d="M256.754,224.015l0.934-1.448c1.379-2.139,3.561-1.914,5.502-0.66  c1.658,1.068,3.146,2.987,1.682,5.259l-0.95,1.472L256.754,224.015L256.754,224.015L256.754,224.015z M253.225,224.933l11.315,7.3  l2.414-3.742c2.329-3.611,1.003-6.802-2.249-8.898c-3.101-2.002-6.771-1.96-8.904,1.344L253.225,224.933L253.225,224.933  L253.225,224.933z"/>
<path fill-rule="evenodd" clip-rule="evenodd" d="M271.797,209.494l-1.437,2.987l-4.032-3.689L271.797,209.494L271.797,209.494  L271.797,209.494z M264.085,206.029l-1.348,2.805l10.252,9.752l1.232-2.564l-2.054-1.88l2.088-4.344l2.787,0.359l1.252-2.605  L264.085,206.029L264.085,206.029L264.085,206.029z"/>
<polygon fill-rule="evenodd" clip-rule="evenodd" points="270.791,188.339 271.506,186.112 284.326,190.233 283.506,192.789   275.497,190.219 278.63,194.276 278.503,194.668 273.593,196.14 281.601,198.714 280.779,201.271 267.959,197.151 268.674,194.924   274.488,193.162 270.791,188.339 270.791,188.339 "/>
<path fill-rule="evenodd" clip-rule="evenodd" d="M21.514,117.643l14.34-1.241l-2.75,10.094L21.514,117.643L21.514,117.643  L21.514,117.643z M44.181,135.106l-5.888-4.544l4.014-14.735l7.299-0.638l2.472-9.068l-37.797,4.014l-2.689,9.873l30.108,24.216  L44.181,135.106L44.181,135.106L44.181,135.106z"/>
<path fill-rule="evenodd" clip-rule="evenodd" d="M60.223,100.545c1.197-1.812,1.663-3.263,1.403-4.355  c-0.262-1.092-1.563-2.465-3.905-4.119L31.762,73.712l5.126-7.251l26.209,18.531c4.059,2.873,6.421,5.567,7.085,8.084  c0.663,2.52-0.152,5.5-2.446,8.95L60.223,100.545L60.223,100.545L60.223,100.545z"/>
<path fill-rule="evenodd" clip-rule="evenodd" d="M72.524,43.853l12.02,7.932L76.15,57.99L72.524,43.853L72.524,43.853  L72.524,43.853z M79.517,71.601l-1.827-7.236l12.255-9.057l6.135,4.052l7.54-5.574L71.509,33.511l-8.211,6.069l8.623,37.633  L79.517,71.601L79.517,71.601L79.517,71.601z"/>
<polygon fill-rule="evenodd" clip-rule="evenodd" points="108.998,51.114 119.533,29.94 102.087,16.37 112.955,13.93   123.477,22.205 129.501,10.216 140.318,7.786 130.229,27.434 149.336,42.057 138.223,44.55 126.428,35.345 119.757,48.699   108.998,51.114 108.998,51.114 "/>
<path d="M62.567,209.761c0.044-0.009,15.332-3.662,49.327,11.219c0.569,0.203,6.68,2.352,11.134,2.987  c-0.096-0.294-0.438-0.839-1.423-1.822c-0.871-0.874-1.744-1.745,0-3.489c1.746-1.744,2.619-0.874,3.49,0  c7.102,7.1-0.124,10.158-0.144,10.17l-1.187,0.212c-5.204-0.432-13.57-3.439-13.594-3.444l-0.145-0.059  c-32.573-14.276-46.377-10.959-46.417-10.954c-1.206,0.268-2.412,0.53-2.932-1.879C60.157,210.289,61.362,210.026,62.567,209.761  L62.567,209.761L62.567,209.761z M135.357,156.044c-1.055,0.929-3.83,3.612-4.22,6.479l-0.171,1.249l-1.102,0.588  c-0.015,0.01-5.292,2.869-11.868,3.966c-1.217,0.199-2.434,0.404-2.839-2.027c-0.404-2.426,0.812-2.629,2.028-2.834  c4.168-0.694,7.713-2.18,9.359-2.953c0.956-3.384,3.56-6.248,5.069-7.689l-2.26-14.316l3.875-2.373l13.436,9.772  c0.978,0.541,1.342,1.074,1.395,1.6c0.073,0.454-0.073,1.021-0.591,1.781c-3.333,6.434-1.48,7.492-1.475,7.496l0.337,0.241  c3.325,2.813,4.314,7.517,4.314,7.529l0.021,0.095c2.215,12.689-1.738,17.442-2.727,18.408c-2.012,2.48-5.151,9.851-5.757,11.292  c-1.577,8.003-9.256,8.215-10.87,8.171c-6.756,1.342-9.189,2.73-9.196,2.735l-0.242,0.124c-6.834,3.014-12.011,1.178-13.49,0.515  c-5.877-1.253-7.817-4.021-7.822-4.028l-0.299-0.579c-2.059-5.659-5.236-6.718-5.246-6.722l-0.8-0.444  c-9.003-7.458-2.685-15.883-2.667-15.909l0.231-0.277c0.517-0.518,1.797-2.352,2.988-4.115c-0.713-0.192-1.242-0.752-1.242-2.368  c0-2.468,1.234-2.468,2.467-2.468l0,0h2.178c0.416-0.28,0.953-0.354,1.74,0h3.281c1.233,0,2.469,0,2.469,2.468  c0,2.467-1.236,2.467-2.469,2.467h-2.581c-1.317,2.002-4.045,6.088-5.199,7.354c-0.507,0.771-2.844,4.868,1.703,8.842  c1.424,0.68,5.27,2.996,7.613,9.067c0.372,0.356,1.604,1.274,4.911,1.935l0.724,0.271c0.01,0.005,3.649,2.063,9.496-0.507  c0.831-0.421,4.161-1.962,10.843-3.26l0.617-0.05c0.014,0,5.213,0.432,6.055-4.331l0.153-0.51c0.013-0.029,4.065-9.838,6.781-13.006  l0.328-0.327c0.007-0.006,3.172-2.396,1.174-13.87c-0.111-0.474-0.816-3.18-2.662-4.742l0.021,0.017  c-1.069-0.849-4.29-4.207-0.922-12.01l-7.11-5.169l1.453,9.196c0.518,0.864,0.463,1.456,0.161,1.931  C136.653,155.296,136.299,155.764,135.357,156.044L135.357,156.044z M198.423,247.059L198.423,247.059v0.006v0.005  c0.005,0.165,0.069,1.851,0.201,1.729l0.059-0.045c0.011-0.01,3.975-3.276,5.518-18.115l0.048-0.302  c0.011-0.04,3.373-14.976,14.94-0.669c0.759,0.774,7.439,7.45,7.806,1.755c-0.796-2.382-4.517-13.517-5.282-15.671  c-0.773-1.347-5.379-10.308,8.962-10.573h0.174c0.026,0,8.959,0.427,18.392,3.854c1.157,0.422,2.318,0.843,1.48,3.157  c-0.839,2.314-2,1.895-3.157,1.472c-8.248-2.996-16.159-3.501-16.925-3.545c-6.591,0.157-4.605,3.232-4.6,3.238l0.191,0.426  c0.696,1.857,5.567,16.49,5.582,16.53l0.136,0.82c-0.304,18.796-16.331,1.92-16.379,1.874l-0.145-0.162  c-4.786-5.959-6.146-2.209-6.348-1.514c-1.771,16.674-7.196,21.168-7.215,21.181l0.061-0.046c-6.622,5.959-8.054-1.334-8.357-4.195  c-0.073-0.328-0.078-0.689-0.078-1.052v-0.006c-0.011-0.272-0.019-0.541,0-0.801v-12.848c0-10.299-3.962-7.103-4.58-6.543  c-14.023,15.447-21.851,40.13-21.872,40.2c-0.379,1.176-0.754,2.35-3.098,1.598c-2.342-0.751-1.964-1.926-1.589-3.1l0,0  c0.024-0.075,8.182-25.811,22.938-42.043l0.106-0.107c0.038-0.033,12.861-12.824,13.024,9.567c0.006,0.141,0.006,0.283,0.006,0.428  v0.059v0.057v0.059V247.059L198.423,247.059z M198.423,247.059L198.423,247.059L198.423,247.059z M188.858,227.064  c-0.021,0.021-0.032,0.034-0.032,0.034L188.858,227.064L188.858,227.064L188.858,227.064z M209.049,231.427c0,0.007,0,0.011,0,0.011  V231.427L209.049,231.427L209.049,231.427z M109.56,125.568c-0.008,0.009-3.011,3.387-1.515,3.509  c1.49-0.147,10.368-0.722,10.368,6.585v-0.201c0.002,0.023,0.977,9.207-9.03,6.705l-0.819-0.368c-0.002,0-0.708-0.512-0.475,4.881  c0.034,0.249,0.039,0.511,0.04,0.775l0.001,0.011c0.018,0.346,0.037,0.691,0,1.012v8.543c1.879,2.457,6.749,9.999-4.371,9.931  c-0.347,0.059-0.725,0.022-1.107-0.029c-0.441-0.02-0.88-0.04-1.258-0.173l-4.903-0.679c-1.222-0.164-2.445-0.335-2.117-2.773  c0.328-2.441,1.55-2.271,2.772-2.103l5.768,0.793c2.167,0.09,1.821-1.071,1.365-1.839c-0.731-0.267-0.971-0.782-1.048-1.377  c-0.34-0.52-0.488-1.088-0.037-1.812v-9.245c-0.772-14.164,5.896-11.304,7.741-10.252c2.781,0.534,2.543-1.592,2.543-1.598v-0.202  c0-2.319-5.034-1.667-5.049-1.665l-0.299,0.018c-12.703,0-2.282-11.674-2.252-11.707c0.818-0.923,1.638-1.846,3.478-0.217  C111.198,123.721,110.378,124.646,109.56,125.568L109.56,125.568L109.56,125.568z M95.231,123.363  c-0.012-0.011-4.147-4.352-4.733-5.523c-0.191-0.378-0.326-0.712-0.423-0.997c-1.2-1.766-5.686-9.499,8.825-8.104l0.474,0.086  c0.11,0.033,38.013,10.864,97.082,69.312l-0.02-0.019c0.023,0.023,8.586,8.268-3.079,11.738l-0.194,0.047  c-0.013,0.004-4.938,0.933-4.508,6.09c1.3,1.864,3.623,6.828-6.08,9.314l-0.202,0.037c-0.017,0.004-6.293,0.991-9.03,2.269  l-0.618,0.203c-0.021,0.004-7.217,1.4-6.388-11.028l0.126-0.607c0.003-0.015,1.647-4.945-0.849-8.223  c-0.735-0.962-1.855-1.199-2.854-1.409c-3.379-0.712-6.109-1.287-5.473-8.531c0-0.22,0.038-3.012,1.006-5.429  c0.457-1.143,0.916-2.289,3.199-1.375c2.285,0.918,1.828,2.064,1.369,3.207c-0.638,1.599-0.638,3.605-0.638,3.607l-0.022,0.232  c-0.292,3.075,0.536,3.251,1.56,3.469c1.849,0.387,3.93,0.83,5.766,3.241c3.547,4.653,2.16,10.819,1.731,12.382  c-0.293,4.657,0.273,5.45,0.514,5.579c3.254-1.348,8.729-2.271,9.655-2.421c3.889-1.013,3.069-1.867,3.065-1.871l-0.645-1.321  c-1.494-9.711,7.09-11.964,8.196-12.214c3.442-1.068,0.965-3.45,0.96-3.458l-0.021-0.018c-55.76-55.175-91.831-67.098-94.812-68.016  c-4.752-0.423-3.915,0.614-3.912,0.615l0.502,1.485c0,0.001,0-0.371,0.149-0.071c0.237,0.474,3.896,4.337,3.905,4.348  c0.846,0.898,1.692,1.797-0.102,3.486C96.921,125.159,96.077,124.26,95.231,123.363L95.231,123.363L95.231,123.363z M89.826,115.713  L89.826,115.713L89.826,115.713L89.826,115.713L89.826,115.713z M154.32,196.756c-0.008,0.031-2.967,11.235-5.813,16.053  l-0.134,0.203c-0.015,0.019-4.917,6.677,0.745,3.583l0.299-0.145c0.024-0.009,8.074-3.191,13.33-3.848  c1.224-0.152,2.448-0.306,2.748,2.145c0.298,2.446-0.927,2.6-2.149,2.753c-4.297,0.538-11.122,3.146-12.063,3.515  c-23.928,13.008-8.277-8.99-6.968-10.797c2.487-4.283,5.236-14.687,5.244-14.716c0.317-1.192,0.636-2.385,3.017-1.759  C154.956,194.37,154.637,195.563,154.32,196.756L154.32,196.756L154.32,196.756z M218.857,66.864  c5.695,1.569,29.285,10.144,29.285,44.528v-0.028c0.003,0.148,1.3,52.013-47.2,52.013h0.183c-0.064,0.004-22.26,2.002-33.301-23.708  l-0.079-0.222c-0.015-0.049-5.631-17.849-15.057-17.72l-0.55-0.057c-0.007-0.003-2.724-0.662-6.72,2.584  c-0.957,0.776-1.913,1.556-3.466-0.354c-1.552-1.909-0.595-2.688,0.363-3.465c5.002-4.064,9.35-3.81,10.542-3.642  c12.248,0.065,18.824,18.882,19.515,20.961c9.631,22.381,28.331,20.689,28.387,20.684h0.185c43.434,0,42.265-46.883,42.265-47.018  v-0.028c0-27.766-16.676-36.647-23.602-39.141v14.891c12.776,9.328,13.111,19.938,13.111,19.969c0.061,1.232,0.12,2.465-2.348,2.581  c-2.471,0.115-2.528-1.117-2.587-2.349l0,0c-0.002-0.025-0.258-8.55-11.499-16.526c-0.975-0.16-1.361-0.612-1.516-1.184  c-0.361-0.442-0.499-1.007-0.099-1.871V70.04c-0.078-0.327-0.086-0.746,0-1.285c0.006-0.755,0.064-1.481,0.752-1.896  c0.528-0.559,1.229-0.489,1.945-0.35C218.054,66.533,218.528,66.663,218.857,66.864L218.857,66.864z M172.424,137.918  c0.004,0.015,0.007,0.023,0.009,0.025L172.424,137.918L172.424,137.918L172.424,137.918z M99.341,135.701  c-0.021,0.031-7.11,11.785-7.848,13.628l-0.348,0.608c-0.005,0.007-2.015,2.563,0.572,3.049l0.646,0.213  c0.003,0.002,1.124,0.562,3.015,0.562c1.234,0,2.468,0,2.468,2.468c0,2.47-1.233,2.47-2.468,2.47c-2.333,0-4.146-0.636-4.869-0.934  c-9.09-1.882-4.494-9.116-3.438-10.604c1.359-2.924,8.026-13.972,8.047-14.005c0.636-1.055,1.272-2.114,3.383-0.842  C100.614,133.587,99.978,134.643,99.341,135.701L99.341,135.701L99.341,135.701z M90.17,157.614c-0.001,0-0.004,0-0.004,0H90.17  L90.17,157.614L90.17,157.614z M145.821,165.561l0.005,0.03C145.826,165.591,145.824,165.582,145.821,165.561L145.821,165.561  L145.821,165.561z M143.479,161.019l0.007,0.004C143.487,161.022,143.484,161.022,143.479,161.019L143.479,161.019L143.479,161.019z   M109.284,102.136c0.024,0,8.714,0.006,29.23-13.323l-0.077,0.048c0.07-0.048,24.234-17.107,43.509-17.268h0.088  c0.037,0.002,13.667,0.326,22.771,6.615c1.014,0.701,2.03,1.403,0.633,3.427c-1.398,2.025-2.413,1.323-3.428,0.623  c-7.681-5.306-19.499-5.709-20.088-5.725c-17.736,0.185-40.585,16.312-40.652,16.357l-0.077,0.049  c-21.747,14.129-31.824,14.133-31.854,14.133c-1.233,0.014-2.467,0.032-2.497-2.438C106.816,102.168,108.05,102.152,109.284,102.136  L109.284,102.136L109.284,102.136z M205.831,202.917c-0.017,0-5.924,0.448-5.968,5.701c0.022,0.375,0.388,4.373,5.758,4.373  l0.684,0.108c0.009,0.002,3.582,1.174,6.061-5.487c0.43-1.155,0.861-2.314,3.165-1.457c2.306,0.859,1.874,2.017,1.442,3.174  c-3.538,9.508-9.913,8.938-11.613,8.596c-10.158-0.15-10.435-9.139-10.435-9.164v-0.086c0-9.913,10.453-10.694,10.482-10.697  c1.23-0.108,2.459-0.22,2.671,2.249C208.29,202.694,207.06,202.808,205.831,202.917L205.831,202.917L205.831,202.917z   M113.471,239.359c0.043,0.008,14.826,2.358,16.647,22.159c0.112,1.229,0.225,2.456-2.223,2.677  c-2.449,0.224-2.562-1.007-2.674-2.235c-1.471-15.987-12.529-17.737-12.56-17.742c-1.216-0.207-2.433-0.413-2.027-2.844  C111.039,238.946,112.255,239.153,113.471,239.359L113.471,239.359L113.471,239.359z"/>
</svg>