<?xml version="1.0" encoding="UTF-8"?>
<!-- Generator: Adobe Illustrator 13.0.2, SVG Export Plug-In . SVG Version: 6.00 Build 14948)  -->
<!DOCTYPE svg PUBLIC "-//W3C//DTD SVG 1.0//EN" "http://www.w3.org/TR/2001/REC-SVG-20010904/DTD/svg10.dtd">
<svg version="1.0" id="Layer_1" xmlns="http://www.w3.org/2000/svg" xmlns:xlink="http://www.w3.org/1999/xlink" x="0px" y="0px" width="170.08px" height="83.314px" viewBox="0 0 170.08 83.314" enable-background="new 0 0 170.08 83.314" xml:space="preserve">
<g id="XMLID_1_">
	<g>
		<path fill="#DB0021" d="M162.719,21.36L10.139,66.03c-5.22-6.75-8.34-15.21-8.34-24.375c0-21.975,17.88-39.87,39.855-39.87h86.76    C142.994,1.785,155.759,9.66,162.719,21.36z"/>
	</g>
	<g>
	</g>
</g>
<path fill="#FFFFFF" d="M41.66,81.521h86.76c21.984,0,39.867-17.883,39.867-39.861c0-7.412-2.037-14.353-5.576-20.303L10.143,66.029  C17.443,75.443,28.851,81.521,41.66,81.521"/>
<path fill="#1A171B" d="M1.792,41.66C1.792,19.676,19.679,1.79,41.66,1.79h86.76c21.984,0,39.867,17.886,39.867,39.871  c0,21.978-17.883,39.861-39.867,39.861H41.66C19.679,81.521,1.792,63.638,1.792,41.66 M41.66,0C18.688,0,0,18.686,0,41.66  c0,22.964,18.688,41.654,41.66,41.654h86.76c22.975,0,41.66-18.689,41.66-41.654C170.08,18.686,151.395,0,128.42,0H41.66z"/>
<path fill="#1A171B" d="M100.783,34.255c-0.119,0.255-3.727,7.663-6.018,12.385C92.955,42.82,90,36.593,88.549,33.545h11.863  C101.064,33.545,100.904,33.998,100.783,34.255 M63.325,48.73c0.606-1.48,1.948-4.762,2.854-6.98c0.907,2.219,2.249,5.5,2.854,6.98  H63.325z M143.398,64.394c-0.006-0.012-5.229-11.028-5.229-11.028c-1.059-2.168-2.869-3.358-5.102-3.358l-6.457,0.002  c0,0-4.336,0.01-5.648,0.01c-0.441,0-0.633-0.345-0.471-0.684l1.689-3.584l4.24-8.958c0.568-1.173,0.768-2.278,0.768-3.253  c0-1.682-0.592-2.99-0.877-3.628c-0.053-0.108-7.295-14.651-7.295-14.651c-1.266-2.534-3.756-4.106-6.498-4.106H58.925  c-1.969,0-3.729,1.013-4.834,2.781c-0.045,0.08-24.917,50.744-24.917,50.744c0.003,0,0.003-0.005,0.003-0.007  c-1.21,2.41-0.495,4.23,0.04,5.102c1.094,1.779,3.007,2.416,4.438,2.416l7.053,0.002l7.06,0.004c3.844,0,5.289-2.684,6.05-4.101  c1.923-3.38,2.166-3.827,2.371-4.142c0.152-0.24,0.451-0.303,1.043-0.303h18.079c0.588,0,0.888,0.063,1.04,0.303  c0.207,0.314,0.448,0.762,2.375,4.142c0.76,1.417,2.206,4.101,6.054,4.101h53.76c1.848-0.033,3.463-0.947,4.447-2.51  C144,68.072,144.158,66.046,143.398,64.394"/>
<path fill="#FFFFFF" d="M71.589,50.53c-0.043,0.069-0.107,0.11-0.179,0.11H60.946c-0.07,0-0.133-0.041-0.176-0.105  c-0.053-0.081-0.06-0.182-0.029-0.274l5.232-13.27c0.04-0.097,0.117-0.157,0.205-0.157c0.087,0,0.166,0.06,0.202,0.157l5.235,13.27  C71.648,50.353,71.64,50.454,71.589,50.53 M68.053,36.333c-0.311-0.784-1.048-1.293-1.874-1.293c-0.829,0-1.562,0.51-1.872,1.293  l-5.232,13.271c-0.247,0.628-0.176,1.344,0.19,1.906c0.372,0.574,0.999,0.92,1.682,0.92H71.41c0.686,0,1.313-0.346,1.686-0.924  c0.365-0.559,0.434-1.27,0.189-1.896L68.053,36.333z M139.191,67.298c-0.17,0.271-0.41,0.41-0.711,0.416  c-0.813,0.013-16.24,0.013-45.859,0.002v-0.027c-0.896,0-1.479-0.775-1.689-1.111c-0.621-0.989-0.744-2.264-0.305-3.168  l5.092-10.512l0.029-0.018l-0.012-0.02l8.449-17.432c0.629-1.354,0.582-2.815-0.121-3.914c-0.629-0.993-1.699-1.559-2.93-1.559  H84.861l-6.8-14.321h34.458c1.035,0,1.975,0.604,2.459,1.571c2.35,4.682,6.881,13.726,7.209,14.464  c0.404,0.908,0.754,1.909,0.146,3.28c-0.779,1.756-5.293,11.245-5.785,12.24c-1.002,1.998-1.252,3.813-0.35,5.272  c0.662,1.074,1.879,2,3.344,2l13.525,0.027c0.402,0,0.691,0.053,1.059,0.815l5.197,10.964  C139.432,66.503,139.408,66.949,139.191,67.298 M85.711,31.752h15.424c0.615,0,1.119,0.255,1.418,0.724  c0.373,0.586,0.379,1.397,0.016,2.183l-7.814,16.125L85.711,31.752z M87.553,67.716l-2.773-0.002c-0.827,0-1.172,0-2.153-1.821  l-2.546-4.358c-0.923-1.482-2.707-2.363-4.77-2.363H57.231c-2.063,0-3.844,0.881-4.773,2.363l-2.542,4.358  c-0.981,1.821-1.324,1.821-2.148,1.821l-14.097-0.025c-0.258,0-0.548-0.119-0.634-0.264c-0.025-0.037-0.038-0.092-0.038-0.152  c0-0.145,0.06-0.349,0.177-0.572c0.84-1.657,23.783-48.478,24.761-50.47c0.322-0.508,0.76-0.595,0.988-0.595h17.152l17.673,37.22  l-4.74,9.773c-0.707,1.461-0.545,3.383,0.404,4.904c0.041,0.066,0.1,0.118,0.143,0.184H87.553z M140.953,65.519l-5.213-11.002  c-0.609-1.242-1.455-1.819-2.672-1.819l-13.525-0.024c-0.744,0-1.518-0.563-1.816-1.156c-0.49-0.965-0.287-2.101,0.428-3.525  c0.5-1.002,5.035-10.547,5.82-12.317c0.979-2.215,0.211-3.92-0.148-4.739c-0.432-0.954-6.965-13.976-7.242-14.53  c-0.791-1.582-2.35-2.561-4.064-2.561H58.925c-1.02,0-1.948,0.553-2.555,1.513c-0.282,0.571-23.96,48.888-24.794,50.528  c-0.595,1.172-0.364,1.994-0.067,2.479c0.504,0.825,1.481,1.114,2.159,1.114c0.012,0,14.1,0.025,14.1,0.025  c1.913,0,2.698-0.854,3.728-2.763l2.487-4.259c0.595-0.951,1.811-1.518,3.249-1.518h18.079c1.438,0,2.657,0.566,3.252,1.518  l2.484,4.259c1.033,1.909,1.816,2.763,3.732,2.763h2.773c32.941,0.015,50.09,0.015,50.959,0c0.906-0.014,1.705-0.471,2.197-1.25  C141.236,67.416,141.334,66.339,140.953,65.519"/>
</svg>