<?xml version="1.0" encoding="UTF-8"?>
<!-- Generator: Adobe Illustrator 13.0.2, SVG Export Plug-In . SVG Version: 6.00 Build 14948)  -->
<!DOCTYPE svg PUBLIC "-//W3C//DTD SVG 1.0//EN" "http://www.w3.org/TR/2001/REC-SVG-20010904/DTD/svg10.dtd">
<svg version="1.0" id="Ebene_1" xmlns="http://www.w3.org/2000/svg" xmlns:xlink="http://www.w3.org/1999/xlink" x="0px" y="0px" width="374.172px" height="374.173px" viewBox="0 0 374.172 374.173" enable-background="new 0 0 374.172 374.173" xml:space="preserve">
<path fill-rule="evenodd" clip-rule="evenodd" fill="#FFFFFF" d="M187.087,0c103.042,0,187.085,84.043,187.085,187.088  c0,103.042-84.043,187.085-187.085,187.085C84.042,374.173,0,290.13,0,187.088C0,84.043,84.042,0,187.087,0L187.087,0z"/>
<path fill-rule="evenodd" clip-rule="evenodd" fill="#A2DAF4" d="M188.06,33.149c39.854,0,76.302,15.066,103.937,39.797  c18.75,16.779,33.443,38.008,42.395,61.993c0.051,0.141,0.279,0.765,0.439,1.201c-11.961-0.106-24.219,1.851-36.383,5.817  c-4.346,1.417-8.596,3.076-12.77,4.924l-1.559-3.413c3.857-5.77,7.725-11.539,11.588-17.308c1.348-2.015,0.947-4.688-0.932-6.219  L280.4,108.229c1.82-5.268,3.643-10.535,5.463-15.805c0.42-1.215,0.316-2.563-0.281-3.701c-0.598-1.137-1.652-1.985-2.893-2.326  l-20.877-5.753c0.141-5.16,0.287-10.321,0.43-15.483c0.041-1.445-0.605-2.852-1.73-3.76c-1.123-0.91-2.635-1.25-4.037-0.908  l-17.621,4.275c-3.982-5.678-7.961-11.359-11.943-17.04c-0.787-1.122-2.02-1.84-3.385-1.97c-1.363-0.129-2.707,0.344-3.691,1.297  l-17.189,16.668c-4.516-10.954-10.297-21.569-18.354-30.355c-0.054-0.059-0.107-0.116-0.161-0.175  C185.36,33.173,187.206,33.149,188.06,33.149L188.06,33.149z M38.44,144.762c12.184-40.811,40.672-74.706,77.85-94.068  c13.721-7.146,29.431-12.805,44.883-15.27c4.986,11.658,8.781,25.486,8.869,35.882c0.015,1.925-0.116,3.817-0.399,5.715  l-23.833-4.962c-1.813-0.377-3.689,0.358-4.762,1.871l-11.597,16.354l-32.479,7.539c-5.626-4.414-11.38-8.822-17.942-11.789  c-1.701-0.77-3.693-0.452-5.074,0.808c-1.378,1.259-1.874,3.214-1.262,4.978c1.07,3.089,1.807,6.249,2.316,9.47l-9.294,2.21  c-2.218,0.527-3.757,2.646-3.574,4.917c0,0,1.726,21.466,1.726,21.468c0.113,1.406,0.846,2.672,2.009,3.472l22.15,15.237  c1.188,0.817,2.713,1.04,4.083,0.597c1.37-0.442,2.478-1.517,2.963-2.872c5.031-14.071,14.656-22.171,26.408-22.225  c13.648-0.062,26.111,11.199,32.451,22.256l-41.073,9.479l-1.451-6.314c-0.573-2.504-3.089-4.082-5.597-3.507  c-2.51,0.576-4.083,3.087-3.506,5.597c0,0,0.197,0.859,0.48,2.095l-12.49,3.06c-0.432-0.737-1.069-1.357-1.869-1.774  c-4.847-2.532-10.801-4.055-15.537-3.975c-8.644,0.146-15.75,4.363-23.486,9.444c-5.138,3.374-10.199,5.425-15.809,6.262  C34.715,159.277,36.288,151.972,38.44,144.762L38.44,144.762z"/>
<path fill-rule="evenodd" clip-rule="evenodd" fill="#008BD0" d="M210.352,34.752c54.59,7.863,100.197,44.152,121.266,93.296  c1.146,2.671,2.199,5.374,3.213,8.094c-2.85-0.025-5.713,0.066-8.592,0.274c-0.887-2.517-1.773-5.005-2.785-7.483  C304.021,81.338,261.732,45.351,210.352,34.752L210.352,34.752z"/>
<path fill-rule="evenodd" clip-rule="evenodd" fill="#008BD0" d="M34.04,195.845c1.207,0.162,2.424,0.256,3.649,0.273  c8.931,0.135,18.049-3.637,25.96-10.676c-0.46,1.693-0.772,3.43-0.941,5.174c-0.53,5.455,3.463,10.307,8.918,10.836  c5.449,0.529,10.308-3.475,10.837-8.92c0.292-3.014,1.715-5.161,3.539-6.693l3.08,13.453c0.8,3.49,3.42,6.281,6.854,7.299  c3.436,1.02,7.152,0.105,9.726-2.389c2.908-2.818,5.289-5.816,7.269-8.766c1.971,1.26,3.918,2.537,6.348,4.357  c2.386,1.791,5.451,2.412,8.347,1.693c2.895-0.719,5.313-2.701,6.584-5.4c2.864-6.078,7.564-11.347,12.895-14.458  c3.031-1.769,7.746-2.651,12.738-3.585c2.313-0.434,4.705-0.881,7.158-1.452c9.588-2.229,19.229-5.575,24.805-14.872  c3.031-5.052,4.35-11.108,4.867-17.133c1.072,0.744,2.164,1.514,3.275,2.304c2.248,1.595,5.059,2.183,7.758,1.623  c2.422-0.503,4.561-1.89,6.006-3.874c0.836,5.462-0.717,12.732-7.52,22.861c-6.361,9.472-13.865,18.141-21.807,27.318  c-7.887,9.111-16.041,18.533-23.154,28.979c-15.848,23.271-29.148,48.139-42.401,72.936l-3.241,6.063  c-2.245,4.193-4.425,8.395-6.557,12.566c-40.575-24.51-69.187-66.963-74.67-116.234C34.244,198.077,34.136,196.903,34.04,195.845  L34.04,195.845z"/>
<path fill-rule="evenodd" clip-rule="evenodd" d="M74.158,214.796c-23.258,0-42.18,18.922-42.18,42.18s18.922,42.18,42.18,42.18  c23.259,0,42.18-18.922,42.18-42.18S97.417,214.796,74.158,214.796L74.158,214.796z"/>
<path fill-rule="evenodd" clip-rule="evenodd" d="M68.015,161.136c-3.97,1.166-8.104,3.591-13.486,7.125  c-8.731,5.734-17.521,8.35-27.663,8.231l-1.07-0.013l0.821,0.686c3.475,2.907,7.46,4.474,11.527,4.535  c5.831,0.088,12.131-2.969,17.737-8.604c3.9-3.922,7.936-7.977,12.466-11.288l1.765-1.289L68.015,161.136L68.015,161.136z   M323.078,267.333c-27.02,46.566-77.432,78.006-134.959,78.006c-34.397,0-67.712-11.471-94.784-32.283  c-34.279-26.352-57.367-66.594-60.706-112.178c-0.127-1.732-0.226-3.559-0.295-5.307c0.526,0.098,1.135,0.186,1.707,0.275  c0.095,1.057,0.203,2.23,0.32,3.281c5.69,51.143,36.299,94.941,79.341,118.953c4.2-8.182,8.522-16.285,13.242-25.1  c12.233-22.844,24.399-45.088,38.71-66.104c6.933-10.18,14.973-19.471,22.748-28.455c8.053-9.303,15.646-18.077,22.178-27.802  c9.826-14.631,11.242-26.13,4.453-36.19l-0.301-0.446l-0.322,0.434c-1.555,2.095-3.131,4.46-4.689,7.028  c-0.668,1.105-1.779,1.891-3.045,2.152c-1.266,0.263-2.596-0.016-3.65-0.764c-3.465-2.458-7.143-5.034-10.68-7.161l-0.584-0.351  l0.006,0.682c0.066,7.284-0.375,16.507-4.403,23.221c-4.564,7.611-13.016,10.479-21.468,12.445c-2.344,0.545-4.673,0.98-6.927,1.402  c-5.445,1.02-10.59,1.982-14.402,4.208c-6.308,3.683-11.628,9.624-14.978,16.731c-0.601,1.275-1.73,2.201-3.1,2.543  c-1.367,0.34-2.799,0.049-3.928-0.797c-2.443-1.832-5.029-3.502-7.53-5.115l-3.269-2.131l-0.34-0.221  c-0.003-0.002-0.203,0.352-0.203,0.352c-2.67,4.725-5.629,8.633-9.05,11.947c-1.209,1.172-2.963,1.602-4.577,1.125  c-1.614-0.48-2.851-1.797-3.226-3.438l-4.49-19.612l-0.094-0.411l-0.4,0.136c-6.976,2.37-11.334,7.401-11.955,13.802  c-0.121,1.24-0.718,2.359-1.682,3.152c-0.964,0.795-2.178,1.166-3.417,1.045c-2.564-0.248-4.447-2.537-4.197-5.1  c1.41-14.54,13.548-21.545,24.436-23.253c2.414-0.379,4.731,1.189,5.276,3.571l3.299,14.412l0.207,0.901l0.489-0.785  c1.223-1.965,2.43-4.188,3.69-6.799c0.609-1.262,1.74-2.176,3.102-2.507c1.362-0.333,2.786-0.039,3.906,0.801  c2.436,1.827,5.015,3.49,7.509,5.1l3.4,2.218l0.325,0.212c0.003,0.002,0.209-0.327,0.209-0.327c4.1-6.549,9.591-11.95,15.877-15.619  c5.213-3.042,11.404-4.201,17.394-5.323c2.169-0.405,4.394-0.822,6.528-1.318c8.936-2.078,13.302-4.364,15.575-8.152  c3.576-5.962,3.187-16.812,2.901-24.733l-0.065-1.922c-0.055-1.59,0.693-3.082,2.002-3.991c1.306-0.908,2.969-1.087,4.445-0.478  c5.602,2.309,10.959,5.788,15.461,8.886l0.316,0.218l0.217-0.317c9.48-13.966,19.592-20.79,30.051-20.285  c6.203,0.3,11.779,3.011,16.125,7.844c8.285,9.214,9.361,22.626,8.805,32.256c-0.072,1.245-0.625,2.389-1.557,3.219  s-2.131,1.247-3.375,1.175c-2.572-0.148-4.543-2.361-4.393-4.933c0.453-7.855-0.293-18.651-6.426-25.47  c-2.643-2.939-5.973-4.585-9.629-4.763c-4.182-0.201-8.516,1.658-12.883,5.525l-0.266,0.237l0.217,0.281  c9.598,12.405,9.639,27.105,0.123,43.695l-0.242,0.421l0.465,0.134c3.006,0.871,5.721,1.295,8.301,1.295  c2.574,0,4.67,2.094,4.67,4.67c0,2.575-2.096,4.67-4.67,4.67c-4.322,0-8.836-0.847-13.797-2.589l-0.27-0.095l-0.168,0.233  c-2.768,3.877-5.947,7.985-9.719,12.561c-3.371,4.094-6.902,8.174-10.316,12.121l-1.273,1.473l-0.426,0.492l0.637,0.131  c4.152,0.857,7.918,1.311,10.893,1.311c2.574,0,4.67,2.096,4.67,4.67c0,2.576-2.096,4.67-4.67,4.67  c-5.168,0-10.918-0.879-18.094-2.766l-0.234-0.063l-0.155,0.186c-5.694,6.793-10.032,12.432-13.651,17.746  c-2.095,3.076-4.242,6.33-6.384,9.674l-0.286,0.449l0.517,0.127c6.572,1.615,13.335,2.609,20.101,2.951  c2.571,0.131,4.557,2.328,4.428,4.9c-0.131,2.572-2.328,4.559-4.9,4.428c-8.462-0.428-16.887-1.787-25.04-4.041l-0.278-0.076  l-0.149,0.246c-4.325,7.094-8.497,14.313-12.53,21.512c11.915,5.68,25.229,8.865,39.268,8.865c32.172,0,60.566-16.709,76.953-41.891  c-4.854-0.754-9.703-1.148-14.471-1.148c-2.576,0-4.67-2.096-4.67-4.67c0-2.576,2.094-4.67,4.67-4.67  c29.514,0,61.836,13.807,82.344,35.174c1.783,1.857,1.723,4.82-0.135,6.604c-0.9,0.863-2.084,1.324-3.33,1.299  c-1.248-0.025-2.41-0.535-3.273-1.434C325.195,269.378,324.15,268.347,323.078,267.333L323.078,267.333z M343.467,202.226  c-11.701-4.346-25.873-6.564-38.881-6.092c-26.043,0.949-47.041,10.633-55.529,19.232c-0.875,0.885-2.045,1.379-3.293,1.387  c-1.25,0.006-2.426-0.471-3.313-1.346s-1.379-2.045-1.389-3.293c-0.008-1.248,0.471-2.424,1.348-3.311  c14.928-15.123,42.641-21.305,61.836-22.004c17.758-0.646,36.691,3.172,50.646,10.213c1.451,0.734,2.404,2.139,2.549,3.76  c0.143,1.619-0.549,3.17-1.85,4.146c-13.783,10.344-18.678,21.754-16.367,38.148c0.174,1.23-0.143,2.461-0.895,3.457  c-0.752,1-1.844,1.645-3.076,1.818c-2.551,0.359-4.918-1.424-5.277-3.973c-2.371-16.813,2.084-30.393,13.621-41.514l0.438-0.42  L343.467,202.226L343.467,202.226z M49.402,160.453c7.736-5.081,14.843-9.298,23.486-9.444c4.736-0.08,10.69,1.442,15.537,3.975  c1.806,0.943,2.786,2.926,2.44,4.935c-0.348,2.007-1.937,3.547-3.955,3.829c-9.94,1.394-16.971,8.461-24.415,15.943  c-7.405,7.443-16.104,11.475-24.492,11.35c-10.753-0.162-20.883-7.162-26.436-18.27c-0.795-1.59-0.629-3.462,0.438-4.887  c1.063-1.423,2.813-2.112,4.563-1.799C30.107,168.51,39.618,166.877,49.402,160.453L49.402,160.453z M61.36,137.704  c3.806-0.185,7.575,0.892,11.202,3.2c1.051,0.67,1.779,1.71,2.05,2.928s0.051,2.468-0.619,3.521c-0.67,1.052-1.709,1.78-2.928,2.052  c-1.217,0.269-2.468,0.05-3.52-0.62c-2.021-1.285-3.842-1.841-5.732-1.75c-1.993,0.097-4.048,0.861-6.427,1.747  c-0.001,0-1.477,0.565-1.477,0.565c-3.063,1.19-6.537,2.538-10.751,2.271c-6.421-0.41-11.754-3.574-14.63-8.681  c-1.263-2.244-0.466-5.098,1.778-6.361c2.243-1.263,5.097-0.465,6.361,1.778c1.313,2.335,3.829,3.733,7.083,3.941  c2.331,0.147,4.406-0.688,6.604-1.572c0.571-0.229,1.162-0.467,1.771-0.694C54.842,139.018,57.919,137.872,61.36,137.704  L61.36,137.704z M346.941,180.681c0.59,1.1,0.715,2.362,0.355,3.558c-0.359,1.193-1.164,2.176-2.262,2.767  c-2.27,1.218-5.105,0.362-6.324-1.905c-2.855-5.317-4.35-11.169-4.211-16.477c0.135-5.202,1.59-10.498,4.33-15.811  c1.244-2.41,2.699-4.674,4.264-6.885c-3.309-0.274-6.613-0.458-9.934-0.43c-21.576,0.193-44.332,7.789-64.076,21.386  c-31.588,21.754-53.084,57-60.531,99.24c-0.447,2.537-2.873,4.236-5.41,3.789c-1.229-0.217-2.299-0.898-3.016-1.92  c-0.715-1.023-0.99-2.262-0.773-3.49c7.885-44.725,30.768-82.125,64.434-105.312c4.344-2.991,8.85-5.718,13.494-8.209l-2.742-6.005  c-0.668-1.463-0.527-3.2,0.369-4.538c0,0,7.9-11.804,10.672-15.942c-4.535-3.695-9.072-7.391-13.611-11.087  c-1.508-1.231-2.102-3.304-1.463-5.147l4.902-14.183l-19.605-5.403c-2.08-0.573-3.488-2.478-3.43-4.633  c0.121-4.343,0.244-8.687,0.363-13.032l-14.777,3.585c-1.852,0.45-3.9-0.251-4.926-1.857c-0.922-1.448-8.654-12.348-10.629-15.165  l-18.361,17.801c-1.146,1.114-2.762,1.561-4.32,1.193s-2.805-1.487-3.334-2.998c-4.621-13.146-10.458-23.982-17.147-31.928  c-2.656-3.156-5.581-5.881-8.796-8.43c4.909,12.075,8.99,25.448,8.922,38.585c-0.022,4.569-0.633,8.795-2.011,12.371  c-0.827,2.146-3.061,3.361-5.311,2.893c-8.381-1.745-16.765-3.49-25.147-5.234l-10.855,15.308c-0.662,0.934-1.641,1.589-2.754,1.848  l-36.382,8.445c-1.384,0.32-2.816,0.004-3.929-0.868l-1.658-1.303c-2.333-1.835-4.676-3.651-7.076-5.402  c0.215,1.541,0.408,3.08,0.537,4.629c0.193,2.32-1.31,4.395-3.573,4.931c-3.144,0.749-6.29,1.5-9.436,2.247L73,126.92l15.583,10.719  c6.417-13.066,17.654-22.817,32.854-22.886c17.154-0.078,35.877,14.143,43.551,33.081c0.514,1.269,0.447,2.693-0.186,3.908  c-0.632,1.214-1.759,2.088-3.093,2.396l-51.308,11.843c-1.199,0.276-2.484,0.062-3.527-0.591c-1.058-0.662-1.796-1.697-2.075-2.914  l-2.495-10.873c-0.577-2.51,0.996-5.021,3.506-5.597c2.508-0.575,5.023,1.003,5.597,3.507l1.451,6.314l41.073-9.479  c-6.34-11.057-18.803-22.317-32.451-22.256c-11.752,0.054-21.377,8.153-26.408,22.225c-0.485,1.355-1.593,2.43-2.963,2.872  c-1.37,0.443-2.896,0.221-4.083-0.597l-22.15-15.237c-1.163-0.8-1.896-2.065-2.009-3.472c0-0.002-1.726-21.468-1.726-21.468  c-0.183-2.271,1.356-4.39,3.574-4.917l9.294-2.21c-0.51-3.221-1.246-6.381-2.316-9.47c-0.612-1.764-0.116-3.719,1.262-4.978  c1.381-1.26,3.373-1.577,5.074-0.808c6.563,2.967,12.316,7.375,17.942,11.789l32.479-7.539l11.597-16.354  c1.072-1.513,2.948-2.248,4.762-1.871l23.833,4.962c0.283-1.897,0.414-3.79,0.399-5.715c-0.114-13.587-6.565-33.039-13.728-45.849  c-0.916-1.634-0.767-3.649,0.377-5.132c1.144-1.484,3.055-2.139,4.868-1.67c8.037,2.081,15.686,7.03,22.73,14.713  c8.058,8.786,13.839,19.401,18.354,30.355l17.189-16.668c0.984-0.953,2.328-1.426,3.691-1.297c1.365,0.13,2.598,0.848,3.385,1.97  c3.982,5.681,7.961,11.362,11.943,17.04l17.621-4.275c1.402-0.342,2.914-0.002,4.037,0.908c1.125,0.908,1.771,2.314,1.73,3.76  c-0.143,5.162-0.289,10.323-0.43,15.483l20.877,5.753c1.24,0.341,2.295,1.189,2.893,2.326c0.598,1.138,0.701,2.486,0.281,3.701  c-1.82,5.27-3.643,10.537-5.463,15.805l14.375,11.713c1.879,1.53,2.279,4.204,0.932,6.219c-3.863,5.769-7.73,11.538-11.588,17.308  l1.559,3.413c4.174-1.848,8.424-3.507,12.77-4.924c18.365-5.989,36.945-7.396,54.391-4.041c1.664,0.32,3.027,1.52,3.557,3.128  c0.529,1.609,0.143,3.382-1.006,4.626c-7.475,8.099-11.359,15.902-11.551,23.198C343.74,172.578,344.842,176.773,346.941,180.681  L346.941,180.681z M148.394,99.403c-0.958-1.124-1.256-2.78-0.818-4.692c0.427-1.866,1.938-2.788,4.493-2.743  c5.083,0.19,13.594,3.152,19.2,4.505c0.81,0.195,5.85,1.594,7.371,2.03c0.146,0.59,0.437,2.441,0.47,3.885  c0.027,1.197-0.684,1.712-1.97,2.284c-2.567,1.141-5.282,2.024-8.002,2.706c-3.294,0.827-6.682,1.106-9.862,1.239  c-1.413,0.059-3.052-0.769-3.58-1.808c-0.357-0.701-0.403-1.798-0.313-2.845c0.066-0.765,0.205-1.504,0.35-2.045  C153.063,101.417,149.145,100.505,148.394,99.403L148.394,99.403z M134.009,18.854c15.473,8.944,26.199,29.893,28.797,45.964  c0.41,2.541-1.322,4.944-3.865,5.355c-1.231,0.199-2.467-0.094-3.478-0.823c-1.013-0.73-1.679-1.811-1.878-3.042  c-2.223-13.745-11.9-32.229-24.251-39.367c-2.229-1.288-2.994-4.15-1.706-6.381C128.918,18.332,131.779,17.566,134.009,18.854  L134.009,18.854z"/>
<path fill-rule="evenodd" clip-rule="evenodd" fill="#FFFFFF" d="M192.285,326.46l9.857-0.861c0.469-0.041,0.82-0.457,0.779-0.93  l-0.268-3.07c-0.021-0.227-0.131-0.436-0.305-0.582c-0.172-0.146-0.402-0.217-0.625-0.197l-5.678,0.496l-0.58-6.625l5.119-0.449  c0.469-0.041,0.82-0.455,0.779-0.93l-0.258-2.938c-0.018-0.227-0.129-0.436-0.303-0.582s-0.402-0.217-0.625-0.197l-5.119,0.447  l-0.49-5.613l5.676-0.494c0.469-0.041,0.822-0.457,0.781-0.93l-0.26-2.973c-0.043-0.471-0.459-0.82-0.932-0.779l-9.855,0.861  c-0.471,0.041-0.819,0.459-0.779,0.93l2.156,24.637C191.398,326.151,191.813,326.501,192.285,326.46L192.285,326.46z   M209.246,324.987l3.188-0.695c0.457-0.115,0.74-0.58,0.625-1.041l-2.895-12.385l7.945,11.502c0.215,0.309,1.146,0.576,0.914,0.346  l3.041-0.758c0.221-0.057,0.41-0.195,0.527-0.391c0.117-0.193,0.152-0.43,0.098-0.65l-5.982-23.996  c-0.115-0.459-0.582-0.738-1.041-0.625l-3.074,0.768c-0.412,0.102-0.727,0.629-0.625,1.039l3.029,12.148l-7.855-11.26  c-0.203-0.291-0.568-0.428-0.912-0.342l-2.99,0.744c-0.461,0.115-0.736,0.584-0.625,1.041l5.594,23.93  c0.055,0.221,0.195,0.412,0.391,0.529S209.025,325.042,209.246,324.987L209.246,324.987z M231.105,296.245l0.33-0.154  c0.971-0.451,1.75-0.588,2.254-0.393c0.514,0.203,1.043,0.855,1.523,1.889c0.459,0.984,0.59,1.787,0.393,2.383  c-0.189,0.574-0.748,1.08-1.66,1.504l-0.328,0.152L231.105,296.245L231.105,296.245z M235.504,305.673l0.271-0.127  c1.057-0.494,1.898-0.621,2.498-0.377c0.629,0.25,1.217,0.963,1.756,2.117c0.658,1.412,0.641,2.162,0.508,2.541  c-0.131,0.371-0.592,0.959-2.041,1.635l-0.24,0.111L235.504,305.673L235.504,305.673z M239.965,301.04  c0.291-0.553,0.467-1.143,0.525-1.758c0.117-1.184-0.209-2.615-0.969-4.246c-1.025-2.199-2.375-3.578-4.01-4.096  c-1.613-0.508-3.635-0.201-6.016,0.908l-4.145,1.934c-0.432,0.199-0.615,0.713-0.416,1.139l10.451,22.414  c0.098,0.207,0.271,0.367,0.484,0.443c0.215,0.078,0.451,0.068,0.656-0.027l4.393-2.049c2.375-1.107,3.891-2.553,4.504-4.291  c0.611-1.736,0.354-3.836-0.77-6.244c-0.783-1.68-1.684-2.816-2.744-3.477C241.322,301.335,240.674,301.118,239.965,301.04  L239.965,301.04z M267.209,294.899l2.143,2.645c0.197,0.244,0.512,0.361,0.818,0.305c0.92-0.164,1.754-0.406,2.484-0.717  c0.754-0.322,1.438-0.729,2.025-1.205c1.645-1.332,2.574-2.992,2.766-4.934c0.189-1.941-0.391-3.76-1.723-5.406  c-0.939-1.16-2.051-2.002-3.301-2.508c-1.08-0.43-2.396-0.664-4.012-0.715c-0.98-0.029-1.953,0.025-2.934-0.045  c-2.375-0.166-3.369-0.756-3.781-1.266c-0.5-0.615-0.705-1.229-0.629-1.869c0.078-0.654,0.428-1.225,1.07-1.744  c0.387-0.314,0.846-0.566,1.365-0.748c0.533-0.188,1.166-0.309,1.881-0.357c0.32-0.021,0.602-0.221,0.729-0.512  c0.127-0.293,0.08-0.635-0.121-0.885l-2.092-2.582c-0.197-0.246-0.512-0.361-0.82-0.305c-0.859,0.158-1.66,0.406-2.381,0.742  c-0.734,0.338-1.434,0.775-2.076,1.297c-1.547,1.252-2.41,2.873-2.568,4.816c-0.156,1.936,0.428,3.736,1.738,5.352  c0.896,1.109,1.98,1.92,3.223,2.412c1.221,0.475,2.795,0.715,4.82,0.734c0.518-0.004,1.055,0.006,1.574,0.027  c2.217,0.096,3.725,0.568,4.383,1.381c0.479,0.594,0.68,1.174,0.613,1.779c-0.066,0.609-0.4,1.148-1.016,1.646  c-0.379,0.309-0.861,0.568-1.43,0.773c-0.6,0.215-1.34,0.383-2.195,0.496c-0.309,0.039-0.57,0.244-0.686,0.531  C266.963,294.329,267.014,294.657,267.209,294.899L267.209,294.899z M291.197,277.315l-2.42-2.18  c-0.225-0.203-0.547-0.271-0.838-0.178s-0.508,0.336-0.572,0.635c-0.121,0.553-0.273,1.039-0.457,1.441  c-0.166,0.375-0.373,0.701-0.625,0.979c-0.867,0.965-1.891,1.244-3.225,0.883c-1.512-0.404-3.41-1.631-5.645-3.643  c-2.408-2.168-3.91-4.029-4.463-5.525c-0.502-1.352-0.279-2.488,0.697-3.572c0.203-0.227,0.467-0.447,0.785-0.66  c0.326-0.213,0.713-0.408,1.141-0.576c0.277-0.109,0.477-0.354,0.531-0.645c0.051-0.291-0.051-0.594-0.271-0.791l-2.355-2.121  c-0.248-0.225-0.604-0.283-0.91-0.15c-0.514,0.219-1.018,0.502-1.498,0.842c-0.484,0.35-0.938,0.76-1.355,1.221  c-1.955,2.174-2.539,4.668-1.73,7.416c0.77,2.598,2.813,5.404,6.074,8.34c3.244,2.922,6.064,4.578,8.619,5.064  c2.68,0.508,5-0.305,6.896-2.41c0.48-0.533,0.861-1.074,1.166-1.654c0.299-0.555,0.531-1.166,0.711-1.865  C291.533,277.856,291.436,277.528,291.197,277.315L291.197,277.315z M296.32,273.812l1.914-2.734  c0.27-0.385,0.176-0.922-0.211-1.193l-9.301-6.514l2.436-3.482l9.303,6.514c0.186,0.129,0.418,0.182,0.641,0.141  c0.223-0.039,0.422-0.164,0.555-0.352l1.912-2.732c0.271-0.387,0.178-0.924-0.209-1.195l-20.258-14.186  c-0.557-0.391-1.195,0.293-1.195,0.211l-1.912,2.734c-0.133,0.184-0.182,0.416-0.143,0.641c0.014,0.078,0.352,0.871,0.352,0.553  l6.998,4.902l-2.438,3.48l-7-4.9c-0.387-0.271-0.924-0.174-1.193,0.211l-1.914,2.732c-0.131,0.188-0.182,0.418-0.143,0.641  c0.014,0.082,0.354,0.873,0.354,0.555l20.258,14.186c0.186,0.129,0.416,0.182,0.641,0.143S296.189,273.997,296.32,273.812  L296.32,273.812z M134.955,315.831c0.437,0.176,0.941-0.037,1.118-0.475l3.954-9.789l4.983,2.014  c0.438,0.178,0.939-0.033,1.117-0.473l1.104-2.734c0.176-0.436-0.036-0.939-0.474-1.115l-4.984-2.016l2.124-5.254l5.504,2.223  c0.211,0.086,0.446,0.084,0.656-0.006c0.207-0.086,0.374-0.254,0.46-0.467l1.118-2.768c0.177-0.438-0.035-0.939-0.475-1.115  l-9.393-3.797c-0.439-0.176-0.94,0.039-1.116,0.475l-9.265,22.93c-0.177,0.439,0.035,0.939,0.475,1.117L134.955,315.831  L134.955,315.831z M158.888,321.985l0.897-3.129c0.085-0.293,0.005-0.611-0.206-0.832c-0.213-0.221-0.526-0.311-0.823-0.236  c-0.551,0.135-1.054,0.209-1.496,0.223c-0.408,0.016-0.793-0.029-1.153-0.133c-1.247-0.357-1.948-1.156-2.208-2.514  c-0.298-1.535-0.028-3.779,0.801-6.67c0.893-3.115,1.905-5.277,3.011-6.434c0.996-1.043,2.112-1.342,3.516-0.938  c0.291,0.082,0.606,0.223,0.937,0.416c0.335,0.199,0.682,0.461,1.02,0.771c0.218,0.201,0.525,0.273,0.812,0.193  c0.283-0.08,0.511-0.303,0.592-0.59l0.874-3.045c0.092-0.322-0.011-0.666-0.264-0.885c-0.422-0.365-0.897-0.693-1.412-0.979  c-0.525-0.279-1.093-0.51-1.692-0.68c-2.813-0.807-5.31-0.236-7.424,1.693c-1.998,1.832-3.624,4.898-4.834,9.115  c-1.203,4.197-1.456,7.457-0.773,9.967c0.719,2.633,2.465,4.361,5.189,5.143c0.69,0.197,1.344,0.303,1.999,0.322  c0.628,0.025,1.281-0.033,1.987-0.178C158.548,322.526,158.8,322.294,158.888,321.985L158.888,321.985z M171.184,325.45l4.39,0.385  c3.625,0.316,6.328-0.502,8.038-2.432c1.67-1.891,2.684-5.123,3.1-9.883c0.417-4.756-0.021-8.107-1.34-10.248  c-1.349-2.193-3.87-3.467-7.492-3.783l-4.39-0.385c-0.473-0.041-0.888,0.313-0.93,0.781l-2.155,24.637  C170.363,324.993,170.712,325.409,171.184,325.45L171.184,325.45z M177.278,304.29l0.87,0.074c1.561,0.135,2.563,0.746,3.069,1.861  c0.57,1.262,0.715,3.555,0.43,6.816c-0.285,3.266-0.83,5.504-1.62,6.658c-0.696,1.018-1.787,1.447-3.335,1.313l-0.866-0.08  L177.278,304.29L177.278,304.29z M249.955,296.651c-1.861-2.867-2.943-5.016-3.217-6.385c-0.301-1.471,0.293-2.07,0.844-2.428  c0.545-0.354,1.324-0.648,2.535,0.211c1.135,0.813,2.658,2.684,4.525,5.559c1.916,2.949,3.023,5.119,3.293,6.449  c0.223,1.1-0.041,1.824-0.852,2.352c-0.549,0.357-1.342,0.652-2.596-0.242C253.32,301.339,251.795,299.483,249.955,296.651  L249.955,296.651z M245.725,299.476c2.572,3.959,4.861,6.43,7,7.551c2.277,1.188,4.627,1.014,6.982-0.518  c2.354-1.527,3.461-3.6,3.293-6.156c-0.16-2.408-1.486-5.504-4.057-9.461c-2.582-3.977-4.877-6.459-7.016-7.588  c-2.268-1.199-4.613-1.033-6.969,0.498c-2.357,1.531-3.467,3.613-3.299,6.188C241.824,292.415,243.154,295.517,245.725,299.476  L245.725,299.476z"/>
<path fill-rule="evenodd" clip-rule="evenodd" fill="#FFFFFF" d="M61.094,293.196c-6.997-2.553-13.246-7.188-17.733-13.189  c-5.007-6.695-7.652-14.654-7.652-23.016c0-5.813,1.266-11.391,3.764-16.592c0.075,1.658,0.262,3.232,0.559,4.691  c-3.095,4.162-4.23,10.246-2.964,15.902c1.081,4.824,3.724,8.66,7.441,10.811C46.337,279.591,52.896,287.995,61.094,293.196  L61.094,293.196z M58.811,240.112c-5.093,5.701-12.001,5.277-15.047,4.23c-0.795-3.914-0.536-7.949-0.172-10.67  c5.318-6.969,12.871-11.945,21.309-14.053C61.099,226.196,58.885,233.636,58.811,240.112L58.811,240.112z M79.849,236.212  c-4.207,5.465-12.165,5.891-17.21,3.156c0.27-6.707,2.999-14.412,7.323-20.652c1.419-0.158,2.852-0.236,4.258-0.236  c4.535,0,8.976,0.785,13.203,2.334C82.861,224.913,80.245,230.229,79.849,236.212L79.849,236.212z M65.689,263.542  c-7.888-2.129-15.778,0.768-19.59,4.775c-2.619-1.65-4.505-4.541-5.315-8.158c-0.952-4.25-0.237-8.895,1.865-12.164  c5.145,1.768,13.113,0.947,18.692-5.01c5.892,2.934,14.719,2.785,20.4-3.141c7.634,5.35,5.771,14.529,3.906,19.664  c-3.066-1.074-6.925-1.197-10.891-0.346C70.967,259.979,67.668,261.573,65.689,263.542L65.689,263.542z M108.378,274.761  c-0.178,0.09-0.405,0.156-0.608,0.17c-0.808,0.053-1.516-0.795-1.913-1.373c-0.352-0.512-0.729-1.219-1.097-2.191  c4.792-5.883,6.969-14.5,6.129-24.279c-0.08-0.939-0.189-1.889-0.325-2.836c1.439,4.088,2.169,8.365,2.169,12.74  C112.732,263.165,111.227,269.306,108.378,274.761L108.378,274.761z M101.759,269.021c-5.306,1.119-9.053-0.98-12.903-7.234  c0.909-2.316,2.366-6.826,2.199-11.641c-0.205-5.869-2.697-10.447-7.411-13.611c0.347-5.701,2.937-10.42,7.699-14.033  c4.116,2.053,7.806,4.803,10.964,8.17c2.523,4.596,4.268,10.695,4.788,16.744C107.852,256.239,105.957,263.909,101.759,269.021  L101.759,269.021z M103.867,277.079c-0.564,5.119-7.286,8.799-11.986,9.512c-10.853-4.23-18.686-11.152-23.282-20.574  c3.123-2.867,11.636-5.18,16.879-2.453c1.97,3.256,3.896,5.498,6.058,7.055c2.848,2.051,6.131,2.84,9.761,2.344  C101.991,274.72,102.855,276.103,103.867,277.079L103.867,277.079z M88.807,289.452c-3.058,4-11.623,4.693-16.091,4.387  c-9.84-1.41-21.646-12.242-24.354-22.322c2.456-3.115,9.525-6.273,16.628-4.215C69.745,277.298,77.758,284.751,88.807,289.452  L88.807,289.452z"/>
</svg>