<?xml version="1.0" encoding="utf-8"?>
<!-- Generator: Adobe Illustrator 21.0.0, SVG Export Plug-In . SVG Version: 6.00 Build 0)  -->
<svg version="1.1" id="Laag_1" xmlns="http://www.w3.org/2000/svg" xmlns:xlink="http://www.w3.org/1999/xlink" x="0px" y="0px"
	 viewBox="0 0 163.7 172.6" style="enable-background:new 0 0 163.7 172.6;" xml:space="preserve">
<style type="text/css">
	.st0{fill:#D6171E;}
	.st1{fill:#FFFFFF;stroke:#000000;stroke-width:0.6579;stroke-miterlimit:2.6131;}
	.st2{fill:#FFFFFF;}
</style>
<path class="st0" d="M81.9,172.5c0,0,19.8,1,39.8-9c21.8-10.9,31.5-30.1,31.5-47.3c0-15.5,0-60.2,0-60.2h10.6V19.3h-10.5
	c0,0-2-3.8-15.2-8.2C105.6,0.2,82.3,1.3,82.3,1.3h-0.9c0,0-23.3-1.2-55.7,9.7c-13.3,4.4-15.2,8.2-15.2,8.2H0V56h10.6
	c0,0,0,44.7,0,60.2c0,17.1,9.7,36.3,31.5,47.3C62,173.5,81.9,172.5,81.9,172.5L81.9,172.5L81.9,172.5z"/>
<path class="st1" d="M82.5,0c0,0,4.4-0.2,10.7,0.3C99.3,0.8,105,1.9,105,1.9l-0.2,168.9c0,0-4.3,1.5-11.1,2.2
	c-5.3,0.6-18.5,0.6-23.8,0c-6.7-0.7-11.1-2.2-11.1-2.2L58.7,1.9c0,0,5.7-1.1,11.8-1.6C76.8-0.1,81.3,0,81.3,0H82.5L82.5,0z"/>
<polygon points="75.6,18.7 75.6,7.2 79.6,7.2 79.6,8.6 76.9,8.6 76.9,12 79.4,12 79.4,13.4 76.9,13.4 76.9,18.7 "/>
<path d="M88.5,18.4c-0.4,0.3-0.9,0.4-1.6,0.4c-0.9,0-1.6-0.5-2.1-1.6s-0.7-2.5-0.7-4.3c0-1.2,0.1-2.2,0.2-3c0.1-0.9,0.4-1.5,0.9-2.1
	C85.6,7.3,86.2,7,87,7c0.7,0,1.3,0.1,1.6,0.3v1.4c-0.4-0.3-0.9-0.4-1.5-0.4c-0.7,0-1.1,0.4-1.3,1.2c-0.2,0.8-0.3,1.9-0.3,3.3
	c0,3,0.5,4.5,1.5,4.5c0.7,0,1.2-0.2,1.6-0.5L88.5,18.4L88.5,18.4z"/>
<path d="M81.2,55.9c-6.9-0.1-12.4,1.4-19,4.4c-6,2.7-9.1,5.7-9.1,5.7s-8.3-1-14.6,2.1s-13.9,8.1-13.4,23.7
	c0.3,10.9,7.5,22.2,14.9,29.9c6.6,6.8,10.6,7.7,10.7,11.2c0.1,2.3-1.2,1.6-1.2,4.4c0,2.2,2.6,2,3.5,1c1.8-2,3.6-8.2,2.1-14.9
	c-2.1-9.1-10.1-17.7-9.3-22.3c1.1-6.6,6.3-10.1,6.3-10.1s-1.1,3.3,0.2,7.2c1.6,4.9,3.5,8.7,6.1,12c2.5,3.1,4,12.1,4.7,22.8
	c0.3,5.6,0.6,16.7,2.8,19.7c2.2,3.1,10.7,7.5,12.5,8.2c1.7,0.8,3.5,0.4,3.5,0.4h0.2c0,0,1.7,0.3,3.5-0.4c1.7-0.8,10.3-5.2,12.5-8.2
	c2.2-3.1,2.5-14.1,2.8-19.7c0.6-10.7,2.2-19.7,4.7-22.8c2.6-3.3,4.4-7,6.1-12c1.3-3.9,0.2-7.2,0.2-7.2s5.2,3.5,6.3,10.1
	c0.8,4.6-7.3,13.2-9.3,22.3c-1.5,6.7,0.2,12.9,2.1,14.9c0.9,1,3.5,1.2,3.5-1c0-2.7-1.3-2.1-1.2-4.4c0.2-3.5,4.1-4.4,10.7-11.2
	c7.5-7.7,14.6-19.1,14.9-29.9c0.5-15.6-7.1-20.6-13.4-23.7c-6.3-3.1-14.6-2.1-14.6-2.1s-3.1-3-9.1-5.7c-6.5-3-12-4.5-18.9-4.4
	L81.2,55.9L81.2,55.9z"/>
<path class="st2" d="M70.5,139c-0.6,0.3-1.3,1.6,0.2,2.7c1.5,1.2,2.9,1.6,3.2,1.5c0.2-0.2-1.7-1.6-1.9-2.4c-0.3-1.2,0.2-1.1-0.2-1.6
	C71.2,138.3,70.5,139,70.5,139L70.5,139z"/>
<path class="st2" d="M55.9,89.1c0,0-2.2,3.9-1.9,6.9s3.2,9.1,4.5,11.3c3.2,5.4,4.8,13.6,4.8,13.6s0.4-0.3,0.9-2.1
	c0.6-2.1,1.4-2.7,1.4-2.7s-0.9-5.8-3.2-9.8c-2.4-4-3.5-7.9-2.8-11.1c0.6-3.2,1.2-3.5,1.2-3.5s-0.8-1-2.3-1.6
	C57,89.4,55.9,89.1,55.9,89.1L55.9,89.1z"/>
<path class="st2" d="M62.2,93.5c-0.4,0.6-2.4,4.1-1.2,6.7c1.2,2.5,3.1,4.4,3.7,6.2c0.6,1.8,1,3.4,1.1,1.4c0.2-2,0.3-8.4-1.1-11.2
	C63.2,93.8,62.6,93,62.2,93.5L62.2,93.5z"/>
<path d="M62.2,97c-0.2,0.6-0.2,2.6,0.6,3.6c0.7,1,1.7,1.9,1.4,0.2c-0.4-1.8-0.5-2.6-0.6-3.7C63.6,96.3,62.4,96.4,62.2,97L62.2,97z"
	/>
<path class="st2" d="M43.6,101.1c-0.7,5.9,5.6,11,9.3,20.3c2.4,5.9,1.1,10.2,1.1,10.2s-0.7-1.1-2.3-2.5c-2-1.9-4.4-3.4-7.5-6.2
	c-9.7-9-12.4-15.5-14.4-19.6c-2.8-5.7-4.1-16.4-0.6-23.8C33.1,71.3,42,67.6,51.3,68c0,0,2.9,1.3,4.5,4.8s2.2,7.4-1.9,13.3
	C52.6,88.1,44.5,92.9,43.6,101.1L43.6,101.1z"/>
<path class="st2" d="M82.1,94C67.5,94,59,80.8,59,80.8s0.9-3-0.1-6.5c-1.2-4.2-4.2-6.9-4.2-6.9s9.5-9.4,26.9-9.5h0.2
	c17.4,0.1,26.9,9.5,26.9,9.5s-3,2.7-4.2,6.9c-1,3.5-0.1,6.5-0.1,6.5S96,94,81.4,94H82.1L82.1,94z"/>
<path class="st2" d="M82.7,94.7c5.6,0,12.7-3.1,16.8-6.4c3.7-2.9,5.3-4.9,5.3-4.9s0.5,1.2,1.1,2c0.5,0.8,1.1,1.6,1.1,1.6
	s-4.6,1-7.6,4.3c-2.6,2.9-4.6,5-4.3,15.8c0.2,9,0.3,13.5,0.3,13.5s0.4-2.9,0.8-2.4c0.3,0.4,2.2,4.3,2.2,9.3c0,3.7-0.7,15.1-1.7,17.1
	c-1.6,3.1-2.9,4.4-8.4,7.6c-1.5,0.9-3.4,2.5-4.4,3c-1,0.4-1.7-2.1-1.6-4.9c0.1-3.6-0.3-3.7,2.1-4.7c2.7-1.1,4.4,1.4,8.8-1.6
	c3.1-2.2,2.8-4.7,1.4-6c-1.2-1.2-3.4-1.6-5,0.2c-0.8,0.9,0.1,1.5-1.2,3.2c-0.8,1.1-1.9,1.7-4.6,2.2c-1.2,0.2-1.7,1.1-1.7,1.1
	s-0.5-0.8-1.7-1.1c-2.7-0.5-3.8-1.2-4.6-2.2c-1.3-1.7-0.5-2.3-1.2-3.2c-1.5-1.8-3.8-1.4-5-0.2c-1.4,1.4-1.7,3.8,1.4,6
	c4.3,3.1,6.1,0.5,8.8,1.6c2.4,1,1.9,1.1,2.1,4.7c0.1,2.8-0.6,5.3-1.6,4.9c-1.1-0.4-2.9-2.1-4.4-3c-5.6-3.2-6.8-4.5-8.4-7.6
	c-1.1-2-1.7-13.4-1.7-17.1c0-5,1.8-8.9,2.2-9.3c0.3-0.4,0.8,2.4,0.8,2.4s0.1-4.5,0.3-13.5c0.3-10.7-1.7-12.9-4.3-15.8
	c-3-3.3-7.6-4.3-7.6-4.3s0.5-0.9,1.1-1.6c0.5-0.8,1.1-2,1.1-2s1.6,2,5.3,4.9c4.1,3.3,11.2,6.4,16.8,6.4L82.7,94.7L82.7,94.7z"/>
<path class="st2" d="M93,139c0.6,0.3,1.3,1.6-0.2,2.7c-1.5,1.2-2.9,1.6-3.2,1.5c-0.2-0.2,1.7-1.6,1.9-2.4c0.3-1.2-0.2-1.1,0.2-1.6
	C92.4,138.2,93,139,93,139L93,139z"/>
<path class="st2" d="M107.7,89.1c0,0,2.2,3.9,1.9,6.9c-0.3,3-3.2,9.1-4.5,11.3c-3.2,5.4-4.8,13.6-4.8,13.6s-0.4-0.3-0.9-2.1
	c-0.6-2.1-1.4-2.7-1.4-2.7s0.9-5.8,3.2-9.8c2.4-4,3.5-7.9,2.8-11.1c-0.6-3.2-1.2-3.5-1.2-3.5s0.8-1,2.3-1.6
	C106.6,89.4,107.7,89.1,107.7,89.1L107.7,89.1z"/>
<path class="st2" d="M101.3,93.5c0.4,0.6,2.4,4.1,1.2,6.7c-1.2,2.5-3.1,4.4-3.7,6.2c-0.6,1.8-1,3.4-1.1,1.4c-0.2-2-0.3-8.4,1.1-11.2
	C100.3,93.8,101,93,101.3,93.5L101.3,93.5z"/>
<path d="M101.3,97c0.2,0.6,0.2,2.6-0.6,3.6c-0.7,1-1.7,1.9-1.4,0.2c0.4-1.8,0.5-2.6,0.6-3.7C100,96.3,101.2,96.4,101.3,97L101.3,97z
	"/>
<path class="st2" d="M120,101.1c0.7,5.9-5.6,11-9.3,20.3c-2.4,5.9-1.1,10.2-1.1,10.2s0.7-1.1,2.3-2.5c2-1.9,4.4-3.4,7.5-6.2
	c9.7-9,12.4-15.5,14.4-19.6c2.8-5.7,4.1-16.4,0.6-23.8c-3.9-8.2-12.8-11.9-22.1-11.5c0,0-2.9,1.3-4.5,4.8s-2.2,7.4,1.9,13.3
	C111,88.1,119,92.9,120,101.1L120,101.1z"/>
<path class="st2" d="M81.8,156.7L81.8,156.7c-0.1,0.1-0.8,0.9-1.5,0.9c-1.9-0.1-3.6-1.5-6.7-3.6c-2.8-1.9-4.6-2.6-5.7-3.8
	c-0.8-0.9-1.1-1.2-0.6,0.3c1,2.8,1.6,2.9,6.8,5.9c3.2,1.9,5,3.1,7.1,3.1h1.1c2.2,0,3.9-1.2,7.1-3.1c5.2-3,5.8-3.1,6.8-5.9
	c0.5-1.5,0.2-1.2-0.6-0.3c-1.1,1.2-2.9,1.9-5.7,3.8c-3.1,2.1-4.8,3.5-6.7,3.6C82.5,157.6,81.9,156.7,81.8,156.7L81.8,156.7
	L81.8,156.7z"/>
<path d="M48.3,40.6v10.8h-5.4l-0.1-28.7h6.3c2.9,0,5.2,0.7,6.6,1.9c1.2,1,2.1,3,2.1,5.7c0,2.1-0.4,3.7-1.3,5c-0.8,1.1-2,2.3-4,2.5
	l7,13.5h-5.9L48.3,40.6L48.3,40.6z M48.3,34.4h1.3c1.6-0.1,2.7-0.8,2.6-3.8c0-2.2-1-3.1-2.9-3.1h-1L48.3,34.4L48.3,34.4z"/>
<path d="M32.6,22.5c3.6,0,6,1.3,7.2,3.8s1.8,6.1,1.8,10.8c0,4.4-0.7,8-2.2,10.6c-1.5,2.7-3.8,4-6.9,4s-5.4-1.3-6.8-4
	c-1.5-2.7-2.2-6.2-2.2-10.6c0-3,0.2-5.6,0.7-7.7s1.4-3.8,2.7-5C28.3,23.1,30.2,22.5,32.6,22.5L32.6,22.5z M32.6,27.1
	c-1.6,0-2.6,0.9-3.1,2.6s-0.8,4.2-0.8,7.4c0,6.7,1.3,10,3.9,10s4-3.3,4-10c0-3.3-0.3-5.7-0.8-7.4C35.2,27.9,34.1,27.1,32.6,27.1
	L32.6,27.1z"/>
<path d="M5.7,51.3V22.8h6.1c4,0,6.9,1.1,8.6,3.2c1.7,2.2,2.5,5.7,2.5,10.6c0,3.6-0.4,6.4-1.1,8.6c-0.7,2.2-1.9,3.7-3.5,4.7
	s-3.9,1.4-6.7,1.4H5.7L5.7,51.3z M12.2,46.6c2.1,0,3.5-0.7,4.3-2c0.7-1.3,1.1-4,1.1-8c0-3.7-0.4-6.1-1.3-7.2s-2.2-1.7-3.9-1.7H11
	v18.9H12.2L12.2,46.6z"/>
<path d="M60.6,51.4V22.8h6.1c4,0,6.9,1.1,8.6,3.2c1.7,2.2,2.5,5.7,2.5,10.6c0,3.6-0.4,6.4-1.1,8.6c-0.7,2.2-1.9,3.7-3.5,4.7
	s-3.9,1.4-6.7,1.4h-5.9V51.4z M67.1,46.6c2.1,0,3.5-0.7,4.2-2s1.1-4,1.1-8c0-3.7-0.4-6.1-1.3-7.2c-0.8-1.1-2.1-1.7-3.9-1.7h-1.4
	v18.9H67.1L67.1,46.6z"/>
<path d="M84.5,40.6v10.8h-5.4V22.7h6.3c2.9,0,5.2,0.7,6.6,1.9c1.2,1,2.1,3,2.1,5.7c0,2.1-0.4,3.7-1.3,5c-0.8,1.1-2,2.3-4,2.5l7,13.5
	h-5.9L84.5,40.6L84.5,40.6z M84.5,34.4h1.3c1.6-0.1,2.7-0.8,2.6-3.8c0-2.2-1-3.1-2.9-3.1h-1V34.4L84.5,34.4z"/>
<polygon points="96.8,51.4 96.8,22.9 109.8,22.9 109.7,27.5 102.2,27.6 102.2,34.2 109.1,34.2 109.1,38.9 102.3,38.9 102.3,46.6 
	109.7,46.6 109.8,51.4 "/>
<path d="M124.5,50.8c-1.3,0.7-3.1,1-5.2,1c-3.1,0-5.4-1.3-6.9-4c-1.6-2.7-2.3-6.2-2.3-10.6c0-2.9,0.2-5.4,0.7-7.5s1.4-3.8,2.8-5.1
	c1.4-1.3,3.3-1.9,5.8-1.9c2.4,0,4.2,0.3,5.2,0.8v5.2c-1.2-0.6-2.4-1.4-4.4-1.4c-2.2,0-3.3,0.7-3.8,2.4c-0.5,1.6-0.8,3.7-0.8,7.3
	c0,7.4,1.8,10.1,3.8,10.1c2.1,0,3.8-0.9,5.1-1.6L124.5,50.8L124.5,50.8z"/>
<polygon points="125.7,51.4 125.7,22.9 131.1,22.9 131.1,33 136.6,33 136.6,22.9 141.9,22.9 141.9,51.4 136.6,51.4 136.6,38.3 
	131.2,38.3 131.1,51.4 "/>
<polygon points="147.6,51.3 147.6,27.8 142.3,27.8 142.3,22.8 158.3,22.8 158.3,27.8 153.1,27.8 153.1,51.3 "/>
<path class="st2" d="M6.4,50.7V23.5H12c3.7,0,6.4,1,7.9,3.1c1.6,2.1,2.3,5.4,2.3,10.1c0,3.4-0.3,6.1-1,8.2c-0.6,2.1-1.7,3.6-3.2,4.5
	s-3.6,1.4-6.2,1.4H6.4V50.7z M11.8,47.3c2.5,0,4.3-0.7,5.1-2.1c0.9-1.4,1.3-4.3,1.3-8.6c0-4-0.5-6.6-1.5-7.8c-1-1.2-2.6-1.8-4.7-1.8
	h-1.7v20.3H11.8L11.8,47.3z"/>
<path class="st2" d="M32.5,23.3c3.3,0,5.6,1.2,6.7,3.6c1.1,2.4,1.7,5.8,1.7,10.3c0,4.2-0.7,7.6-2,10.1c-1.3,2.5-3.5,3.8-6.4,3.8
	s-5-1.3-6.3-3.8c-1.3-2.6-2-5.9-2-10.1c0-2.9,0.2-5.3,0.6-7.3s1.3-3.6,2.5-4.8C28.6,23.9,30.3,23.3,32.5,23.3L32.5,23.3z M32.5,26.5
	c-1.8,0-3,0.9-3.6,2.7C28.3,31,28,33.7,28,37.1c0,7.1,1.5,10.6,4.5,10.6s4.6-3.5,4.6-10.6c0-3.5-0.3-6.1-0.9-7.9
	C35.6,27.4,34.4,26.5,32.5,26.5L32.5,26.5z"/>
<path class="st2" d="M47.5,37.6v13.2h-3.9V23.5h5.7c2.6,0,4.5,0.6,5.8,1.7s1.9,3,1.9,5.6c0,2-0.5,3.5-1.4,4.6s-2.3,1.8-4.1,1.9
	l6.9,13.4h-4.2L47.5,37.6L47.5,37.6z M47.5,35.3H49c1.3,0,2.4-0.3,3-1c0.7-0.6,1-1.9,1-3.7c0-1.4-0.3-2.4-0.9-3
	c-0.6-0.6-1.6-1-2.9-1h-1.7L47.5,35.3L47.5,35.3z"/>
<path class="st2" d="M61.3,50.7V23.5h5.6c3.7,0,6.4,1,7.9,3.1c1.6,2.1,2.3,5.4,2.3,10.1c0,3.4-0.3,6.1-1,8.2
	c-0.6,2.1-1.7,3.6-3.2,4.5s-3.6,1.4-6.2,1.4h-5.4V50.7z M66.7,47.3c2.5,0,4.3-0.7,5.1-2.1c0.9-1.4,1.3-4.3,1.3-8.6
	c0-4-0.5-6.6-1.5-7.8c-1-1.2-2.6-1.8-4.7-1.8h-1.7v20.3H66.7L66.7,47.3z"/>
<path class="st2" d="M83.8,37.6v13.2h-3.9V23.5h5.7c2.6,0,4.5,0.6,5.8,1.7s1.9,3,1.9,5.6c0,2-0.5,3.5-1.4,4.6s-2.3,1.8-4.1,1.9
	l6.9,13.4h-4.2L83.8,37.6L83.8,37.6z M83.8,35.3h1.4c1.3,0,2.4-0.3,3-1c0.7-0.6,1-1.9,1-3.7c0-1.4-0.3-2.4-0.9-3s-1.6-1-2.9-1h-1.7
	L83.8,35.3L83.8,35.3z"/>
<polygon class="st2" points="97.5,50.7 97.5,23.5 109.1,23.5 109.1,26.8 101.4,26.8 101.4,34.9 108.5,34.9 108.5,38.1 101.4,38.1 
	101.4,47.4 109.1,47.4 109.1,50.7 "/>
<path class="st2" d="M123.8,50.1c-1.2,0.6-2.8,0.9-4.6,0.9c-2.7,0-4.8-1.3-6.2-3.8c-1.4-2.6-2.1-5.9-2.1-10.1c0-2.8,0.2-5.1,0.6-7.2
	c0.4-2,1.3-3.7,2.5-4.9c1.2-1.2,3-1.8,5.2-1.8s3.7,0.3,4.7,0.8v3.3c-1.1-0.6-2.6-0.9-4.3-0.9c-2,0-3.3,0.9-3.9,2.8s-0.9,4.5-0.9,7.9
	c0,7.1,1.5,10.6,4.5,10.6c1.9,0,3.5-0.4,4.6-1.1L123.8,50.1L123.8,50.1z"/>
<polygon class="st2" points="126.4,50.7 126.4,23.5 130.4,23.5 130.4,33.9 137.3,33.9 137.3,23.5 141.2,23.5 141.2,50.7 137.3,50.7 
	137.3,37.3 130.4,37.3 130.4,50.7 "/>
<polygon class="st2" points="148.3,50.7 148.3,26.9 143,26.9 143,23.5 157.7,23.5 157.7,26.9 152.3,26.9 152.3,50.7 "/>
</svg>
