<?xml version="1.0" encoding="utf-8"?>
<!-- Generator: Adobe Illustrator 22.0.1, SVG Export Plug-In . SVG Version: 6.00 Build 0)  -->
<svg version="1.1" id="Layer_1" xmlns="http://www.w3.org/2000/svg" xmlns:xlink="http://www.w3.org/1999/xlink" x="0px" y="0px"
	 viewBox="0 0 2500 2500" style="enable-background:new 0 0 2500 2500;" xml:space="preserve">
<style type="text/css">
	.st0{fill:none;}
	.st1{fill:#FFFFFF;}
	.st2{fill:#1879BF;}
</style>
<g>
	<path class="st0" d="M0,0h2500v2500H0V0z"/>
	<path class="st1" d="M313.2,561.6l25.5,37.4c1.3,2,133.6,199.3,133.6,486.7c0,210.1-231.4,402.8-233.7,404.7l-23.4,19.1l1.8,30.2
		c0.8,14.4,24.7,354.4,366,497.1c152.7,63.8,244.5,85.8,311.7,101.9c56.6,13.6,93.9,22.5,142.9,48.9
		c120.2,64.7,161.3,130.7,161.4,130.7c0,0,49.9,61.6,50.3,61l52-60.3c0.4-0.7,41.6-66.6,161.7-131.3c49-26.4,86.3-35.3,142.9-48.9
		c67.1-16,159-38.1,311.7-101.9c341.3-142.7,365.2-482.7,366-497.1c0,0,1.8-30.1,1.8-30.1l-23.3-19.1
		c-2.4-1.9-233.8-194.7-233.8-404.7c0-287.4,132.2-484.7,133.5-486.6l25.8-37.5l-29.5-34.6l-162.6-190.4c0,0-22.5-26.3-22.6-26.3
		l-33.9,6.6c-1.5,0.3-147.1,27.7-276-28.7c-19.8-8.7-39.5-32.2-60.3-57.1c-39-46.6-92.3-110.5-186.4-110.5
		c-75.1,0-130.3,29.7-166.1,58.3c-35.8-28.6-90.9-58.3-166-58.3c-94.2,0-147.5,63.9-186.4,110.5c-20.8,24.9-40.5,48.4-60.3,57.1
		c-128.9,56.4-274.5,28.9-275.8,28.7l-34.1-6.8l-22.6,26.5L342.6,527.1L313.2,561.6L313.2,561.6z"/>
	<path class="st2" d="M2292.2,1501.6c-0.2-0.2-23.5-19.3-23.5-19.3h0c-2.3-1.9-230-191.5-230-396.6c0-283.1,130.4-478.7,131.7-480.7
		c-0.1,0.1,25.8-37.4,25.8-37.4l4.6-6.6l-5.2-6.1l-29.6-34.6l-162.5-190.4c-26.4-30.9-26.4-30.9-32.5-29.8l-34,6.6
		c-1.4,0.3-144.5,26.8-269.8-28c-17.6-7.7-36.5-30.3-56.4-54.2c-40.3-48.2-95.4-114.2-194.5-114.2c-75.4,0-130.9,29.2-166.1,55.7
		c-35.1-26.5-90.6-55.7-166-55.7c-99.1,0-154.2,66-194.5,114.2c-20,23.9-38.9,46.5-56.4,54.2c-125.2,54.8-268.2,28.3-269.6,28
		l-34-6.8l-6-1.2l-4,4.7l-22.6,26.4L334.6,520.2c-34.6,40.5-34.6,40.5-30.1,47.2l25.6,37.5c1.3,1.9,131.8,197.5,131.8,480.8
		c0,205-227.6,394.7-229.9,396.6l-23.4,19.2l-4.1,3.4l0.3,5.4l1.8,30.2c0.9,14.7,25.2,361,372.5,506.1
		c153.5,64.1,245.8,86.3,313.3,102.4c55.7,13.4,92.6,22.2,140.3,47.9c114.9,61.9,155.8,124.4,157.5,127.1l0.5,0.9
		c0.3,0.2,0.5,0.5,0.7,0.8c52.3,64.6,52.3,64.6,58.6,64.2l5.4-0.4l2.4-3.9l51.4-59.7l0.6-0.6l0.5-0.8c0.4-0.5,41.2-64.8,157.8-127.5
		c47.8-25.7,84.6-34.5,140.4-47.9c67.4-16.2,159.8-38.3,313.2-102.4c347.3-145.1,371.6-491.5,372.5-506.1
		C2296.2,1505,2296.2,1505,2292.2,1501.6L2292.2,1501.6z M1913.6,2027.1c-151.9,63.5-243.4,85.4-310.1,101.4
		c-57.4,13.8-95.2,22.8-145.4,49.9c-115.6,62.3-160,126.3-165.2,134.2l-43.6,50.6c-14-17-27.9-34.1-41.8-51.2
		c-4-6.1-48.4-71-164.9-133.7c-50.2-27-88.1-36.1-145.4-49.9c-66.7-16-158.2-37.9-310.1-101.4c-335.4-140.2-358.8-473.9-359.6-488
		l-1.5-24.9l19.2-15.7c2.4-1.9,237.6-197.4,237.6-412.8c0-290.9-134.1-490.6-135.4-492.6c0,0-13.7-20.1-21-30.8
		c6.1-7.3,16.8-19.7,24.2-28.4l162.6-190.4l18.6-21.8l28.1,5.6c1.6,0.3,150.3,28.3,282.1-29.4c22.1-9.7,42.5-34.1,64.1-60
		c37.6-45,89.1-106.7,178.4-106.7c74,0,127.5,30.5,159.5,56l6.5,5.2l6.5-5.2c31.9-25.5,85.5-56,159.5-56
		c89.2,0,140.7,61.6,178.4,106.7c21.6,25.9,42,50.3,64.1,60c131.4,57.5,280.7,29.6,282.1,29.4l28-5.5c4.7,5.5,12.9,15,18.5,21.6
		l162.6,190.4c0,0,15.9,18.6,24.3,28.5l-21.3,30.8c-1.4,2-135.4,201.8-135.4,492.5c0,215.5,235.2,410.9,237.6,412.8l19.2,15.8
		c-0.4,6.4-1,17.2-1.4,24.8C2272.4,1553.2,2248.9,1886.9,1913.6,2027.1L1913.6,2027.1z"/>
	<path class="st2" d="M2231.1,1528.1c-2.5-2-251.6-208.8-251.6-442.4c0-304,140.7-512.2,142.1-514.3l4.6-6.6l-5.2-6.1l-162.6-190.4
		l-4-4.7l-6,1.2c-1.6,0.3-161.2,31-304.9-31.8c-30.4-13.3-53.6-41.1-78.1-70.5c-38.2-45.7-77.6-92.9-149-92.9
		c-91.6,0-146.1,53-166.1,76.9c-19.9-23.9-74.4-76.9-166-76.9c-71.3,0-110.8,47.3-149,92.9c-24.6,29.4-47.8,57.2-78.2,70.5
		c-143.7,62.9-303.3,32.1-304.9,31.8l-6-1.2l-4,4.7L379.7,558.7l-5.2,6.1l4.6,6.6c1.4,2.1,142.1,210.2,142.1,514.3
		c0,233.7-249.1,440.4-251.6,442.4l-4.1,3.4l0.3,5.3c0.2,3.2,22.6,323.9,336.2,454.9c149,62.3,235.1,82.9,304.2,99.5
		c58.1,13.9,100.1,24,154.7,53.3c134.8,72.6,180.1,148.5,180.5,149.3l9.1,15.6c0,0,9-15.6,9-15.6v0c0.4-0.8,45.7-76.7,180.5-149.3
		c54.5-29.4,96.5-39.4,154.7-53.3c69.2-16.5,155.2-37.2,304.2-99.5c313.6-131,336-451.7,336.2-454.9l0.3-5.3L2231.1,1528.1
		L2231.1,1528.1z M1855.6,393.8c21.4-0.2,42.9-1.4,64.2-3.7L600.1,1968c-12.6-5.5-25.1-11.5-37.3-17.9L1855.6,393.8L1855.6,393.8z
		 M1890.7,1972.4c-147.5,61.6-232.6,82-301,98.4c-57.4,13.8-102.7,24.6-159.7,55.3c-108.3,58.4-160.5,118-179.7,144
		c-19.1-25.9-71.3-85.6-179.7-144c-56.9-30.7-102.3-41.5-159.7-55.3c-66.8-16-149.7-35.9-290.8-94.2L1948.3,388.9l151.8,177.5
		c-24.3,38.5-141.4,239.2-141.4,519.3c0,229.4,220.3,425.6,255,455C2209.5,1581.1,2170.9,1855.4,1890.7,1972.4L1890.7,1972.4z"/>
	<path class="st2" d="M1922,1574.8c-0.1-0.8-0.1-1.5-0.2-2.3c-0.5-6.7-1.1-13.4-1.9-20.1c-0.1-0.1-0.1-0.2-0.1-0.4l-0.6-4.9
		c-13.1-92.1-62.7-172.7-133.8-226.3l0-0.2l-4.2-3c-1.6-1.1-3.2-2.1-4.8-3.2c-3.8-2.7-7.6-5.3-11.5-7.8c-2.3-1.5-4.6-3-6.9-4.4
		c-5.7-3.4-11.4-6.7-17.2-9.8c-2.2-1.2-4.5-2.4-6.8-3.5c-4.7-2.4-9.5-4.7-14.3-6.9c-1.9-0.8-3.7-1.8-5.7-2.6
		c-6.5-2.8-13.1-5.4-19.8-7.7c-1.7-0.6-3.5-1.2-5.2-1.8c-6.1-2.1-12.2-4-18.3-5.7c-1.1-0.3-2.3-0.6-3.4-0.9c-7.5-2-15-3.7-22.6-5.2
		c-0.9-0.1-1.7-0.3-2.6-0.4c-7.9-1.5-15.9-2.7-23.9-3.6c-8.2-0.9-16.4-1.6-24.6-1.9h-0.1l-6.3-0.3l-0.1,0.1
		c-2.7-0.1-5.4-0.2-8.2-0.2c-75.1-0.1-148.1,24.6-207.7,70.1l-0.2-0.1l-5.1,4.1c-1.1,0.9-2.2,1.9-3.3,2.8c-2.8,2.3-5.5,4.6-8.2,6.9
		c-6.6,5.7-13.1,11.7-19.2,17.9c-2.3,2.3-4.4,4.6-6.6,6.9c-2.3,2.4-4.7,5-6.9,7.5c-2.1,2.3-4.2,4.7-6.2,7.1c-4.6,5.6-9,11.2-13.3,17
		c-3.1,4.3-6.2,8.7-9.2,13.1c-1.5,2.2-2.9,4.5-4.3,6.7c-2.2,3.4-4.4,6.9-6.4,10.5l-3.9,6.7c-2.5,4.5-4.8,9-7.1,13.6
		c-0.7,1.3-1.3,2.5-2,3.8c-2.8,5.8-5.4,11.9-8,18c-0.3,0.5-0.5,1.1-0.8,1.6l-3.1,7.7l0.2,0.1c-14.8,38.9-22.4,80.2-22.4,121.8
		c0,29.3,3.7,57.8,10.7,85h-0.1l0.1,0.5c0.1,0.4,0.3,0.8,0.4,1.3l1,3.6c0.2,0.6,0.4,1.2,0.6,1.8c1.7,6.2,3.6,12.2,5.7,18.3
		c0.5,1.4,1,2.8,1.4,4.2c2.4,6.7,4.9,13.3,7.7,19.8c0.5,1.2,1.1,2.3,1.6,3.5c2.3,5.1,4.6,10.1,7.1,15.1c1.1,2.3,2.3,4.6,3.5,6.9
		c2.2,4.2,4.6,8.4,7,12.5c1.6,2.8,3.2,5.5,4.9,8.2c2.7,4.4,5.6,8.8,8.6,13.2c1.8,2.7,3.7,5.3,5.7,8c2.1,2.9,4.3,5.8,6.5,8.7
		c2,2.6,4,5.2,6.1,7.8c3.7,4.5,7.6,9,11.6,13.3c2.3,2.5,4.6,4.8,6.9,7.2c2.5,2.6,5,5.1,7.6,7.7c1.5,1.4,2.9,3,4.4,4.4l4.1,3.9
		l0.1-0.1c16.1,14.6,33.6,27.7,52.2,39c-38.1,1.4-111.1,4.2-111.1,4.2c-12.8,0-21.2,17.5-21.2,29.6c0,11.5,7.3,19.2,18,19.2
		c12.2,0.3,304.7,6.9,354.2-7.3c4-1.1,9.1-2.4,14.4-3.8c12.5-3.1,26.6-6.7,35.7-10.5c0.2-0.1,0.3-0.1,0.4-0.2
		c93.3-32.5,168.3-103.4,205.9-194.8l0.1,0l2.3-5.9c0.2-0.5,0.3-1,0.5-1.4c3.4-8.9,6.5-17.9,9.1-27.2c0.4-1.1,0.6-2.2,1-3.3
		c2.5-9.1,4.7-18.2,6.5-27.6l0.7-3.7c1.7-9.2,3-18.6,3.9-28.1c0.1-1.1,0.2-2.2,0.2-3.2c0.9-9.8,1.4-19.6,1.4-29.6
		C1922.6,1588.5,1922.4,1581.6,1922,1574.8L1922,1574.8z M1559.8,1872.1v11.1l-124.8,4.7c-24.7-12.1-47.7-27.4-68.6-45.3l38.2-16.1
		l8.1-3.4l-3.5-8.1l-35-79.6l97.2-50.8l134.9,49.8l12.1,110.3l-53.6,25.2L1559.8,1872.1L1559.8,1872.1z M1868.1,1524.8l-7.7-3.4
		l-3.7,7.6l-38.3,80.1l-1.3,2.8l0.7,3l24.4,101l1.5,6.2l6.4,0.5l28.5,1.8c-25.7,59.2-68.3,109.5-122.5,144.7l-4.9-24.5l-1.4-7.2
		l-7.3,0.2l-106.9,3.3l-12.1-110.2l89.5-113.4l52.9,7.8l2.5-17.2l-54-8l-82.9-124.1l-3.5-5.2l-6.1,1.7l-143.5,40.4l-54.8-35.8
		l-9.5,14.6l54.1,35.3l-5.7,143l-97.6,51l-68.6-71.9l-5.7-5.9l-6.3,5.3l-23.2,19.6c-5.5-23.7-8.2-47.9-8.3-72.2
		c0-40.3,7.7-78.7,21.1-114.4l15.9,7.3l4.5,2.1l4.1-2.8l66.2-45.3l2-1.3l1-2.2l38.3-83.6l3-6.5l-5.8-4.2l-16.5-11.8
		c54.1-39.8,120.5-63.5,192.6-63.5c0.6,0,1.2,0.1,1.8,0.1l-10,27.1l-2,5.5l4.4,4l66.1,59.2l2.2,1.9l2.9,0.3l125.4,10.4l8.3,0.7
		l1-8.3l3.6-29c61.7,49.5,103.3,119.7,117.1,197.6L1868.1,1524.8L1868.1,1524.8z"/>
	<path class="st1" d="M512.3,1512.3l-71.6,85.6l33.9,28.4l65.8-78.6l28.5,23.9l-65.8,78.6l41.7,35l74.8-89.4l28.5,23.9l-102.5,122.4
		l-161.3-134.9l99.3-118.6L512.3,1512.3L512.3,1512.3z M694.8,1563.8l-28.2,33.7l-161.2-135l28.2-33.7L694.8,1563.8L694.8,1563.8z
		 M640,1301.7l26.3-31.5l161.2,135l-28.2,33.6l-170.1-30.4l-0.4,0.4l115,96.3l-26.3,31.5l-161.2-135l29.7-35.5l165.8,30l0.4-0.4
		L640,1301.7z M746.6,1231l27.1-32.3c12-14.4,34.8-33.8,82.4,6c26.5,22.2,46.4,54.6,23.5,81.9l-27.5,32.8L746.6,1231L746.6,1231z
		 M852.3,1375.6l58.5-69.8c44.5-53.2,6.2-108.7-28.4-137.6c-30.5-25.6-86.2-53-131.7,1.3l-59.6,71.2L852.3,1375.6L852.3,1375.6z
		 M940.8,1123.1l72.3,60.6l-28.2,33.7l-161.2-135l28.2-33.7l61.1,51.1l52.6-62.9l-61.1-51.1l28.2-33.7l161.2,135l-28.2,33.7
		l-72.3-60.5L940.8,1123.1L940.8,1123.1z M1060.9,962.8c-45.2-37.8-34.9-72.8-19.7-91c15.2-18.2,47.9-34.4,93,3.4
		c45.1,37.8,35,72.8,19.7,91C1138.7,984.4,1106,1000.6,1060.9,962.8z M1032.7,996.5c75.7,63.3,131.9,14.9,149.7-6.4
		c17.9-21.3,55.6-85.2-20-148.5c-75.7-63.3-131.9-14.9-149.7,6.4C994.8,869.3,957,933.1,1032.7,996.5L1032.7,996.5z M1180.3,656.3
		l29.3-35L1325,811.1l-26.9,32.1l-206.7-80.6l30.2-36.1l151.1,67.7l0.4-0.4L1180.3,656.3L1180.3,656.3z M1353,508l-71.6,85.6
		l33.9,28.4l65.8-78.6l28.6,23.9l-65.8,78.6l41.8,35l74.8-89.4l28.5,23.9l-102.4,122.4l-161.3-135l99.3-118.6L1353,508L1353,508z
		 M1430.7,357.2l26.3-31.4l161.2,135l-28.2,33.7L1420,464l-0.4,0.5l115,96.2l-26.3,31.4l-161.2-135l29.7-35.5l165.9,30l0.4-0.4
		L1430.7,357.2z M685.6,726.4l0-101.1l112.7,0v-40.9l-112.8,0l0-48.6l122.7,0l0-40.9l-170.1,0l0,231.3L685.6,726.4L685.6,726.4z
		 M941,685.5c-26.1,0-62.9-16.1-62.8-80.9c0-64.8,36.7-80.9,62.8-80.9c15.6,0,35.1,5.9,48.1,24.5v-55.7c-15.3-6.4-31.6-9.7-48.1-9.7
		c-30.6,0-111.2,13.2-111.2,121.8c0,108.6,80.5,121.8,111.2,121.8c11.4,0,29.7-1.9,48.1-9.7V661C976.1,679.6,956.7,685.5,941,685.5z
		"/>
</g>
</svg>
