<?xml version="1.0" encoding="utf-8"?>
<!-- Generator: Adobe Illustrator 13.0.2, SVG Export Plug-In . SVG Version: 6.00 Build 14948)  -->
<!DOCTYPE svg PUBLIC "-//W3C//DTD SVG 1.0//EN" "http://www.w3.org/TR/2001/REC-SVG-20010904/DTD/svg10.dtd">
<svg version="1.0" id="Ebene_1" xmlns="http://www.w3.org/2000/svg" xmlns:xlink="http://www.w3.org/1999/xlink" x="0px" y="0px"
	 width="276.405181979" height="361.787717886" viewBox="0 0 588.98 770.918" enable-background="new 0 0 588.98 770.918"
	 xml:space="preserve">
<path fill-rule="evenodd" clip-rule="evenodd" fill="#FFFFFF" d="M549.496,115.856c0.514,0,1.02,0.026,1.52,0.077
	c7.502,0.763,13.402,7.101,13.402,14.73c0,157.543,0,315.086,0,472.63c-0.477,49.215-67.943,62.625-129.555,80.475
	c-51.449,14.904-105.852,34.356-140.31,80.243c-30.761-46.318-94.339-65.09-147.602-82.632
	c-37.128-12.228-81.054-21.963-104.882-42.383L549.496,115.856L549.496,115.856z"/>
<path fill-rule="evenodd" clip-rule="evenodd" fill="#E43B3B" d="M42.07,638.996c-10.831-9.28-17.509-20.77-17.509-35.703
	c0-157.544,0-315.087,0-472.63c0-8.144,6.715-14.807,14.922-14.807c170.004,0,340.009,0,510.013,0L42.07,638.996L42.07,638.996z"/>
<path d="M39.483,111.856h510.013c5.191,0,9.918,2.116,13.35,5.522c3.439,3.411,5.572,8.115,5.572,13.285v472.63v0.031
	c-0.457,47.28-56.559,62.979-113.861,79.013c-6.318,1.768-12.654,3.54-18.584,5.259c-25.498,7.387-51.723,15.897-75.824,28.237
	c-23.855,12.214-45.602,28.188-62.408,50.568l-3.391,4.517l-3.124-4.704c-28.356-42.698-86.206-61.627-136.944-78.229
	c-4.042-1.322-7.928-2.594-8.58-2.809c-7.812-2.572-16.059-5.073-24.354-7.588c-49.556-15.023-100.787-30.555-100.787-74.295
	v-472.63c0-5.172,2.134-9.875,5.571-13.285C29.564,113.971,34.292,111.856,39.483,111.856L39.483,111.856z M549.496,119.856H39.483
	c-3.016,0-5.75,1.217-7.726,3.178c-1.972,1.957-3.196,4.657-3.196,7.629v472.63c0,37.808,48.34,52.463,95.1,66.639
	c8.273,2.508,16.5,5.002,24.542,7.65c5.004,1.648,6.832,2.247,8.549,2.809c50.206,16.428,107.205,35.082,137.976,76.911
	c17.129-21.255,38.524-36.677,61.797-48.594c24.578-12.583,51.279-21.251,77.23-28.769c6.42-1.86,12.557-3.577,18.678-5.29
	c54.363-15.212,107.586-30.105,107.988-71.388V130.663c0-2.97-1.227-5.671-3.199-7.628
	C555.246,121.074,552.512,119.856,549.496,119.856L549.496,119.856z"/>
<polygon fill-rule="evenodd" clip-rule="evenodd" fill="#FFFFFF" points="4,268.69 584.98,268.69 584.98,371.891 4,371.891 
	4,268.69 "/>
<path d="M4,264.69h580.98h4v4v103.201v4h-4H4H0v-4V268.69v-4H4L4,264.69z M580.98,272.69H8v95.201H580.98V272.69L580.98,272.69z"/>
<path fill-rule="evenodd" clip-rule="evenodd" fill="#FFFFFF" d="M299.285,4C356.916,4,403.92,51.004,403.92,108.634
	c0,57.63-47.004,104.633-104.635,104.633c-57.63,0-104.633-47.003-104.633-104.633C194.652,51.004,241.655,4,299.285,4L299.285,4z"
	/>
<path d="M402.779,81.218c1.387,1.441,2.773,2.882-0.102,5.648s-4.262,1.324-5.648-0.117c-14.586-15.165-30.176-26.468-46.811-33.717
	c-16.535-7.205-34.178-10.415-52.98-9.442c-1.997,0.103-3.994,0.207-4.198-3.793c-0.203-4,1.794-4.104,3.791-4.207
	c20.012-1.036,38.854,2.408,56.575,10.13C371.023,53.397,387.465,65.296,402.779,81.218L402.779,81.218z M400.729,142.137
	c0.758,1.85,1.518,3.701-2.17,5.217s-4.447-0.335-5.205-2.185c-5.793-14.135-10.107-20.884-15.768-23.612
	c-5.666-2.732-13.787-1.896-26.713-0.667l-2.443,0.232l-1.305-2.077c-7.348-11.685-11.744-17.374-17.404-19.317
	c-5.822-1.999-14.172-0.576-29.15,2.036c-1.969,0.344-3.94,0.687-4.611-3.25c-0.672-3.938,1.299-4.281,3.27-4.625
	c16.268-2.837,25.354-4.377,33.086-1.723c7.473,2.565,12.605,8.604,20.244,20.555c12.885-1.22,21.244-1.849,28.496,1.648
	C388.762,118.084,394.113,125.996,400.729,142.137L400.729,142.137z M277.938,4.068c0.729-1.862,1.458-3.725,5.176-2.271
	s2.99,3.315,2.261,5.178c-0.383,0.98-0.872,2.131-1.383,3.334c-1.861,4.386-4.087,9.631-3.249,11.468
	c1.144,2.502,5.085,4.457,8.799,6.298c5.803,2.877,11.222,5.565,11.397,11.728c0.123,4.256-4.582,7.898-9.741,11.893
	c-4.43,3.43-9.331,7.225-9.364,9.294c-0.235,14.26,6.646,20.545,13.932,27.2c2.507,2.291,5.06,4.621,7.486,7.322l1.25,1.391
	l-0.266,1.844c-0.24,1.67-0.561,3.297-0.953,4.877c-2.623,10.551-8.438,18.497-15.595,23.535
	c-7.257,5.109-15.901,7.227-24.047,6.057c-0.997-0.143-1.999-0.339-3-0.588c-2.016-0.501-3.966-1.193-5.849-2.057
	c-13.997-6.424-23.458-22.276-28.411-40.257c-4.836-17.558-5.427-37.349-1.737-52.186c0.845-3.399,1.923-6.568,3.234-9.424
	c0.834-1.817,1.668-3.635,5.293-1.979s2.791,3.474,1.957,5.292c-1.09,2.374-2.001,5.072-2.734,8.018
	c-3.377,13.581-2.793,31.853,1.706,48.186c4.382,15.911,12.421,29.784,24.005,35.101c1.413,0.648,2.895,1.172,4.442,1.557
	c0.72,0.179,1.461,0.323,2.219,0.432c6.16,0.884,12.747-0.753,18.328-4.682c5.683-4,10.317-10.378,12.439-18.91
	c0.182-0.729,0.346-1.478,0.491-2.248c-1.817-1.888-3.739-3.644-5.634-5.374c-8.667-7.916-16.851-15.391-16.557-33.23
	c0.097-5.887,6.605-10.926,12.489-15.482c3.464-2.682,6.623-5.128,6.616-5.362c-0.039-1.373-3.367-3.023-6.93-4.79
	c-4.944-2.452-10.192-5.055-12.517-10.142c-2.305-5.043,0.668-12.048,3.155-17.905C277.105,6.111,277.541,5.084,277.938,4.068
	L277.938,4.068z M234.263,193.479c-2-0.005-4-0.011-4-4.011s2-3.995,4-3.989c29.985,0.083,54.515-5.338,73.344-16.83
	c18.639-11.376,31.822-28.826,39.318-52.916c0.594-1.91,1.188-3.819,5-2.632s3.219,3.097,2.625,5.006
	c-8.098,26.022-22.445,44.938-42.787,57.354C291.608,187.762,265.696,193.565,234.263,193.479L234.263,193.479z M203.299,153.272
	c-1.949-0.448-3.898-0.896-3.008-4.787s2.84-3.442,4.789-2.995c8.739,2.009,16.093,0.637,22.278-3.583
	c6.481-4.422,11.877-11.977,16.391-22.077c0.816-1.826,1.632-3.652,5.272-2.027c3.641,1.625,2.824,3.451,2.008,5.277
	c-5.113,11.44-11.413,20.126-19.172,25.42C223.804,153.997,214.369,155.817,203.299,153.272L203.299,153.272z M299.285,0
	c29.92,0,57.078,12.2,76.756,31.877c19.68,19.678,31.879,46.837,31.879,76.757c0,29.919-12.201,57.078-31.879,76.756
	s-46.836,31.877-76.756,31.877c-29.918,0-57.078-12.199-76.756-31.877c-19.678-19.678-31.877-46.837-31.877-76.756
	c0-29.919,12.199-57.079,31.877-76.757C242.207,12.2,269.366,0,299.285,0L299.285,0z M370.385,37.534
	C352.154,19.303,326.996,8,299.285,8c-27.71,0-52.869,11.303-71.1,29.534s-29.534,43.39-29.534,71.101
	c0,27.71,11.303,52.869,29.534,71.1s43.39,29.534,71.1,29.534c27.711,0,52.869-11.303,71.1-29.534
	c18.232-18.231,29.535-43.389,29.535-71.1C399.92,80.923,388.617,55.765,370.385,37.534L370.385,37.534z"/>
<path fill-rule="evenodd" clip-rule="evenodd" d="M328.779,575.42h-19.094v17.185h-6.922V575.42h-18.855v17.185h-7.161V575.42
	h-19.094v18.855h10.502v33.653h-10.502v10.502h71.126v-10.502h-10.502v-33.653h10.502V575.42L328.779,575.42z M285.817,611.938
	h14.798v15.991h-14.798V611.938L285.817,611.938z"/>
<polygon fill-rule="evenodd" clip-rule="evenodd" fill="#E43B3B" points="120.772,594.991 124.519,606.66 136.644,606.66 
	126.834,613.873 130.582,625.542 120.772,618.33 110.962,625.542 114.709,613.873 104.9,606.66 117.025,606.66 120.772,594.991 "/>
<polygon fill-rule="evenodd" clip-rule="evenodd" fill="#E43B3B" points="167.075,594.753 170.821,606.422 182.947,606.422 
	173.137,613.634 176.884,625.304 167.075,618.092 157.266,625.304 161.013,613.634 151.203,606.422 163.328,606.422 
	167.075,594.753 "/>
<polygon fill-rule="evenodd" clip-rule="evenodd" fill="#E43B3B" points="214.372,594.991 218.119,606.661 230.244,606.661 
	220.435,613.873 224.182,625.542 214.372,618.33 204.563,625.542 208.31,613.873 198.5,606.661 210.625,606.661 214.372,594.991 "/>
<polygon fill-rule="evenodd" clip-rule="evenodd" fill="#E43B3B" points="372.771,594.991 376.52,606.661 388.645,606.661 
	378.834,613.873 382.582,625.542 372.771,618.33 362.963,625.542 366.709,613.873 356.9,606.661 369.025,606.661 372.771,594.991 
	"/>
<polygon fill-rule="evenodd" clip-rule="evenodd" fill="#E43B3B" points="419.074,594.753 422.822,606.422 434.947,606.422 
	425.137,613.634 428.885,625.304 419.074,618.092 409.266,625.304 413.012,613.634 403.203,606.422 415.328,606.422 
	419.074,594.753 "/>
<polygon fill-rule="evenodd" clip-rule="evenodd" fill="#E43B3B" points="466.373,594.991 470.119,606.661 482.244,606.661 
	472.436,613.873 476.182,625.542 466.373,618.33 456.563,625.542 460.311,613.873 450.5,606.661 462.625,606.661 466.373,594.991 
	"/>
<path fill-rule="evenodd" clip-rule="evenodd" d="M136.644,289.127h-19.452c-5.447,0-9.905,4.457-9.905,9.905v40.336
	c0,5.448,4.457,9.905,9.905,9.905h19.452l9.965,0.06l-0.06-21.978l-13.485-0.04l-0.015,9.651l-9.691-0.007l0.002-35.374l9.167-0.013
	l0.06,6.768l13.962,0.04v-19.253H136.644L136.644,289.127z"/>
<polygon fill-rule="evenodd" clip-rule="evenodd" points="253,289.246 272.332,289.246 286.534,316.097 300.734,289.246 
	319.828,289.246 319.828,301.657 316.01,301.657 315.996,337.089 319.828,337.101 319.828,349.631 300.139,349.631 300.125,318.031 
	286.414,342.232 272.021,317.143 271.974,349.631 253,349.631 253,337.101 257.057,337.101 257.057,301.657 253,301.657 
	253,289.246 "/>
<polygon fill-rule="evenodd" clip-rule="evenodd" points="336.059,289.007 355.391,289.007 369.592,315.858 383.793,289.007 
	402.887,289.007 402.887,301.418 399.068,301.418 399.055,336.851 402.887,336.862 402.887,349.393 383.197,349.393 
	383.184,317.792 369.473,341.994 355.078,316.904 355.033,349.393 336.059,349.393 336.059,336.862 340.115,336.862 
	340.115,301.418 336.059,301.418 336.059,289.007 "/>
<polygon fill-rule="evenodd" clip-rule="evenodd" points="479.461,289.127 498.795,289.127 515.143,322.542 515.143,289.127 
	534.238,289.127 534.236,301.538 530.418,301.538 530.406,336.97 534.236,336.981 534.238,349.512 514.547,349.512 498.482,317.023 
	498.436,349.512 479.461,349.512 479.461,336.981 483.52,336.981 483.52,301.538 479.461,301.538 479.461,289.127 "/>
<polygon fill-rule="evenodd" clip-rule="evenodd" points="48.572,337.22 52.391,337.22 52.391,301.418 48.572,301.418 
	48.572,289.246 92.489,289.246 92.489,301.418 92.489,308.221 78.369,308.171 78.407,301.418 69.218,301.418 69.218,312.995 
	81.51,312.995 81.51,323.854 69.218,323.854 69.218,337.22 73.156,337.22 73.156,349.392 48.572,349.392 48.572,337.22 "/>
<polygon fill-rule="evenodd" clip-rule="evenodd" points="192.572,289.246 236.489,289.246 236.489,301.418 236.489,308.221 
	222.369,308.171 222.407,301.418 213.218,301.418 213.218,312.995 225.51,312.995 225.51,323.854 213.218,323.854 213.218,337.339 
	222.168,337.339 222.13,330.586 236.25,330.537 236.25,337.339 236.25,349.512 192.333,349.512 192.333,337.339 196.391,337.339 
	196.391,301.418 192.572,301.418 192.572,289.246 "/>
<polygon fill-rule="evenodd" clip-rule="evenodd" points="418.637,349.512 462.553,349.512 462.553,337.339 462.553,330.537 
	448.434,330.586 448.471,337.339 439.521,337.339 439.521,323.854 451.813,323.854 451.813,312.995 439.521,312.995 
	439.521,301.418 448.709,301.418 448.672,308.171 462.791,308.221 462.791,301.418 462.791,289.246 418.875,289.246 
	418.875,301.418 422.693,301.418 422.693,337.339 418.637,337.339 418.637,349.512 "/>
<polygon fill-rule="evenodd" clip-rule="evenodd" points="418.045,431.498 436.064,431.498 436.064,423.264 432.723,423.264 
	432.723,392.713 421.982,392.713 414.346,399.635 418.047,405.739 422.104,401.663 422.133,423.27 418.045,423.264 418.045,431.498 
	"/>
<path fill-rule="evenodd" clip-rule="evenodd" d="M451.459,392.832h13.246c3.809,0,6.922,3.114,6.922,6.922v24.703
	c0,3.807-3.113,6.921-6.922,6.921h-13.246c-3.807,0-6.922-3.114-6.922-6.921v-4.894l10.441-0.015l-0.111,3.85l6.217,0.023
	l0.063-7.101c-3.15,0.007-6.301,0.089-9.449,0.021c-5.488-0.119-7.16-2.148-7.16-6.086v-10.502
	C444.537,395.946,447.652,392.832,451.459,392.832L451.459,392.832z"/>
<polygon fill-rule="evenodd" clip-rule="evenodd" fill="#FFFFFF" points="455.158,400.708 461.125,400.708 461.125,408.823 
	455.158,408.823 455.158,400.708 "/>
<path fill-rule="evenodd" clip-rule="evenodd" d="M476.777,431.498l-0.018-5.373l15.992-15.927l0.039-9.601l-6.307-0.028
	l-0.021,7.524h-9.703v-8.698c0-3.61,2.953-6.563,6.563-6.563h14.082c3.611,0,5.371,2.954,5.371,6.563v12.21l-10.594,11.966
	l11.787-0.007l-0.002,7.92L476.777,431.498L476.777,431.498z"/>
<path fill-rule="evenodd" clip-rule="evenodd" d="M509.596,392.832h25.74l0.018,6.205v1.854h-15.893l-0.027,4.028
	c3.344,0.004,6.689,0.008,10.035,0.012c3.391,0.003,5.889,1.97,5.885,5.009v15.472c0,3.413-2.791,6.206-6.205,6.206h-13.365
	c-3.414,0-6.205-2.793-6.205-6.206l0.004-7.376l9.465-0.03l-0.029,5.541l6.311,0.04l0.029-9.896h-15.773L509.596,392.832
	L509.596,392.832z"/>
</svg>
