<?xml version="1.0" encoding="UTF-8" standalone="no"?>
<!-- Created with Inkscape (http://www.inkscape.org/) -->
<svg xmlns:dc="http://purl.org/dc/elements/1.1/" xmlns:cc="http://creativecommons.org/ns#" xmlns:rdf="http://www.w3.org/1999/02/22-rdf-syntax-ns#" xmlns:svg="http://www.w3.org/2000/svg" xmlns="http://www.w3.org/2000/svg" version="1.1" width="316" height="316" viewBox="0 0 48001.761 47999.041" id="svg2" xml:space="preserve" style="fill-rule:evenodd"><metadata id="metadata62"><rdf:RDF><cc:Work rdf:about=""><dc:format>image/svg+xml</dc:format><dc:type rdf:resource="http://purl.org/dc/dcmitype/StillImage"/><dc:title/></cc:Work></rdf:RDF></metadata>
 <defs id="defs4"><style type="text/css" id="style6"/></defs>
<symbol viewBox="170128 -138956 28226 236500" transform="translate(-19766.98,-14999.522)" id="Fm0-1658-0">
 <polygon points="170128,97544 198355,97544 198355,-138956 170128,-138956 " id="polygon9" style="fill:#ffffff;fill-rule:nonzero"/>
</symbol>
<symbol viewBox="170246 73983 205262 11810" transform="translate(-19766.98,-14999.522)" id="Fm1-1660-0">
 <polygon points="375508,73983 170246,73983 170246,85793 375508,85793 " id="polygon12" style="fill:#ffffff;fill-rule:nonzero"/>
</symbol>
 <g transform="matrix(0.88209282,0,0,0.88209282,-17436.311,-7571.8388)" id="g3062"><g id="_206857656">
   <path d="M 19767,35822 C 19749,20794 31914,8598 46943,8580 61970,8562 74166,20728 74185,35756 74203,50782 62036,62978 47009,62996 31981,63015 19786,50848 19768,35822 z" id="path22" style="fill:#ae9962;fill-rule:nonzero"/>
   <path d="M 20938,35821 C 20921,21441 32564,9769 46944,9751 61323,9734 72993,21377 73011,35757 73028,50136 61387,61807 47007,61824 32627,61841 20955,50199 20938,35820 z" id="path24" style="fill:#000000;fill-rule:nonzero"/>
   <path d="m 28235,35812 c -13,-10370 8383,-18787 18753,-18800 10370,-12 18787,8384 18799,18755 13,10368 -8383,18786 -18753,18799 -10371,13 -18786,-8384 -18799,-18753 z" id="path26" style="fill:#ae9962;fill-rule:nonzero"/>
   <path d="m 69218,25031 c 55,364 -3,709 -177,1044 -141,267 -325,494 -555,683 -228,185 -459,337 -692,461 -590,302 -1152,439 -1683,410 -716,-37 -1242,-392 -1590,-1064 l -979,-1914 4443,-2272 979,1915 c 137,275 223,520 254,736 z m -1544,-1355 -2900,1482 437,857 c 224,437 593,632 1117,585 283,-27 587,-126 918,-293 454,-231 764,-477 931,-745 170,-262 148,-605 -66,-1031 l -437,-857 z m -2021,-4038 c 72,192 96,386 73,590 -18,163 -62,321 -132,473 -69,149 -174,290 -318,428 -173,161 -383,279 -635,347 -246,69 -496,33 -757,-102 90,231 104,439 43,627 -58,184 -214,396 -470,639 l -245,229 c -164,154 -270,263 -320,336 -75,108 -103,217 -78,333 l -91,85 -783,-838 c 57,-96 108,-171 148,-231 84,-115 178,-222 285,-326 l 334,-322 c 231,-219 344,-405 345,-563 2,-151 -101,-337 -312,-566 l -735,-787 -1429,1337 -695,-743 3644,-3409 1672,1788 c 232,259 387,482 457,676 z m -2066,-1129 -979,916 807,863 c 160,170 300,280 420,330 210,87 415,34 622,-156 220,-206 301,-416 240,-636 -34,-121 -129,-263 -283,-431 l -828,-886 z m -5244,442 c -518,147 -1086,43 -1707,-310 -616,-355 -993,-794 -1127,-1320 -200,-663 -76,-1380 370,-2163 456,-792 1015,-1260 1685,-1404 518,-148 1087,-43 1707,311 616,355 992,794 1126,1320 207,647 82,1365 -372,2162 -446,774 -1004,1240 -1682,1406 z m -187,-983 c 362,-142 685,-457 965,-943 278,-485 388,-918 330,-1307 -57,-384 -262,-678 -622,-888 -357,-208 -717,-238 -1085,-97 -362,142 -684,457 -967,942 -280,487 -391,924 -330,1310 60,386 268,682 629,889 357,208 716,237 1079,94 z m -5301,-1621 c -452,291 -1027,357 -1723,201 -694,-159 -1181,-469 -1464,-933 -385,-574 -475,-1297 -278,-2176 204,-890 602,-1501 1200,-1836 452,-292 1026,-359 1724,-202 692,159 1180,470 1463,933 385,557 476,1281 274,2176 -200,870 -597,1481 -1196,1837 z m -467,-886 c 306,-242 522,-636 647,-1185 125,-544 103,-990 -66,-1345 -167,-351 -449,-573 -854,-669 -402,-91 -757,-17 -1065,225 -305,243 -522,638 -650,1184 -126,548 -105,998 68,1350 169,351 455,574 862,667 402,92 752,16 1058,-227 z m -9263,-4265 1090,-77 2230,3333 -248,-3475 969,-68 354,4977 -1040,73 -2284,-3389 252,3535 -969,69 -355,-4977 z m -2471,1458 -2495,863 346,1002 2291,-792 283,818 -2291,792 419,1213 2612,-903 292,848 -3573,1235 -1630,-4716 3458,-1195 289,835 z m -7007,2157 955,-695 485,3500 1104,1516 -843,614 -1104,-1516 -3229,-1501 994,-723 2116,1147 -477,-2341 z m -3471,3837 -1730,1995 801,693 1588,-1830 655,567 -1589,1831 970,841 1809,-2087 678,587 -2477,2857 -3769,-3269 2398,-2764 667,579 z m -6027,7308 1603,-3154 781,398 -1133,2230 1024,520 992,-1952 772,392 -992,1952 1864,949 -468,923 -4443,-2256 z" id="path28" style="fill:#ae9962;fill-rule:nonzero"/>
   <path d="m 29816,45968 c 13,204 -20,398 -102,586 -65,151 -152,288 -264,414 -111,122 -252,225 -429,316 -213,103 -448,156 -710,147 -255,-6 -484,-113 -695,-320 20,247 -28,451 -141,612 -111,160 -321,316 -635,474 l -302,146 c -203,100 -338,173 -405,228 -103,81 -161,178 -172,295 l -113,55 -504,-1030 c 84,-76 154,-133 210,-178 112,-87 234,-161 367,-229 l 413,-210 c 285,-142 448,-287 495,-439 46,-142 1,-350 -133,-632 l -473,-967 -1757,861 -448,-915 4482,-2194 1076,2199 c 146,316 227,575 238,780 z m -1645,-1682 -1204,589 520,1061 c 103,210 204,355 304,439 177,143 388,154 642,32 270,-133 410,-309 415,-537 2,-127 -47,-290 -145,-495 l -533,-1089 z" id="path30" style="fill:#ae9962;fill-rule:nonzero"/>
   <path d="m 30296,53534 c -538,-12 -1051,-278 -1542,-796 -485,-520 -716,-1050 -691,-1592 2,-693 330,-1342 986,-1959 668,-625 1338,-909 2021,-852 538,11 1052,277 1542,798 485,519 716,1048 691,1591 8,678 -320,1328 -987,1957 -653,610 -1324,895 -2020,854 z m 109,-995 c 389,-31 788,-237 1199,-620 408,-381 639,-764 697,-1153 58,-384 -52,-725 -334,-1033 -283,-301 -619,-437 -1009,-409 -389,30 -788,236 -1202,618 -411,383 -644,769 -698,1157 -55,386 56,730 340,1035 283,301 616,434 1006,405 z" id="path32" style="fill:#ae9962;fill-rule:nonzero"/>
   <polygon points="34752,51406 38145,53603 37664,54344 36412,53534 34179,56980 33298,56410 35531,52964 34272,52148 " id="polygon34" style="fill:#ae9962;fill-rule:nonzero"/>
   <polygon points="39196,54039 43042,55283 42771,56124 41350,55665 40085,59571 39087,59248 40352,55341 38925,54879 " id="polygon36" style="fill:#ae9962;fill-rule:nonzero"/>
   <polygon points="47927,59679 47897,60576 44118,60447 44286,55462 47943,55585 47914,56466 45274,56378 45239,57438 47661,57519 47632,58385 45209,58303 45167,59586 " id="polygon38" style="fill:#ae9962;fill-rule:nonzero"/>
   <path d="m 52756,54857 c 202,33 383,109 546,231 135,97 248,213 346,350 93,135 162,296 211,491 53,229 51,471 -17,723 -65,247 -219,447 -467,606 245,37 432,128 565,275 131,144 234,383 317,725 l 75,327 c 52,220 93,367 133,445 56,119 136,197 249,233 l 28,122 -1117,260 c -54,-99 -93,-180 -126,-244 -58,-130 -104,-265 -140,-410 l -113,-450 c -76,-310 -179,-500 -316,-580 -128,-78 -342,-81 -645,-13 l -1049,244 443,1906 -993,230 -1129,-4860 2384,-554 c 342,-72 612,-92 815,-56 z m -2010,1224 303,1307 1150,-268 c 228,-52 394,-118 497,-198 180,-139 236,-343 176,-618 -68,-293 -210,-469 -431,-525 -121,-30 -293,-19 -514,30 l -1180,274 z" id="path40" style="fill:#ae9962;fill-rule:nonzero"/>
   <path d="m 57546,52617 c 360,-75 708,-34 1053,123 274,126 510,299 711,518 197,219 360,441 496,667 333,575 499,1126 499,1658 -1,717 -325,1262 -980,1644 l -1861,1077 -2500,-4318 1860,-1078 c 267,-151 507,-250 722,-293 z m -1271,1613 1631,2818 833,-481 c 425,-246 599,-625 525,-1146 -40,-280 -155,-578 -338,-903 -254,-438 -517,-737 -793,-889 -271,-157 -611,-117 -1026,120 l -831,482 z" id="path42" style="fill:#ae9962;fill-rule:nonzero"/>
   <path d="m 60639,50090 802,-863 4857,2104 -770,828 -970,-463 -1253,1345 515,952 -742,799 -2441,-4703 z m 2228,2162 863,-927 -1861,-882 997,1809 z" id="path44" style="fill:#ae9962;fill-rule:nonzero"/>
   <path d="m 64884,44226 702,-1325 4408,2337 -455,859 -3107,-1654 c -83,-45 2622,2512 2622,2512 l -466,928 c 0,0 -3697,-778 -3609,-736 l 3136,1662 -454,859 -4409,-2337 710,-1341 3811,875 -2890,-2639 z" id="path46" style="fill:#ae9962;fill-rule:nonzero"/>
   <polygon points="42780,34487 42769,25013 46937,25008 46937,34447 " id="polygon48" style="fill:#e2001a;fill-rule:nonzero"/>
   <path d="m 68007,35966 c -1,-682 551,-1233 1232,-1234 681,-1 1232,550 1233,1231 1,680 -549,1234 -1230,1235 -682,1 -1235,-551 -1235,-1231 z" id="path50" style="fill:#ae9962;fill-rule:nonzero"/>
   <path d="m 46943,23615 -10506,138 1,1267 1247,-2 c 0,0 1380,-1 1383,1952 2,1941 22,18233 22,18233 2,1387 -1169,1477 -1621,1477 -936,0 -936,1 -936,1 l 2,1347 9012,-11 -2,-1347 c 0,0 -835,2 -1145,2 0,0 -1628,-121 -1630,-1498 -2,-1699 -11,-9302 -11,-9302 l 4177,6 0,17923 c -9831,12 -17771,-8160 -17783,-17990 -12,-9830 7953,-17809 17783,-17821 l 6,5626 z" id="path52" style="fill:#e2001a;fill-rule:nonzero"/>
   <path d="m 46937,53800 c 9830,-12 17849,-8204 17837,-18034 -12,-9830 -8007,-17790 -17837,-17778 l 6,5626 8581,-98 770,6100 -1386,2 c 0,0 -298,-2097 -1703,-3187 -937,-727 -2116,-1464 -4162,-1462 -1100,1 -2105,30 -2105,30 l 0,9447 c 347,0 1752,-392 1752,-2047 0,-654 -20,-659 -20,-659 l 1162,-1 1500,8144 -1387,37 c -255,-971 -885,-4263 -3009,-4044 l 0,17923 z" id="path54" style="fill:#ffffff;fill-rule:nonzero"/>
   <path d="m 23436,35966 c -1,-682 551,-1233 1232,-1234 681,-1 1232,550 1233,1231 1,680 -550,1234 -1230,1235 -682,1 -1235,-551 -1235,-1231 z" id="path56" style="fill:#ae9962;fill-rule:nonzero"/>
   <line class="fil5 str0" x1="46923" y1="17612" x2="46923" y2="54089" id="line58" style="fill:none;stroke:#ae9962;stroke-width:462.48901367"/>
  </g></g>
</svg>