<?xml version="1.0" encoding="UTF-8"?>
<!-- Generator: Adobe Illustrator 13.0.2, SVG Export Plug-In . SVG Version: 6.00 Build 14948)  -->
<!DOCTYPE svg PUBLIC "-//W3C//DTD SVG 1.0//EN" "http://www.w3.org/TR/2001/REC-SVG-20010904/DTD/svg10.dtd">
<svg version="1.0" id="Ebene_1" xmlns="http://www.w3.org/2000/svg" xmlns:xlink="http://www.w3.org/1999/xlink" x="0px" y="0px" width="432.409px" height="527.302px" viewBox="0 0 432.409 527.302" enable-background="new 0 0 432.409 527.302" xml:space="preserve">
<path fill-rule="evenodd" clip-rule="evenodd" fill="#FFFFFF" d="M432.409,2.996C271.44-14.888,0,42.976,0,294.151  c0,192.533,133.614,232.781,224.096,232.781c83.112,0,194.634-84.164,194.634-226.195C418.73,174.487,368.231,162.915,432.409,2.996  L432.409,2.996z"/>
<path fill-rule="evenodd" clip-rule="evenodd" fill="#B1B3B4" d="M267.315,379.253c-43.746,31.576-93.004,19.143-119.209-10.23  c-27.177-30.463-22.641-90.914-20.962-106.386c-12.393,17.077-19.715,38.054-19.715,60.724c0,57.176,46.521,103.699,103.701,103.699  c27.592,0,52.676-10.857,71.276-28.488L267.315,379.253L267.315,379.253z"/>
<path fill-rule="evenodd" clip-rule="evenodd" fill="#FFE500" d="M320.064,216.731c-3.023,0.448-6.196,0.362-9.492-0.463  c-0.152-0.037-0.293-0.094-0.434-0.155c-0.211,0.158-0.425,0.315-0.636,0.469c0.012,0.034,0.026,0.063,0.035,0.097  c0.056,0.224,2.183,8.18,9.076,19.6h12.185c0.398-2.29,1.283-4.414,2.561-6.252L320.064,216.731L320.064,216.731z"/>
<path fill-rule="evenodd" clip-rule="evenodd" fill="#FFE500" d="M343.516,266.22v-11.783c-2.265-0.404-4.359-1.286-6.182-2.55  l-4.049,4.052C336.321,259.31,339.71,262.758,343.516,266.22L343.516,266.22z"/>
<path fill-rule="evenodd" clip-rule="evenodd" fill="#FFE500" d="M399.971,144.633v0.003c-12.422-3.595-25.034-6.393-37.717-8.449  c-0.287,0.672-0.577,1.348-0.864,2.024c1.515,2.367,2.821,4.204,3.782,5.165c0.853,0.85,1.834,2.342,1.834,4.696  c0,1.844-0.604,4.216-2.35,7.219c0,0-0.519,0.807-0.82,1.276c-0.741,1.997-6.164,16.66-9.703,25.958  c27.747,3.835,49.122,27.623,49.122,56.424c0,21.189-11.578,39.656-28.74,49.482c12.334,6.943,26.912,13.348,44.127,18.592h0.012  c0.05-2.086,0.076-4.178,0.076-6.287C418.73,227.082,401.55,192.453,399.971,144.633L399.971,144.633z"/>
<path fill-rule="evenodd" clip-rule="evenodd" fill="#FFE500" d="M333.42,247.99c-1.28-1.819-2.183-3.918-2.599-6.188h-8.663  c2.15,3.158,4.632,6.497,7.5,9.951L333.42,247.99L333.42,247.99z"/>
<path fill-rule="evenodd" clip-rule="evenodd" fill="#FFE500" d="M343.516,201.523c-4.365,5.232-10.301,10.696-17.326,13.523  l11.063,11.064c1.84-1.298,3.967-2.202,6.264-2.613V201.523L343.516,201.523z"/>
<path fill-rule="evenodd" clip-rule="evenodd" fill="#FFE500" d="M349.036,223.499c2.303,0.41,4.43,1.315,6.267,2.61l20.288-20.287  c-7.169-6.35-16.4-10.414-26.555-11.043V223.499L349.036,223.499z"/>
<path fill-rule="evenodd" clip-rule="evenodd" fill="#FFE500" d="M375.494,272.161l-20.276-20.275  c-1.819,1.263-3.914,2.145-6.182,2.549v16.572c3.823,3.164,7.998,6.316,12.554,9.416  C366.734,278.519,371.448,275.724,375.494,272.161L375.494,272.161z"/>
<path fill-rule="evenodd" clip-rule="evenodd" fill="#FFE500" d="M245.251,143.725c-0.155-0.256-0.302-0.507-0.457-0.773  c-9.387,11.766-45.513,57.037-46.604,58.403c0.051,1.323,0.123,3.63,0.123,6.253c0,2.647-0.076,5.146-0.319,7.343  c4.311-0.52,8.687-0.819,13.135-0.819c4.641,0,9.204,0.325,13.693,0.891c0,0.001,0,0.003,0,0.004  C231.423,176.952,243.977,146.727,245.251,143.725L245.251,143.725z"/>
<path fill-rule="evenodd" clip-rule="evenodd" fill="#FFE500" d="M359.134,247.993l20.271,20.266  c6.331-7.144,10.383-16.343,11.03-26.457h-28.702C361.317,244.073,360.417,246.173,359.134,247.993L359.134,247.993z"/>
<path fill-rule="evenodd" clip-rule="evenodd" fill="#FFE500" d="M379.487,209.734l-20.291,20.291  c1.277,1.838,2.162,3.962,2.561,6.253h28.696C389.843,226.137,385.806,216.91,379.487,209.734L379.487,209.734z"/>
<path fill-rule="evenodd" clip-rule="evenodd" fill="#FFFFFF" d="M344.987,54.334c0.771-0.012,1.544-0.029,2.317-0.04  c-0.161-0.256-0.334-0.507-0.478-0.771C346.22,53.804,345.608,54.072,344.987,54.334L344.987,54.334z"/>
<path fill-rule="evenodd" clip-rule="evenodd" fill="#00684C" d="M376.414,101.026l-2.396,6.089  c-2.789,7.14-6.935,17.733-11.763,29.071c12.683,2.057,25.295,4.854,37.717,8.449c-0.729-22.09,1.884-47.013,11.051-79.881  c-1.254-1.283-2.725-2.373-4.313-3.103c-2.619-1.204-4.066-0.902-6.703-0.354l-3.366,0.601c-4.289,0.56-7.579,0.123-11.385-0.381  l-0.853-0.111c-4.058-0.536-4.058-0.536-6.58,1.786l-1.339,1.229c-6.19,5.602-13.84,10.917-23.654,7.872  c-1.354-0.42-2.537-0.99-3.601-1.655c-0.489,0.437-1.154,0.981-2.317,1.513c-1.983,0.907-3.943,1.485-6.173,1.818  c-2.707,0.406-5.063,0.422-7.307,0.117c-2.288,1.869-9.697,6.262-24.63,0.958c-0.12,1.964-0.258,4.226-0.334,5.452  c5.13,2.817,21.565,11.953,27.041,16.333c0.967,0.775,2.083,2.052,3.346,3.763c15.167-18.678,32.66-34.216,55.289-31.715  c1.072,0.119,1.983,0.854,2.317,1.882c0.34,1.027,0.047,2.158-0.75,2.892C395.58,73.774,382.428,86.028,376.414,101.026  L376.414,101.026z"/>
<path fill-rule="evenodd" clip-rule="evenodd" fill="#00684C" d="M210.371,147.069c13.699-22.163,27.179-43.97,27.226-44.039  c0.662-0.942,16.447-23.007,30.835-17.254c0.457,0.185,0.861,0.489,1.163,0.882l0.782,1.022c4.151-2.509,9.516-7.244,13.315-10.802  l-4.078,0.18c-1.254,0.054-2.388-0.741-2.76-1.939c-0.167-0.536-2.238-7.358-2.736-15.806  C144.457,76.165,26.616,138.465,26.616,297.802c0,40.67,7.79,75.217,20.899,104.443l31.465-20.777  c-8.556-18.568-13.462-40.148-13.462-64.617C65.518,233.637,127.913,173.592,210.371,147.069L210.371,147.069z"/>
<path fill-rule="evenodd" clip-rule="evenodd" fill="#00684C" d="M409.015,56.634c1.301,0.598,2.537,1.368,3.691,2.253  c0,0.003,0,0.006-0.006,0.009c0.255-0.851,0.486-1.682,0.744-2.543c-2.083-0.154-4.181-0.293-6.278-0.431  C407.758,56.111,408.365,56.334,409.015,56.634L409.015,56.634z"/>
<path fill-rule="evenodd" clip-rule="evenodd" fill="#00684C" d="M365.662,54.291c-3.56-0.044-7.131-0.059-10.708-0.051  c1.084,0.672,2.317,1.192,3.639,1.471C359.952,55.997,363.163,56.349,365.662,54.291L365.662,54.291z"/>
<path fill-rule="evenodd" clip-rule="evenodd" fill="#00684C" d="M346.792,60.302c2.25,3.023,4.192,5.635,7.676,6.715  c6.744,2.095,12.199-1.16,18.308-6.691l1.307-1.195c4.09-3.771,4.916-4.009,11.048-3.201l0.85,0.114  c3.703,0.489,6.378,0.844,9.946,0.379l2.959-0.533c0.63-0.13,1.248-0.253,1.878-0.359c-9.82-0.567-19.772-0.959-29.815-1.153  c0.428,0.97,0.281,2.145-0.48,2.979c-3.108,3.416-7.972,4.821-13.014,3.756c-4.333-0.916-8.045-3.485-10.148-6.819  c-0.773,0.01-1.547,0.028-2.317,0.04c-0.8,0.34-1.614,0.665-2.44,0.955C344.219,56.85,345.549,58.631,346.792,60.302L346.792,60.302  z"/>
<path fill-rule="evenodd" clip-rule="evenodd" fill="#FFE500" d="M302.837,423.075c-6.287-6.744-17.098-20.021-17.033-20.121  c-19.547,18.352-45.812,29.625-74.675,29.625c-60.226,0-109.223-48.996-109.223-109.219c0-38.977,20.533-73.226,51.334-92.561  c0.073-0.23,0.17-0.456,0.308-0.667c0.729-1.119,18.227-26.739,28.365-37.022c1.501-2.429,15.085-24.406,28.458-46.042  c-82.458,26.522-144.853,86.568-144.853,169.781c0,95.408,74.41,146.959,150.16,146.959  C237.675,463.81,279.792,452.343,302.837,423.075L302.837,423.075z"/>
<path fill-rule="evenodd" clip-rule="evenodd" d="M403.255,238.95c0-28.802-21.375-52.589-49.122-56.424  c3.539-9.299,8.962-23.962,9.703-25.958c0.302-0.469,0.82-1.276,0.82-1.276c1.746-3.003,2.35-5.375,2.35-7.219  c0-2.354-0.981-3.847-1.834-4.696c-0.961-0.961-2.268-2.798-3.782-5.165c5.194-12.092,9.671-23.533,12.627-31.096l2.396-6.089  c6.015-14.999,19.166-27.252,19.298-27.375c0.797-0.734,1.09-1.865,0.75-2.892c-0.334-1.028-1.245-1.764-2.317-1.882  c-22.629-2.5-40.122,13.037-55.289,31.715c-1.263-1.711-2.379-2.988-3.346-3.763c-5.476-4.38-21.911-13.516-27.041-16.333  c0.076-1.226,0.214-3.488,0.334-5.452c14.933,5.304,22.342,0.911,24.63-0.958c2.244,0.305,4.6,0.289,7.307-0.117  c2.229-0.333,4.189-0.911,6.173-1.818c1.163-0.532,1.828-1.077,2.317-1.513c1.063,0.665,2.247,1.235,3.601,1.655  c9.814,3.045,17.464-2.271,23.654-7.872l1.339-1.229c2.522-2.322,2.522-2.322,6.58-1.786l0.853,0.111  c3.806,0.504,7.096,0.94,11.385,0.381l3.366-0.601c2.637-0.548,4.084-0.85,6.703,0.354c1.588,0.729,3.059,1.819,4.313,3.103  c0.536-1.926,1.102-3.886,1.685-5.868c-1.154-0.885-2.391-1.655-3.691-2.253c-4.269-1.963-7.116-1.371-10.131-0.744l-2.959,0.533  c-3.568,0.464-6.243,0.11-9.946-0.379l-0.85-0.114c-6.132-0.809-6.958-0.57-11.048,3.201l-1.307,1.195  c-6.108,5.531-11.563,8.786-18.308,6.691c-3.483-1.08-5.426-3.691-7.676-6.715c-1.242-1.671-2.572-3.453-4.245-5.013  c1.468-0.514,2.892-1.125,4.28-1.765c1.992,3.713,5.959,6.605,10.626,7.589c5.042,1.065,9.905-0.34,13.014-3.756  c1.025-1.128,0.946-2.875-0.182-3.901c-1.128-1.027-2.877-0.945-3.902,0.185c-2.558,2.811-6.299,2.383-7.79,2.068  c-2.941-0.621-5.487-2.379-6.759-4.55c1.559-0.718,3.144-1.399,4.749-1.929c4.576-1.512,7.444-0.784,11.792,0.316l2.971,0.725  c7.585,1.734,10.09-0.224,13.778-4.228c10.459,0.47,20.786,1.15,30.905,2.021c4.359-13.642,9.75-28.553,16.38-45.07  C271.44-14.888,0,42.976,0,294.151c0,51.059,9.406,91.389,24.901,123.111l15.883-10.447  c-14.323-30.217-22.898-66.328-22.898-109.236c0-166.248,123.308-230.912,256.443-247.595c-1.409,12.192,2.3,24.409,2.525,25.135  c0.372,1.198,1.506,1.994,2.76,1.939l4.078-0.18c-3.8,3.558-9.164,8.292-13.315,10.802l-0.782-1.022  c-0.302-0.393-0.706-0.697-1.163-0.882c-14.388-5.752-30.173,16.313-30.835,17.254c-0.094,0.136-52.644,85.163-55.683,90.081  c-10.138,10.283-27.636,35.903-28.365,37.022c-0.138,0.211-0.234,0.437-0.308,0.667c-30.801,19.334-51.334,53.584-51.334,92.561  c0,60.223,48.998,109.219,109.223,109.219c28.863,0,55.128-11.273,74.675-29.625c-1.125-1.441-2.259-2.924-3.398-4.424l0.018,0.023  c-18.601,17.643-43.693,28.506-71.294,28.506c-57.18,0-103.701-46.523-103.701-103.699c0-57.185,46.521-103.704,103.701-103.704  c4.336,0,8.602,0.299,12.797,0.819c-1.893,12.246-3.12,25.181-3.12,38.203c0,6.625,0.741,13.541,2.077,20.637l-33.639,16.16  c-2.367,9.469-3.551,34.717-3.551,34.717l36.296,21.305c5.35-1.395,13.708-11.01,19.676-18.674  c-0.021-0.041-0.038-0.082-0.062-0.117c-0.12-0.252-0.094-0.211,0.035,0.053c1.433-1.77,2.769-3.463,3.92-4.963  c-11.35-23.801-19.23-48.17-19.23-69.117c0-48.467,17.259-95.836,22.556-109.238c0.867,1.203,2.528,1.518,3.771,0.691  c1.266-0.847,1.611-2.562,0.765-3.831c-3.035-4.554-10.146-15.221-9.563-24.596c0.366-5.834,13.339-18.349,22.983-26.268  c0.132,10.225,1.67,33.668,12.565,45.038c4.148,4.327,9.226,6.52,15.094,6.52c4.69,0,8.689-1.646,11.886-4.896  c4.878-4.964,6.768-12.678,7.509-18.245c1.037,1.176,2.446,2.767,4.075,4.607c-8.115,10.866-15.853,20.093-23.145,23.118  c-9.519,3.948-17.385,2.789-19.825,2.269c-2.739-1.462-5.634-2.143-8.599-1.9c-13.447,1.107-22.438,20.728-20.473,44.67  c1.975,23.941,14.051,41.829,27.501,40.723c4.72-0.388,8.886-3.064,12.229-7.402c2.59-0.993,9.973-4.081,19.061-10.047  c3.46,11.098,24.87,66.359,113.716,92.843c0.088-1.898,0.161-3.797,0.208-5.713c-17.215-5.244-31.793-11.648-44.127-18.592  C391.677,278.606,403.255,260.139,403.255,238.95L403.255,238.95z M244.794,142.952c0.155,0.267,0.302,0.517,0.457,0.773  c-1.274,3.001-13.828,33.227-20.429,71.303c0-0.001,0-0.003,0-0.004c-4.489-0.565-9.053-0.891-13.693-0.891  c-4.449,0-8.824,0.299-13.135,0.819c0.243-2.197,0.319-4.696,0.319-7.343c0-2.624-0.072-4.931-0.123-6.253  C199.282,199.988,235.408,154.717,244.794,142.952L244.794,142.952z M379.405,268.259l-20.271-20.266  c1.283-1.819,2.183-3.92,2.599-6.19h28.702C389.788,251.916,385.736,261.115,379.405,268.259L379.405,268.259z M390.453,236.278  h-28.696c-0.398-2.291-1.283-4.415-2.561-6.253l20.291-20.291C385.806,216.91,389.843,226.137,390.453,236.278L390.453,236.278z   M349.036,194.779c10.154,0.63,19.386,4.693,26.555,11.043l-20.288,20.287c-1.837-1.295-3.964-2.2-6.267-2.61V194.779  L349.036,194.779z M309.538,216.679c-0.009-0.034-0.023-0.063-0.035-0.097c0.211-0.154,0.425-0.311,0.636-0.469  c0.141,0.062,0.281,0.119,0.434,0.155c3.296,0.825,6.469,0.911,9.492,0.463l13.295,13.295c-1.277,1.838-2.162,3.962-2.561,6.252  h-12.185C311.72,224.858,309.593,216.903,309.538,216.679L309.538,216.679z M322.159,241.802h8.663  c0.416,2.269,1.318,4.368,2.599,6.188l-3.762,3.763C326.791,248.299,324.309,244.96,322.159,241.802L322.159,241.802z   M343.516,266.22c-3.806-3.461-7.195-6.91-10.23-10.282l4.049-4.052c1.822,1.264,3.917,2.146,6.182,2.55V266.22L343.516,266.22z   M343.516,223.498c-2.297,0.412-4.424,1.315-6.264,2.613l-11.063-11.064c7.025-2.827,12.961-8.291,17.326-13.523V223.498  L343.516,223.498z M349.036,271.007v-16.572c2.268-0.404,4.362-1.286,6.182-2.549l20.276,20.275  c-4.046,3.563-8.76,6.357-13.904,8.262C357.034,277.323,352.859,274.171,349.036,271.007L349.036,271.007z"/>
<path fill-rule="evenodd" clip-rule="evenodd" d="M166.756,347.946c-10.654-3.943-28.802-16.172-28.802-16.172  c-2.549,2.262-10.786,22.207-15.233,33.287c6.331,13.395,15.614,25.113,27.013,34.33c12.549-4.91,27.674-17.514,27.674-17.514  C172.674,374.776,166.756,347.946,166.756,347.946L166.756,347.946z"/>
<path fill-rule="evenodd" clip-rule="evenodd" d="M258.681,373.2c-15.387,1.184-31.957-5.133-31.957-5.133  c-7.102,11.051-22.882,26.045-22.882,26.045c1.973,5.52,14.829,26.672,14.829,26.672c15.709-1.201,35.777-7.939,43.148-13.84  C261.998,388.235,258.681,373.2,258.681,373.2L258.681,373.2z"/>
<path fill-rule="evenodd" clip-rule="evenodd" d="M173.067,277.329c0,0,6.709-22.49,5.525-33.932c0,0-7.863-2.5-16.853-4.377  c-12.051,7.074-22.444,16.652-30.479,28.025c0.549,11.021,1.816,23.678,4.721,28.037  C135.981,295.083,170.701,281.671,173.067,277.329L173.067,277.329z"/>
<polygon fill-rule="evenodd" clip-rule="evenodd" points="31.67,430.528 79.299,399.005 90.586,416.062 79.342,423.503   74.452,416.114 67.566,420.667 72.144,427.587 60.899,435.028 56.322,428.108 38.065,440.196 31.67,430.528 "/>
<path fill-rule="evenodd" clip-rule="evenodd" d="M103.323,427.997c8.522,8.104,1.104,22.582-8.5,32.684  s-23.692,18.24-32.216,10.131c-8.521-8.104-1.103-22.582,8.502-32.684C80.713,428.032,94.8,419.894,103.323,427.997L103.323,427.997  z M72.524,460.382c3.171,3.018,11.281-5.268,13.734-7.846s10.315-11.098,7.146-14.109c-3.17-3.018-11.281,5.268-13.733,7.846  C77.218,448.856,69.356,457.37,72.524,460.382L72.524,460.382z"/>
<path fill-rule="evenodd" clip-rule="evenodd" d="M99.643,496.985l6.645-23.725l-0.174,0.07c-1.384,2.438-2.72,4.904-4.154,7.313  l-7.783,13.09l-9.962-5.93l29.202-49.084l9.62,5.719c8.643,5.145,12.877,12.246,5.172,25.201c-3.215,5.408-7.838,9.176-13.034,8.906  l-4.739,24.855L99.643,496.985L99.643,496.985z M110.496,467.741c2.635,1.57,5.873-0.645,7.77-3.838  c2.556-4.295,1.688-7.283-1.163-8.713l-7.203,12.111L110.496,467.741L110.496,467.741z"/>
<polygon fill-rule="evenodd" clip-rule="evenodd" points="124.226,508.833 139.295,468.368 133.332,466.147 138.198,453.087   161.25,461.671 156.385,474.731 150.157,472.417 135.086,512.876 124.226,508.833 "/>
<path fill-rule="evenodd" clip-rule="evenodd" d="M193.556,468.397l-7.16,36.656c-1.321,6.762-5.095,20.15-18.253,17.578  s-11.616-16.395-10.295-23.156l7.16-36.656l11.376,2.221l-6.885,35.244c-0.29,1.488-0.724,3.41-0.68,4.957  c0.029,1.629,0.521,2.959,2.083,3.264c1.617,0.316,2.574-0.732,3.144-2.162c0.64-1.494,0.962-3.439,1.238-4.852l6.898-35.314  L193.556,468.397L193.556,468.397z"/>
<path fill-rule="evenodd" clip-rule="evenodd" d="M198.461,468.954l11.011,0.469l7.787,34.752l0.12-0.146  c-0.173-6.604-0.747-13.148-0.466-19.734l0.618-14.525l11.125,0.475l-2.435,57.059l-11.123-0.475l-7.225-33.287l-0.12,0.146  c0.054,5.385,0.34,10.705,0.111,16.078l-0.713,16.729l-11.127-0.475L198.461,468.954L198.461,468.954z"/>
<path fill-rule="evenodd" clip-rule="evenodd" d="M261.4,521.835l-2.525-6.949l-7.573,1.793l0.756,7.371l-11.607,2.754  l-3.173-57.949l13.767-3.258l22.022,53.473L261.4,521.835L261.4,521.835z M254.752,503.407l-4.274-12.615  c-1.151-3.387-2.212-6.867-3.311-10.266l-0.108,0.023c0.489,3.545,1.049,7.148,1.43,10.717l1.509,13.266L254.752,503.407  L254.752,503.407z"/>
<path fill-rule="evenodd" clip-rule="evenodd" d="M283.317,493.628c2.918,2.033,6.891,3.492,9.48,2.074  c1.397-0.762,2.376-2.76,1.178-4.957c-0.653-1.195-1.424-1.898-2.32-2.355c-0.85-0.486-1.775-0.756-2.748-1.002  c-3.12-0.973-5.918-1.945-8.52-3.633c-2.52-1.646-4.84-4.008-6.838-7.664c-3.193-5.848-6.208-18.012,2.47-22.752  c2.443-1.33,5.631-1.775,8.607-1.418l8.314,15.229c-2.578-1.875-6.583-3.398-8.924-2.121c-1.198,0.65-2.027,2.572-0.973,4.5  c0.577,1.066,1.535,1.752,2.52,2.25s2.098,0.756,2.968,1.055c3.234,0.826,5.947,1.758,8.329,3.393  c2.429,1.611,4.532,3.914,6.601,7.705c5.077,9.311,4.257,19.424-2.824,23.285c-2.593,1.418-5.634,2.127-8.754,2.104L283.317,493.628  L283.317,493.628z"/>
<polygon fill-rule="evenodd" clip-rule="evenodd" points="320.673,493.974 287.043,447.808 296.413,440.981 330.04,487.147   320.673,493.974 "/>
<polygon fill-rule="evenodd" clip-rule="evenodd" points="342.11,477.151 312.558,445.669 307.92,450.022 298.381,439.862   316.32,423.028 325.856,433.188 321.01,437.741 350.562,469.224 342.11,477.151 "/>
<polygon fill-rule="evenodd" clip-rule="evenodd" points="368.96,448.681 334.405,422.794 330.59,427.886 319.437,419.524   334.185,399.837 345.338,408.198 341.354,413.513 375.91,439.405 368.96,448.681 "/>
<path fill-rule="evenodd" clip-rule="evenodd" d="M392.603,411.942l-6.867-2.754l-3.712,6.838l6,4.354l-5.689,10.488l-45.299-36.281  l6.747-12.428l54.539,19.248L392.603,411.942L392.603,411.942z M374.433,404.606l-12.246-5.227c-3.293-1.395-6.595-2.93-9.858-4.377  l-0.059,0.1c2.971,1.992,6.026,3.979,8.938,6.076l10.893,7.723L374.433,404.606L374.433,404.606z"/>
<path fill-rule="evenodd" clip-rule="evenodd" d="M407.817,374.712l-24.598-1.371l0.108,0.158c2.681,0.826,5.376,1.594,8.036,2.473  l14.458,4.781l-3.639,11.004l-54.231-17.924l3.516-10.629c3.155-9.545,9.179-15.217,23.49-10.488  c5.971,1.975,10.652,5.678,11.508,10.811l25.295-0.738L407.817,374.712L407.817,374.712z M376.923,370.423  c0.964-2.912-1.898-5.596-5.426-6.762c-4.746-1.564-7.471-0.076-8.253,3.018l13.377,4.424L376.923,370.423L376.923,370.423z"/>
<path fill-rule="evenodd" clip-rule="evenodd" d="M357.374,344.425l1.371-9.217c1.942-13.037,13.928-18.434,31.011-15.891  c26.071,3.891,26.637,16.553,25.6,23.52l-1.491,10.002L357.374,344.425L357.374,344.425z M401.937,339.345  c0.7-5.238-7.854-7.43-13.175-8.221c-6.144-0.92-14.818-1.289-15.598,3.938L401.937,339.345L401.937,339.345z"/>
<path fill-rule="evenodd" clip-rule="evenodd" fill="#FFFFFF" d="M338.413,151.568c-4.066-4.598-10.966-12.394-16.705-18.879  c-8.537,11.379-16.415,20.53-24.768,23.996c-5.593,2.317-10.673,3.107-14.742,3.242c6.123,7.307,10.573,19.028,11.704,32.748  c0.229,2.773,0.308,5.487,0.249,8.121C315.318,191.973,325.923,170.284,338.413,151.568L338.413,151.568z"/>
<path fill-rule="evenodd" clip-rule="evenodd" fill="#B1B3B4" d="M338.413,151.568c-12.489,18.716-23.095,40.405-44.262,49.228  c-0.17,7.95-1.582,15.173-3.97,21.062c8.361-4.165,22.494-12.633,34.831-26.978c0.381-0.441,0.75-0.902,1.125-1.358  c6.22-11.284,12.064-26.558,15.653-38.134C341.427,154.974,340.182,153.57,338.413,151.568L338.413,151.568z"/>
<path fill-rule="evenodd" clip-rule="evenodd" fill="#FFFFFF" d="M342.101,105.397c2.461,3.886,5.358,8.887,8.736,14.811  c6.935-12.303,15.844-22.63,25.884-31.828c3.624-5.864,7.667-10.775,10.685-14.104C369.731,75.311,355.112,89.192,342.101,105.397  L342.101,105.397z"/>
<path fill-rule="evenodd" clip-rule="evenodd" fill="#B1B3B4" d="M350.837,120.208c0.357,0.627,0.715,1.255,1.084,1.904  c2.004,3.526,4.034,7.094,5.93,10.307c4.506-10.657,8.376-20.549,11.021-27.316l2.417-6.132c1.506-3.763,3.404-7.321,5.432-10.591  C366.681,97.578,357.772,107.905,350.837,120.208L350.837,120.208z"/>
<path fill-rule="evenodd" clip-rule="evenodd" fill="#B1B3B4" d="M284.996,176.649c-2.883-8.326-7.204-14.735-11.979-17.59  c-0.237-0.06-0.407-0.108-0.451-0.123c-0.437-0.136-0.806-0.379-1.107-0.681c-1.512-0.642-3.056-0.926-4.603-0.798  c-8.461,0.696-14.813,13.453-15.583,29.55C260.436,178.714,273.057,176.445,284.996,176.649L284.996,176.649z"/>
<path fill-rule="evenodd" clip-rule="evenodd" fill="#FFFFFF" d="M284.996,176.649c-11.938-0.204-24.56,2.065-33.724,10.358  c-0.141,2.959-0.094,6.029,0.161,9.16c1.661,20.161,11.525,36.497,21.542,35.672c9.032-0.743,15.662-15.231,15.662-32.854  c0-1.92-0.076-3.877-0.24-5.858C287.908,187.187,286.704,181.583,284.996,176.649L284.996,176.649z"/>
<path fill-rule="evenodd" clip-rule="evenodd" fill="#FFFFFF" d="M332.061,101.144c2.9,2.32,9.645,14.174,15.059,23.7  c5.871,10.317,10.937,19.228,14.147,22.438c0.51,0.508,0.199,2.514-1.386,5.228l-0.773,1.217c-0.108,0.166-0.29,0.48-0.357,0.665  c-0.105,0.287-10.644,28.79-12.472,33.059c-1.389,3.233-12.372,21.189-26.631,23.704c14.268-11.667,26.399-50.694,27.888-55.633  c0.278-0.917,0.059-1.91-0.574-2.628l-33.293-37.623c-0.765-0.866-1.989-1.162-3.067-0.744c-1.075,0.417-1.778,1.462-1.764,2.618  c0.006,0.144,0.144,14.452-6.401,21.092c-2.145,2.178-4.74,3.237-7.937,3.237c-4.365,0-7.995-1.576-11.101-4.816  c-10.424-10.869-11.077-36.256-11.033-43.758c7.23-4.065,17.666-14.385,19.658-16.39l5.798-0.255  c1.526-0.067,2.707-1.356,2.64-2.881c-0.067-1.523-1.356-2.704-2.883-2.637c0,0-12.574,0.555-15.993,0.706  c-0.762-3.05-2.054-9.182-2.054-15.82c0-5.174,0.803-10.613,3.255-15.059c1.91,0.649,3.961,1.179,5.985,1.611  c0.524,8.123,3.088,23.457,14.646,30.429l-0.568,9.306c-0.064,1.071,0.498,2.083,1.441,2.596  C304.504,84.623,326.058,96.345,332.061,101.144L332.061,101.144z"/>
<path fill-rule="evenodd" clip-rule="evenodd" fill="#FFFFFF" d="M344.615,67.128c-1.497,0.686-2.991,1.124-4.693,1.377  c-3.36,0.505-5.997,0.347-8.549-0.505c-3.018-1.009-4.822-3.006-7.113-5.534l-0.369-0.41c-2.323-2.585-5.508-6.127-10.772-4.992  c-1.488,0.321-2.44,1.79-2.118,3.281s1.79,2.439,3.284,2.117c1.928-0.415,3.158,0.684,5.502,3.289l0.381,0.423  c1.734,1.919,3.527,3.873,5.936,5.385c-3.278,0.816-8.748,0.948-17.121-2.342c-10.972-4.308-13.84-18.029-14.566-26.054  c4.022,0.573,7.122,0.757,7.471,0.776c0.006,0,4.717-0.029,4.717-0.029c2.584-0.113,4.629-0.202,7.377,0.816  c2.733,1.015,4.166,2.571,5.818,4.371c1.266,1.378,2.701,2.944,4.787,4.286c3.322,2.147,6.451,3.076,9.419,3.258  c0.176,0.097,0.363,0.18,0.565,0.239c3.557,1.028,5.517,3.667,7.793,6.721c0.814,1.094,1.673,2.232,2.634,3.333  C344.884,66.995,344.764,67.06,344.615,67.128L344.615,67.128z"/>
<path fill-rule="evenodd" clip-rule="evenodd" fill="#FFFFFF" d="M281.389,34.104c-1.187-0.577-1.995-1.167-2.229-1.746  c-0.161-0.387-0.199-0.766,0.105-1.359c1.726-3.36,10.755-7.074,16.603-8.464c5.848-1.389,9.876,0.656,14.537,3.022  c3.984,2.021,8.508,5.593,13.901,5.549c1.526-0.013,2.754-1.258,2.739-2.785c-0.012-1.525-1.257-2.752-2.783-2.739  c-2.593,0.021-5.3-2.15-7.559-3.122c5.238-1.056,11.159,2.197,18.105,7.421c10.491,7.893,19.236,5.646,29.145-0.157l0.39-0.23  c9.615-5.634,13.216-7.74,23.426-5.786l1.693,0.333c3.984,0.792,8.499,1.692,13.022,1.144c2.886-0.352,5.347-1.362,7.729-2.342  c1.752-0.721,3.422-1.361,5.13-1.715c0.354,0.151,0.595,0.278,0.75,0.378c-0.955,1.768-7.075,5.333-9.958,5.988  c-5.147,1.166-11.01,0.366-16.673-0.407l-2.871-0.382c-8.355-1.066-11.713-0.021-18.911,4.135l-3.671,2.336  c-3.759,2.49-8.432,6.259-11.704,5.656c-1.497-0.277-2.941,0.715-3.214,2.215c-0.278,1.5,0.715,2.94,2.212,3.217  c0.841,0.157,1.69,0.168,2.54,0.089c-2.449,0.888-4.749,1.975-6.973,3.042c-6.85,3.29-12.261,5.887-19.292,1.348  c-1.488-0.959-2.569-2.136-3.715-3.384c-1.866-2.032-3.981-4.334-7.963-5.811c-3.797-1.408-6.721-1.28-9.542-1.156  c0,0-9.29-0.788-11.722-1.162C284.155,35.617,281.389,34.104,281.389,34.104L281.389,34.104z"/>
<path fill-rule="evenodd" clip-rule="evenodd" fill="#FFFFFF" d="M238.346,121.358c-0.349,5.575,1.406,11.275,3.668,16.219  l-48.785,61.14c-0.419,0.523-0.631,1.182-0.599,1.853c0.154,3.24,0.356,11.019-0.333,15.221c-9.967,1.74-19.482,4.809-28.333,9.063  c6.16-8.666,15.854-21.848,22.103-28.099c0.151-0.151,0.286-0.319,0.397-0.501l55.734-90.18  c3.437-4.847,13.676-16.387,21.984-15.601C257.169,96.14,238.947,111.748,238.346,121.358L238.346,121.358z"/>
</svg>