<?xml version="1.0" encoding="UTF-8"?>
<!-- Generator: Adobe Illustrator 21.0.0, SVG Export Plug-In . SVG Version: 6.00 Build 0)  -->
<svg version="1.1" id="Laag_1" xmlns="http://www.w3.org/2000/svg" xmlns:xlink="http://www.w3.org/1999/xlink" x="0px" y="0px" viewBox="0 0 485.1 566.9" style="enable-background:new 0 0 485.1 566.9;" xml:space="preserve">
<style type="text/css">
	.st0{fill-rule:evenodd;clip-rule:evenodd;fill:#FBC900;}
	.st1{fill-rule:evenodd;clip-rule:evenodd;fill:#DE1D1E;}
	.st2{fill-rule:evenodd;clip-rule:evenodd;}
	.st3{fill-rule:evenodd;clip-rule:evenodd;fill:#FFFFFF;}
</style>
<path class="st0" d="M41.7,105.2l-22-53.3L66,32l14.9,33.7l55.3-12.9l-6.6-34.9l60.1-11.2l7.9,37.8l70.3-0.5l7.8-36.2l61.3,8.5  l-8,37.6l60,10.7L401.3,30l47.5,17l-18.5,49.2c-0.6,1.6-1.2,3.1-1.8,4.7C300.7,66.1,172,60.2,41.7,105.2L41.7,105.2z M406.6,158.2  c-11.2,52.2-14.3,110.5-2.9,162.8c0.9,4,1.9,8.1,2.9,12.1c6.6,24.8,16.1,46.6,30.8,67.8l0.3,0.5l2.1,5.4  c-60.4,24-121.4,32.6-189.4,34.5c-71.3,2-142.2-11-202.2-30.5l1.9-4.5l0.1-0.1c10.2-21.6,17.6-46.2,22.6-69.5  c12.6-58.5,7.3-114.8-12.4-171.1l0-0.1l0-0.1C178.4,123.9,293.4,128,406.6,158.2L406.6,158.2z M461.3,463.3l0,4l0,0.2  c-1.3,17.8-6.2,31.6-18.8,44.4c-1.3,1.4-2.7,2.7-4.1,4c-31,28.4-75.6,16.2-113.2,17.1c-5.2,0.1-10.5,0.6-15.7,1.4  c-12.5,1.9-25,5.5-36.8,10.2c-9.1,3.6-18.8,8.2-27,13.7L243,560l-2.7-2c-22.6-16.3-49.6-22.9-77.2-22.5c-4.3,0.1-8.7,0.4-13,1  c-7.6,0.9-15.1,2.3-22.7,3.7c-3.1,0.6-6.3,1.2-9.4,1.6c-2.4,0.4-5,0.7-7.4,0.7c-7,0-14-0.7-20.8-2.4C56,531.9,35.4,504,24.2,472.6  l-0.6-1.7l0.7-1.7c69,23.3,149.5,41.8,232.5,38.3C328,504.4,403.1,483,461.3,463.3L461.3,463.3z"/>
<path class="st1" d="M239.6,250.9c90.4,0,163.7,42.5,163.7,94.8c0,52.4-73.3,94.8-163.7,94.8c-90.4,0-163.7-42.5-163.7-94.8  C75.9,293.3,149.2,250.9,239.6,250.9L239.6,250.9z"/>
<path class="st2" d="M34.8,103.1L12.4,48.9L69,24.5l15.2,34.6l45.4-10.6L123,13.3L194.2,0l8.1,38.7l61.1-0.5l8-36.9l72.6,10  l-8.1,37.8l49.5,8.8l12.5-35.3l58.3,20.9L435.7,98c3.6,1.3,7.2,2.7,10.8,4.2l10.3,4.2L426,171.2l-9.2-3.8c-1.9-0.8-3.8-1.6-5.8-2.3  c-10,49.9-12.5,105.1-1.7,154.7c0.9,4,1.8,7.9,2.9,11.8c6.4,24.2,15.7,45.3,30,66.1l0.7,1l0.4,1.1c0.6-0.2,1.2-0.4,1.8-0.6l8.7-3.1  l31.4,61.8l-9.9,4.6c-2.7,1.2-5.5,2.5-8.3,3.7l0,1.3l0,0.4c-1.6,22.2-8.5,37.3-24.7,52.2c-7.2,6.6-15.4,11.4-24.6,14.7  c-29.8,10.7-61.6,3.2-92.4,3.8c-24.4,0.5-56.2,10.8-76.3,24.3l-6.1,4.1l-5.9-4.3c-21.6-15.6-47.4-21.9-73.8-21.4  c-4.1,0.1-8.3,0.4-12.4,0.9c-7.5,0.9-14.9,2.3-22.3,3.6c-5.6,1-12.2,2.4-17.9,2.5c-46.8,0.3-76.8-32.1-91.7-73.7l-1.4-3.8l0.1-0.2  c-2.7-1.2-5.5-2.4-8.1-3.6L0,462.6l29.1-64.9l9.2,3.4c2.3,0.8,4.5,1.7,6.8,2.5c10-21.2,17.2-45.3,22.2-68.2  c12.1-55.9,7.4-109.6-10.6-163.3c-2.5,1.2-4.9,2.5-7.2,3.8l-10.1,5.7L9.6,114l9.5-4.3C24.2,107.4,29.4,105.2,34.8,103.1L34.8,103.1z   M433.2,403.2c-15.5-22.5-24.7-44.5-31.2-68.9c-15.6-58.6-11.2-122.7-1-172.9c-53.1-18.3-116.7-23.4-171.6-21.6  c-23.9,0.8-48,3-71.7,6.3c-20.6,2.9-41.3,6.7-61.3,12c-9.8,2.6-20.2,5.8-30.1,9.7c18.8,55.6,23.8,111.3,11.2,169.8  c-5,23.2-12.8,48.5-22.5,69.5c26,9.1,52.6,16.8,79.7,21.7c24,4.4,47.4,6.3,71.7,7.1c12.1,0.4,24.3,0.6,36.4,0.9  c35.7,1,71.3-2.9,106.2-10.2C377.6,420.8,405.6,412.6,433.2,403.2L433.2,403.2z M456.1,470.6c-66,26.5-148.3,42-216.8,41.1  c-67.1-0.9-144.3-11.1-208.8-35.8c17.2,43.6,47.1,62.2,79.9,62c8.9-0.1,32.5-6.6,52.5-7c28-0.5,56.1,6.1,80.1,23.4  c16.1-10.8,49.8-25.4,82-26.1c36.9-0.8,80.8,11,110.1-15.8C445.5,502.7,453.9,492,456.1,470.6L456.1,470.6z M13.8,457.4  c67.6,31,154.8,42.8,225.6,43.7c69.1,0.9,160.9-16,231.3-48.3L448.6,409c-60.3,21.3-130.6,40.5-206,38.4c-61-1.7-108,0.6-207.9-36.5  L13.8,457.4L13.8,457.4z M425.8,94.5l16.7-44.6l-38.4-13.7l-12,33.7l-69-12.3l8-37.4l-51.7-7.1l-7.7,35.6l-78.1,0.6L186,12.2  l-50.8,9.5l6.5,34.7L78.1,71.3l-14.5-33L26.1,54.4l18.5,44.9C83.5,85,126.2,75.8,166.4,71c19.6-2.4,39.3-3.7,59.1-4  C293,66.1,361.7,72.4,425.8,94.5L425.8,94.5z M23.4,119.3c54.7-24.7,131.4-40.9,202.2-41.8c69.1-0.9,145.6,5.5,217,34.4l-21.8,45.7  c-55.1-22.7-126.8-30.5-191.7-28.3c-61,2-144,14.2-184.9,37.4L23.4,119.3L23.4,119.3z"/>
<path d="M65.4,142.4c-0.4,1.7-1.6,4-2.6,5.1c-1,1.1-2.3,2-4,2.7c-3.6,1.5-7.1,1.4-10.4-0.2c-3.3-1.6-5.8-4.5-7.4-8.6  c-1.7-4.2-1.9-7.9-0.7-11.3c1.2-3.4,3.7-5.9,7.5-7.4c3.3-1.3,6.3-1.6,9-0.9c2.7,0.7,4.8,2.4,6.3,5l-5.5,2.2c-0.9-1.2-2-2-3.3-2.3  c-1.3-0.3-2.8-0.1-4.4,0.6c-2.2,0.9-3.6,2.4-4.2,4.5c-0.6,2.1-0.3,4.6,0.8,7.4c1.2,2.8,2.7,4.8,4.7,5.9c2,1.1,4.1,1.2,6.3,0.2  c1.7-0.7,2.9-1.8,3.7-3.2c0.7-1.5,0.9-3.1,0.4-5l-5.9,2.4l-1.8-4.5l10.8-4.4l5.7,14.1l-3.6,1.5L65.4,142.4L65.4,142.4z"/>
<path d="M339.2,122c-1.2,1.3-3.4,2.6-4.8,3.1c-1.4,0.5-3,0.6-4.8,0.3c-3.9-0.6-6.9-2.4-8.9-5.4c-2-3.1-2.7-6.8-2.1-11.2  c0.6-4.4,2.4-7.8,5.1-10.1c2.8-2.3,6.2-3.2,10.2-2.6c3.5,0.5,6.2,1.7,8.2,3.7c2,2,2.9,4.5,2.9,7.5l-5.8-0.8  c-0.1-1.5-0.7-2.7-1.7-3.6c-1-0.9-2.4-1.5-4.1-1.8c-2.3-0.3-4.3,0.3-5.9,1.8c-1.6,1.5-2.6,3.8-3,6.8c-0.4,3-0.1,5.5,1.1,7.4  c1.1,1.9,2.9,3,5.3,3.4c1.8,0.3,3.4-0.1,4.8-1c1.4-0.9,2.3-2.3,2.9-4.1l-6.3-0.9l0.7-4.8l11.5,1.7l-2.2,15.1l-3.8-0.6L339.2,122  L339.2,122z"/>
<path d="M75.6,127.9c0.9,3,2.2,5.1,4,6.4c1.8,1.3,3.9,1.6,6.3,0.9c2.4-0.7,4-2,4.9-4.1c0.9-2,0.9-4.5,0-7.5c-0.9-3-2.2-5.1-4-6.4  c-1.8-1.3-3.9-1.6-6.3-0.9c-2.4,0.7-4,2-4.8,4.1C74.8,122.4,74.8,124.9,75.6,127.9L75.6,127.9z M69.9,129.5  c-1.3-4.4-1.1-8.2,0.6-11.4c1.6-3.2,4.5-5.4,8.5-6.6c4-1.2,7.6-0.8,10.7,1.1c3.1,1.9,5.3,5,6.6,9.4c1.3,4.4,1,8.2-0.6,11.4  c-1.7,3.3-4.5,5.5-8.5,6.6c-4,1.2-7.6,0.8-10.7-1.1C73.4,137,71.2,133.9,69.9,129.5L69.9,129.5z"/>
<path d="M122.4,108.2l-1.5,12.5l7.6-1.5L122.4,108.2L122.4,108.2z M118,103.3l6.5-1.3l15.3,25.6l-6,1.2l-3-5.3l-10.7,2.1l-0.7,6  l-6,1.2L118,103.3L118,103.3z"/>
<path d="M207.6,97.5l-3.2,12.1l7.8-0.4L207.6,97.5L207.6,97.5z M203.9,92.1l6.7-0.4l11.7,27.5l-6.1,0.3l-2.2-5.7l-10.9,0.6l-1.5,5.9  l-6.1,0.3L203.9,92.1L203.9,92.1z"/>
<path d="M305,98.9l-5.1,11.5l7.8,0.8L305,98.9L305,98.9z M302.2,93l6.6,0.7l7.3,28.9l-6-0.6l-1.3-5.9l-10.8-1.1l-2.4,5.6l-6.1-0.6  L302.2,93L302.2,93z"/>
<polygon points="143.4,126.9 139.5,99.3 145.2,98.5 146.7,108.8 158.1,107.2 156.6,96.9 162.3,96.1 166.2,123.7 160.5,124.5   158.8,112.3 147.4,113.9 149.1,126.1 143.4,126.9 "/>
<polygon points="171.7,123 169,94.9 189.4,93 189.9,97.9 175.2,99.2 175.8,105.2 189.2,104 189.6,108.8 176.2,110 176.9,117.2   192.3,115.8 192.7,121 171.7,123 "/>
<polygon points="264.7,118.6 266.1,90.5 286.6,91.5 286.3,96.4 271.6,95.7 271.3,101.7 284.8,102.3 284.5,107.2 271,106.5   270.7,113.7 286.1,114.5 285.8,119.7 264.7,118.6 "/>
<polygon points="371.1,131.8 378.1,104.5 398,109.6 396.8,114.3 382.5,110.7 381,116.5 394,119.8 392.8,124.5 379.8,121.2   378,128.2 392.9,132 391.6,137.1 371.1,131.8 "/>
<path d="M231,114.2l4.6-0.1c2.7,0,4.6-0.8,5.8-2.2c1.2-1.4,1.7-3.7,1.7-6.9c-0.1-3.1-0.7-5.5-1.8-6.9c-1.1-1.5-2.9-2.2-5.3-2.1  l-5.4,0.1L231,114.2L231,114.2z M225.4,119.3l-0.5-28.2l11-0.2c4.3-0.1,7.6,1,9.7,3.3c2.2,2.3,3.3,5.8,3.4,10.6  c0,2.6-0.3,4.9-1.1,6.8c-0.7,2-1.9,3.6-3.3,4.8c-1.1,0.9-2.4,1.6-3.8,2c-1.4,0.4-3.4,0.6-6,0.7L225.4,119.3L225.4,119.3z"/>
<polygon points="347.3,127 352.7,99.2 358.4,100.3 354,123 367.6,125.6 366.6,130.7 347.3,127 "/>
<path d="M397.8,129.7l5.5,1.7c-0.2,1.5,0,2.8,0.8,3.8c0.8,1,2.1,1.8,4,2.4c1.6,0.5,2.9,0.6,3.9,0.3c1-0.3,1.7-1,2-2.2  c0.5-1.6-1.4-3.7-5.8-6.2c-0.1,0-0.1-0.1-0.2-0.1c-0.1-0.1-0.3-0.2-0.5-0.3c-2.3-1.3-3.9-2.5-4.8-3.5c-0.8-0.9-1.2-1.9-1.4-3.1  c-0.2-1.2-0.1-2.5,0.4-3.9c0.8-2.6,2.3-4.4,4.5-5.2c2.2-0.8,5-0.8,8.3,0.3c3.1,1,5.4,2.5,6.7,4.5c1.3,2,1.6,4.4,0.9,7.1l-5.3-1.6  c0.3-1.3,0.1-2.5-0.6-3.4c-0.7-1-1.9-1.7-3.5-2.2c-1.5-0.4-2.7-0.5-3.6-0.2c-1,0.3-1.6,1-1.9,2.1c-0.4,1.4,0.8,3,3.6,4.6  c0.8,0.4,1.4,0.8,1.8,1c1.8,1.1,3.1,1.9,3.8,2.4c0.7,0.5,1.4,1.1,1.9,1.6c0.9,0.9,1.5,2,1.7,3.2c0.2,1.2,0.1,2.5-0.3,3.9  c-0.9,2.8-2.5,4.7-4.8,5.6c-2.4,1-5.2,0.9-8.7-0.1c-3.4-1-5.8-2.6-7.2-4.8C397.4,135.2,397.1,132.7,397.8,129.7L397.8,129.7z"/>
<path d="M119.4,474.4l5.4,1.1c3.1,0.7,5.6,0.3,7.3-1c1.8-1.3,3-3.9,3.8-7.6c0.8-3.7,0.7-6.5-0.3-8.5c-0.9-2-2.8-3.3-5.6-3.9  l-6.2-1.3L119.4,474.4L119.4,474.4z M111.5,479l6.9-32.9l12.9,2.7c5,1.1,8.5,3.2,10.4,6.4c1.9,3.2,2.3,7.6,1.1,13.2  c-0.6,3-1.6,5.6-3,7.7c-1.4,2.1-3.1,3.7-5.1,4.7c-1.5,0.8-3.2,1.2-4.9,1.3c-1.8,0.1-4.1-0.2-7.1-0.8L111.5,479L111.5,479z"/>
<polygon points="150.5,485.1 154,451.6 178.2,454.1 177.6,459.9 160.1,458.1 159.4,465.3 175.4,466.9 174.8,472.6 158.8,471   158,479.6 176.3,481.5 175.6,487.6 150.5,485.1 "/>
<polygon points="220.5,491.5 221.3,457.9 245.6,458.4 245.5,464.3 227.9,463.9 227.8,471 243.9,471.4 243.8,477.1 227.7,476.8   227.5,485.4 245.9,485.8 245.8,492 220.5,491.5 "/>
<polygon points="325.5,485.9 320.6,452.7 344.7,449.1 345.5,454.9 328.2,457.4 329.2,464.5 345.1,462.2 345.9,467.9 330,470.2   331.3,478.8 349.5,476.1 350.4,482.2 325.5,485.9 "/>
<polygon points="193.1,489.3 184,455 191.6,455.5 197,481.1 206,456.6 213.5,457.1 199.7,489.8 193.1,489.3 "/>
<polygon points="255,492.2 253.8,458.6 261.1,458.3 275.5,480.9 274.7,457.9 281.5,457.6 282.6,491.2 275.5,491.5 261,468.9   261.8,491.9 255,492.2 "/>
<polygon points="301.5,489.2 298.6,461.7 288.7,462.8 288.1,456.8 314.7,454 315.3,460 305.5,461 308.3,488.5 301.5,489.2 "/>
<path d="M364.3,460l7.8-1.9c1.7-0.4,2.8-1.1,3.5-1.9c0.6-0.9,0.7-2,0.4-3.5c-0.3-1.4-1-2.3-1.9-2.9c-0.9-0.5-2.2-0.6-3.7-0.2l-8.1,2  L364.3,460L364.3,460z M362.2,479.6l-7.9-32l15.5-3.8c3.5-0.9,6.3-0.8,8.3,0.3c2.1,1.1,3.5,3.2,4.2,6.2c0.5,2,0.5,3.7,0,5.2  c-0.5,1.5-1.5,2.7-2.9,3.5c1.5,0.2,2.7,0.7,3.5,1.5c0.8,0.9,1.6,2.4,2.2,4.5l1.1,3.7c0,0,0,0.1,0,0.1c0.5,1.9,1.2,3,2.1,3.2l0.2,1  l-7.2,1.8c-0.3-0.4-0.6-0.9-0.9-1.5c-0.3-0.6-0.6-1.4-0.8-2.3l-0.9-3.3c-0.6-2-1.3-3.2-2.1-3.7c-0.8-0.5-2.2-0.6-3.9-0.1l-7,1.7  l3.1,12.5L362.2,479.6L362.2,479.6z"/>
<path class="st3" d="M219.4,208.3c-5-0.5-6.6-5-5.7-9.3c2.7,2.3,4.4,4.3,6.8,1.8c0.3-3.3-0.6-5,3.1-8.3c1.6-1.4,4.2-2.3,6.2-2.3  c0-4.1,4.5-6.3,7.9-6.6c3.7-0.4,7.5,0.5,10.8,2.3c1.6,0.9,4.5,2.9,6.1,3.2c2.9,0.4,3.8-0.8,4.7-3c3.9,2.2,3.5,6.3,0,9.2  c1.6,2.4,4.1,4.5,6.4,5.9l-0.6,3.3c-1.2-0.1-3.2,0.5-4.4,0.8c1,2.8,0.8,6.2,1.2,9c0.1,0.5,0.2,0.9,0.3,1.4c-0.1-2.2,0.1-4,1.5-5.8  c1.9-2.6,4.7-4.7,7.4-6.5c6.6-4.4,13.6-10.3,18.4-16.9c6-8.2,8-12.6,11.3-26.5c7.2,6,9.7,19.7,7.5,28.3c7.6-7.6,11.4-14.5,14.9-24.6  l3.7-0.8c6.5,10.2,5.6,29.1-5.3,44.1c10.5-4.2,20.5-11.8,27.5-21.8c7.3,19.9-7.8,38.4-24.9,49.2c14.9,1.3,25-2.2,34.2-5.5  c-3.8,19.8-20.3,26.9-39,29.2c10.9,10.2,21.5,14.2,35.6,14.6c-9.6,16.1-31.8,14.7-48.1,9.2c8.8,11.6,25.9,23.5,39,26.5  c-8.6,9-23.8,8.5-34.8,4.9c-8.2-2.7-16.3-7.5-21.7-12.6c3.5,7.7,9.7,14.8,12,17.6c-17.5,3.3-35.5-15.6-43.6-31.4  c-2.1,4.1-2.3,7.2-0.2,10.4c2.1,3.4,7,4.1,10.6,5.2l0.7,0.9c-1,0.6-2.3,1.3-3.3,2.3c-1.2,1.3,0.3,2.4,1.9,3.8  c8,6.7,16.1,12.7,25.4,18.3c-4.9,2.1-12,4.5-17.3,5.5c10,11.1,15.5,24,15.5,38.1c-0.1,35.3-24.6,55.8-54,55.8  c-33.1-0.4-56.4-28.6-54.8-55.9c-0.4-15.5,6.1-28.8,17.1-38.8c-5.7-1.3-10.3-2.5-16.1-5.2c8.1-5.1,20.9-13.2,26.3-19.7  c0.8-1,1.1-2.2,0.5-3l-0.4-3.1c5.8-0.9,10.9-3.3,8-14.9c-2.3,3.7-3.8,5-6.6,8.3c-7.7,9-22.8,21.5-34.9,23.5l-0.6-4.4  c5-5.3,7.1-6.8,10.4-13.3c-14.4,12-33.7,16.4-52.3,10.3l0-4.8c10.3-4.1,24.8-13.6,36.4-25c-21,6.3-38.6,0.3-46.8-11.5  c13.8-1.2,25.3-5.3,35.1-11.9c-17-2.9-34.5-10.8-38.1-29.3l3.7-2.1c9.9,5.8,18.5,8.2,31.8,7.9c-17.9-9.9-28.5-29-26.9-47.8l4-1.2  c6,8.6,11.8,13.9,21.8,18.4c-4.9-9.5-8.4-29.4-1.3-41.7l4.9,1.5c2.4,12,5.1,21.2,14.2,30.2c-2-9.2-3.4-29.5,6.9-34.8  c1.1,8.7,5,19,10.4,26.2c2.2,2.9,4.7,5.5,7.1,8.2c4.1,4.4,8.5,7.5,13.5,10.7c3.3,2.1,7.6,4.7,9.2,8.4c0.6,1.3,0.8,2.6,0.7,4  c0,0.8-0.2,1.6-0.4,2.3l2.3,1.2c-1-2.3-1.4-4.3-1.6-6.7C221.1,210.8,220.3,210.1,219.4,208.3L219.4,208.3z M263.9,221l-0.7-1.5  c-0.3,0.5-0.8,1-1.9,1.4c1.4,3.9,3.1,6,6,8.2c-1.1,1-4.4,2.1-6.9,1.5c2.1,3.2,4.8,5.1,6.4,8.3c2.6-0.5,4.3-0.9,7-0.8  c2.1,0.1,4.4,0.5,6.2,1c2.7-1.4,4-6.3,0.7-8.5c-3.1-2.1-6-2.8-9.5-3.9c-2.9-0.7-5.3-2.4-6.9-4.9C264.2,221.4,264,221.2,263.9,221  L263.9,221z M218,222.3c-1.6,2-3.1,2.2-5.9,3.1c-1.3,0.4-2.7,0.8-4,1.2c-2.7,0.8-6.2,1.8-8.5,3.3c-1.6,1.1-2.1,2.4-2.2,4.2  c-0.1,1,1.2,3.2,2,4.5c4.9-1.4,8.2-1.5,12.9,0.3c4.1-2.5,5.7-8.1,8.2-12.1C219.3,225.8,217.8,224.4,218,222.3L218,222.3z"/>
<path class="st2" d="M258.6,204.1c1.7,0.3,3.3-1,5.8-0.9c-3.1-2-5.9-6.7-7-8.3c2.3-1.2,3.8-3.5,2.9-6.3c-1.7,2.3-3.5,3.2-5.8,2.9  c-3.8-0.7-8.4-6.4-16-5.6c-1.9,0.2-4.5,1.3-5.9,3.3c-1.1,1.5-0.9,2.8,1.1,4.1c1.2,0.9,3,1.9,4.1,3.7c1.9,3,2.6,6.7,1.9,9.6  c-0.5,1.9-1.7,3.4-3.9,4c-0.1,4.2-3.8,5.9-5.9,6.2c-1.8,0.3-3.7,0.2-6.1-1.1c0.3,3.4,2.3,4.7,3.7,5.6c-0.6,0.6-3.5,3.4-7.1-0.2  c-0.3,3,1.4,4.7,4.1,5.2c-3.4,5.1-7,12.6-11.3,14.6c-4.7-2-8.6-1.4-14.7-0.9c-1-1.3-2.8-4.5-2.8-6c0.1-2.4,1-4.1,2.9-5.3  c3.2-2.1,8.4-3.3,12.9-4.7c4.9-1.6,7.5-3.4,7.6-7.4c0.3-8.7-12.2-10.2-23.1-22.1c-7.7-8.4-13.4-14.2-15.5-30.6  c-4.5,2.7-7.5,14.3-2.5,33.3c-9.1-7.6-16.6-19-19.6-33.6c-6.9,11.2-6.1,30.7,3,45c-10.2-3.5-19.6-11.2-26.9-21.7  c-2,23.3,10.2,38.5,28.4,48.4c-9.7,3.8-21.8,2-36.6-6.7c2.8,14.3,14.3,25.1,39.4,28.5c-7.1,5.5-20.9,12.6-35.2,14.7  c8.4,9.4,24.7,13.7,49.2,4.4c-11.7,13.7-27.1,24-42.6,32.3c18.4,6.1,38.8,1.4,57.2-16.4c-3.2,9.1-9.2,16.5-15.9,23.7  c13.5-2.3,31.6-17.8,40.9-34.6c2.6,6.4,3.7,12.5,1.1,16.7c-1.3,2.1-4.3,4.3-8.5,4.4l0.2,1.5c0.5-0.1,2.3,0.4,1.7,2.3  c-1.8,5.4-16.7,15.2-24.3,19.9c5.5,2.1,11,3.4,16.6,4.4c-12.3,9.4-20.1,24.2-19.7,40.8c0.7,28.4,22.9,51.2,51.1,51.2  c28.2,0,50.9-22.3,50.9-51.2c0-14.5-6.7-29.7-17.7-39.7c5.8-0.9,11.5-2.4,17.2-4.9c-7.6-4.7-23.5-16.6-25.4-19.7  c-1-1.7,1.6-2.9,2.1-2.8L264,303c-3.5-1-6.6-2.8-8-4.9c-2.7-4.2-0.8-10.1,1.8-16.5c10.5,22.2,27.1,35.8,39.5,34.7  c-6.7-7.2-11.2-15.4-14.4-24.5c16.4,18.4,38.3,28,57.1,17.2c-15.1-5.1-33.8-20.2-40.2-31.2c24.5,9.2,41.2,6.2,49.6-3.2  c-17-1.6-27.1-9.3-35-17.1c25.1-2.9,35.9-11.1,38.7-25.4c-8.9,4.5-29.8,6.3-35,3.6c17.8-10.2,32.5-27.9,27.8-46.2  c-7.3,10.5-19.5,19-30.6,21.7c14.3-16.7,14.3-35.6,7.4-46.8c-5.7,16.3-11.3,24.8-19.6,31.6c6-16.5,1.5-27-2.6-31  c-3.8,14.7-8.7,21.9-16.5,30.4c-8.2,8.9-15.8,11.1-19,15.5c-1.1,1.4-1.3,2.8-1.2,4.9c0.1,2.6,1.9,8.1,7.8,9.5c4.4,1.4,6.7,2,9.9,4.1  c1.9,1.3,2.4,3.2,2.5,5.6c0.1,1.5-1.5,4.2-3.6,5.6c-2.3-0.2-4.7-1-6.7-1c-3-0.1-5.6,0.5-8.4,1c-0.1,0-0.2-0.1-0.3-0.1  c-1.6-3.8-3.7-5.3-5.2-6.9c-1.2-1.3-2.8-2.8-2-4.9c2.1,0.9,3.5,1.1,6,0.7c-2.7-2.7-4.9-5.6-4.4-10.1c0.8,0.5,2,0.7,3.1,0.6  c-0.9-1.3-1.6-3.1-1.9-5.1C260.1,210.7,260.5,206.6,258.6,204.1L258.6,204.1z M246.5,193.1c0.2,0.1,0.6-0.3,0.4-0.5  c-1.6-2-5.2-3.9-9-3.7c-1.7,0.1-4.3,1.2-3.3,3.5c0.3,0.7,1.5,1.3,2.3,1.3c0.5,0,0.7-0.3,1.1-0.6  C239.6,192.1,242.2,191.6,246.5,193.1L246.5,193.1z M207.8,329.2c-0.2-1,0-2.3,1-3.3c3.4-3.1,9.8-6.6,14-8.4c0-3.8,4-6.4,6.6-6.2  c-1,2.6-0.4,4.6-0.2,6.9c3.4,0,2.9,1.4,5.6,1.5l-0.1,1.1c-7.2,0.4-14,1.2-20.2,4.3C212.2,326.4,210,327.7,207.8,329.2L207.8,329.2z   M241.5,320.7l0-1.8c2.6-0.3,2.5-1,5.5-1.4c0.3-1.7,2.2-2.9,0-6.5c2.9-0.3,6.8,2.1,6.2,5.5c4.5,2.8,11,6.5,14.3,9.6  c0.9,0.9,1,2.4,0.7,3.5c-2.6-2.1-5.4-3.9-8.4-5.3C254.4,321.6,248.4,320.7,241.5,320.7L241.5,320.7z M250.4,354.2  c0.7-2.7,2.2-6,3.1-8.6c-0.1-1.5-2.5-1.2-2.6-0.7c-0.7,2-1.1,3.9-1.7,5.9c-0.3,0.9-0.7,1.9-1.1,2.8c-1.2,3.1-1,4.4-3.9,4.5  c-5.5,0.1-11,0.6-16.4,3.2c-2.2,4.5-3.3,12.9-3,18.4l-16,8c-2-1.1-3.8-2.5-5.2-3.7c-2.3-1.9-4.4-2.9-5.8-4.9  c-0.8-1.2-1.4-3.2-1.5-5.2c-0.2-3.1-0.2-7.2,0.7-10.6c-0.2-1-1.7-0.3-1.8-0.4c-0.7,0.6-1.7,5.7-1.5,10.2c0.1,2.5,0.6,5.8,0.8,7  c-0.5,3.2-0.9,5.5-2,8.4c-2.1-5.4-3.3-11.2-3.4-17.3c0-1.9,0.3-15.7,7.1-23c0.5,3.1,0.6,8.2,0.9,10.6c3.9-4,11.8-12.4,17.7-7.7  c2.5,2,5.5,4.8,7.5,6.4c0.9,0.7,1.6,1,2,1.3c0.5,0.3,2.4-0.8,1.4-1.7c-4.4-3.7-7.3-6-8.9-7.7c-1.3-1.3-1.7-2.2-1.8-2.5  c-0.7-4.1-0.3-7.7,1.3-11.1c1.2-2.5,7.3-6.4,17-6.8c1.3-0.1-0.1-2.4-0.7-2.5c-8.1,0-15.3,5.3-16.1,5.2c-1.8-0.1-3.3-0.5-5.5-0.8  c6.1-4.9,16.5-8.5,26.6-8.5c3,0,5.5,0.6,8.3,1.1c-1,1.3-2.5,2.6-4.5,3.8c5.6,3.3,8.1,5.6,11.5,12.7c3.9-0.7,13.5-1.4,15.5,0  c0.6,0.4,0.8,0.8,1.2,1.4c1.3,1.7,3.3,4.6,3.6,5c0.5,0.7,2.1-0.6,1.4-1.6c-0.8-1.1-2.3-3.2-3.1-4.5c-0.7-1.1-0.6-2.7,0-2.9  c0.4-0.1,0.9,0.5,1.6,1.2c5.9,6.4,10.1,13.9,11.8,22.9c-1.2-0.3-2.6-0.7-3.8-1.9c-1.3,5.6-3,11.4-6.6,16.6c0.9,4.2,1.7,9.9,1.9,17.6  c1.5,0,2.8-0.2,4.3-0.2c-3.7,7.4-9.2,13.8-16.1,18.4c0.2-1.6,0.8-3,1.3-3.5c0.4-0.4,1.5-1.4,2.5-2.3c1.3-1.3,2.9-2.8,4-4.1  c0.9-1.1,1.7-2.1,2.1-3c0.7-2-2.1-1.3-2.1-1.2c-0.9,1.3-5,5.7-7.1,7.6c-1.8,1.6-1.8,1.7-4.3,2.2c-2.8,0.5-10.9,0.3-11.2-1.1l-2.9-12  c-0.3-1.2-2.8-0.5-2.7,0c0.9,4.1,2.4,8.9,2.6,12.8c-1.4,2-11.9,8.6-14,10c0.6,0.8,1.3,1.6,2,2.7c-6.1-0.3-11.8-1.8-17-4.1  c-1.4-0.6-7.8-3.8-10.5-7.8c2.7-0.4,3.2-0.6,4.2,0.2c0.4,0.3,1.4,1.5,2.5,2.2c2.8,2,5.3,3.1,7.9,3.5c0.9,0.2,0.7-2.3,0.2-2.3  c-1.6-0.3-3.8-1.3-6.1-2.8c-2.6-1.7-3.9-5.5-4.5-8.3c-0.6-2.8-1.3-6.6-1.2-10.3l16.2-8.6c4.8,4.1,10.4,7.4,16.7,9.1  c6.4-3.8,10.8-8,13.9-12.6c0.9-1.4,2.3-1.3,4.6-0.9c2.7,0.5,5.5,0.8,8.2,0.9c0.6,0.1,1-2.5,0.1-2.6c-4.2-0.2-8.2-0.8-12.4-2.1  c-1.8-5.5-4.1-9-6.8-12.2C248.3,358.5,249.5,357.6,250.4,354.2L250.4,354.2z M225.1,307.9l5.8-7.1c0.9,1.1,2,2.2,3.1,3.1  c1.3-1.3,2.6-2.5,4.1-3.5c1.3,1.2,2.7,2.7,4,4.3c1.7-0.7,2.8-2.3,4.1-3.8l5,8.3c-1.7-1-4-2.4-5.5-2.4c-0.9,0-2.4,1.3-5.1,2.9  c-1-2.7-1.8-4.9-2.8-6.4c-1.2,2-1.9,4.2-2.6,6.3c-1.8-1.1-4.3-3.1-5-3.1C228.7,306.4,227,307.4,225.1,307.9L225.1,307.9z   M251.3,297.7c-0.5-1-0.6-0.6-0.6,0.5c0.1,3.2,1.4,7.5,3.2,9.6c1.8,2.1,4.7,3.3,7,2.2C257.1,307,253.2,301.8,251.3,297.7  L251.3,297.7z M225.2,299.2c0.6-0.9,0.6-0.5,0.5,0.6c-0.3,2.7-2,7.1-3.8,9.1c-1.7,1.8-4.7,3.1-7.5,1.5  C218.6,308,222.7,303.1,225.2,299.2L225.2,299.2z M263.7,279.9c2.8,0.6,8,0.9,12.3-1.1c0.4,3.8-2.6,6.3-5,6.6  C267.5,286,263.8,284,263.7,279.9L263.7,279.9z M279.7,277.3c2.9-0.6,6.7-2.5,9.1-7c1.6,2.7,1.2,5.9-0.9,7.7  C286.4,279.3,282.1,280.4,279.7,277.3L279.7,277.3z M291.6,266.6c2.9-1.3,5.8-4,7-9c2.7,2.2,2.4,5.6,0.9,7.9  C298.4,267.2,294.7,268.9,291.6,266.6L291.6,266.6z M299.5,252.5c1.9-1.8,4.2-5.7,4.8-11c3.1,1.4,3.7,5.1,2.8,7.8  C306.4,251.2,303.9,254,299.5,252.5L299.5,252.5z M304.7,235.7c0.8-2.3,0.6-7.1-0.9-10.6c4.1-0.1,5.5,2.8,5.6,5.2  C309.5,232.3,308.5,235.6,304.7,235.7L304.7,235.7z M301.5,220.2c-0.8-2.8-3.9-6.3-8-7.7c3.2-2.6,6.6-1.8,8.3-0.1  C303,213.5,304.4,217.1,301.5,220.2L301.5,220.2z M289.2,210.1c-1.8-2.3-5-4.2-9.3-4c2-3.6,4.9-3.4,7.3-2.7  C288.8,204,290.7,206.2,289.2,210.1L289.2,210.1z M299.1,206.4c2.1,1.1,4.8,3.5,6,5.2c4.7-4.2,10.7-12.5,10.1-21.2  C311.5,197.8,304.3,203.7,299.1,206.4L299.1,206.4z M276.2,287.6c-2.6,0.7-5.8,0.9-7.5,0.1c1.8,6.5,5.8,10.5,12.3,14.2  C278.7,297.2,276.2,293.3,276.2,287.6L276.2,287.6z M292.2,278.7c-1.7,2.3-3.8,4.2-6.2,4.8c5.4,5,12.2,12.2,22.7,13  C301.5,291.7,295.3,285.5,292.2,278.7L292.2,278.7z M305.3,261.6c-0.4,3.2-2.5,5.8-4.4,7.1c6.6,4.1,22,8.7,28.8,6.7  C320.5,272.9,311.3,267.5,305.3,261.6L305.3,261.6z M310.8,243.5c0.5,1.2,0.6,3.6-0.3,5.8c6.4,0.6,17.5-0.8,21.7-5.4  C321.8,245,314.6,244,310.8,243.5L310.8,243.5z M309.8,221.7c1.1,2.4,2,4.8,1.6,7.2c6.8-2.8,16-10,18.3-17.4  C323,217.3,317.2,220.6,309.8,221.7L309.8,221.7z M287,200.3c2.3,0.4,4.2,1.4,5.7,3.2c4.3-5.6,7.3-12,6.3-19.2  C295.9,191.9,291.6,196.7,287,200.3L287,200.3z M214,280c-3,0.9-8.3,1-12.2-2c-0.7,3.8,2.1,6.4,4.4,7  C209.7,285.8,213.5,284.1,214,280L214,280z M197.8,277.7c-3.1-0.7-6.9-2.8-8.5-7.7c-2.5,2.9-1.7,6.4,0.3,8.4  C191,279.8,195.2,280.6,197.8,277.7L197.8,277.7z M185.4,264.4c-2.9-1.3-5.8-4-7-9c-2.7,2.2-2.4,5.6-0.9,7.9  C178.7,265,182.3,266.7,185.4,264.4L185.4,264.4z M177.6,250.2c-1.6-2.1-3.3-6.2-3.2-11.5c-3.3,1-4.3,4.5-3.8,7.3  C171,248,173,251.1,177.6,250.2L177.6,250.2z M173.7,234.1c-0.8-2.3-0.6-7.1,0.9-10.6c-4.1-0.1-5.5,2.8-5.6,5.2  C168.9,230.7,169.9,234.1,173.7,234.1L173.7,234.1z M177.7,218.9c0.8-2.8,3.9-6.3,8-7.7c-3.2-2.6-6.6-1.8-8.3-0.1  C176.2,212.2,174.8,215.8,177.7,218.9L177.7,218.9z M189.9,208.1c2.1-2.1,5.4-3.7,9.6-3c-1.6-3.8-4.6-4.6-6.9-3.8  C190.6,202,188.7,204,189.9,208.1L189.9,208.1z M179.2,206.2c-2.2,0.9-5.1,3-6.5,4.6c-4.3-4.6-9.2-13.4-7.8-22  C168,196.5,174.4,202.9,179.2,206.2L179.2,206.2z M199.6,288.3c2.5,1.1,6.9,1,8.7,0.5c-2.8,6.1-7.6,10.4-14.5,13.1  C196.9,297.5,198.7,293.9,199.6,288.3L199.6,288.3z M185.6,278.1c1.7,2.3,4,4.7,6.3,5.3c-5.4,5-11.9,11.2-21.6,10.9  C177.4,289.5,182.5,284.4,185.6,278.1L185.6,278.1z M172.8,261c0.3,3.5,3,5.8,5.3,7.1c-6.6,4.1-18.3,6.5-25.1,4.5  C161.6,270.1,167.4,266.4,172.8,261L172.8,261z M167.5,242.7c-0.4,2.1-0.1,4.5,1.4,6.9c-6.4,0.6-15.3-1.5-19.6-6.1  C159.6,244.5,163.5,243.7,167.5,242.7L167.5,242.7z M168.9,221.1c-1.2,2.3-2,5.1-1.8,7.6c-6.6-3.3-13.4-10.1-15-16.2  C158.6,217.5,161.6,219.4,168.9,221.1L168.9,221.1z M192.2,199.5c-2.3,0.5-4.3,1.3-6,2.6c-3.8-5.9-6.4-12.6-4.8-19.6  C183.8,190.5,187.9,195.5,192.2,199.5L192.2,199.5z"/>
<path class="st2" d="M234.7,205.2c0.4-1.5-1.1-3.6-2.2-4.5c-1.3-1-2.9-1-4.5-0.7c-0.9,0.2-1.6,0.5-2.3,1.1l-1.5,1.2l-0.1-1.9  c-0.4-5.2,3.1-7.9,8-7.1c4.7,0.8,7,6.7,6.7,11c-0.2,3.6-3.3,5.7-6.6,6.4c-2.8,0.6-5.9-0.5-6.4-3.7l-0.3-1.5l1.5,0.4  c0.9,0.2,1.9,0.3,2.8,0.3c1.1,0,2.2-0.1,3.3-0.3C233.5,205.7,234.5,205.4,234.7,205.2L234.7,205.2z M235.6,205.5  c-0.4,1.4-5.5,2.2-8.8,1.2c0.5,2.8,3.2,3.3,5.2,2.9c3.3-0.7,5.6-2.7,5.8-5.5c0.2-4-1.9-9.2-5.9-9.9c-3.6-0.6-7.3,0.9-6.9,6  c0.9-0.8,1.8-1.1,2.7-1.3c1.8-0.3,3.7-0.3,5.2,0.9C234.9,201.3,236.1,203.8,235.6,205.5L235.6,205.5z"/>
<path class="st2" d="M232.3,205.1c-1.3-1.5-3.4-2.3-4.9-2.2c-3,0.2-4.4,2-6.9,2c-1.8,0-3-0.4-4.5-1.8c1.1,2.4,2.5,3.6,4.5,3.8  c2.6,0.3,4.6-2,7.1-2.6C228.9,204.1,231.1,204.7,232.3,205.1L232.3,205.1z"/>
</svg>