<?xml version="1.0" encoding="utf-8"?>
<!-- Generator: Adobe Illustrator 22.0.1, SVG Export Plug-In . SVG Version: 6.00 Build 0)  -->
<svg version="1.1" id="Layer_1" xmlns="http://www.w3.org/2000/svg" xmlns:xlink="http://www.w3.org/1999/xlink" x="0px" y="0px"
	 viewBox="0 0 2500 2500" style="enable-background:new 0 0 2500 2500;" xml:space="preserve">
<style type="text/css">
	.st0{fill:none;}
	.st1{fill:#FFFFFF;}
	.st2{fill:#365E4C;}
</style>
<path class="st0" d="M0,0h2500v2500H0V0z"/>
<path class="st1" d="M1250,2254.7c554.9,0,1004.7-449.8,1004.7-1004.7S1804.8,245.3,1250,245.3S245.3,695.2,245.3,1250
	S695.2,2254.7,1250,2254.7L1250,2254.7z"/>
<path class="st2" d="M1250,2140.1c245.8,0,468.3-99.6,629.4-260.7c161.1-161.1,260.7-383.6,260.7-629.4s-99.6-468.3-260.7-629.4
	c-161.1-161.1-383.6-260.7-629.4-260.7c-245.8,0-468.3,99.6-629.4,260.7C459.5,781.7,359.9,1004.2,359.9,1250
	s99.6,468.3,260.7,629.4S1004.2,2140.1,1250,2140.1L1250,2140.1z M1250,2369.3c-309.1,0-588.9-125.3-791.4-327.8
	C256,1838.9,130.7,1559.1,130.7,1250S256,661.1,458.6,458.6S940.9,130.7,1250,130.7c309.1,0,588.9,125.3,791.4,327.8
	c202.5,202.5,327.8,482.4,327.8,791.4s-125.3,588.9-327.8,791.4S1559.1,2369.3,1250,2369.3L1250,2369.3z"/>
<path class="st2" d="M593.1,1564.5c0,47.2,45.8,68.7,45.8,68.7l528.5,320.8c87.4,50.1,159,0,159,0l525.7-320.8
	c48.7-30.1,45.8-68.7,45.8-68.7v-240.6c0-47.3-45.8-45.8-45.8-45.8H822.2v170.5h872.3c0,0,22.9,2.9,22.9,22.9v24.4
	c0,0,2.9,28.6-22.9,45.8l-368.1,229.2c0,0-67.3,55.9-161.8,0l-365.2-229.2c0,0-24.4-14.3-24.4-45.8V988.9
	c0-31.5,24.4-45.8,24.4-45.8l365.2-229.2c94.5-55.9,161.8,0,161.8,0L1694.5,943c25.8,17.2,22.9,45.8,22.9,45.8v24.3
	c0,20.1-22.9,22.9-22.9,22.9H822.2v170.4H1852c0,0,45.8,1.4,45.8-45.8V920.1c0,0,2.9-38.7-45.8-68.8l-525.7-320.8
	c0,0-71.6-50.1-159,0L638.9,851.3c0,0-45.8,21.5-45.8,68.8L593.1,1564.5L593.1,1564.5L593.1,1564.5z"/>
<path class="st1" d="M279.5,1733.6l136.1-77.2l59.9,105.6l-25.1,14.2l-36.8-64.8l-29.7,16.8l34.5,60.9l-25.4,14.4l-34.5-60.9
	l-55.9,31.7L279.5,1733.6L279.5,1733.6z M479.2,1997c-11.1-5.2-21.5-11.6-31.2-19.2c-9.8-7.8-18.7-16.6-26.6-26.2
	c-9.3-11.3-16.5-22.9-21.5-34.7c-5-11.8-7.6-23.6-7.9-35.3c-0.4-11.5,1.9-23,6.6-33.5c4.6-10.3,11.6-19.3,20.3-26.4
	c18.8-15.5,40.2-20.5,64-14.9c23.9,5.5,46,20.6,66.3,45.3c7.2,8.7,13.5,18,18.9,27.8c5.3,9.7,9.7,20.1,13.1,31.1l-28.4,23.5
	c-2.2-11.1-5.6-21.9-10.3-32.2c-4.4-9.7-10.1-18.7-16.8-26.9c-12.1-14.6-24.9-23.4-38.5-26.3c-13.6-2.9-26.2,0.4-37.8,10
	c-11.3,9.3-17,20.8-17.1,34.3c-0.1,13.6,5.4,27.1,16.5,40.6c7.3,8.9,15.9,16.6,25.4,23.1c9.8,6.7,20.7,12.3,32.9,16.9L479.2,1997
	L479.2,1997z M718.4,2176.3c-13.5-0.6-26.5-3.2-39-7.7s-25-11.1-37.6-19.8c-12.2-8.4-22.3-17.6-30.3-27.7
	c-8.1-10.1-13.8-20.6-17.1-31.7c-3.5-11.6-4.5-22.9-2.9-34c1.6-11.1,5.7-21.4,12.3-30.9c13.9-20.1,33-30.8,57.4-31.9
	c24.4-1.1,49.8,7.4,76.2,25.6c9.6,6.6,18.5,14.2,26.7,22.5c8.1,8.4,15.7,17.9,22.7,28.7l-19.4,28.1c-6.6-10.6-14.2-20.6-22.6-29.9
	c-7.1-7.9-15.1-15-23.8-21.2c-15.6-10.8-30.3-15.7-44-14.7c-13.8,1-24.9,7.7-33.4,20.1c-8.4,12.1-10.8,24.7-7.2,37.7
	c3.5,13,12.4,24.4,26.7,34.3c3.8,2.6,7.8,4.9,12.1,6.8c4.2,1.9,8.7,3.5,13.3,4.8l11.1-16.1l-21.5-14.8l16.5-24l60.9,42L718.4,2176.3
	L718.4,2176.3z M856.6,2159.5c8,3.4,14.5,4.6,19.6,3.5c5.1-1.1,8.9-4.5,11.4-10.3c2.3-5.3,2.1-10.4-0.8-15
	c-2.8-4.7-8.1-8.6-15.7-11.9l-20.7-8.9l-14.5,33.6L856.6,2159.5L856.6,2159.5z M756.1,2216.3l62-143.6l63.8,27.6
	c23.4,10.1,39.3,21,47.5,32.6c8.2,11.6,9.3,24.6,3.2,38.8c-3.4,8-8.9,13.7-16.2,17.2s-17,5-28.9,4.6c3.7,3.2,6.6,7,8.7,11.5
	c2.1,4.5,3.4,9.6,4,15.3l6.3,61l-48.7-21l-4.1-50.7c-0.7-8.1-2.8-14.4-6.2-18.8c-3.4-4.4-9.3-8.4-17.6-12c-0.9-0.4-1.7-0.7-2.6-1.1
	c-0.8-0.3-1.7-0.7-2.5-1l-25.2,58.4L756.1,2216.3L756.1,2216.3z M1016.7,2192.6c11.7-6.8,25.2-8.6,40.5-5.5
	c15.4,3.1,27.1,10.1,35.2,20.9c8.1,10.8,10.7,23.2,7.9,36.9c-2.8,13.7-10,24-21.7,30.8c-11.7,6.8-25.2,8.6-40.6,5.5
	c-15.3-3.1-27-10.1-35-20.9c-8.1-10.8-10.7-23.1-7.9-36.8C997.8,2209.7,1005,2199.4,1016.7,2192.6L1016.7,2192.6z M948.6,2246.7
	c2.9,10.7,8.3,20.7,16.3,30.1c8,9.3,17.6,17.1,28.4,22.9c11.1,6,23.8,10.5,38.2,13.4c14.5,2.9,28,3.8,40.7,2.6
	c12.3-1.1,24.2-4.5,35.2-9.9c11-5.5,19.9-12.6,26.8-21.3c6.9-8.8,11.6-19,13.7-30c2.3-10.9,2-22.3-0.9-33.1
	c-2.9-10.7-8.3-20.8-16.2-30.4c-8-9.2-17.6-16.9-28.4-22.7c-11.1-6.1-24-10.6-38.6-13.6c-14.5-3-28-3.8-40.5-2.7
	c-12.2,1.1-24,4.4-35,9.9c-11.1,5.7-20.1,12.9-26.9,21.6c-6.9,8.8-11.6,19.1-13.7,30.1C945.4,2224.6,945.7,2235.9,948.6,2246.7
	L948.6,2246.7z M1228.7,2234.9l2.6,98.3l-46.6,1.2l-4-156.5l41.2-1.1l103,90.7l-2.4-93.4l46.6-1.2l4,156.5l-36.8,0.9L1228.7,2234.9
	L1228.7,2234.9z M1426.1,2318.5l-28.7-153.6l47.7-8.9l28.7,153.6L1426.1,2318.5L1426.1,2318.5z M1538.2,2192.3l33.3,92.5l-43.7,15.7
	l-53-147.2l38.8-14l126.4,53.7l-31.6-87.8l43.7-15.7l53,147.2l-34.6,12.5L1538.2,2192.3L1538.2,2192.3z M1894.9,2101.3
	c-5.8,12-13.3,23.1-22.4,32.8c-9,9.7-20,18.7-33,27c-12.5,7.9-24.9,13.7-37.3,17.1c-12.4,3.5-24.4,4.7-35.8,3.5
	c-12.1-1.3-22.9-4.8-32.5-10.6s-17.5-13.6-23.7-23.4c-13.1-20.6-15.4-42.4-6.9-65.3c8.5-23,26.3-43.1,53.4-60.3
	c9.9-6.3,20.3-11.6,31.2-15.8s22.7-7.5,35.4-9.7l18.3,28.8c-12.4,2-24.5,5.1-36.4,9.1c-10.9,3.9-20.5,8.5-28.8,13.8
	c-16,10.2-26.3,21.8-30.8,34.9s-2.7,26,5.4,38.7c7.9,12.4,18.5,19.6,31.9,21.4c13.3,1.9,27.4-1.9,42-11.2c3.9-2.5,7.6-5.3,11-8.5
	c3.4-3.1,6.6-6.6,9.6-10.4l-10.6-16.7l-21.8,13.9l-15.7-24.7l62.3-39.6L1894.9,2101.3L1894.9,2101.3z M1943.7,2083.1L1837,1968.5
	l91.7-85.4l19.7,21.2l-57.3,53.3l21.7,23.3l54.8-51l20,21.5l-54.8,51l25.3,27.2l59.1-55l20,21.5L1943.7,2083.1L1943.7,2083.1z
	 M2020,1864.9l79.6,57.7l-27.2,37.6l-126.8-91.8l24.2-33.4l134.7-26.8l-75.6-54.8l27.2-37.6l126.8,91.8l-21.6,29.8L2020,1864.9
	L2020,1864.9z"/>
</svg>
