<?xml version="1.0" encoding="utf-8"?>
<!-- Generator: Adobe Illustrator 22.0.1, SVG Export Plug-In . SVG Version: 6.00 Build 0)  -->
<svg version="1.1" id="Layer_1" xmlns="http://www.w3.org/2000/svg" xmlns:xlink="http://www.w3.org/1999/xlink" x="0px" y="0px"
	 viewBox="0 0 2500 2500" style="enable-background:new 0 0 2500 2500;" xml:space="preserve">
<style type="text/css">
	.st0{fill:none;}
	.st1{fill:#FFFFFF;}
	.st2{fill:#1A77BD;}
	.st3{fill:#D14F53;}
</style>
<g>
	<path class="st0" d="M0,0h2500v2500H0V0z"/>
	<path class="st1" d="M2313.7,470.9l-360.5-360.6l-11.7,8.6c-157.4,115.9-505.6,170-691.5,170c-185.8,0-534.1-54-691.4-170
		l-11.7-8.6l-10.3,10.3L186.3,470.9l11.9,11.9c159,159,295.5,419.6,102.9,1147.3c-38,143.7-22.7,271.7,44.4,370.1
		c75.8,111.2,216.6,181.7,407.4,203.9c356.4,41.4,446.6,114.8,483.3,166.3l13.7,19.3l13.7-19.2c36.8-51.6,126.9-124.9,483.4-166.3
		c190.7-22.2,331.6-92.7,407.3-203.9c67.1-98.5,82.4-226.4,44.4-370.1c-192.6-727.7-56.1-988.4,102.9-1147.3L2313.7,470.9
		L2313.7,470.9z"/>
	<path class="st2" d="M2289.8,470.9l-338.3-338.4C1794.7,248,1448.1,305.8,1250,305.8c-198.1,0-544.7-57.7-701.4-173.3L210.2,470.9
		c165.1,165.1,300.9,432.2,107.3,1163.6c-74.3,280.6,57.1,508.7,437.4,552.9c354.9,41.2,453.9,115.4,495.1,173.2
		c41.3-57.8,140.3-132,495.2-173.2c380.2-44.3,511.6-272.3,437.4-552.9C1988.9,903.1,2124.7,635.9,2289.8,470.9L2289.8,470.9z"/>
	<path class="st1" d="M2108.5,1459.3l-289.6-170c105.5-40.3,199.9-86.2,274.6-134.3c-1.4-17.2-2.6-34.4-3.6-51.6
		c0.1,2.2,0.2,4.4,0.3,6.6c-178.3,121.1-504.7,241.1-840.2,277.2c-419.8,45.3-825.3,221.7-944,367.4l23.3,14.5l793.1,465.6
		c57.4,22.7,94.4,46.9,120,70.5l9.5,5.6c57.6-56.7,177.8-118.2,489.7-154.5c8.1-0.9,16-2.1,23.8-3.2L734.1,1547.6
		c153.4-55,335-101.6,520.1-121.6c4.3-0.5,8.7-1,13-1.5l869.4,510.5c22.8-46.6,34.4-99.5,34.4-157.3c0-42.6-6.2-87.9-18.7-135.2
		C2136.2,1581.8,2121.6,1520.7,2108.5,1459.3L2108.5,1459.3z M695.8,1089c-115.5,43.1-218.3,93.1-297.6,145.4
		c-3.1,24.8-6.9,50.6-11.1,77c1.3-8.2,2.6-16.4,3.8-24.4c173.4-125.5,511.4-253,859.1-290.5c377.2-40.7,743-187.3,899.6-322.3
		c-0.2,0.5-0.4,1-0.6,1.5c10-23.7,21.6-46.7,34.5-68.9l-27.7-15.1l-515.3-302.5C1500.3,321.6,1353.7,337,1250,337
		c-104.2,0-251.5-15.5-392.2-48.2l919.9,540.1c-152.1,58.6-335,106.9-524.8,128L317.5,407.7L254,471.3
		c91.5,98.3,171.6,233.8,186.9,468.1L695.8,1089z M299.9,1731.7c3.2-32.9,9-65.4,17.6-97.3C306.9,1674.4,301.7,1698.7,299.9,1731.7
		L299.9,1731.7z"/>
	<path class="st3" d="M1797.9,1660.7c97.7,58.6,211.7,5.2,248-59c36.3-64.1-39.5-187.5-150.3-105.1c19.5-136.7-125-144.5-164-82
		C1692.5,1477.1,1700.3,1602,1797.9,1660.7L1797.9,1660.7z M559.7,941.9c97.6,58.6,211.7,5.2,248-58.9
		c36.3-64.1-39.5-187.5-150.3-105.1c19.5-136.7-125-144.5-164.1-82C454.2,758.3,462,883.3,559.7,941.9L559.7,941.9z M1364.3,531.8
		c97.6,58.6,211.7,5.2,248-58.9c36.3-64.1-39.5-187.5-150.3-105.1c2.5-17.5,2.3-32.9-0.1-46.3c-66.2,8.8-128.9,13.8-182.7,15.2
		C1267.2,401.7,1288.9,486.5,1364.3,531.8L1364.3,531.8z M2108.1,706.7c-3-109.2-129.5-111.7-165.7-53.8
		c-23.8,38.1-30,99.3-9.3,154.7C2001.5,775,2060.9,740.8,2108.1,706.7L2108.1,706.7z M1128.9,2172.4c97.7,58.6,211.7,5.2,248-58.9
		c36.3-64.1-39.5-187.5-150.3-105.1c19.5-136.7-125-144.5-164.1-82C1023.5,1988.7,1031.3,2113.7,1128.9,2172.4z M507.8,1813
		c97.7,58.6,211.7,5.2,248-59c36.3-64.1-39.5-187.5-150.3-105.1c5.3-37-1.5-64.5-14.9-83.8c-65.4,29.8-123.1,61.2-171,92.9
		C421.3,1714.7,447.2,1776.6,507.8,1813L507.8,1813z"/>
	<path class="st1" d="M480.2,1471.2c8.3,0,23.3-1.6,34.4-7.2c9.5-4.8,12.1-12.1,9.2-17.8c-2.9-5.7-8.7-7.8-22-7.6
		c-16.6,0-32.7-4-40-18.5c-12.2-24.2,0.9-50.7,30.8-65.8c13.5-6.8,25.6-9.3,32.6-9l4.1,28.3c-9,0.4-17.7,2.7-25.8,6.7
		c-9,4.6-13,11.4-9.8,17.8c2.4,4.8,9.2,6.4,20.5,6c16-0.1,34.1,2.8,42.2,18.9c13.4,26.6-1.9,52.4-32.8,67.7
		c-14.6,7.1-30.5,10.3-39.9,8.8L480.2,1471.2L480.2,1471.2z M673.4,1414.3c-6,6.9-17.1,14.8-31.2,20.9c-29.5,12.6-58,3.5-71.3-27.5
		c-18.2-42.5,0.1-89.6,45.5-109c10.2-4.4,19.9-6.2,26.2-6.3l2.7,30.6c-4.9,0.1-10.3,0.9-17.4,4c-24.9,10.6-31.4,38.6-21.8,61
		c7.1,16.6,21.2,20.4,34.1,14.9c10.2-4.4,16.5-10,21.6-15L673.4,1414.3L673.4,1414.3z M749.5,1200.5l8.9,70.3l61.6-20.1l-8.9-70.3
		l36.6-11.9l23.1,180.8l-36.4,11.8l-10-76.1l-61.9,20.2l10,76.1l-36.4,11.9l-23.1-180.8L749.5,1200.5L749.5,1200.5z M924,1254
		c-0.4-12.2,5.8-29.1,23-33.5c8.5-2.2,14.8,0.9,16.3,7.1l0.1,0.3C966.4,1239.4,952.9,1247,924,1254l3.2,28
		c50.8-11.5,79-31,70.9-62.9c-5.9-23.4-27.9-33.2-53.4-26.8c-45.6,11.6-63.3,58.5-53.6,96.9c8.4,33,32,48.6,68.1,39.5
		c13.9-3.5,31.6-10.7,44.3-21.9l-9.3-26.1c-9.6,8.1-21,13.9-33.3,16.9c-10.8,2.7-20.1,1.5-26.7-3.6c-3.5-3-6.2-8.3-7.1-11.9
		L924,1254L924,1254z M1057.1,1251.7c51.4-8.5,80.7-26.3,74.5-58.6c-4.5-23.7-25.8-34.8-51.7-29.9c-46.2,8.8-66.6,54.6-59.2,93.5
		c6.4,33.4,29.1,50.4,65.6,43.4c14.1-2.7,32.1-8.9,45.5-19.2l-7.8-26.7c-10.1,7.6-21.8,12.7-34.2,14.9c-11,2.1-20.2,0.4-26.4-5.2
		C1060.2,1260.9,1057.8,1255.4,1057.1,1251.7l-1.6-28.1c0.4-12.2,7.5-28.7,25-32.1c8.6-1.6,14.7,1.8,15.9,8l0.1,0.3
		c2.2,11.8-11.6,18.4-40.9,23.8L1057.1,1251.7L1057.1,1251.7z M1154.6,1284.7l4.4-78.6c0.8-19.9-0.2-41.8-0.4-53l32.6-4.4
		c0.6,8.8,1,17.6,1.2,26.9l1-0.1c6.6-18.6,19.2-32.6,36.8-35c2.6-0.3,5-0.4,7.2-0.7l-2.4,38.1c-2,0-3.9,0.2-5.8,0.5
		c-24,3.2-32.7,26.1-34,52l-2.5,49.1L1154.6,1284.7L1154.6,1284.7z M1286.2,1189.7c1-12.2,8.9-28.3,26.5-30.8
		c8.7-1.2,14.6,2.5,15.4,8.8l0.1,0.3C1329.9,1179.8,1315.7,1185.8,1286.2,1189.7l0.2,28.1c51.7-5.9,81.9-22.2,77.3-54.8
		c-3.3-23.9-24.1-36-50.1-32.4c-46.6,6.5-69.2,51.3-63.8,90.5c4.7,33.7,26.6,51.8,63.4,46.7c14.2-2,32.5-7.3,46.4-17l-6.5-27
		c-10.5,7-22.4,11.6-34.9,13.2c-11.1,1.5-20.2-0.7-26.1-6.5c-3.1-3.3-5.3-8.9-5.8-12.6L1286.2,1189.7z M1393.2,1253.3l-1.9-89.2
		c-0.2-14.3-0.9-28.5-1.9-42.8l33-6.9l2.1,21.5l0.5-0.1c8.5-18.9,22.8-29.8,39.4-33.3c20.8-4.4,35.4,5.9,40.1,27.9
		c1.2,5.7,2.1,15.3,2.4,21.8l1.5,76.8l-37.4,7.9l-1.5-73.2c-0.1-4.8-0.7-9.6-1.7-14.3c-1.9-9.1-6.3-14.7-15.9-12.7
		c-12.2,2.6-23,20.8-22.6,50.1l1.4,58.6L1393.2,1253.3z M1558.7,1082.1l21.2,53.1c5.6,15,9.5,24.1,12.8,33.1l0.7-0.2
		c0.8-9.9,2-20.4,4.7-37.7l9.7-62l41.2-11.5l-34.6,144.5l-37.6,10.5l-55.9-119.2L1558.7,1082.1L1558.7,1082.1z M1707.5,1120.2
		c49.6-15.9,76-37.8,65.1-68.9c-8-22.8-30.6-30.6-55.5-22c-44.4,15.5-57.9,63.8-44.9,101.2c11.2,32.1,36.2,45.6,71.3,33.3
		c13.5-4.7,30.5-13.4,42.2-25.7l-11.6-25.2c-8.9,9-19.7,15.7-31.6,19.8c-10.5,3.7-19.9,3.3-26.9-1.3
		C1711.9,1128.8,1708.7,1123.7,1707.5,1120.2l-5.7-27.5c-1.4-12.2,3.1-29.6,20-35.4c8.3-2.9,14.8-0.4,16.9,5.6l0.1,0.2
		c3.9,11.3-8.8,19.9-36.9,29.5L1707.5,1120.2L1707.5,1120.2z M1829,1044.7c-2.3-12,1.1-29.7,17.4-36.7c8.1-3.5,14.7-1.4,17.2,4.4
		l0.1,0.2C1868.5,1023.6,1856.4,1033.1,1829,1044.7l7.6,27.1c48.4-19.4,73.1-43.1,60.1-73.4c-9.6-22.2-32.8-28.4-56.9-18
		c-43.2,18.6-53.2,67.8-37.5,104.1c13.5,31.2,39.3,42.9,73.5,28.2c13.2-5.7,29.4-15.6,40.3-28.7l-13.4-24.3
		c-8.2,9.6-18.5,17.1-30.1,22c-10.2,4.4-19.7,4.7-26.9,0.6c-3.9-2.4-7.5-7.2-8.9-10.6L1829,1044.7L1829,1044.7z M1953.7,1075.8
		l-28.4-84.5c-4.5-13.5-9.4-27-14.6-40.2l29.5-16.5l8.4,19.9l0.5-0.3c2.5-20.6,12.9-35.2,27.7-43.5c18.6-10.4,35.6-5,46.6,14.7
		c2.8,5.1,6.6,14,8.8,20l24.3,72.8L2023,1037l-23.3-69.4c-1.6-4.6-3.5-9-5.9-13.2c-4.5-8.1-10.4-12.1-19-7.3
		c-10.9,6.1-15.7,26.8-6.6,54.6l18.9,55.5L1953.7,1075.8L1953.7,1075.8z"/>
</g>
</svg>
