<?xml version="1.0" encoding="utf-8"?>
<!-- Generator: Adobe Illustrator 21.0.0, SVG Export Plug-In . SVG Version: 6.00 Build 0)  -->
<svg version="1.1" id="Laag_1" xmlns="http://www.w3.org/2000/svg" xmlns:xlink="http://www.w3.org/1999/xlink" x="0px" y="0px"
	 viewBox="0 0 501.2 292.4" style="enable-background:new 0 0 501.2 292.4;" xml:space="preserve">
<style type="text/css">
	.st0{fill:#FFFFFF;}
	.st1{fill:#E30613;}
</style>
<circle cx="246.9" cy="120.9" r="120.9"/>
<circle class="st0" cx="246.9" cy="120.9" r="116.9"/>
<path d="M243.6,232.6c-60.2-1.8-108.4-51.1-108.4-111.7c0-58.3,44.7-106.2,101.7-111.3c0,0-4.9,6.9-4.9,12.5c0,5.6,2.6,10.1,4.5,9.3
	c1.9-0.7-0.7-8.6,1.9-10.5c2.6-1.9,9-6.4,13.8-3c4.9,3.4,9,10.1,1.5,16.8c-7.5,6.7-12.4,9.3-11.6,10.5c0.8,1.1,16.5,0.8,20.2,1.1
	c3.7,0.4,7.1,0,8.6,3c1.5,3,3.7,7.8,1.9,10.5c-1.9,2.6-6,10.8-6.3,12.3c-0.4,1.5,0,7.8-2.6,9c-2.6,1.1-19.4,4.9-23.9,4.9
	c-4.5,0-13.1-0.4-13.4-1.9c-0.4-1.5-0.4-6-1.1-7.5c-0.7-1.5-4.8-9-8.2-8.2c-3.4,0.8-6.7,7.1-6.3,9.3c0.4,2.2,4.5,7.8,6.7,10.1
	c2.3,2.3,4.1,4.5,3,4.9c-1.1,0.4-7.1,0.7-8.2,3c-1.1,2.2-4.1,18.7-0.7,32.9c3.4,14.2,6.7,22.4,6.7,25.8c0,3.4-0.7,17.9,0.7,22
	c1.5,4.1,10.5,14.6,12,18.3c1.5,3.7,3.4,9.7,5.6,12c2.3,2.2,3.7,3.4,3.7,6c0,2.6,0.7,12.3,1.5,14.9
	C242.5,230.1,243.6,232.6,243.6,232.6"/>
<path class="st1" d="M257.4,232.1c56.8-5.3,101.3-53.1,101.3-111.3c0-57.8-43.9-105.4-100.2-111.2c0,0,4.1,2.3,3.8,11.6
	c-0.4,9.3-3,10.1-1.9,12.7c1.2,2.6,10.9,4.9,14.2,6c3.4,1.1,7.1,8.6,4.1,15.7c-3,7.1-5.2,15.3-6,19.4c-0.7,4.1-2.2,10.8-6.7,13.8
	c-4.5,3-16.1,2.6-20.9,1.9c-4.9-0.7-13.8-1.5-13.1,1.1c0.8,2.6,6.4,10.5,7.5,13.1c1.1,2.6,4.1,4.9,1.1,6.7c-1.6,1-6-5.2-8.2-6.7
	c-2.2-1.5-9.3-1.5-13.1,2.2c-3.7,3.7-7.1,11.6-3.4,19.4c3.7,7.8,7.8,19.8,7.1,22c-0.7,2.2-1.1,5.6,0,7.5c1.1,1.9,4.1,4.9,3.4,6.7
	c-0.7,1.9-4.1,9-1.5,13.1c2.6,4.1,6.3,8.6,8.6,10.8c2.2,2.2,6.3,7.5,7.5,10.5c1.1,3,7.5,10.1,9,11.6c1.5,1.5,5.6,9.3,6.4,12.3
	C257,224.2,257.4,232.1,257.4,232.1"/>
<path class="st0" d="M220.4,62.8c1.6-0.2,0-3.7-1.1-7.1c-1.1-3.4-0.7-9.7,0.8-12.3c1.5-2.6,4.5-6.7,5.2-10.1
	c0.7-3.4,1.9-6.4-0.4-8.2c-2.3-1.9-5.6-3.4-10.5-3.7c-4.8-0.4-11.2-1.5-12.3,0.8c-1.1,2.2-5.6,7.8-5.6,16.8c0,9-0.8,22.8,1.9,24.3
	c2.6,1.5,6.4,4.5,9,4.1c2.6-0.4,4.1-3.7,3.4-8.2c-0.8-4.5-1.5-6-2.6-6c-1.1,0-2.2,0.4-3.4-1.9c-1.1-2.2-3.7-5.6-3.7-9.7
	c0-4.1,1.5-8.2,6.3-8.2c4.9,0,7.5-1.1,7.5,2.2c0,3.4-1.5,9.7-0.8,13.1C214.8,51.9,217.8,63.1,220.4,62.8"/>
<path class="st0" d="M269,93c-1.7,0.8,2.3,19.8,3.7,23.9c1.5,4.1,2.6,17.6,0.4,20.2c-2.2,2.6-4.9,7.9-8.6,8.2
	c-3.7,0.4-9.3-3.4-11.9-6c-2.6-2.6-5.2-4.5-4.9-2.6c0.4,1.9,1.5,8.6,4.5,12.3c3,3.7,10.5,9,10.1,11.6c-0.4,2.6-2.6,4.9-5.2,5.2
	c-2.6,0.4-6.4,4.5-2.6,8.2c3.7,3.7,6.7,6.7,9.7,5.6c3-1.1,6-5.2,6-9.3c0-4.1-5.6-8.6-4.1-10.8c1.5-2.2,2.6-2.2,5.2-4.1
	c2.6-1.9,5.2-7.1,6.4-18.7c1.1-11.6,0.4-25-1.1-29.1C275,103.5,270.5,92.3,269,93"/>
<path class="st0" d="M276.5,186.3c-9.4,0-16.9,7.6-16.9,16.9c0,9.3,7.6,16.9,16.9,16.9c9.3,0,16.9-7.6,16.9-16.9
	C293.4,193.9,285.8,186.3,276.5,186.3"/>
<path d="M0,244.9h14.4v15.7h9.2v-15.7H38v46.7H23.6v-16.2h-9.2v16.2H0V244.9z"/>
<path d="M42.6,244.9h27.7v12.8H57.6v4.5h11.5v12.2H57.6v4.6h13v12.8H42.6V244.9z"/>
<path d="M74.9,244.9h14.9v31.7h12.5v15H74.9V244.9z"/>
<path d="M109.6,244.9h15.4l5.7,24.6h0.4c0.3-2,0.5-4.2,1-6.2l4.6-18.4h15.2l6.8,46.7h-14.5l-2-25.6h-0.3c-0.3,1.5-0.5,3.2-1,4.6
	l-5.9,21h-8.7l-5.3-19.8c-0.4-2-0.8-3.8-0.9-5.8h-0.5c-0.1,1.9-0.2,3.8-0.4,5.6l-1.7,20h-14.5L109.6,244.9z"/>
<path d="M205.8,268.4c0,15-10.2,24-22.8,24c-12.5,0-22.8-9-22.8-24c0-14.7,10.3-24.2,22.8-24.2C195.5,244.2,205.8,253.7,205.8,268.4
	z M175.4,268.7c0,5.3,3.2,9,7.7,9c4.5,0,7.7-3.7,7.7-9c0-5-2.9-9.1-7.7-9.1C178.3,259.6,175.4,263.7,175.4,268.7z"/>
<path d="M209,244.9h14.3l13.4,25.9h0.4c-0.6-3.9-1.3-7.9-1.3-11.9v-14h14.3v46.7h-14.3l-13.1-24.6h-0.4c0.5,3.2,0.9,6.3,0.9,9.4
	v15.2H209V244.9z"/>
<path d="M255,244.9h15.2c13.8,0,24.4,6.9,24.4,24.1c0,13.9-8.6,22.7-20.7,22.7H255V244.9z M269.9,277.7h0.9c5,0,8.8-2.6,8.8-8.7
	c0-6.6-3.3-9.4-8.8-9.4h-0.9V277.7z"/>
<path class="st1" d="M310,274.9l0.8,0.7c2.7,2.4,5.9,4.3,9.3,4.3c1.5,0,3.8-0.7,3.8-2.8c0-2.1-2-2.3-3.3-2.6l-3-0.6
	c-5.8-1.2-10.7-5.1-10.7-12.4c0-11.1,8.9-17.3,17.8-17.3c4.7,0,9,1.3,13,4.1l-4,12c-2.6-2-5.5-3.5-8.7-3.5c-1.3,0-3.2,0.6-3.2,2.5
	c0,1.7,1.9,2,3,2.3l3.4,0.9c6.3,1.6,10.9,5.5,10.9,13.4c0,11.2-8.9,16.7-17.8,16.7c-5.2,0-11.2-1.6-15.8-4.3L310,274.9z"/>
<path class="st1" d="M341.8,244.9h18.9c9.6,0,16.7,5.6,16.7,17.2c0,9.5-5.2,15.5-13.6,15.5h-7.6v14.1h-14.4V244.9z M356.2,265.8h1.5
	c2.6,0,5.5-0.5,5.5-4.3c0-3.7-3.1-3.8-5.5-3.8h-1.4V265.8z"/>
<path class="st1" d="M423.6,268.4c0,15-10.2,24-22.8,24c-12.5,0-22.8-9-22.8-24c0-14.7,10.3-24.2,22.8-24.2
	C413.4,244.2,423.6,253.7,423.6,268.4z M393.2,268.7c0,5.3,3.2,9,7.7,9c4.5,0,7.7-3.7,7.7-9c0-5-2.9-9.1-7.7-9.1
	C396.1,259.6,393.2,263.7,393.2,268.7z"/>
<path class="st1" d="M427,244.9h18.1c9.3,0,17.1,4.5,17.1,16.2c0,7.1-2.4,10-8,12.2v0.4c0.8,0.7,1.7,1.4,2.5,2.8l8.9,15.2h-17.2
	l-6.5-15h-0.3v15H427V244.9z M441.6,265.6h1c2.5,0,4.9-0.4,4.9-3.9c0-3.6-2.2-4-4.8-4h-1.1V265.6z"/>
<path class="st1" d="M462.5,244.9h31.4v15.2l-8.2-0.4v32h-14.9v-32l-8.2,0.4V244.9z"/>
</svg>
