<?xml version="1.0" encoding="UTF-8"?>
<!-- Generator: Adobe Illustrator 19.1.0, SVG Export Plug-In . SVG Version: 6.00 Build 0)  -->
<svg version="1.1" xmlns="http://www.w3.org/2000/svg" xmlns:xlink="http://www.w3.org/1999/xlink" x="0px" y="0px" viewBox="0 0 637.8 879.3" style="enable-background:new 0 0 637.8 879.3;" xml:space="preserve">
<style type="text/css">
	.st0{fill:#FFFFFF;}
	.st1{fill-rule:evenodd;clip-rule:evenodd;fill:#009FE3;}
</style>
<g id="Wapenvorm">
	<path class="st0" d="M576,606.5c-28.6,54.4-66.6,101-104.7,139c-76.1,75.9-152.4,117.6-152.4,117.6s-76.3-41.8-152.4-117.6   c-38.1-38-76.1-84.5-104.7-139c-28.6-54.4-47.6-116.6-47.6-185.8c0-37.1,7.1-406.5,7.1-406.5h595.3c0,0,7.1,369.3,7.1,406.5   C623.6,489.8,604.6,552.1,576,606.5z"/>
	<path d="M630.7,0H7.1C7.1,0,0,380.2,0,418.9c0,72.1,19.1,136.9,48.9,193.6c29.8,56.7,70.2,105.2,109.8,144.7   c79.3,79,160.2,122.1,160.2,122.1s80.9-42.9,160.2-122c39.6-39.5,80.1-88.2,109.8-144.9c29.8-56.7,48.9-121.5,48.9-193.6   C637.8,380.2,630.7,0,630.7,0z M576,606.5c-28.6,54.4-66.6,101-104.7,139c-76.1,75.9-152.4,117.6-152.4,117.6   s-76.3-41.8-152.4-117.6c-38.1-38-76.1-84.5-104.7-139c-28.6-54.4-47.6-116.6-47.6-185.8c0-37.1,7.1-406.5,7.1-406.5h595.3   c0,0,7.1,369.3,7.1,406.5C623.6,489.8,604.6,552.1,576,606.5z"/>
	<path d="M588.3,42.5H49.5c0,0-8.7,345.4-8.7,379.3c0,63.1,17.4,120,43.5,169.6c6.5,12.4,13.6,24.4,21,35.9L116.9,202h67.3   l-3.5,172.1c-13.5,23.4-21.3,50.5-21.3,79.5c0,26.6,6.6,51.7,18.1,73.8l-3.8,184.9c2,2.1,4,4.1,6,6.1   c29.6,29.5,59.1,53.3,83.2,70.9l5-201.4c-54.1-20.6-92.7-73-92.7-134.2c0-63.8,41.8-117.9,99.4-136.6l1.5-61.5h85L363,317   c57.6,18.6,99.4,72.8,99.4,136.6c0,61.2-38.6,113.6-92.7,134.2l5,201.4c24.1-17.6,53.6-41.4,83.2-70.9c2-2,4-4.1,6-6.1l-3.8-184.8   c11.6-22.1,18.1-47.2,18.1-73.8c0-28.9-7.8-56-21.3-79.5L453.5,202h67.3l11.7,425.3c7.5-11.5,14.5-23.5,21-35.9   C579.6,541.8,597,485,597,421.8C597,387.9,588.3,42.5,588.3,42.5z"/>
</g>
<g id="Wiebertjes">
	<polygon class="st1" points="318.9,744.7 301.2,789.1 318.9,833.5 336.6,789.1  "/>
	<polygon class="st1" points="294.1,682.3 276.4,726.7 294.1,771.2 311.8,726.7  "/>
	<polygon class="st1" points="343.7,682.3 326,726.7 343.7,771.2 361.4,726.7  "/>
</g>
<g id="God">
	<path d="M318.9,321.7c-72.7,0-131.8,59.1-131.8,131.8c0,72.7,59.1,131.8,131.8,131.8c72.7,0,131.8-59.1,131.8-131.8   C450.7,380.9,391.6,321.7,318.9,321.7z M318.9,577.6c-68.4,0-124-55.6-124-124c0-68.4,55.6-124,124-124c68.4,0,124,55.6,124,124   C442.9,521.9,387.3,577.6,318.9,577.6z"/>
	<g>
		<polygon points="374.5,440.6 378.7,463.5 379.9,455.3 378.3,450.5 382.8,437.4   "/>
		<polygon points="356.5,452.6 365.2,448.6 367.1,440.3 352.6,434.4 341,438.2 335.9,444.5 339.5,449.5 344.3,446.5 353.4,447.6       "/>
		<polygon points="320.1,458.4 315.9,470.7 337.7,468.3 345.8,470.7 347.2,465.4 337.9,462.8   "/>
		<polygon points="398.1,397.3 395.2,391.5 393.5,395.2 391.6,400.6 385.1,405.1 384,415.1 387.4,418.5 389.4,417.9 388.3,431.3     394.2,422.6 400.1,406.9   "/>
		<polygon points="222.1,469.3 248.6,441.7 270.2,429.9 270.2,415.3 259.1,400.1 235.9,410.3 235.6,410.6 220.6,424.3 207,426.7     204,449 212,455.3 206.7,478.6   "/>
		<polygon points="268.5,358.4 278.9,353.5 294.8,355.7 300.4,363.9 320.3,363.9 306.9,352.7 284.5,349.1 271.6,348.8 258.8,355.7     237.2,372.8 225.8,386.1 262,369   "/>
		<polygon points="261,377 220.6,393.8 220.7,403.6 210.2,416.2 259.1,390.2   "/>
		<polygon points="305.3,466 313,455.9 299,451.7 292.1,449.2 277,469.7 262,506.3 265.6,513.4 253.8,526.2 246.6,542.8     262.6,553.7 269,550.3 278.8,561.3 285.5,539.7 291.4,494.1 294.5,480.2   "/>
		<polygon points="285.4,445.4 272.1,437.8 257.5,453.1 225.7,483.3 222.5,499.7 217,506.6 234.5,531.5 270.3,456.5   "/>
		<polygon points="326.6,534.8 323.5,519.4 298.4,511.1 293.2,565.7 310,566.1 327.2,568.2 356.5,562.1 347.6,538.2   "/>
		<path d="M384.6,508.5l-0.1-0.1L378,499l0.8-2.3l-0.2-4.9l-0.8-5.5l-3.4-10.4l3-8.2l-15.1,0.5l6.8,8.1l-6,1l-6.4,6.4l-6.4-2.1    l-5.7-1.6l-0.8,11.2l-4.6-0.5l-3.3-10.6l-2.4,8.8l-6.7-8.7l-18.4-3l-7.1,12.9l-1.6,9.6l21.8,9.9l18.5,11.5l27.4,16.9l20.9-5.7    l2.6-6.8l-4.8-8.9L384.6,508.5z M369,489.4l-12.5,3.8l-0.2-1l6-6.4l8.4-0.9L369,489.4z"/>
		<path d="M382.1,400.7l6.1-4l-2-9.1l-0.8-4.3l-11-2.4l-4.7-2.5l-19.1-2.2l-14.5,1.5l-4.6-5.6l-15.4-1l-17.7,1.4l-8.3-9.2l-8.2-1.9    l-8.5,4.9l-5.8,13.8l1.5,16.4l7.7,11.1l4.4,24.3l15.7,7l20.6-2.1l8.9-15.1l19.2-0.9l6.9-9.9l1.4,18.8l8.9-10.8l12.1-4.3l4.1-2.9    l2-5.9l-11.4-8l1.4-5.7l5.4,4l1.7-9.7l3.4,0.1l-2.6,11.1L382.1,400.7z M287.2,386.7l-7.4-13.2l9.1,2.2L287.2,386.7z M325.5,385.3    l-6.9-2.5l-8.1-2.9l2.5-0.9l15.6-0.9l1.8,6L325.5,385.3z"/>
	</g>
</g>
<g id="Typografie">
	<g>
		<path class="st0" d="M282.1,207.9l-5.7,3.9v-5.7l5.7-3.9h5.7v37.3h-5.7V207.9z"/>
		<path class="st0" d="M305.4,223.9l-0.1-0.1c-0.2,0.1-0.5,0.3-0.9,0.3c-0.4,0.1-0.9,0.1-1.5,0.1c-1,0-2-0.2-2.8-0.7    c-0.9-0.5-1.5-1-2-1.7c-0.3-0.3-0.5-0.7-0.6-1.1c-0.2-0.4-0.3-0.9-0.4-1.5c-0.1-0.6-0.2-1.4-0.2-2.4c0-1-0.1-2.2-0.1-3.6    c0-1.2,0-2.2,0.1-3c0-0.8,0.1-1.4,0.2-2c0.1-0.5,0.2-1,0.4-1.4c0.2-0.4,0.4-0.8,0.6-1.2c0.8-1.2,1.8-2,3-2.7    c1.3-0.6,2.7-0.9,4.2-0.9c1.6,0,3,0.3,4.2,1c1.2,0.6,2.2,1.5,3,2.6c0.3,0.4,0.5,0.8,0.7,1.2c0.2,0.4,0.3,0.8,0.4,1.4    c0.1,0.5,0.2,1.2,0.2,2c0,0.8,0.1,1.8,0.1,3c0,1.2,0,2.1-0.1,2.9c0,0.8-0.1,1.4-0.2,1.9c-0.1,0.5-0.2,1-0.3,1.5    c-0.1,0.4-0.3,0.9-0.5,1.4l-7.5,18.7h-6.4L305.4,223.9z M302.5,216.9c0,0.8,0.3,1.4,0.8,1.9c0.6,0.5,1.2,0.7,2,0.7    c0.8,0,1.4-0.2,2-0.7c0.6-0.5,0.8-1.1,0.8-1.9V210c0-0.8-0.3-1.4-0.8-1.9c-0.6-0.5-1.2-0.7-2-0.7c-0.8,0-1.4,0.2-2,0.7    c-0.6,0.5-0.8,1.1-0.8,1.9V216.9z"/>
		<path class="st0" d="M320.6,210c0-1.3,0.2-2.4,0.7-3.3c0.5-1,1.1-1.8,1.9-2.5c0.8-0.7,1.7-1.2,2.7-1.6c1-0.4,2.1-0.5,3.2-0.5    c1.1,0,2.2,0.2,3.2,0.5c1,0.4,1.9,0.9,2.7,1.6c0.8,0.7,1.4,1.5,1.9,2.5c0.5,1,0.7,2.1,0.7,3.3v21.9c0,1.3-0.2,2.4-0.7,3.3    c-0.5,1-1.1,1.8-1.9,2.5c-0.8,0.7-1.7,1.2-2.7,1.6c-1,0.4-2.1,0.5-3.2,0.5c-1.1,0-2.2-0.2-3.2-0.5c-1-0.4-1.9-0.9-2.7-1.6    c-0.8-0.7-1.4-1.5-1.9-2.5c-0.5-1-0.7-2.1-0.7-3.3V210z M326.3,231.9c0,0.8,0.3,1.4,0.8,1.9c0.5,0.5,1.2,0.8,2,0.8    c0.8,0,1.5-0.3,2-0.8c0.5-0.5,0.8-1.1,0.8-1.9V210c0-0.8-0.3-1.4-0.8-1.9c-0.5-0.5-1.2-0.8-2-0.8c-0.8,0-1.5,0.3-2,0.8    c-0.5,0.5-0.8,1.1-0.8,1.9V231.9z"/>
		<path class="st0" d="M351.1,218c1.7,0,2.9-0.2,3.6-0.6c0.7-0.4,1-1.3,1-2.7v-4.8c0-0.8-0.3-1.4-0.8-1.9c-0.5-0.5-1.2-0.7-2.1-0.7    c-1,0-1.7,0.3-2.2,0.9c-0.4,0.6-0.6,1.2-0.6,1.7v3h-5.7v-3.1c0-1.1,0.2-2.1,0.7-3.1c0.5-1,1.1-1.8,1.9-2.5    c0.8-0.7,1.7-1.3,2.8-1.7c1-0.4,2.2-0.6,3.4-0.6c1.6,0,2.9,0.3,3.9,0.9c1,0.6,1.8,1.2,2.3,1.8c0.4,0.4,0.7,0.8,1,1.3    c0.3,0.4,0.5,0.9,0.7,1.5c0.2,0.6,0.3,1.3,0.4,2.1c0.1,0.8,0.1,1.8,0.1,3c0,1.3,0,2.3-0.1,3.1c-0.1,0.8-0.2,1.5-0.4,2    c-0.2,0.5-0.6,1-1.1,1.4c-0.5,0.4-1.1,0.8-1.9,1.3c0.9,0.5,1.6,1,2.1,1.5c0.5,0.5,0.8,1,1,1.6c0.2,0.6,0.4,1.3,0.4,2.2    c0,0.9,0.1,1.9,0.1,3.3c0,1.2,0,2.2-0.1,3c-0.1,0.8-0.1,1.5-0.3,2c-0.1,0.5-0.3,1-0.5,1.4c-0.2,0.4-0.4,0.8-0.7,1.2    c-0.7,1-1.6,1.8-2.8,2.4c-1.1,0.6-2.6,1-4.3,1c-0.9,0-1.9-0.1-2.9-0.4c-1-0.3-1.9-0.7-2.8-1.4c-0.8-0.6-1.5-1.4-2.1-2.5    c-0.5-1-0.8-2.3-0.8-3.7v-3h5.7v2.8c0,0.8,0.3,1.5,0.8,2.1c0.5,0.5,1.2,0.8,2.1,0.8s1.5-0.3,2.1-0.8c0.5-0.5,0.8-1.3,0.8-2.2v-5.3    c0-0.7-0.1-1.3-0.2-1.8c-0.1-0.5-0.4-0.8-0.7-1.1c-0.3-0.3-0.8-0.4-1.4-0.5c-0.6-0.1-1.3-0.1-2.3-0.1V218z"/>
	</g>
	<g>
		<path class="st0" d="M77.2,70.9H92v44h18.3v-44h14.8v102.8h-14.8v-45.8H92v45.8H77.2V70.9z"/>
		<path class="st0" d="M146.9,70.9H191v13.9h-29.3v30.2h25.5v13.9h-25.5v30.2H191v14.7h-44.1V70.9z"/>
		<path class="st0" d="M209.6,70.9h23.8c17.4,0,26.1,10.1,26.1,30.2c0,6-0.9,11.1-2.8,15.4c-1.9,4.3-5.2,7.7-9.9,10.3l16,46.9H247    l-13.8-43.9h-8.8v43.9h-14.8V70.9z M224.4,116.8h8.4c2.6,0,4.7-0.4,6.2-1.1c1.5-0.7,2.7-1.8,3.6-3.1c0.8-1.3,1.4-3,1.7-5    c0.3-2,0.4-4.3,0.4-6.9c0-2.6-0.1-4.9-0.4-6.9c-0.3-2-0.9-3.7-1.8-5.1c-0.9-1.4-2.2-2.4-3.8-3.1c-1.6-0.7-3.8-1-6.5-1h-7.7V116.8z    "/>
		<path class="st0" d="M295.6,70.9h12.3l23.1,102.8h-14.8l-4.4-22.1h-20.2l-4.4,22.1h-14.8L295.6,70.9z M301.8,100.5h-0.3l-7.3,37.2    H309L301.8,100.5z"/>
		<path class="st0" d="M390.5,150.7c0,3.2-0.6,6.2-1.8,9.1c-1.2,2.9-2.9,5.4-5,7.6c-2.1,2.2-4.6,3.9-7.5,5.2    c-2.9,1.3-5.9,1.9-9.2,1.9c-2.8,0-5.7-0.4-8.6-1.2c-2.9-0.8-5.5-2.1-7.8-4c-2.3-1.9-4.2-4.4-5.7-7.4c-1.5-3.1-2.2-7-2.2-11.7V93.7    c0-3.4,0.6-6.5,1.7-9.4c1.2-2.9,2.8-5.4,4.9-7.5c2.1-2.1,4.7-3.8,7.6-5c2.9-1.2,6.2-1.8,9.8-1.8c3.4,0,6.5,0.6,9.4,1.8    c2.9,1.2,5.4,2.9,7.5,5.1c2.1,2.2,3.8,4.8,5,7.8c1.2,3,1.8,6.3,1.8,9.9v5.8h-14.8v-4.9c0-2.9-0.8-5.4-2.5-7.5    c-1.6-2.1-3.9-3.2-6.7-3.2c-3.7,0-6.1,1.1-7.3,3.4c-1.2,2.3-1.8,5.1-1.8,8.6v52.5c0,3,0.7,5.5,2,7.5c1.3,2,3.7,3,7,3    c1,0,2-0.2,3.1-0.5c1.1-0.3,2.1-0.9,3-1.7c0.9-0.8,1.7-1.8,2.2-3.2c0.6-1.3,0.9-3,0.9-5.1v-5.1h14.8V150.7z"/>
		<path class="st0" d="M407.8,70.9h14.8v88h26.5v14.7h-41.3V70.9z"/>
		<path class="st0" d="M458.4,70.9h44.1v13.9h-29.3v30.2h25.5v13.9h-25.5v30.2h29.3v14.7h-44.1V70.9z"/>
		<path class="st0" d="M566.3,100.5h-14.8v-3.3c0-3.4-0.8-6.3-2.4-8.7c-1.6-2.5-4.3-3.7-8-3.7c-2,0-3.7,0.4-5,1.2    c-1.3,0.8-2.3,1.8-3,3c-0.7,1.2-1.2,2.6-1.5,4.2c-0.3,1.6-0.4,3.2-0.4,5c0,2,0.1,3.7,0.2,5.1c0.1,1.4,0.5,2.6,1.1,3.6    c0.6,1,1.4,1.9,2.5,2.7c1.1,0.8,2.6,1.5,4.6,2.3l11.3,4.5c3.3,1.3,5.9,2.7,8,4.4c2,1.7,3.6,3.7,4.7,5.9c1.1,2.3,1.9,4.9,2.2,7.8    c0.4,2.9,0.6,6.3,0.6,10c0,4.3-0.4,8.3-1.3,12.1c-0.9,3.7-2.3,6.9-4.3,9.5c-2,2.6-4.6,4.7-7.9,6.3c-3.3,1.5-7.3,2.3-12,2.3    c-3.6,0-6.9-0.6-10-1.9c-3.1-1.2-5.8-3-8-5.1c-2.2-2.2-4-4.7-5.3-7.7c-1.3-3-2-6.2-2-9.7v-5.5h14.8v4.6c0,2.7,0.8,5.1,2.4,7.3    c1.6,2.2,4.3,3.2,8.1,3.2c2.5,0,4.5-0.4,5.9-1.1c1.4-0.7,2.5-1.7,3.2-3c0.7-1.3,1.2-2.9,1.4-4.8c0.2-1.9,0.3-4,0.3-6.4    c0-2.7-0.1-4.9-0.3-6.6c-0.2-1.7-0.6-3.1-1.2-4.2c-0.6-1.1-1.5-1.9-2.6-2.6c-1.1-0.7-2.6-1.4-4.4-2.2l-10.6-4.3    c-6.4-2.6-10.7-6-12.8-10.3c-2.2-4.3-3.3-9.6-3.3-16.1c0-3.8,0.5-7.5,1.6-11c1.1-3.5,2.6-6.4,4.7-8.9c2.1-2.5,4.7-4.5,7.9-6    c3.2-1.5,6.9-2.2,11.2-2.2c3.7,0,7,0.7,10.1,2c3,1.3,5.7,3.1,7.8,5.3c2.2,2.2,3.8,4.7,5,7.4c1.2,2.7,1.7,5.6,1.7,8.4V100.5z"/>
	</g>
</g>
<g id="Hulplijnen">
</g>
</svg>