<?xml version="1.0" encoding="UTF-8"?>
<!-- Generator: Adobe Illustrator 21.0.0, SVG Export Plug-In . SVG Version: 6.00 Build 0)  -->
<svg version="1.1" id="Laag_1" xmlns="http://www.w3.org/2000/svg" xmlns:xlink="http://www.w3.org/1999/xlink" x="0px" y="0px" viewBox="0 0 228.4 159.2" style="enable-background:new 0 0 228.4 159.2;" xml:space="preserve">
<style type="text/css">
	.st0{fill:#FFFFFF;}
	.st1{fill:#E2001A;}
	.st2{fill:#C19947;}
</style>
<path class="st0" d="M114.2,159.2C51.2,159.2,0,123.5,0,79.6C0,35.7,51.2,0,114.2,0c63,0,114.2,35.7,114.2,79.6  C228.4,123.5,177.2,159.2,114.2,159.2z"/>
<path class="st0" d="M3.4,79.6C3.4,37.5,53,3.4,114.2,3.4c61.2,0,110.8,34.1,110.8,76.2c0,42.1-49.6,76.2-110.8,76.2  C53,155.8,3.4,121.7,3.4,79.6"/>
<path class="st1" d="M20.9,79.6c0,2.4,0.2,4.7,0.7,7h185.3c0.4-2.3,0.7-4.6,0.7-7c0-2.2-0.2-4.4-0.6-6.5H21.5  C21.1,75.2,20.9,77.4,20.9,79.6"/>
<path class="st1" d="M27.1,100.7c3,4.9,6.9,9.4,11.7,13.5h150.8c4.8-4.1,8.8-8.7,11.7-13.5H27.1"/>
<path class="st1" d="M26.8,59h174.8c-2.9-4.8-6.8-9.4-11.5-13.5H38.3C33.6,49.6,29.7,54.1,26.8,59"/>
<path class="st1" d="M62,128.3c14.9,6.3,32.9,10,52.2,10c19.4,0,37.3-3.7,52.2-10H62"/>
<path class="st1" d="M167.5,31.4c-15.1-6.6-33.5-10.5-53.3-10.5c-19.8,0-38.2,3.9-53.3,10.5H167.5"/>
<path class="st2" d="M3.4,79.6C3.4,37.5,53,3.4,114.2,3.4C175.4,3.4,225,37.5,225,79.6c0,42.1-49.6,76.2-110.8,76.2  C53,155.8,3.4,121.7,3.4,79.6 M114.2,138.3c51.6,0,93.3-26.3,93.3-58.7c0-32.4-41.7-58.7-93.3-58.7c-51.5,0-93.3,26.3-93.3,58.7  C20.9,112,62.7,138.3,114.2,138.3z"/>
<path class="st0" d="M40.3,114.8c13.5-9.6,22.8-23.7,26.9-44.1c4.2-21,2-41.1,0.8-49.2l154.2,54.2L41,114.7"/>
<path class="st0" d="M63.5,15.5l7.1,2.3c0.2-0.5,0.4-1.1,0.4-1.6c0-2.1-1.7-3.7-3.8-3.7C65.4,12.5,63.9,13.8,63.5,15.5"/>
<polyline class="st0" points="32.5,128.1 35.6,129.1 68.6,17.6 65.4,16.6 32.5,128.1 "/>
<polyline points="142.9,56.8 138.5,64.3 142.2,64.3 135.3,74.9 134.3,56.8 126.4,56.8 128.3,87 136.5,87 154.2,56.8 142.9,56.8 "/>
<path d="M102.1,66.5c1.3-6-2.5-9.7-9.1-9.7c-4.5,0-13.3,0-13.3,0l-3.6,6.8h4.1L73.4,87h7.9l3-9.7c3.2,0,5.7,0,7.9-0.6  C99.5,74.8,101.3,70,102.1,66.5 M94,67c-0.7,3-3,3.2-4.3,3.2c-1.3,0-1.6,0-3.6,0l1.9-6.7c0,0,1.2,0,2.8,0C92.4,63.5,94.8,64,94,67z"/>
<path d="M119.9,57.8c-9.9-7.1-21.1,6.9-14.4,13.1c1.1,1,1.7,1.3,3.8,2.6c3.7,2.1,1.6,5.5-1.2,6.2c-1.1,0.2-2.3,0.1-3.4-0.6  c-1.6-0.9-2.4-1.9-3-3.4l-5.4,5.4c11.9,15.6,31.6-3.5,20.5-11.4c-1.1-0.8-6.7-3-4.5-5.9c1.9-2.6,6.7,0.5,9.2,1.7l4.1-6.6l-4.9-2.5  L119.9,57.8"/>
<g>
	<path class="st0" d="M80.9,139.4l-4.1-1l-2.8-0.8c-0.7-0.2-1.3-0.4-1.3-0.4c-0.1,0-0.2-0.1-0.4-0.1c-0.5,0-1,0.4-1.2,0.9   c-0.1,0.5-0.2,1.2,0.3,1.4l0.5,0.2c0,0,0.5,0.2,1.3,0.4l2.8,0.8c2.1,0.5,4.2,1.1,4.2,1.1c0.8,0.2,1.3,1,1.1,1.8   c-0.2,0.7-0.8,1.2-1.5,1.2c-0.1,0-0.2,0-0.3,0l-4.3-1.1l-2.9-0.8c-0.8-0.2-1.3-0.4-1.3-0.4l-0.2-0.1v0c-0.1,0-0.1,0-0.2,0   c-0.5,0-1,0.3-1.2,0.9c-0.2,0.7,0.2,1.4,0.8,1.6c0,0,0.5,0.2,1.3,0.4c0.8,0.2,1.9,0.5,3,0.8l4.3,1.1c0.3,0.1,0.6,0.1,0.9,0.1   c1.9,0,3.5-1.3,3.9-3.1C84.3,142,83,139.8,80.9,139.4z"/>
	<path class="st0" d="M64.4,134.3c0,0-2-0.7-3.9-1.6c-1-0.4-2-0.9-2.6-1.2l-1.2-0.6c-0.2-0.1-0.3-0.1-0.5-0.1   c-0.5,0-0.9,0.3-1.1,0.7c-0.2,0.3-0.2,0.7-0.1,1c0.1,0.2,0.2,0.4,0.4,0.6l0,0l1.4,0.6c0.7,0.3,1.7,0.8,2.7,1.2c1.9,0.8,4,1.6,4,1.6   c0.8,0.3,1.1,1.2,0.9,2c-0.2,0.6-0.8,1-1.4,1c-0.2,0-0.4,0-0.6-0.1c0,0-2.1-0.8-4.1-1.7c-1-0.4-2.1-0.9-2.8-1.2l-1.3-0.6   c-0.2-0.1-0.4-0.1-0.5-0.1c-0.5,0-0.9,0.3-1.1,0.7c-0.1,0.3-0.2,0.6-0.1,1c0.1,0.3,0.4,0.6,0.7,0.7l1.3,0.6c1.1,0.5,2,0.9,2.8,1.3   c2,0.9,4.1,1.7,4.2,1.7c0.5,0.2,1,0.3,1.5,0.3c1.7,0,3.2-1.1,3.7-2.6C67.4,137.3,66.4,135.1,64.4,134.3z"/>
	<path class="st0" d="M48.9,126.9l-1.1-0.7c-0.7-0.4-1.5-0.9-2.4-1.5c-0.9-0.5-1.7-1.1-2.4-1.6l-1.1-0.7c-0.2-0.1-0.4-0.2-0.7-0.2   c-0.4,0-0.8,0.2-1,0.5c-0.2,0.3-0.3,0.6-0.2,1c0,0.2,0.1,0.4,0.2,0.5l0.3,0.3c0,0,0.4,0.3,1.1,0.8c0.7,0.5,1.5,1.1,2.4,1.6   c0.9,0.6,1.8,1.2,2.5,1.6l1.1,0.7c0.7,0.4,0.9,1.3,0.5,2.1c-0.3,0.5-0.8,0.8-1.3,0.8c-0.3,0-0.5-0.1-0.8-0.2l-1.2-0.7   c-0.7-0.4-1.7-1-2.6-1.6c-0.9-0.6-1.8-1.2-2.5-1.7l-1.2-0.8h0c-0.2-0.1-0.5-0.2-0.7-0.2c-0.4,0-0.8,0.2-1,0.5   c-0.2,0.3-0.3,0.6-0.2,0.9c0.1,0.3,0.2,0.6,0.5,0.8l1.2,0.8c0.7,0.5,1.7,1.1,2.6,1.7c0.9,0.6,1.9,1.2,2.6,1.6   c0.7,0.4,1.2,0.7,1.2,0.7c0.6,0.4,1.3,0.6,2,0.6c1.5,0,2.8-0.8,3.5-2.1C51.4,130.4,50.7,128,48.9,126.9z"/>
	<path class="st0" d="M34.1,116.1c-0.4-0.3-0.8-0.7-1.2-1.2c-0.3-0.3-0.5-0.5-0.8-0.8c-0.5-0.5-0.9-1-1.4-1.4   c-0.2-0.2-0.4-0.4-0.6-0.6c-0.5-0.5-0.9-0.9-0.9-0.9c-0.4-0.5-1.2-0.5-1.7-0.1c-0.5,0.4-0.6,1.2-0.1,1.7c0,0,0.3,0.4,0.9,1   c0.2,0.2,0.4,0.4,0.6,0.7c0.4,0.4,0.9,1,1.4,1.4c0.3,0.3,0.6,0.5,0.8,0.8c0.5,0.4,0.9,0.9,1.3,1.2l1,0.9c0.6,0.5,0.7,1.5,0.1,2.1   c-0.3,0.3-0.7,0.5-1.1,0.5c-0.4,0-0.7-0.1-1-0.4l-1-0.9c-0.4-0.4-0.9-0.8-1.4-1.3c-0.3-0.3-0.5-0.5-0.8-0.8c-0.5-0.5-1-1-1.5-1.5   c-0.2-0.2-0.5-0.5-0.6-0.7c-0.6-0.6-0.9-1-0.9-1c-0.2-0.3-0.6-0.4-1-0.4c-0.3,0-0.6,0.1-0.8,0.3c-0.2,0.2-0.4,0.5-0.4,0.8   c0,0.3,0.1,0.7,0.3,0.9l0,0c0,0,0.4,0.5,1,1.1c0.2,0.2,0.4,0.4,0.7,0.7c0.5,0.5,1,1,1.5,1.6c0.3,0.3,0.6,0.5,0.8,0.8   c0.5,0.5,1,1,1.4,1.4l1.1,0.9c0.7,0.7,1.7,1,2.7,1c1.2,0,2.3-0.5,3-1.5c1.3-1.7,1.2-4.1-0.4-5.6L34.1,116.1z"/>
	<path class="st0" d="M24,104.4l-0.7-1.1c-0.5-0.7-1-1.6-1.4-2.4c-0.4-0.7-0.8-1.4-1.1-2l-0.6-1.2c-0.1-0.2-0.1-0.3-0.1-0.3   c-0.2-0.4-0.6-0.7-1.1-0.7c-0.2,0-0.4,0-0.5,0.1c-0.6,0.3-0.9,1-0.7,1.6c0,0,0,0.1,0.2,0.3l0.6,1.3c0.3,0.6,0.7,1.4,1.1,2.2   c0.4,0.8,1,1.8,1.5,2.5l0.7,1.1c0.4,0.7,0.3,1.6-0.4,2.1c-0.2,0.2-0.5,0.3-0.9,0.3c-0.5,0-1-0.3-1.3-0.7l-0.8-1.2   c-0.5-0.8-1.1-1.9-1.6-2.6c-0.5-0.8-0.9-1.6-1.2-2.3l-0.2-0.4c-0.2-0.4-0.8-1.6-0.8-1.6c-0.4-0.6-1-0.5-1.4-0.4   c-0.3,0.1-0.5,0.4-0.7,0.7c-0.1,0.3-0.1,0.7,0,1c0,0,0.1,0.1,0.2,0.4l0.7,1.4c0.3,0.7,0.8,1.6,1.3,2.4c0.7,1.3,1.2,2.1,1.6,2.8   l0.8,1.2c0.8,1.2,2,1.8,3.4,1.8c0.8,0,1.6-0.3,2.3-0.8C24.7,108.6,25.1,106.1,24,104.4z"/>
	<path class="st0" d="M14.5,94.3c1-0.3,1.8-1,2.4-1.9c0.5-0.8,0.6-1.8,0.4-2.9L17,88.3c-0.1-0.5-0.2-1.2-0.3-1.8   c0-0.3-0.1-0.6-0.1-0.8c-0.1-0.6-0.2-1.3-0.2-1.8c0-0.3-0.1-0.6-0.1-0.9c-0.1-0.7-0.1-1.2-0.1-1.2l0-0.2c-0.1-0.6-0.6-1-1.3-1h0   c-0.3,0-0.7,0.1-0.9,0.4c-0.2,0.2-0.3,0.5-0.3,0.8c0,0,0,0.5,0.1,1.3c0,0.3,0.1,0.6,0.1,0.9c0.1,0.6,0.1,1.3,0.2,2   c0,0.3,0.1,0.6,0.1,0.8c0.1,0.7,0.2,1.4,0.4,2l0.3,1.3c0.2,0.8-0.3,1.6-1.1,1.8c-0.1,0-0.3,0.1-0.4,0.1c-0.7,0-1.3-0.5-1.4-1.2   l-0.3-1.4c-0.2-0.6-0.3-1.4-0.4-2.2c0-0.3-0.1-0.6-0.1-0.8c-0.1-0.7-0.2-1.5-0.3-2.1c0-0.3-0.1-0.7-0.1-1c-0.1-0.8-0.1-1.4-0.1-1.4   c0-0.7-0.6-1.3-1.3-1.3h0c-0.3,0-0.6,0.1-0.8,0.4c-0.2,0.3-0.4,0.6-0.4,1c0,0,0,0.6,0.1,1.5c0,0.3,0.1,0.6,0.1,1   c0.1,0.7,0.1,1.5,0.3,2.3c0,0.3,0.1,0.6,0.1,0.8c0.1,0.9,0.3,1.7,0.4,2.4l0.3,1.4c0.2,1.1,0.9,2,1.9,2.6c0.6,0.3,1.2,0.5,1.8,0.5   C13.7,94.5,14.1,94.4,14.5,94.3z"/>
	<path class="st0" d="M12.2,76.7c0.1,0,0.2,0,0.2,0c2.1,0,3.9-1.5,4.1-3.4l0.2-1.2c0.1-0.2,0.1-0.5,0.2-0.8c0.1-0.6,0.2-1.2,0.4-1.9   c0.1-0.4,0.2-0.7,0.3-1.1c0.2-0.6,0.3-1.1,0.4-1.6l0.5-1.4c0.2-0.6-0.3-1.1-0.8-1.3c-0.1-0.1-0.3-0.1-0.4-0.1c-0.5,0-1,0.3-1.1,0.8   l-0.4,1.2c-0.2,0.5-0.3,1.1-0.5,1.7c-0.1,0.4-0.2,0.7-0.3,1.1c-0.2,0.7-0.3,1.4-0.5,2c-0.1,0.3-0.1,0.6-0.2,0.8L14.1,73   c-0.1,0.8-0.8,1.3-1.7,1.3c-0.4,0-0.7-0.2-1-0.5c-0.3-0.3-0.4-0.8-0.3-1.2l0.3-1.4c0.1-0.3,0.1-0.6,0.2-0.9   c0.1-0.7,0.3-1.4,0.5-2.1c0.1-0.4,0.2-0.8,0.3-1.1c0.2-0.7,0.4-1.3,0.5-1.8l0.5-1.3c0.2-0.7-0.1-1.4-0.7-1.6   c-0.1-0.1-0.3-0.1-0.4-0.1c-0.5,0-1,0.4-1.2,0.9l-0.5,1.4c-0.2,0.6-0.4,1.2-0.6,2c-0.1,0.4-0.2,0.8-0.3,1.1   c-0.2,0.8-0.4,1.6-0.5,2.3C9.1,70.1,9,70.4,9,70.7l-0.3,1.5c-0.1,1.2,0.2,2.4,0.9,3.3C10.3,76.2,11.2,76.7,12.2,76.7z"/>
	<path class="st0" d="M16.7,59.6c0.6,0.3,1.2,0.4,1.8,0.4c0,0,0,0,0,0c1.5,0,2.8-0.8,3.5-2l0.8-1.3c0.4-0.6,0.8-1.4,1.3-2.1   c1.1-1.7,2.5-3.5,2.5-3.5c0.3-0.5,0.1-1.1-0.4-1.5c-0.2-0.2-0.5-0.3-0.8-0.3c-0.4,0-0.7,0.2-0.9,0.5c0,0-1.3,1.7-2.5,3.4   c-0.6,0.8-1,1.6-1.4,2.2l-0.8,1.4c-0.4,0.7-1.3,1-2,0.6c-0.4-0.2-0.6-0.5-0.7-0.9C17,56,17,55.6,17.2,55.3l0.9-1.4   c0.4-0.7,0.9-1.5,1.5-2.4c1.2-1.8,2.6-3.6,2.6-3.6l0.1-0.1l0,0c0.3-0.5,0.2-1.3-0.3-1.7c-0.2-0.2-0.5-0.3-0.7-0.3   c-0.4,0-0.8,0.2-1,0.5c0,0-1.5,1.8-2.7,3.7c-0.6,0.9-1.2,1.8-1.6,2.5L15.1,54c-0.6,1-0.7,2.2-0.3,3.3   C15.1,58.3,15.8,59.1,16.7,59.6z"/>
	<path class="st0" d="M29.5,46c1.1,0,2-0.4,2.7-1.1c0,0,1.5-1.4,3-2.8l2.2-1.8c0.6-0.5,1-0.8,1-0.8c0.5-0.4,0.6-1.2,0.2-1.7   c-0.2-0.3-0.6-0.5-1-0.5c-0.3,0-0.5,0.1-0.7,0.2c0,0-0.4,0.3-1,0.8l-2.2,1.9c-1.6,1.4-3.1,2.9-3.1,2.9c-0.5,0.6-1.5,0.6-2.1,0   c-0.3-0.3-0.4-0.6-0.5-1c0-0.4,0.2-0.8,0.4-1.1c0,0,1.6-1.5,3.2-3l2.3-2c0.6-0.5,1.1-0.9,1.1-0.9l0.1,0v0c0.5-0.4,0.6-1.2,0.2-1.7   c-0.2-0.3-0.6-0.5-1-0.5c-0.3,0-0.6,0.1-0.8,0.3c0,0-0.5,0.3-1.1,0.9L30,36c-1.7,1.5-3.3,3.1-3.4,3.1c-0.8,0.8-1.3,1.9-1.2,3.1   c0,1,0.5,2,1.2,2.7C27.5,45.6,28.5,46,29.5,46z"/>
	<path class="st0" d="M43.5,35c0.7,0,1.5-0.2,2.1-0.6l1.1-0.7c0.7-0.5,1.7-1,2.5-1.5c1.8-1.1,3.6-2,3.7-2l0.1,0v0   c0.5-0.3,0.7-1,0.4-1.6c-0.2-0.4-0.6-0.7-1.1-0.7c-0.2,0-0.4,0-0.6,0.1c0,0-1.9,1-3.7,2.1c-0.8,0.5-1.8,1-2.5,1.5l-1.1,0.7   c-0.2,0.1-0.5,0.2-0.8,0.2c-0.5,0-1-0.3-1.3-0.7c-0.2-0.3-0.3-0.7-0.2-1.1c0.1-0.4,0.3-0.7,0.7-1l1.2-0.7c0.8-0.5,1.8-1.1,2.6-1.5   c1.9-1.1,3.8-2.1,3.9-2.1l0.1,0c0.6-0.3,0.8-1.1,0.5-1.6c-0.2-0.4-0.6-0.7-1.1-0.7c-0.2,0-0.4,0.1-0.6,0.1c0,0-2,1-3.9,2.2   c-0.8,0.5-1.9,1.1-2.7,1.6l-1.2,0.8c-0.9,0.6-1.6,1.5-1.8,2.6c-0.2,1.1,0,2.2,0.6,3C40.9,34.3,42.1,35,43.5,35z"/>
	<path class="st0" d="M67.9,21L67.9,21L67.9,21c-0.1,0-2.2,0.7-4.1,1.5c-2,0.7-4,1.6-4,1.6c-0.2,0.1-0.4,0.1-0.6,0.1   c-0.6,0-1.2-0.4-1.4-0.9c-0.2-0.4-0.2-0.8,0-1.1c0.1-0.4,0.4-0.7,0.8-0.8c0,0,2-0.9,4.1-1.6c2-0.8,4.1-1.5,4.1-1.5l0.1,0v0   c0.6-0.3,0.9-0.9,0.7-1.5c-0.2-0.5-0.6-0.8-1.2-0.8c-0.1,0-0.3,0-0.4,0.1c0,0-2.2,0.7-4.2,1.5c-2.1,0.8-4.1,1.7-4.2,1.7   c-1,0.4-1.8,1.2-2.2,2.2c-0.4,1-0.3,2.1,0.1,3.1c0.7,1.4,2.1,2.4,3.7,2.4h0c0.5,0,1-0.1,1.5-0.3c0,0,1.9-0.9,3.9-1.6   c1.9-0.8,3.9-1.4,3.9-1.4c0.6-0.2,1-0.9,0.8-1.6C69.2,21.2,68.5,20.9,67.9,21z"/>
	<path class="st0" d="M85,16.4l-0.2,0c0,0-0.5,0.1-1.3,0.3l-2.9,0.6c-0.9,0.2-1.8,0.4-2.5,0.6l-1.7,0.4c-0.1,0-0.2,0-0.4,0   c-0.7,0-1.3-0.5-1.5-1.1c-0.1-0.4-0.1-0.8,0.1-1.1c0.2-0.4,0.5-0.6,0.9-0.7l1.7-0.5c0.7-0.2,1.6-0.4,2.5-0.6   c1.1-0.2,2.1-0.5,2.9-0.7c0.8-0.2,1.3-0.3,1.3-0.3c0.7-0.1,1.1-0.8,1-1.5c-0.1-0.6-0.6-1-1.2-1c-0.1,0-0.2,0-0.2,0   c0,0-0.6,0.1-1.4,0.3l-3,0.7c-0.9,0.2-1.9,0.4-2.6,0.6l-1.7,0.5C74,13.4,73.1,14,72.6,15c-0.5,0.9-0.7,2.1-0.4,3.1   c0.5,1.7,2.1,2.9,3.9,2.9c0,0,0,0,0,0c0.3,0,0.7,0,1-0.1l1.7-0.4c0.7-0.2,1.6-0.4,2.4-0.6l2.8-0.6c0.8-0.2,1.3-0.3,1.3-0.3   c0.7-0.1,1.1-0.8,1-1.5C86.2,16.9,85.6,16.4,85,16.4z"/>
	<path class="st0" d="M93.5,17.5L93.5,17.5c0.2,0,0.4,0,0.6,0l4.2-0.5c0.7-0.1,1.4-0.1,2-0.2c0.3,0,0.6,0,0.9-0.1l1.5-0.1v0   c0.6-0.1,1-0.7,1-1.3c0-0.7-0.6-1.2-1.3-1.1l-1.3,0.1c-0.3,0-0.6,0.1-0.9,0.1c-0.6,0-1.3,0.1-2,0.2l-4.3,0.5   c-0.8,0.1-1.6-0.5-1.7-1.3c-0.1-0.8,0.5-1.6,1.3-1.7l4.4-0.5c0.7-0.1,1.4-0.2,2-0.2c0.3,0,0.7-0.1,0.9-0.1l1.4-0.1   c0.7-0.1,1.2-0.7,1.2-1.3c0-0.7-0.6-1.2-1.4-1.1l-1.4,0.1c-0.3,0-0.6,0.1-0.9,0.1c-0.6,0.1-1.4,0.1-2.1,0.2L93,9.5   c-1.1,0.2-2.1,0.8-2.7,1.6c-0.6,0.9-0.9,1.9-0.7,2.9C89.9,16,91.6,17.5,93.5,17.5z"/>
	<path class="st0" d="M121.1,15c0-0.7-0.5-1.3-1.2-1.3c0,0-0.6,0-1.3,0l-3,0c-1.1,0-2.2,0-3,0l-1.4,0c-0.8,0-1.5-0.7-1.5-1.5   c0-0.4,0.1-0.8,0.4-1.1c0.3-0.3,0.7-0.5,1.1-0.5l1.4,0c0.8,0,1.9,0,3,0l3,0.1c0.8,0,1.4,0,1.4,0l0.1,0c0.7,0,1.2-0.5,1.3-1.2   c0-0.7-0.5-1.3-1.2-1.3c0,0-0.6,0-1.4,0l-3.1-0.1c-1.1,0-2.2,0-3.1,0l-1.4,0c-1.1,0-2.1,0.4-2.9,1.2c-0.7,0.8-1.1,1.8-1.1,2.9   c0.1,2.2,1.9,3.9,4.1,3.9l1.3,0c0.8,0,1.8,0,2.9,0l2.9,0c0.8,0,1.3,0,1.3,0l0.1,0C120.6,16.2,121.1,15.7,121.1,15z"/>
	<path class="st0" d="M138.4,9.9l-1.4-0.2c-0.8-0.1-1.9-0.3-3-0.4l-3-0.4c-0.8-0.1-1.4-0.1-1.4-0.1c-2.3-0.2-4.2,1.5-4.4,3.6   c-0.1,2.2,1.5,4.1,3.6,4.3c0,0,0.5,0,1.3,0.1l2.9,0.3c1,0.1,2,0.3,2.8,0.4l1.4,0.2c0.1,0,0.1,0,0.2,0c0.6,0,1.1-0.5,1.2-1.1   c0.1-0.3,0-0.7-0.2-0.9c-0.2-0.2-0.4-0.4-0.7-0.5l-1.5-0.2c-0.8-0.1-1.9-0.3-2.9-0.4l-2.9-0.3c-0.8-0.1-1.3-0.1-1.3-0.1   c-0.4,0-0.8-0.2-1-0.5c-0.3-0.3-0.4-0.7-0.3-1.1c0.1-0.8,0.7-1.4,1.5-1.4c0,0,0.1,0,0.1,0c0,0,0.6,0,1.4,0.1l3,0.4   c1.1,0.1,2.1,0.3,2.9,0.4l1.4,0.2c0.7,0.1,1.3-0.4,1.4-1c0.1-0.3,0-0.6-0.2-0.9C139,10.2,138.7,10,138.4,9.9z"/>
	<path class="st0" d="M145.9,19.5l1.3,0.3c0.7,0.1,1.7,0.4,2.8,0.7l2.8,0.7c0,0,1.6,0.4,1.6,0.4c0.5,0.1,1-0.4,1.2-0.9   c0.2-0.6-0.1-1.3-0.7-1.5l-1.4-0.4l-2.9-0.7c-1.2-0.3-2.2-0.6-2.9-0.7l-1.3-0.3c-0.8-0.2-1.3-1-1.1-1.8c0.1-0.7,0.8-1.2,1.5-1.2   c0.1,0,0.2,0,0.3,0l1.3,0.3c0.7,0.1,1.7,0.4,2.9,0.7c1.1,0.3,2.1,0.6,2.9,0.8l1.3,0.4c0.7,0.2,1.4-0.2,1.6-0.8   c0.2-0.7-0.2-1.4-0.9-1.6l-1.3-0.4l-3-0.8c-0.8-0.2-2-0.5-3-0.7l-1.4-0.3c-0.3-0.1-0.6-0.1-0.9-0.1c-1.9,0-3.5,1.3-3.9,3.2   C142.4,16.9,143.7,19,145.9,19.5z"/>
	<path class="st0" d="M162.4,24.4l1.2,0.5c0.2,0.1,0.5,0.2,0.8,0.3c0.6,0.2,1.2,0.5,1.9,0.7L169,27c0.7,0.3,1.2,0.5,1.2,0.5   c0.2,0.1,0.3,0.1,0.5,0.1c0.5,0,0.9-0.3,1.1-0.7c0.2-0.5,0.1-1-0.2-1.4l-0.4-0.3c0,0-0.5-0.2-1.2-0.6l-2.7-1.1   c-0.6-0.3-1.3-0.5-1.9-0.8c-0.3-0.1-0.6-0.2-0.8-0.3l-1.2-0.5c-0.8-0.3-1.2-1.2-0.9-1.9c0.2-0.6,0.8-1,1.4-1c0.2,0,0.4,0,0.5,0.1   l1.3,0.5c0.3,0.1,0.5,0.2,0.9,0.3c0.6,0.2,1.3,0.5,2,0.8l2.8,1.2c0.7,0.3,1.2,0.6,1.2,0.6c0.2,0.1,0.4,0.1,0.5,0.1   c0.5,0,0.9-0.3,1.1-0.7c0.3-0.6,0-1.4-0.6-1.7c0,0-0.5-0.3-1.3-0.6l-2.8-1.2c-0.7-0.3-1.4-0.6-2-0.8c-0.3-0.1-0.6-0.2-0.9-0.3   l-1.3-0.5c-0.5-0.2-0.9-0.3-1.4-0.3c-1.7,0-3.2,1.1-3.8,2.7C159.4,21.4,160.4,23.6,162.4,24.4z"/>
	<path class="st0" d="M178.1,31.5l1.1,0.6c0.2,0.1,0.3,0.2,0.5,0.3c0.6,0.3,1.3,0.7,2,1.2c0.9,0.6,1.8,1.1,2.4,1.5l1.1,0.7   c0.2,0.1,0.4,0.2,0.7,0.2c0.4,0,0.8-0.2,1-0.5c0.2-0.3,0.3-0.6,0.2-0.9c-0.1-0.3-0.2-0.6-0.5-0.8l-1.1-0.8l-2.5-1.6   c-0.7-0.5-1.4-0.9-2-1.2l-1.6-0.9c-0.7-0.4-1-1.3-0.6-2c0.3-0.5,0.8-0.8,1.3-0.8c0.3,0,0.5,0.1,0.7,0.2l1.7,1   c0.6,0.4,1.4,0.8,2.1,1.3l2.6,1.6l1.2,0.8h0c0.2,0.1,0.4,0.2,0.7,0.2c0.4,0,0.8-0.2,1-0.5c0.2-0.3,0.3-0.6,0.2-0.9   c-0.1-0.3-0.3-0.6-0.5-0.8l-1.2-0.8l-2.6-1.7c-0.8-0.5-1.6-1-2.2-1.3l-1.7-1c-0.6-0.3-1.3-0.5-2-0.5c-1.5,0-2.9,0.8-3.5,2.1   C175.5,28.1,176.2,30.5,178.1,31.5z"/>
	<path class="st0" d="M193.1,42c0.4,0.3,0.8,0.7,1.3,1.1c0.3,0.3,0.5,0.5,0.8,0.8c0.7,0.6,1.3,1.3,1.8,1.8l1.1,1.1   c0.2,0.2,0.5,0.4,0.9,0.4c0.3,0,0.6-0.1,0.9-0.3c0.3-0.2,0.4-0.6,0.4-0.9c0-0.3-0.1-0.6-0.3-0.8l-1.1-1.1c-0.5-0.6-1.2-1.3-1.9-1.9   c-0.3-0.3-0.6-0.5-0.9-0.8c-0.5-0.4-0.9-0.9-1.3-1.2l-1-0.9c-0.6-0.5-0.7-1.5-0.2-2.1c0.3-0.3,0.7-0.5,1.1-0.5c0.4,0,0.7,0.1,1,0.4   l1.1,0.9c0.4,0.3,0.9,0.8,1.4,1.3c0.3,0.3,0.6,0.5,0.9,0.8c0.7,0.7,1.4,1.4,2,2l1.4,1.4c0.5,0.3,1.1,0.2,1.5-0.1   c0.2-0.2,0.4-0.5,0.4-0.9c0-0.3-0.1-0.7-0.4-0.9l-1.1-1.2c-0.6-0.6-1.3-1.4-2.1-2.1c-0.3-0.3-0.6-0.5-0.9-0.8c-0.5-0.5-1-1-1.4-1.3   l-1.1-0.9c-0.7-0.6-1.7-1-2.6-1c-1.2,0-2.4,0.6-3.1,1.5c-1.3,1.7-1.1,4.2,0.5,5.6L193.1,42z"/>
	<path class="st0" d="M202.8,50.6c-0.2,1,0.1,2,0.7,2.8l1.4,2.1l0.8,1.3c0.5,0.8,1,1.7,1.4,2.4l0.6,1.1c0.2,0.4,0.6,0.6,1.1,0.6   c0.2,0,0.4,0,0.6-0.1c0.3-0.1,0.5-0.4,0.6-0.7c0.1-0.3,0.1-0.6-0.1-0.9l-0.6-1.2c-0.3-0.7-0.9-1.6-1.4-2.5l-0.8-1.3l-1.5-2.2   c-0.5-0.7-0.3-1.6,0.4-2.1c0.3-0.2,0.6-0.3,0.9-0.3c0.5,0,0.9,0.2,1.2,0.7l1.6,2.3l0.8,1.4c0.6,0.9,1.1,1.9,1.5,2.7l0.9,1.6   c0.3,0.4,1,0.5,1.4,0.2c0.3-0.1,0.5-0.4,0.6-0.7c0.1-0.3,0.1-0.7-0.1-1l-0.7-1.3c-0.4-0.8-1-1.8-1.6-2.8c-0.3-0.5-0.6-1-0.9-1.5   l-1.6-2.4c-0.6-0.9-1.6-1.5-2.7-1.7c-1.1-0.2-2.1,0.1-3,0.8C203.5,48.6,203,49.6,202.8,50.6z"/>
	<path class="st0" d="M213.3,63.3c-1,0.4-1.8,1.1-2.3,2c-0.5,0.9-0.6,1.9-0.3,2.9l0.3,1.2c0.2,0.6,0.3,1.3,0.5,2   c0,0.2,0.1,0.4,0.1,0.6c0,0.2,0.1,0.4,0.1,0.5c0.1,0.3,0.1,0.6,0.2,0.9l0.3,2.5c0.1,0.6,0.6,1.1,1.2,1.1c0,0,0.1,0,0.1,0   c0.4,0,0.7-0.2,0.9-0.5c0.2-0.2,0.3-0.5,0.2-0.8l-0.1-1.3c0-0.3-0.1-0.7-0.1-1.1l0-0.2c0-0.3-0.1-0.6-0.2-1c0-0.2-0.1-0.4-0.1-0.6   l-0.1-0.6c-0.2-0.8-0.3-1.6-0.5-2.2l-0.3-1.3c-0.1-0.4,0-0.8,0.2-1.1c0.2-0.4,0.5-0.6,0.9-0.7c0.4-0.1,0.8-0.1,1.2,0.1   c0.3,0.2,0.6,0.5,0.7,0.9l0.4,1.4c0.2,0.6,0.4,1.5,0.5,2.4l0.1,0.6c0,0.2,0.1,0.4,0.1,0.6c0.1,0.4,0.1,0.7,0.2,1l0.3,2.8   c0.1,0.7,0.7,1.2,1.3,1.2c0.3,0,0.7-0.2,0.9-0.5c0.2-0.3,0.3-0.6,0.3-1l-0.3-3c0-0.4-0.1-0.7-0.2-1.1c0-0.2-0.1-0.4-0.1-0.6   l-0.1-0.6c-0.2-1-0.4-1.9-0.6-2.6l-0.4-1.4c-0.3-1.1-1-2-2-2.5C215.4,63,214.3,62.9,213.3,63.3z"/>
	<path class="st0" d="M216.2,80.8l-0.1,0c-1,0-2,0.4-2.7,1c-0.6,0.5-1.3,1.4-1.4,2.5c0,0,0,0.5-0.2,1.2c0,0.3-0.1,0.6-0.1,0.9   c-0.1,0.6-0.2,1.2-0.3,1.8c-0.1,0.3-0.1,0.5-0.2,0.8c-0.2,0.7-0.3,1.4-0.5,1.9l-0.4,1.4h0c-0.1,0.6,0.3,1.1,0.9,1.3   c0.1,0,0.3,0.1,0.4,0.1c0.5,0,1-0.3,1.1-0.8l0.4-1.3c0.2-0.6,0.3-1.3,0.5-2c0.1-0.3,0.1-0.5,0.2-0.8c0.2-0.7,0.3-1.3,0.4-2   c0-0.3,0.1-0.6,0.1-0.9c0.1-0.8,0.2-1.3,0.2-1.3c0.1-0.8,0.8-1.4,1.6-1.3c0.4,0,0.7,0.2,1,0.5c0.3,0.3,0.4,0.7,0.4,1.2   c0,0,0,0.6-0.2,1.4c-0.1,0.3-0.1,0.6-0.2,0.9c-0.1,0.6-0.2,1.4-0.4,2.1c-0.1,0.2-0.1,0.5-0.2,0.7c-0.2,0.8-0.4,1.7-0.6,2.3   l-0.4,1.4c-0.2,0.7,0.2,1.4,0.8,1.6c0.1,0,0.3,0.1,0.4,0.1c0.6,0,1.1-0.4,1.2-0.9l0.4-1.4c0.2-0.7,0.4-1.5,0.6-2.4   c0.1-0.2,0.1-0.5,0.2-0.7c0.2-0.8,0.3-1.5,0.4-2.2c0.1-0.3,0.1-0.7,0.2-1c0.2-0.9,0.2-1.5,0.2-1.5c0.1-1.2-0.2-2.3-0.9-3.1   C218.3,81.3,217.3,80.8,216.2,80.8z"/>
	<path class="st0" d="M212.4,98.1c-1-0.4-2.1-0.4-3-0.1c-1,0.3-1.8,1-2.2,1.9c0,0,0,0.1-0.2,0.3l-0.5,0.8c-0.1,0.2-0.2,0.3-0.3,0.5   c-0.3,0.6-0.7,1.2-1.1,1.8l-0.1,0.2c-0.5,0.8-1,1.6-1.4,2.2l-0.9,1.3c-0.3,0.6,0,1.1,0.4,1.5c0.2,0.2,0.5,0.3,0.8,0.3   c0.4,0,0.7-0.2,0.9-0.5l0.8-1.1c0.4-0.6,1-1.4,1.5-2.2l0.1-0.2c0.4-0.7,0.8-1.4,1.2-2c0.1-0.2,0.2-0.4,0.3-0.5l0.5-0.8   c0.1-0.2,0.2-0.3,0.2-0.3c0.2-0.5,0.8-0.8,1.3-0.8c0.2,0,0.5,0.1,0.7,0.2c0.4,0.2,0.6,0.5,0.7,0.8c0.1,0.4,0.1,0.8-0.1,1.2   c0,0-0.1,0.1-0.2,0.3l-0.5,0.9c-0.1,0.2-0.2,0.4-0.3,0.6c-0.4,0.6-0.8,1.4-1.2,2.1c-0.6,0.9-1.2,1.9-1.7,2.6l-0.8,1.1   c-0.4,0.6-0.3,1.4,0.2,1.8c0.2,0.2,0.5,0.2,0.7,0.2c0.4,0,0.8-0.2,1-0.5l0.8-1.2c0.5-0.7,1.1-1.7,1.7-2.6l0,0   c0.5-0.8,0.9-1.5,1.3-2.2c0.1-0.2,0.2-0.4,0.3-0.5l0.5-0.9c0.1-0.2,0.2-0.4,0.2-0.4c0.5-1,0.6-2.2,0.3-3.2   C214.1,99.3,213.4,98.5,212.4,98.1z"/>
	<path class="st0" d="M200.1,112c-1.1,0-2.1,0.4-2.9,1.2c0,0-0.3,0.4-0.9,0.9l-1.9,1.9l-2.2,2l-1,0.8c-0.5,0.4-0.6,1.2-0.1,1.7   c0.2,0.3,0.6,0.5,1,0.5c0.3,0,0.5-0.1,0.8-0.3l1-0.8l2.2-1.9l2.1-2c0.6-0.5,0.9-0.9,0.9-1c0.3-0.3,0.7-0.5,1.1-0.5   c0.4,0,0.8,0.1,1.1,0.4c0.3,0.3,0.5,0.6,0.5,1c0,0.4-0.1,0.8-0.4,1.1c0,0-0.4,0.4-1,1l-2.2,2.1l-2.3,2l-1.1,0.9   c-0.5,0.4-0.6,1.2-0.2,1.8c0.2,0.3,0.6,0.5,1,0.5c0.3,0,0.6-0.1,0.8-0.3l1.1-0.9l2.3-2.1l2.3-2.2c0.6-0.6,1-1,1-1   c0.8-0.8,1.2-1.9,1.2-3c0-1.1-0.5-2.1-1.3-2.7C202.1,112.4,201.1,112,200.1,112z"/>
	<path class="st0" d="M186.4,123.3c-0.8,0-1.5,0.2-2.1,0.7l-1.1,0.7c-0.2,0.1-0.4,0.3-0.7,0.4c-0.5,0.3-1.1,0.7-1.8,1.1   c-0.3,0.2-0.7,0.4-1,0.6c-0.5,0.3-1,0.6-1.5,0.8l-1.1,0.6c-0.6,0.3-0.8,1.1-0.5,1.7c0.2,0.4,0.6,0.7,1.1,0.7c0.2,0,0.4-0.1,0.6-0.1   l1.2-0.6c0.4-0.2,1-0.6,1.5-0.9c0.3-0.2,0.7-0.4,1-0.6c0.7-0.4,1.3-0.8,1.8-1.1c0.2-0.2,0.5-0.3,0.7-0.4l1.1-0.7   c0.2-0.2,0.5-0.3,0.8-0.3c0.5,0,1,0.2,1.2,0.7c0.2,0.3,0.3,0.7,0.2,1.1c-0.1,0.4-0.3,0.8-0.6,1c0,0-0.5,0.3-1.2,0.7   c-0.2,0.1-0.4,0.3-0.7,0.4c-0.6,0.4-1.2,0.8-1.9,1.2c-0.3,0.2-0.7,0.4-1,0.6c-0.6,0.4-1.2,0.7-1.6,0.9l-1.3,0.7v0   c-0.5,0.4-0.7,1.1-0.4,1.7c0.2,0.4,0.6,0.6,1.1,0.6c0.2,0,0.4-0.1,0.6-0.2l1.2-0.7c0.5-0.3,1.1-0.6,1.7-1c0.3-0.2,0.7-0.4,1-0.6   c0.7-0.4,1.4-0.8,2-1.2c0.2-0.2,0.5-0.3,0.7-0.4l1.2-0.8c1-0.7,1.6-1.6,1.8-2.7c0.2-1-0.1-2.1-0.7-2.9   C188.9,124,187.7,123.3,186.4,123.3z"/>
	<path class="st0" d="M170.7,131.8c-0.6,0-1.1,0.1-1.6,0.3c0,0-1.9,0.8-3.9,1.6l-2.7,1c-0.7,0.3-1.2,0.4-1.2,0.4   c-0.6,0.2-1,0.9-0.7,1.6c0.2,0.6,0.8,0.9,1.4,0.8v0l0.2-0.1c0,0,0.5-0.2,1.3-0.5l2.5-1l4.2-1.8c0.2-0.1,0.4-0.1,0.6-0.1   c0.6,0,1.1,0.3,1.4,0.9c0.2,0.4,0.2,0.8,0,1.1c-0.1,0.4-0.4,0.7-0.8,0.9c0,0-2,0.9-4.1,1.7l-2.8,1.1c-0.8,0.3-1.3,0.5-1.3,0.5   c-0.7,0.2-1,0.9-0.8,1.6c0.2,0.5,0.6,0.8,1.2,0.8c0.1,0,0.3,0,0.4-0.1c0,0,0.5-0.2,1.3-0.5l2.9-1.1c2.1-0.8,4.1-1.7,4.1-1.7   c1-0.5,1.8-1.3,2.2-2.4c0.4-1,0.3-2-0.2-3C173.7,132.7,172.3,131.8,170.7,131.8z"/>
	<path class="st0" d="M154,137.8c-0.4,0-0.7,0-1,0.1l-1.3,0.4c-0.5,0.1-1,0.3-1.7,0.4c-0.4,0.1-0.8,0.2-1.2,0.3   c-0.8,0.2-1.8,0.4-2.8,0.7l-1.3,0.3c-0.7,0.1-1.1,0.8-0.9,1.5c0.1,0.7,0.8,1.1,1.5,1l1.3-0.3c1.1-0.2,2-0.5,2.9-0.7   c0.4-0.1,0.7-0.2,1.1-0.3c0.7-0.2,1.3-0.3,1.8-0.5l1.3-0.4c0.1,0,0.3-0.1,0.4-0.1c0.7,0,1.3,0.5,1.5,1.1c0.1,0.4,0.1,0.8-0.1,1.1   c-0.2,0.4-0.5,0.6-0.9,0.7l-1.3,0.4c-0.5,0.1-1.2,0.3-1.8,0.5c-0.4,0.1-0.7,0.2-1.1,0.3c-0.9,0.2-1.9,0.5-2.9,0.7l-1.3,0.3   c-0.7,0.2-1.1,0.8-1,1.5c0.1,0.6,0.6,1,1.2,1c0.1,0,0.2,0,0.3,0l1.4-0.3c1.1-0.2,2.1-0.5,3-0.7c0.4-0.1,0.8-0.2,1.2-0.3   c0.7-0.2,1.3-0.3,1.8-0.5c0.8-0.2,1.3-0.4,1.3-0.4c1.1-0.3,1.9-1,2.5-1.9c0.5-0.9,0.6-2,0.3-3.1C157.3,139,155.7,137.8,154,137.8z"/>
	<path class="st0" d="M128,141.8c0.3,3.7,0.5,5.3,0.8,9.2c0.7-0.1,1.1-0.1,1.8-0.2c-0.4-3.9-0.5-5.5-0.9-9.2   C129,141.7,128.6,141.7,128,141.8z"/>
	<path class="st0" d="M125.2,142.5c-0.4-0.3-0.8-0.4-1.2-0.4c-0.7,0.1-1.1,0.1-1.8,0.1c-0.5,0-0.9,0.2-1.2,0.6   c-0.3,0.4-0.5,0.8-0.5,1.2c0,0.6,0,0.9,0.1,1.6c0,0.5,0.2,0.9,0.6,1.2c0.4,0.3,0.8,0.5,1.3,0.5c0.7,0,1.1-0.1,1.8-0.1   c0.1,1,0.1,1.5,0.2,2.5c-0.7,0.1-1.1,0.1-1.8,0.1c0-0.3,0-0.4,0-0.7c-0.7,0-1,0.1-1.7,0.1c0,0.3,0,0.5,0,0.8c0,0.5,0.2,0.9,0.6,1.2   c0.4,0.3,0.8,0.5,1.3,0.4c0.7-0.1,1.1-0.1,1.8-0.1c0.5,0,0.9-0.3,1.2-0.6c0.3-0.4,0.5-0.8,0.5-1.3c-0.1-2.3-0.3-3.6-0.5-5.8   C125.8,143.1,125.6,142.8,125.2,142.5z M122.4,145.4c0-0.6-0.1-0.9-0.1-1.5c0.7-0.1,1.1-0.1,1.8-0.1c0,0.6,0.1,0.9,0.1,1.5   C123.5,145.3,123.1,145.3,122.4,145.4z"/>
	<path class="st0" d="M137.5,146.1c0-0.3-0.1-0.6-0.3-0.7c-0.2-0.2-0.4-0.4-0.6-0.6c0.1-0.3,0.3-0.5,0.4-0.7   c0.1-0.2,0.1-0.5,0.1-0.8c0-0.4-0.1-0.6-0.1-1c0-0.4-0.3-0.8-0.6-1c-0.4-0.3-0.8-0.4-1.3-0.3c-0.7,0.1-1.1,0.2-1.8,0.3   c-0.5,0.1-0.8,0.3-1.2,0.7c-0.3,0.4-0.5,0.8-0.4,1.2c0,0.3,0,0.4,0.1,0.7c0.7-0.1,1-0.1,1.7-0.2c0-0.3,0-0.4-0.1-0.7   c0.7-0.1,1.1-0.2,1.8-0.3c0.1,0.6,0.1,0.9,0.2,1.5c-0.8,0.1-1.1,0.2-1.9,0.3c0.1,0.7,0.2,1.1,0.2,1.8c0.8-0.1,1.1-0.2,1.9-0.3   c0.1,1,0.2,1.5,0.3,2.5c-0.7,0.1-1.1,0.2-1.8,0.3c0-0.3,0-0.4-0.1-0.7c-0.7,0.1-1.1,0.1-1.8,0.2c0,0.3,0,0.4,0.1,0.7   c0,0.4,0.3,0.8,0.6,1.1c0.4,0.3,0.8,0.4,1.3,0.4c0.7-0.1,1.1-0.2,1.8-0.3c0.5-0.1,0.9-0.3,1.2-0.7c0.3-0.4,0.4-0.8,0.4-1.3   C137.6,147.3,137.6,146.9,137.5,146.1z"/>
	<path class="st0" d="M99.3,141.5c0,0-0.8-0.1-0.9,0.6c0,1.5-0.1,2.3-0.2,3.8c0,0-0.2,1,0.8,1c1.4,0.1,2.1,0.2,3.4,0.3   c0,0.9-0.1,1.3-0.1,2.1c-1.8-0.1-2.6-0.2-4.4-0.4c-0.1,0.6-0.1,1-0.2,1.7c2.1,0.2,3.2,0.3,5.4,0.5c1,0.1,0.9-0.8,0.9-0.8   c0.1-1.6,0.1-2.3,0.1-3.9c0-0.7-0.8-0.8-0.8-0.8c-1.4-0.1-2.1-0.2-3.4-0.3c0-0.9,0-1.3,0.1-2.2c1.7,0.1,2.5,0.2,4.2,0.3   c0-0.6,0-1,0-1.6C102.3,141.7,101.3,141.6,99.3,141.5z"/>
	<path class="st0" d="M90.1,149.8c2.3,0.3,3.4,0.4,5.8,0.7c0.1-0.7,0.1-1,0.2-1.7c-1.6-0.2-2.4-0.3-4.1-0.4c0.1-0.9,0.2-1.3,0.3-2.2   c1.3,0.1,1.9,0.2,3.2,0.3c0.1-0.7,0.1-1,0.1-1.7c-1.3-0.1-1.9-0.2-3.1-0.3c0.1-0.8,0.1-1.3,0.2-2.1c1.6,0.2,2.4,0.3,3.9,0.4   c0-0.6,0-1,0.1-1.6c-2.2-0.2-3.3-0.4-5.6-0.7C90.7,144.2,90.7,145.8,90.1,149.8z"/>
	<path class="st0" d="M116.9,142.4c0.1,3.7,0.2,5.4,0.4,9.3c0.7,0,1.1,0,1.8-0.1c-0.2-3.8-0.3-5.5-0.4-9.2   C117.9,142.4,117.6,142.4,116.9,142.4z"/>
	<path class="st0" d="M112.1,142.1c-2.4,0-3.6-0.1-6-0.2c0,0.7,0,1,0,1.6c0.9,0,1.3,0.1,2.2,0.1c0,3.1,0.1,4.6,0,7.8   c0.7,0,1.1,0,1.8,0.1c0-3.2,0-4.7-0.1-7.8c0.9,0,1.3,0,2.2,0C112.2,143.1,112.1,142.8,112.1,142.1z"/>
</g>
<path d="M68,21.1l1-3.4l1.8,0.6l0.1-0.1c0.3-0.6,0.5-1.3,0.5-1.9c0-0.1,0-0.3,0-0.4c0,0,0-0.1,0-0.1c0-0.1,0-0.2-0.1-0.4  c0,0,0,0,0,0c-0.3-1.3-1.2-2.5-2.4-3h0c-0.5-0.2-1-0.3-1.6-0.3c-2.1,0-3.8,1.5-4.1,3.5l0,0.2l2,0.7L32,128.4l3.9,1.2l4.2-14.3  L222.9,76l0.7-0.1L68,21.1 M63.5,15.5c0.4-1.8,1.9-3,3.7-3c0.1,0,0.3,0,0.4,0l0.2,0.2c0.9,1.2,0.7,2.5,0,4.2L63.5,15.5z M65.4,16.6  l1.4,0.4L33.7,128.5l-1.2-0.4L65.4,16.6z M67.7,22.2c1.9,12.7,8.5,67.1-27.2,92.1L67.7,22.2z M40.3,114.8  c13.5-9.6,22.8-23.7,26.9-44.1c4.2-21,2-41.1,0.8-49.2l154.2,54.2L40.3,114.8z"/>
</svg>