<?xml version="1.0" encoding="utf-8"?>
<!-- Generator: Adobe Illustrator 22.0.1, SVG Export Plug-In . SVG Version: 6.00 Build 0)  -->
<svg version="1.1" id="Layer_1" xmlns="http://www.w3.org/2000/svg" xmlns:xlink="http://www.w3.org/1999/xlink" x="0px" y="0px"
	 viewBox="0 0 2500 2500" style="enable-background:new 0 0 2500 2500;" xml:space="preserve">
<style type="text/css">
	.st0{fill:none;}
	.st1{fill:#FFFFFF;}
	.st2{fill:#2B9969;}
	.st3{fill:#CF4037;}
	.st4{fill:#BBBCBF;}
	.st5{fill:#FFFFFF;stroke:#000000;stroke-width:0.258;stroke-miterlimit:2.613;}
</style>
<g>
	<path class="st0" d="M0,0h2500v2500H0V0z"/>
	<path class="st1" d="M230.4,151.5l-6.1-28h297.8C583.3,320,1196.7,335.7,1249,336.3c51.7-0.6,667.2-16.5,728.2-212.8H2275
		c-13.2,60.5-25.2,121.7-25.8,183.8c-0.2,45.5,9.9,88.5,16.1,133l41.4-53.4c12.9,64.5,27.5,129.1,25.6,195.4l43.1-34.6
		c23.8,141.5,26.5,214.7-59.7,337.2c-144.7,205.8-135.4,247.8-129,477.6c5.3,191.7,21,286.7,55.8,474.7
		c14,111.6-23.8,214.7-127.4,271c-25,13.7-63.9,22.6-101,30.3c-297.6,61.3-488.3,97.5-764.2,237.8
		c-275.3-140.1-467.8-176.6-764.8-237.8c-37.1-7.7-76.1-16.6-101.1-30.3C280.6,2052,242.8,1949,256.8,1837.3
		c38.3-207.3,62.6-414.3,58.2-625.3c-6.2-295.4-248.9-320.1-197.6-625.4l6.5-38.8l43.1,34.6c-1.8-66.3,12.7-130.9,25.6-195.4
		l40.9,52.7l1.2-8.8c3-20.6,7-39.7,10.1-60.3l0.4-2.7c3.8-27.9,5.6-64.1,3.4-95.8C246.4,243.2,241.4,202.1,230.4,151.5L230.4,151.5z
		"/>
	<path class="st2" d="M951,403.9c66.6,14,221.2,22.7,298.9,23.6c77.7-0.9,232.2-9.6,298.9-23.6l-0.1,113.8
		c-45.7,23.1-94.2,38.9-149.7,25.8l-97.1-23.5c0,0,29.4,51.1,46,71c11.7,14.1,41.3,48.6,85.3,73.3c-20.2,33.6-33.4,66.9-40.7,100.2
		c22.8-3.3,24.2-2.3,42-3c-16.6,31.1-25.6,55.3-25.6,55.3l29.8-3c-24.6,40.7-20.7,95.2-20.7,95.2c23.5-28.5,81.6-75.2,130.4-104.3
		l-0.1,925.1c-94.6-9.8-195.4-15-299.9-15c-103.4,0-203.2,5.1-297,14.7l-0.1-924.8c48.8,29.1,107,75.8,130.4,104.3
		c0,0,3.9-54.5-20.7-95.2l29.8,3c0,0-9.1-24.1-25.6-55.3c17.9,0.7,19.3-0.4,42,3c-7.4-33.4-20.5-66.6-40.7-100.2
		c44.1-24.7,73.6-59.2,85.4-73.3c16.6-19.9,46-71,46-71l-97.1,23.5c-55.5,13.1-103.9-2.7-149.7-25.8L951,403.9L951,403.9z"/>
	<path class="st3" d="M919.6,590.2V1733c-261.8,29.9-473.7,105.5-584,187.9c-3.9-22.1-4.2-46.1-1.1-71.6
		c38.9-210.3,69.9-425.7,62.3-640.2c-10.3-289.8-189.3-340.3-211.9-513.8l87.8,55.3c-15.6-59.3-25.3-106.1-30.6-173.7l85,84.1
		c-12.6-64.9-16.5-97.2-22-166.3c23.4,30.3,57.1,63,90.7,81.6c-26.6,20.1-38.2,49.3-44.2,81.3l-20,111l101.5-22
		c3.1-0.9,15.6-1.1,40.3,3.2c28.5,5,83.2,4,93.9,37.6c38.2,120.2-127.2,37.4-157.3,25.3l30.6,56.3c27.7,50.9,94.7,81.7,152.7,54.7
		c108.1-50.5,61.3-211.6-31.3-234.3c-39.6-9.7-91.6-24.3-132.5-21.2c9.3-42.6,50.1-59.8,91.1-57.7l67.5,13.7l5,1.6
		c35.8,8.2,183.8,54.7,183.8,54.7c-12.1-25-26.6-51-41.4-61.1c18.7-7.7,40.6-18.6,78.6-49.5c0,0-97.3,6.1-130.2-4.7l12.1-13.3
		c45.8-62.6,126.8-27.8,177,10.8C886.7,573.4,902.6,582.6,919.6,590.2L919.6,590.2z M335.2,218.7l133.9-2.3
		C499,295.2,744.7,374.9,919.6,398v102.6c-78.8-44.7-152.4-96.6-244.8-38.1c-30.8,19.5-57.6,72.6-77.4,83.6
		c-26.7-3.6-53.3-7.5-79.9-11.6c-77.4-12.3-155.5-61.1-173.7-142.2C330.9,334.6,326,275.5,335.2,218.7L335.2,218.7z"/>
	<path d="M1580.1,590.2c17-7.7,32.9-16.8,46.8-27.5c50.2-38.6,131.2-73.3,177-10.8l12.1,13.3c-32.9,10.8-130.2,4.7-130.2,4.7
		c38,30.8,59.9,41.7,78.6,49.5c-14.8,10.1-29.4,36-41.4,61.1c0,0,148-46.6,183.8-54.7l5-1.6l67.5-13.7c41-2.1,81.8,15.1,91.1,57.7
		c-40.9-3.1-92.9,11.4-132.5,21.2c-92.6,22.7-139.4,183.9-31.3,234.3c58,27.1,125-3.7,152.7-54.7l30.6-56.3
		c-30.1,12.1-195.5,94.9-157.3-25.3c10.7-33.6,65.4-32.6,93.8-37.6c24.6-4.3,37.2-4.1,40.3-3.2l101.5,22l-20-111
		c-5.9-32-17.5-61.2-44.1-81.3c33.5-18.7,67.3-51.3,90.7-81.6c-5.5,69.1-9.5,101.4-22,166.3l85-84.1c-5.2,67.5-15,114.3-30.6,173.7
		l87.8-55.3c-22.3,151.3-201.6,224-211.9,513.8c-7.6,214.5,18.7,430,57.6,640.2c3.2,26.2,9,50.2,3.2,73.4
		c-109.2-83-321.2-159.2-583.6-189.4L1580.1,590.2L1580.1,590.2L1580.1,590.2z M2164.5,218.7c9.2,56.8,4.3,115.9-8.6,173.6
		c-18.1,81-96.2,129.9-173.7,142.2c-26.6,4.1-53.2,7.9-79.9,11.6c-19.8-11-46.6-64.1-77.4-83.6c-92.5-58.5-166.1-6.5-244.8,38.1V398
		c174.9-23.1,420.6-102.9,450.5-181.7L2164.5,218.7L2164.5,218.7z"/>
	<path class="st4" d="M385.8,1990c71.3,51.8,258.8,97.5,258.8,97.5s-92.3-16.5-151-30.1C396.6,2031.4,385.8,1990,385.8,1990
		L385.8,1990z"/>
	<path class="st2" d="M951.3,770.5l-0.1-168.1c20.5,6.7,41.6,11.6,62.1,14.7c-17.8,11.1-34.7,19.5-53,29.8
		c13.5,13.3,30,33.7,42.7,47.8c-30.6-1.7-32.7,1.5-44.7,2.2c16.1,21.4,22.1,32.2,34.6,61.8C979.9,761.5,965.6,764.9,951.3,770.5z
		 M1548.5,770.5l0.1-168.1c-20.5,6.7-41.6,11.6-62.1,14.7c17.7,11.1,34.7,19.5,52.9,29.8c-13.5,13.3-30,33.7-42.7,47.8
		c30.6-1.7,32.7,1.5,44.7,2.2c-16.1,21.4-22.1,32.2-34.6,61.8C1519.9,761.5,1534.1,764.9,1548.5,770.5z"/>
	<path d="M617.7,1617.3v-14.4c-18.9-3.1-24.9-9.2-24.9-26.7v-355h2.4c37.9,93.4,239.2,349.9,239.2,367.3c0,10.3-10.7,12.3-22.5,14.4
		v14.4h172.9v-14.4c-15.4-3.1-21.3-6.2-21.3-26.7v-457.6c0-17.4,5.9-23.6,26.1-26.7v-14.4h-161v14.4c20.1,3.1,26.1,9.2,26.1,26.7
		v322.2h-2.4c-11.8-46.2-216.7-322.2-216.7-339.6c0-6.1,4.7-8.2,21.3-9.2v-14.4H461.4v14.4c16.6,3.1,22.5,9.2,22.5,26.7v457.6
		c0,17.4-5.9,23.6-27.2,26.7v14.4L617.7,1617.3L617.7,1617.3L617.7,1617.3z M1196.3,1383.4H1308c27.2,0,36.7,3.1,40.3,16.4h16.6
		v-121.1h-16.6c-3.5,15.4-13,18.5-40.3,18.5h-111.8v-133.4h255.8c27.2,0,36.7,3.1,40.3,16.4h16.6v-121.1h-16.6
		c-3.5,15.4-13,18.5-40.3,18.5h-414.5v14.4c34.3,3.1,40.3,9.2,40.3,26.7v457.6c0,17.4-5.9,23.6-37.9,26.7v14.4h428.7
		c27.2,0,36.7,3.1,40.3,18.5h16.6v-123.1h-16.6c-3.5,15.4-13,18.5-40.3,18.5h-272.4V1383.4L1196.3,1383.4z M2046,1113.5
		c-10.7,6.1-18.9,9.2-26.1,9.2c-9.5,0-26-12.3-54.5-25.7c-28.4-13.3-67.5-25.7-122-25.7c-151.6,0-298.4,90.3-298.4,281.1
		c0,145.7,104.2,270.9,284.2,270.9c152.7,0,189.5-71.8,216.7-71.8c7.1,0,14.2,4.1,20.1,10.3l9.5-9.2l-99.5-111.8l-14.2,4.1
		c2.4,5.1,4.7,17.4,4.7,21.5c0,33.9-59.2,70.8-125.5,70.8c-105.4,0-177.6-75.9-177.6-184.7c0-139.5,68.7-194.9,182.4-194.9
		c61.6,0,118.4,32.8,118.4,69.8c0,3.1,0,7.2-1.2,10.3l10.7,4.1l78.1-123.1L2046,1113.5L2046,1113.5z"/>
	<path class="st5" d="M612.9,1609v-14.3c-18.9-3.1-24.9-9.2-24.9-26.7v-355h2.4c37.9,93.4,239.2,349.9,239.2,367.3
		c0,10.3-10.7,12.3-22.5,14.4v14.3H980v-14.3c-15.4-3.1-21.3-6.2-21.3-26.7v-457.6c0-17.4,5.9-23.6,26.1-26.7v-14.4h-161v14.4
		c20.1,3.1,26.1,9.2,26.1,26.7v322.2h-2.4c-11.8-46.2-216.7-322.2-216.7-339.6c0-6.2,4.7-8.2,21.3-9.2v-14.4H456.6v14.4
		c16.6,3.1,22.5,9.2,22.5,26.7V1568c0,17.5-5.9,23.6-27.2,26.7v14.3L612.9,1609L612.9,1609L612.9,1609z M1191.5,1375.1h111.8
		c27.2,0,36.7,3.1,40.3,16.4h16.6v-121.1h-16.6c-3.5,15.4-13,18.5-40.3,18.5h-111.8v-133.4h255.8c27.2,0,36.7,3.1,40.3,16.4h16.6
		v-121.1h-16.6c-3.5,15.4-13,18.5-40.3,18.5h-414.5v14.4c34.3,3.1,40.3,9.2,40.3,26.7V1568c0,17.5-5.9,23.6-37.9,26.7v14.3h428.7
		c27.2,0,36.7,3.1,40.3,18.5h16.6v-123.1h-16.6c-3.5,15.4-13,18.5-40.3,18.5h-272.4V1375.1L1191.5,1375.1z M2041.2,1105.2
		c-10.7,6.2-18.9,9.2-26,9.2c-9.5,0-26.1-12.3-54.5-25.7c-28.4-13.3-67.5-25.7-122-25.7c-151.6,0-298.4,90.3-298.4,281.1
		c0,145.7,104.2,270.9,284.2,270.9c152.8,0,189.5-71.8,216.7-71.8c7.1,0,14.2,4.1,20.1,10.3l9.5-9.2l-99.5-111.8l-14.2,4.1
		c2.4,5.1,4.7,17.4,4.7,21.5c0,33.9-59.2,70.8-125.5,70.8c-105.4,0-177.6-75.9-177.6-184.7c0-139.5,68.7-194.9,182.4-194.9
		c61.6,0,118.4,32.8,118.4,69.8c0,3.1,0,7.2-1.2,10.3l10.7,4.1l78.1-123.1L2041.2,1105.2L2041.2,1105.2z"/>
	<path d="M653.9,1985.7v-3.4c-4.4,0-7.4-1.7-7.4-6.4v-65.6h0.7l56.7,63.4c2.7,2.7,3.7,4.7,3.7,5.9c0,1-1.3,2.5-3.3,2.7v3.4h42.2
		v-3.4c-3.7,0-6.7-1.7-6.7-6.4v-88.5c0-4.7,3-6.4,6.7-6.4v-3.5h-39.5v3.5c3.7,0,6.7,1.7,6.7,6.4v63.9h-0.7l-48.3-56.3
		c-2-2.5-7.7-8.4-7.4-10.6c0-1.7,1.3-2.7,4.7-3.4v-3.5H613v3.5c4.4,0,7.4,1.7,7.4,6.4v88.5c0,4.7-3,6.4-7.4,6.4v3.4H653.9z
		 M845.3,1985.7v-3.4c-4.4,0-7-1.7-7-6.4v-88.5c0-4.7,2.7-6.4,7-6.4v-3.5h-43.6v3.5c4.4,0,7,1.7,7,6.4v88.5c0,4.7-3,6.4-7,6.4v3.4
		H845.3z M933.8,1877.6v3.5c4,0,6.7,1.7,6.7,6.4v71.3c0,7.6-8.4,11.3-19.4,11.3c-11.4,0-20.1-6.2-21.5-14.3l-4-1l-11.4,25.6l2.7,1
		c2-1.2,4.7-2.5,6-2.5c1.3,0,4.7,2.2,10.7,4.2c6,2,14.1,4.2,23.5,4.2c26.5,0,42.9-10.8,42.9-29.5v-70.3c0-4.7,3-6.4,7.4-6.4v-3.5
		L933.8,1877.6L933.8,1877.6z M1064.7,1985.7v-3.4c-3,0-6-1.7-6-6.4v-75.7h0.7c12.7,29.5,31.5,58.3,46.3,85.5h4.7
		c16.4-28.8,34.2-56.3,49.9-86.5h0.7v76.7c0,4.7-3,6.4-6.7,6.4v3.4h39.5v-3.4c-3.7,0-6.7-1.7-6.7-6.4v-88.5c0-4.7,3-6.4,6.7-6.4
		v-3.5h-51.3v3.5c3,0.5,4.7,1.2,4.7,3.2c0,2.2-1.3,5.2-4.3,10.1l-32.2,54.1h-0.7l-30.8-54.1c-2.7-4.7-4.4-7.9-4.4-10.1
		c0-1.9,1.7-2.7,4.7-3.2v-3.5h-51.6v3.5c3.7,0,6.7,1.7,6.7,6.4v88.5c0,4.7-3,6.4-5.4,6.4v3.4L1064.7,1985.7L1064.7,1985.7z
		 M1252.6,1975.9c0,4.7-2.7,6.4-6,6.4v3.4h97.9c5.7,0,7.7,1.5,8.7,4.4h4.7v-27.8h-4.7c-1,4.2-3,6.2-8.7,6.2h-62.3v-30h37.5
		c5.7,0,7.7,1.2,8.7,5.4h4.7v-28h-4.7c-1,4.2-3,5.4-8.7,5.4h-37.5v-26.5h62.3c5.7,0,7.7,1.9,8.7,6.4h4.7v-28h-4.7
		c-1,2.9-3,4.4-8.7,4.4h-97.9v3.5c3.4,0,6,1.7,6,6.4V1975.9L1252.6,1975.9z M1529.4,1882.5c-1,1.2-5,3.5-7,3.5
		c-2.7,0-6.7-2.5-14.4-4.7c-11.2-3.5-22.8-5.3-34.5-5.2c-43.9,0-71.4,24.1-71.4,55.8c0,29.8,29.2,55.3,70.7,55.3
		c32.2,0,54.3-10.8,63-18.7v-2c-2.7-0.5-4.4-1.2-4.4-3.2v-26.3c0-2.7,1.7-3.4,4.7-3.9v-3.4h-55.3c-3.4,0-6-1-7-3.9h-4.7v23.6h4.7
		c1-2.5,3.7-3.5,7-3.5h24.5v17.5c-9.1,4.2-18.1,6.6-28.2,6.6c-28.5,0-46.9-17.2-46.9-37.1c0-19.4,15.1-39.6,43.6-39.6
		c20.4,0,34.2,7.1,34.2,12.5c0,1-0.4,2.2-0.7,3.5l4,1.2l21.5-26.1L1529.4,1882.5L1529.4,1882.5z M1595.9,1975.9c0,4.7-2.7,6.4-6,6.4
		v3.4h97.9c5.7,0,7.7,1.5,8.7,4.4h4.7v-27.8h-4.7c-1,4.2-3,6.2-8.7,6.2h-62.3v-30h37.5c5.7,0,7.7,1.2,8.7,5.4h4.7v-28h-4.7
		c-1,4.2-3,5.4-8.7,5.4h-37.5v-26.5h62.3c5.7,0,7.7,1.9,8.7,6.4h4.7v-28h-4.7c-1,2.9-3,4.4-8.7,4.4h-97.9v3.5c3.3,0,6,1.7,6,6.4
		V1975.9L1595.9,1975.9z M1789.9,1985.7v-3.4c-4.4,0-7.4-1.7-7.4-6.4v-65.6h0.7l56.6,63.4c2.7,2.7,3.7,4.7,3.7,5.9
		c0,1-1.3,2.5-3.3,2.7v3.4h42.2v-3.4c-3.7,0-6.7-1.7-6.7-6.4v-88.5c0-4.7,3-6.4,6.7-6.4v-3.5h-39.6v3.5c3.7,0,6.7,1.7,6.7,6.4v63.9
		h-0.7l-48.3-56.3c-2-2.5-7.7-8.4-7.4-10.6c0-1.7,1.3-2.7,4.7-3.4v-3.5h-48.9v3.5c4.4,0,7.4,1.7,7.4,6.4v88.5c0,4.7-3,6.4-7.4,6.4
		v3.4H1789.9L1789.9,1985.7z"/>
	<path class="st4" d="M2119.6,1990c-71.3,51.8-258.8,97.5-258.8,97.5s92.3-16.5,151-30.1C2108.8,2031.4,2119.6,1990,2119.6,1990
		L2119.6,1990z"/>
	<path d="M505.4,146.6c40.3,129.7,397,208.5,743.5,212.8c346.5-4.2,705.2-83.1,745.5-212.8h252.2c-23.3,107.3-20.3,172.8-20.3,172.8
		s-30.5-48.5-26.4-134.1h-185.5c-71.5,126.7-413,204-764.7,211h-1.6c-351.8-7-691.4-84.3-762.8-211H299.8
		c4,85.5-26.4,134.1-26.4,134.1s3-65.5-20.3-172.8L505.4,146.6L505.4,146.6z M200.2,868.2l7.7,10.9
		c139.3,199.2,134.7,240.9,128,484.1c-5.4,193.2-21,288.2-56,477.5c-13.1,104.4,22.1,196.4,115.6,247.2c21.4,11.8,56.7,20.1,94.7,28
		c132.8,27.4,269.1,50.7,398.7,90.1c142.4,43.3,228.7,76.9,361.4,144.5c132.7-67.5,218.3-101.2,360.8-144.5
		c129.7-39.4,265.9-62.7,398.7-90.1c38-7.8,73.3-16.2,94.7-28c93.4-50.7,128.7-142.8,115.6-247.2c-35-189.3-50.6-284.4-56-477.5
		c-6.8-244.2-11.3-285.3,129.6-486.5l3.5-5c68.8-97.8,81.5-166.9,62.3-281.3l-55.1,44.3c11.5-66.1,2.9-128.7-10.1-193.7l-48.1,62
		c2.8-83-24.7-136.6-59-209.9c-4.5,82,1.4,130.6-60.4,194.9c-38.4,39.9-82.1,59.8-140.9,69.1c-20.8,3.2-53.3,7.9-84.2,12.2
		c-27.5-0.9-58.1-67.9-89-87.5c-68.9-43.6-161.1-7.9-219.4,36.9c-54.7,42-131.7,62.6-199.5,42.6l-56.1-16.6c0,0,50.9,62.8,72.5,78.6
		c16.8,11,34.9,22.5,50.9,34.7c-16.6,25.7-25.9,42.8-41.1,82.8c22.4-3.9,31.3,0,45.3,1.3c-7.8,14.1-24.6,54.4-24.6,54.4
		s18-0.2,33.9,1c-18.7,19.4-26.9,28.3-40.2,70.6c0,0,54.4-59.1,113-81c-30.9-10.5-66.5-15.2-66.5-15.2c7-18.7,18.7-41.4,31.2-57.1
		c-7.4-1.3-34.8-2.7-50.3-1.5c11.1-23.4,24.7-42,42.9-60c-39.7-22.3-60.2-38.1-78.5-54.9c64.7,3.8,135.9-15.2,186.7-54.2
		c46.8-36,126.2-70.8,182.5-35.2c20.5,13,32.1,41.3,60.3,69.9c0,0-23.5,7.1-48.1,7c-27.2-0.1-69.5,1.1-95.5-6.9
		c0,0,54.1,26.1,88.9,33.9c-19.4,12.4-36.4,26.2-46.1,39.9c0,0,109.3-41.2,145.8-49.5l5.3-1.7l70.2-14.2
		c39.9-2.4,78.4,7.6,103.4,45.3c8.4,12.7,11.6,20.9,14.3,35.9l6.9,30.1l-18.9-5.4c-33.2-9.5-104.8,10.1-138.5,18.4
		c-64.5,15.8-96.6,108.7-60.6,162.6h0c7.8,11.7,18.9,21.6,33.5,28.4c38.8,18.1,84.8,3.1,111.4-28.4c4.3-5.1,8.1-10.5,11.2-16.4
		c0,0-34.8,14-69.3,16.4c-6.5,0.5-12.6,0.3-19.1,0c-35-2.9-62.3-24.2-40.1-93.9c15.1-47.5,67.2-45.4,111.8-53.3
		c24.1-4.2,41.7-5.2,50.6-2.7l71.6,20.5l-19-82.7c-7.2-39.9-33.2-72.7-67.5-91.1c34.4-11,62.3-29.9,91.9-60.7
		c27.9-29,45.4-56.2,55.4-88.4c18.4,83.5,14,112.3-6.7,187.7l76.6-91.7c8.1,71.2-2.9,126.1-21.9,194.1l82.5-61.5
		c7.3,86.9-32.4,155.1-77.7,221.7l-2.8,4.2c-39.3,57.4-82.2,114-102,180.6c-32.5,109.1-24.8,195.7-21.7,307
		c5.4,195,21.1,290.6,56.4,481.6c11.3,91-17.8,169.7-99.2,213.9c-37.9,20.8-163.5,39.3-211.1,50.6
		c-107.6,25.7-170.4,32.7-276.3,64.9c-141.8,43.1-221.6,94.8-351.7,160.7c-130.1-65.9-209.9-117.6-351.7-160.7
		c-105.9-32.2-168.6-39.1-276.2-64.9c-47.5-11.4-173.2-29.8-211.1-50.6c-81.3-44.2-110.4-122.9-99.1-213.9
		c35.3-191,51-286.6,56.4-481.6c3.1-111.2,10.8-197.9-21.7-307c-19.7-66.2-62.1-122.4-101.2-179.4c-1.9-2.7-3.7-5.4-5.6-8.2
		c-44.5-65.7-83-133.3-75.8-218.9l82.5,61.5c-19-68.1-30-122.9-21.9-194.1l76.6,91.7c-20.6-75.4-25-104.2-6.7-187.7
		c10,32.2,27.5,59.4,55.4,88.4c29.6,30.8,57.5,49.7,91.9,60.7c-34.3,18.4-60.3,51.2-67.5,91.1l-19,82.7l71.6-20.5
		c8.9-2.5,26.6-1.5,50.6,2.7c44.7,7.9,96.7,5.8,111.8,53.3c22.3,70-5.3,91.1-40.5,93.9c-6.2,0.5-12.5,0.5-18.7,0h-0.3
		c-34.4-2.5-69-16.4-69-16.4c1.1,1.9,11.2,15.7,11.2,16.4c26.6,31.4,72.6,46.5,111.4,28.4c14.7-6.8,25.7-16.7,33.5-28.4
		c36-53.9,3.9-146.8-60.6-162.6c-33.8-8.3-105.4-27.8-138.5-18.4l-19,5.4l6.9-30.1c2.7-15,5.9-23.2,14.3-35.9
		c25-37.7,63.4-47.7,103.4-45.3l70.3,14.2l5.4,1.7C635.6,611.9,745,653,745,653c-9.8-13.7-26.7-27.5-46.1-39.9
		c34.8-7.7,88.9-33.9,88.9-33.9c-26,8.1-68.3,6.9-95.5,6.9c-24.6,0.1-48.1-7-48.1-7c28.2-28.6,39.8-56.9,60.3-69.9
		c56.3-35.6,135.7-0.8,182.4,35.2c50.8,39.1,122,58,186.7,54.2c-18.4,16.8-38.9,32.6-78.5,54.9c18.1,18,31.8,36.6,42.9,60
		c-15.4-1.2-42.9,0.2-50.3,1.5c12.5,15.7,24.2,38.4,31.2,57.1c0,0-35.6,4.7-66.5,15.2c58.6,21.9,113,81,113,81
		c-13.3-42.3-21.5-51.2-40.2-70.6c15.9-1.2,33.9-1,33.9-1s-16.8-40.2-24.6-54.4c14-1.3,22.9-5.3,45.3-1.3
		c-15.3-40-24.6-57.1-41.2-82.8c16-12.2,34.1-23.7,50.9-34.7c21.5-15.8,72.5-78.6,72.5-78.6l-56.1,16.6
		c-67.8,20.1-144.8-0.5-199.5-42.6c-58.2-44.8-150.4-80.5-219.4-36.9c-30.9,19.6-61.5,86.5-89,87.5c-28.1-3.8-56.2-7.9-84.2-12.2
		c-58.8-9.3-102.5-29.2-140.9-69.1c-61.8-64.3-55.9-112.8-60.4-194.9c-34.3,73.3-61.7,126.9-59,209.9l-48.1-62
		c-13,65-21.6,127.6-10.1,193.7l-55.1-44.3C121.4,703.5,133.6,772.3,200.2,868.2L200.2,868.2z"/>
</g>
</svg>
