<?xml version="1.0" encoding="utf-8"?>
<!-- Generator: Adobe Illustrator 21.0.0, SVG Export Plug-In . SVG Version: 6.00 Build 0)  -->
<svg version="1.1" id="Calque_1" xmlns="http://www.w3.org/2000/svg" xmlns:xlink="http://www.w3.org/1999/xlink" x="0px" y="0px"
	 viewBox="0 0 516.2 566" style="enable-background:new 0 0 516.2 566;" xml:space="preserve">
<style type="text/css">
	.st0{fill:url(#SVGID_1_);}
	.st1{fill:#9C9DA2;}
	.st2{fill:#FFFFFF;}
	.st3{fill:#E22918;}
</style>
<path d="M63.8,37.7c-11.2,3-17.3,5.1-17.3,5.1S-75.4,315.1,161.2,528.1l6.3-4.3C-24.1,326.6,48.9,81,63.8,37.7"/>
<path d="M452.4,37.7c11.2,3,17.3,5.1,17.3,5.1S591.6,315.1,355,528.1l-6.3-4.3C540.3,326.6,467.3,81,452.4,37.7"/>
<radialGradient id="SVGID_1_" cx="-46.1165" cy="714.2535" r="8.9192" gradientTransform="matrix(29.488 0 0 -29.488 1617.9886 21361.5645)" gradientUnits="userSpaceOnUse">
	<stop  offset="0" style="stop-color:#F18963"/>
	<stop  offset="2.992111e-02" style="stop-color:#F0855E"/>
	<stop  offset="0.321" style="stop-color:#EA603C"/>
	<stop  offset="0.5893" style="stop-color:#E64326"/>
	<stop  offset="0.8241" style="stop-color:#E3301B"/>
	<stop  offset="1" style="stop-color:#E22918"/>
</radialGradient>
<path class="st0" d="M63.8,37.7C47.8,84.1-35.1,363.5,213.7,566c12.4-8.1,28.4-11.8,44.4-11.8c16,0,32,3.7,44.4,11.8
	C551.3,363.5,468.4,84.1,452.4,37.7c-1.5-4.4-2.4-6.7-2.4-6.7S371,0,258.1,0C145.3,0,66.3,31,66.3,31S65.3,33.4,63.8,37.7z"/>
<path class="st1" d="M28.3,100.2c-8.1,2.5-12.4,4.1-12.4,4.1S-57.3,327.8,110.6,498l12.2-8.4C-6.2,345.4,8.1,183.9,28.3,100.2z"/>
<path class="st1" d="M500.3,104.3c0,0-4.3-1.6-12.4-4.1c20.1,83.7,34.5,245.2-94.5,389.3l12.2,8.4
	C573.5,327.8,500.3,104.3,500.3,104.3z"/>
<path d="M383,329.6c-1.1-6.3-2.5-12.6-4.4-17.5c-1.2-3-2.2-5.6-3.1-7.8l108.1-3.6l-111-3.7c-1.4-3.6-2.3-6.3-3-9.8
	c-0.4-2.2-1.2-6.1-2.5-10.7l105.4-31l-107.8,23.9c-2.6-6.7-6.4-13.6-12.1-18.5l87.9-55.1L345.2,246c-8.1-5.1-12.4-11-16.1-16.4
	l61.6-73.3l-66.5,66.5c-0.9-1-1.7-2-2.7-2.9c-3.8-3.5-10.6-9.4-19.9-14.7l26.2-74.3l-33.2,70.7c-8.6-4-18.8-7.3-30.4-8.2
	c-0.8-0.1-1.6-0.1-2.4-0.1l-3.7-71.1l-3.7,71c-13.8,0.4-25,3.8-33.2,7.5L188.4,131l25.9,73.3c-2.9,1.6-5.1,3.1-6.8,4.2
	c-4,2.7-11.2,6.9-18.2,11.6l-63.7-63.7l57.3,68.3c-3.3,2.5-6.2,5.1-8.3,7.6c-0.6,0.5-1.2,1.1-1.8,1.6c-2.1,0.3-8.9,1.5-16,4.8
	l-81.2-42.7l74.4,46.6c-1.6,1.1-3,2.4-4.4,3.8c-0.7,0.7-1.4,1.5-2,2.2c-1,0.8-2,1.7-2.9,2.6c-4.6,4.8-7.4,9.5-9.5,13.9l-87.7-19.4
	l85.3,25.1c-0.1,0.2-0.2,0.5-0.3,0.7c-2,1.4-4.6,3.5-7.2,6.6c-3.3,2.8-7.3,7-10.8,13.4l1.3,0.7l-1.3-0.7c-1.4,2.5-2.4,4.9-3.1,7
	l-75.1,2.5l73.8,2.4c-0.3,1.7-0.2,3.2,0.2,4.7c0.8,4.6,4,7.5,7.4,9c0.8,0.4,1.6,0.6,2.4,0.9c0.4,0.1,0.8,0.3,1.1,0.4
	c7.9,2.3,17.9-0.4,17.9-0.4s-3.5-0.7-7.3-2.1l0-0.1c0,0-0.2,0-0.5-0.1c-1.2-0.5-2.4-1-3.6-1.6c-0.2-0.1-0.4-0.3-0.6-0.4
	c-1.2-0.9-1.9-1.9-1.9-3.3c0-0.4,0.1-0.8,0.2-1.2c0.6-2.3,1.8-3.8,3.3-5l4.4,0.1c1.7,1,2.9,2.1,2.9,2.1s4.1,14.4,11.8,20.4L43.5,356
	l113.3-25.1c3.3,1.7,5.2,4.3,8.9,7.5c2.4,2,4.8,4.1,7.1,6.4l-97.3,61l102.8-54.1c0.6,1.1,1.1,2.1,1.4,3.2c1.7,5.6,7.3,6.3,11.8,9.9
	c0.3,0.3,0.7,0.5,1,0.7l-67.1,79.9l77-76.9c-0.1,5.5-0.4,18.4-1.9,21.3c-2,3.7-4,12.2-2.4,16.9c0.2,0.5,0.1,1.1,0,1.9
	c-3.4,6.5-9.1,14.7-13.5,19.7c-0.7,0.7-1.4,1.5-2.1,2.3c-0.3,0.3-0.6,0.5-0.8,0.8c-7.3,6.4-13.6,17.1-13.6,17.2l-0.4,0.7l0.1,0.3
	c-2.3,3.1-3.6,5.3-3.6,5.3s2.8,7.1,14,6.3c6.7-0.5,11.7-2.2,14.9-3.9l-4.8,13.5l6.9-14.8c1-0.7,1.6-1.3,2-1.8
	c0.6-0.7,1.1-1.7,1.7-2.8c2-1.1,3.4-2.2,4.2-3.3c1.8-2.5,3.8-7,3.8-7l0-0.1l0-0.1c0,0,0.4-1.4,0.9-3.2c1.3-1.2,2.7-2.7,4.2-4.4
	c2.2-2,5.1-4.9,8.1-8.7c5.1,2.9,9.5,6.6,9.9,10.4c0.9,8.5,8.3,17.5,8.3,17.5s3.8,0.6,7.9-6.1c2.2-1.1,5-3.6,7.5-8.9
	c0.7-1.6,1.3-3,1.8-4.5l2.4,46.5l5.4-102.6c4.9,0.5,7.2-0.1,7.2-0.1l10.1-0.6c-0.2,0.5-0.3,1-0.5,1.5c-1.5,3.4-5,11.6-4.4,16.7
	c0.7,6.5,2.2,10.3,5.5,12c0.7,4.2-1.8,12.7-4,18.2c-2.2,5.5-4,10.2-2.6,12.8c1.5,2.6,2.3,2.6,6.3,2.6c4.4,0,9.4-0.3,9.4-0.3
	s6.8,0,9-3.1c0.6-0.9,1.1-2.2,1.4-3.6c1.7-0.2,3.4-0.8,4.6-2.5c0.7-1.1,1.2-2.4,1.5-3.9l20.8,44.2l-18.4-52.2
	c0.4-3.4-0.1-7.7-2-11.7c-1.5-3.2-3.1-5.9-4-8.2c0.7-0.6,1.3-1.3,1.9-2.1c1.2-1.6,2.1-3.6,2.2-6.4c0-0.2,0-0.4,0.1-0.6
	c0.9-1.2,1.5-2.5,1.8-4.4c0,0,0.1-0.1,0.1-0.1c1.1-1.8,2.7-4,4-7.4c0.6-1.5,1.1-2.7,1.7-3.9c0.9-0.2,1.9-0.5,3-0.8l50.2,50.1
	c0.2,1.2,0.4,2.2,0.4,3.1c0.3,5.8-1.9,15.7-1.9,20.8c0,5.1-0.3,6.9,8.6,7.8c0,0,9.9,0.6,12.9-1.5c1.2-0.9,1.7-2.3,1.5-4.2
	c0.3-0.2,0.6-0.5,0.9-0.8c1.7-1.8,2.8-4.6,3-7.8c2.5-3.4,3.3-10.2-0.9-17.2c-4.5-7.7-11-28.2-11.1-39.8c0-2.8,0.3-5.5,0.7-8.1
	l58,30.5l-57-35.7c1-4.8,2.2-9.1,2.2-12.8c0-3.5-0.5-11.8-1.8-20.9l88.6,19.6L383,329.6z M245.4,389.8c0.4-1.2,0.8-2.4,1.3-3.5
	c1.1-2.5,3.5-6,6-9.1l1.3,25.4L245.4,389.8z M326.3,368.6c5.8-3.4,14.1-2.3,20.5,2.4c6.7,5,11.4,18.3,14.1,26.6
	c1.7,5.2,4.3,12.9,6.1,19.2L326.3,368.6z"/>
<path class="st2" d="M284.5,375.8c-1.2,3.3-2.4,7.3-2.4,10.1c0,0.4,0,0.7,0.1,1c0.4,3.2,0.9,5.6,1.7,7.3c0.8,1.7,1.7,2.7,3,3.5
	l0.7,0.4l0.1,0.8c0.1,0.6,0.1,1.3,0.1,1.9c0,5-2.3,12.2-4.3,17.2c-1.7,4.1-3,7.7-3,9.8c0,0.7,0.1,1.2,0.3,1.5c1.1,2,4.6,4.7,7.9,4.7
	c0.2,0,0.3,0,0.5,0c1.4-0.1,2.3-0.7,3-1.6c0.7-0.8,1.1-1.8,1.2-2.1c0-0.1,0-0.1,0-0.1l0.5-1.6l1.6,0.4c0,0,0.4,0.1,1.1,0.2
	c0.7,0.1,1.7,0.2,2.6,0.2c1.7,0,3.1-0.4,3.5-1.1c0.8-1.1,1.4-3.4,1.4-6.2c0-2.7-0.6-5.9-1.9-8.8c-1-2.3-2.2-4.3-3.1-6.2
	c-0.9-1.9-1.7-3.6-1.7-5.5c0-1.3,0.5-2.7,1.6-3.7c1.5-1.5,2.8-2.5,3.6-3.7c0.8-1.2,1.4-2.4,1.6-4.6c0.2-2.8,1.3-4.8,2.5-6.7
	c1.2-1.9,2.5-3.7,3.7-6.8c0.3-0.7,0.5-1.3,0.8-1.9C297.6,377.1,285.7,375.9,284.5,375.8z"/>
<path class="st2" d="M227.3,417c1.8,1.2,3.6,2.4,5,3.8c2.1,2,3.8,4.2,4.1,6.9c0.6,5.7,4.8,12.3,6.8,15.1c0.2,0.3,0.4,0.6,0.6,0.8
	c1.1-0.2,3.9-1.4,6.9-7.7c3-6.4,3.9-11.6,3.9-14.6c0-1.1-0.1-1.9-0.2-2.3c-0.3-0.9-0.9-2.3-1.5-3.4c-0.5-1-1-1.8-1.1-1.9l-10.4-15.4
	C239.6,400.8,232.8,410.2,227.3,417z"/>
<path class="st2" d="M376.6,389.4c0-10.9,3.9-19.9,3.9-26.1c0-6.6-2-31.2-7.1-44.5c-5.2-13.8-7.6-17.8-9-25.1
	c-1.3-7-5.8-30.3-20.7-38.4c-16.7-9.2-19.8-21.5-27-28.1c-7.7-7.2-27.9-23.9-56.2-26c-2.4-0.2-4.8-0.3-7.1-0.3
	c-25.4,0-41.8,10.4-48.7,15c-3.9,2.6-10.8,6.6-17.6,11.1c-2.3,1.5-4.5,3.1-6.6,4.7c7.4-3.6,17.2-7.5,25.8-7.5c0.5,0,1,0,1.5,0
	c8,0.5,12.6,2.8,15,5.8c2.4,3,2.5,6.4,2.5,8.3c-0.1,6.9-6.4,12.8-12.8,17.7c-6.5,4.8-13.6,8.5-16,9.8l0,0l-6.7,3.2l4.7-5.8l0,0
	c0,0,3.3-3.6,6.9-8.1c2.7-3.4,5.7-7.3,7.3-10.1c-4,0.2-11.7,1.7-17.3,9.2l-0.4,0.5l-0.6,0.1c-0.1,0-2.5,0.5-5.7,0.5
	c-3.2,0-7.2-0.5-10.6-2.6c-3.3-2-5.8-5.7-6-11.1c-0.3,0-0.6,0.1-0.9,0.2c-1.8,0.3-4.2,0.9-7,1.8c-5.5,1.8-12.3,4.8-17,9.8
	c-7.8,8.1-10,15.8-12.5,22.2l-0.2,0.5l0,0c-1.3,3.7,0,7.8,2.6,11.6c2.4,3.5,4.6,8.9,4.9,9.7l0,0l0.3,1.1c0,0,0.4,1.3,1.1,3.3
	c0.7,2,1.8,4.7,3.3,7.4c2.8,5.5,7.1,10.6,11.6,11c4.7,0.5,7.7,1.7,10.2,3.6c2.4,1.8,4.2,3.9,7,6.3c5.9,5,12.5,10.8,14.5,17.3
	c1.5,5,4.9,6.9,9.6,10.5c1,0.8,2.4,1.1,3.9,1.1c2.5,0,5.2-0.9,6.4-1.4c0.4-0.2,0.6-0.2,0.6-0.2l0.8-0.4l0.1-0.1
	c0,0,11.8-6.8,13-15.9c0.9-6.5-4.7-28.4-0.5-37.2c4.2-8.8,12.8-6.4,5-34.1c11.4,19.9,3,32.1,0.9,37.7c-2.1,5.6,2,29.8,0.7,35
	c-1.1,4.4-7.7,13.9-17.6,20.2c-0.1,4-0.3,10.5-0.8,15.2c-0.3,2.4-0.6,4.2-1.3,5.6c-1.3,2.3-2.8,7.7-2.8,11.9c0,1.4,0.2,2.7,0.5,3.7
	c0.2,0.5,0.2,1,0.2,1.4c0,2.1-1,4.5-2.4,7.5c-1.4,2.9-3.3,6.2-5.4,9.6c-4.3,6.6-9.3,13.1-12.8,16.2c-3.3,2.9-6.6,7-9,10.4
	c-1.6,2.2-2.8,4.1-3.4,5.1c0.2,0.3,0.6,0.7,1.1,1.1c1.3,1,3.7,2.1,8.1,2.1c0.6,0,1.3,0,2-0.1c5.4-0.4,9.6-1.6,12.6-2.9
	c3-1.3,4.9-2.8,5.4-3.5c0.7-0.9,1.6-2.5,2.2-3.9c0.6-1.1,1-2.1,1.1-2.4c0.2-0.5,0.8-2.8,1.6-5.2l0.2-0.6l0.5-0.3c0,0,0.3-0.2,1-0.7
	c0.7-0.5,1.6-1.2,2.8-2.3c2.3-2,5.4-5.2,8.5-9.4c1.4-2,2.8-3.8,4-5.4l0.9-1.2l0,0l0,0c0,0,12.8-10.1,16.2-18.8
	c0.4-0.9,0.7-1.7,1-2.5c0.9-2.7,1.6-5.7,2.9-8.5c1.5-3.2,4.3-7.3,7.2-10.8c1.7-2,3.3-3.7,4.8-5c1.7-2.8,6.5-12,8.1-25.4
	c0,0,0.2,8.7-1.2,16.8c38.5-3.5,52-22.1,55.2-27.9c-6.9-14.2-2.3-29-2.3-29c-0.3,14.3,6.5,32.2,21.2,39c7,3.3,16.7,18.7,20.7,25.3
	c4.6,6.6,7.7,15.9,9.8,22.2c2.6,8.3,7.6,22.4,8,28.8c0,0.4,0,0.8,0,1.3c0,6.2-2,15.2-2,19.6c0,1.5,0,3.2,0.3,4.6
	c0.2,1.4,0.7,2.5,1.2,2.9c0.4,0.3,0.7,0.5,1.5,0.5c0.7,0,1.7-0.2,3.1-0.8l0.5-0.2l0.5,0.1c0,0,0.4,0.1,1,0.2
	c0.7,0.1,1.6,0.2,2.5,0.2c1.8,0,3.7-0.4,4.6-1.4c1.2-1.2,2.2-3.6,2.2-6.7c0-2.7-0.8-5.9-2.7-9.2C383.1,422,376.6,401.6,376.6,389.4z
	 M196.1,281.3c4.4,10.8-7.5,11.8-7.5,11.8c-4.8-14.7,8.9-16.4,8.9-16.4c-2.8,1.8-4.8,4.6-6.1,7.3
	C193.5,281.7,196.1,281.3,196.1,281.3z"/>
<path class="st3" d="M439.5,132.7c0-0.1,0-0.1,0-0.2c0-7.3-4.1-15-12.1-19.6l-0.6,1.1l0.6-1.1c-3.8-2.1-7.4-3.3-10.2-4.3l-0.3-0.1
	l-3.1-0.9c-1.7-0.5-3.3-1-4.7-1.5c6.8,0.2,10.2,2.1,14.4,4.2l2.5,1.3l3.8-1.3l4.2-1.4l1.5-19l-2.6-2.8l-1.2-1.3l-1.7-0.5
	c-5-1.6-11.6-3.6-23.3-3.6c-0.1,0-0.2,0-0.3,0c-11.9,0-20.8,2.5-27.1,7.2c-1.4,1.1-2.7,2.3-3.8,3.6l0.2-2.6l-2.6-2.8l-1.2-1.3
	l-1.6-0.5c-5-1.6-11.7-3.6-23.4-3.6c-0.1,0-0.2,0-0.3,0c-11.9,0-20.8,2.5-27.1,7.2c-3.7,2.8-6.3,6.4-7.7,10.2
	c-1.9-2.9-3.8-4.9-5.2-6.2c-2.4-2.3-5.3-4.4-8.6-6c-7.3-3.6-16.3-5.1-25.3-5.2c-7.8,0-16.1,1-23.6,4.2c-16.8,7-20.8,20.5-21.7,24.6
	c-0.8,3.5-1.3,7-1.3,10.5c0,0,0,0.1,0,0.1c0,0.2,0,0.3,0,0.5c0,6.8,1.5,20.6,14.8,29.9c11,7.6,24.3,8.2,30.9,8.3
	c9.8,0,20-1.6,28.6-6.9c4.2-2.6,7.4-5.8,9.8-9.1l-0.5,7.9l2.9,2.9l1.3,1.3l1.7,0.5c1,0.3,2.4,0.8,4.2,1.1c2.9,0.8,10.2,2.3,19.8,2.3
	c3.9,0,13.2-0.2,21.7-3.1c3.3-1.2,6.2-2.8,8.7-4.7l2.5,2.5l1.3,1.3l1.7,0.5c1,0.3,2.5,0.8,4.3,1.2c2.8,0.7,10.2,2.3,19.7,2.3
	c3.8,0,13.1-0.2,21.6-3.1c11.8-4,18.6-13.6,18.6-23.7C439.5,133,439.5,132.8,439.5,132.7z M381.8,130.7l-2.3-1.4l-0.2,0.1
	c-0.4-2.3-1.1-4.7-2.3-6.9c0.7,0.6,1.4,1.2,2.1,1.7c4.6,3.3,9.6,5,12.9,6.2l4,1.4c3.3,1.1,6.2,2,8,2.9c-1.2,0.4-2.9,0.7-5.4,0.7
	c0,0,0,0,0,0c0,0-0.1,0-0.1,0C389.1,135.2,385.1,132.6,381.8,130.7z M372.2,116.3c-1.4-1.3-3-2.5-4.7-3.5c-3.9-2.1-7.4-3.4-10.2-4.3
	l-0.3-0.1l-3.1-0.9c-1.7-0.5-3.3-1-4.7-1.5c6.8,0.3,10.2,2.1,14.4,4.2l2.5,1.3l3.8-1.3l0.4-0.1C370.6,112.4,371.3,114.5,372.2,116.3
	z M321.9,130.7l-2.3-1.4l-3.3,0.8c0.6-2.7,0.9-5.2,1-7.4c0.6,0.6,1.2,1.1,1.9,1.5c4.6,3.3,9.6,5,12.9,6.2l4,1.3c3.4,1.1,6.2,2,8,2.9
	c-1.2,0.4-2.9,0.7-5.4,0.7c0,0-0.1,0-0.1,0c0,0,0,0-0.1,0C329.2,135.2,325.2,132.6,321.9,130.7z M279.6,132.3
	c-1.4,1.8-2.7,2.8-7.8,3c-3.1-0.1-4.9-0.6-6-1.3c-1.2-0.7-1.9-1.7-2.7-3.1c-1.3-2.5-1.8-7-1.8-10.6c0-0.1,0-0.2,0-0.3
	c0.1-4.7,0.7-7.5,1.6-9.2c0.9-1.7,1.9-2.5,3.5-3.4c1.8-0.8,4.1-1.1,5.6-1.1c2.9,0,5.5,1.1,6.8,2.3c1,0.9,1.5,1.8,2.1,3.9
	c0.7,2.6,0.9,5.2,1,7.2c0,0.5,0,1.2,0,1.8c0,0.1,0,0.1,0,0.2C282,126.8,280.9,130.6,279.6,132.3L279.6,132.3z"/>
<path class="st3" d="M204.6,129.9l-0.5,1.2L204.6,129.9l-3.2-1.3l-2.9,1.7c-2.4,1.4-6.8,3.9-14.9,4c-5.5-0.2-9.4-1.5-12-3.6
	c-2.5-2.1-3.8-5.2-4-9.6c0,0,0-0.1,0-0.1c0-2.7,0.8-6.5,2.7-9c2.1-2.6,5-4.8,13.1-4.9c7.5,0.1,10.4,1.9,13.2,3.3l2,1.2l3.4-0.5
	l5.2-0.9l1.8-20.6l-2.9-2.7l-1.2-1.1l-1.5-0.4c-4.3-1.3-12.4-3.5-23.5-3.5c0,0-0.1,0-0.2,0c-16.3,0-28.5,4.9-36.3,12.7
	c-0.5,0.5-1,1-1.4,1.5l1.1-9.4l-4.3-2.7l-1.7-1l-2,0C122.9,83,116,83,106.1,83c-5.7,0-12.4,0-21.6-0.1h-2.3l-2.5,1.9l-3,2.2l0.3,3.7
	c0.7,8.6,1.1,15.1,1.1,30.5c0,10-0.2,20-0.5,30.1l-0.1,3.5l3.3,2.5l1.9,1.4l2.4-0.1c8.5-0.2,10.3-0.2,20.6-0.2h2.6l2.5-2.3l2.5-2.2
	l-0.3-3.4c-0.6-7.7-0.8-11.1-1-17.4h20.6l1.4-0.9c2,6.2,5.6,11.9,11,16.4c8.5,7,20.7,11.1,36,11.1c0.1,0,0.1,0,0.1,0h0.1
	c0,0,0,0,0,0c10.6,0,18-2.2,21.8-3.4l1.4-0.4l1.7-1.5l2.1-1.9l1.3-20.6l-4.4-1.9L204.6,129.9z M134.6,108.3c0,0.1-0.1,0.2-0.1,0.2
	l-0.2-0.1l-22.4,0.6V108L134.6,108.3z"/>
<path class="st2" d="M203.6,132.2L203.6,132.2l-2-0.8l-1.8,1.1c-2.5,1.4-7.5,4.3-16.3,4.3c-5.9-0.2-10.4-1.5-13.6-4.2
	c-3.2-2.7-4.7-6.6-4.9-11.5c0,0,0-0.1,0-0.2c0-3.2,0.8-7.4,3.3-10.5c2.4-3.1,6.5-5.9,15.1-5.9c7.9,0,11.7,2.2,14.4,3.7l1.3,0.7
	l2.5-0.4l3.3-0.5l1.5-17.4l-2-1.8l-0.7-0.7l-1-0.3c-4.3-1.3-12-3.4-22.8-3.4c-0.1,0-0.1,0-0.2,0c-15.8,0-27.3,4.7-34.6,11.9
	c-1.5,1.5-2.8,3.1-3.9,4.7l-2.3-0.9l1.4-12.3l-3-1.8l-1-0.7l-1.2,0c-12.3,0.1-19.2,0.2-29.1,0.2c-5.7,0-12.4,0-21.6-0.1H83l-1.8,1.4
	l-1.9,1.4l0.2,2.3c0.7,8.6,1.2,15.3,1.2,30.7c0,10-0.2,20.1-0.5,30.2l-0.1,2.2l2.3,1.8l1.2,0.9l1.5,0c8.5-0.2,10.4-0.2,20.7-0.2h1.6
	l1.8-1.6l1.6-1.4l-0.2-2.1c-0.7-8.2-0.9-11.6-1.1-18.9l0-1.3l22.5,0l1.9-1.2l1.8-1.2l0.4,1.7c1.7,6.4,5.2,12.3,10.7,16.8
	c7.9,6.6,19.5,10.5,34.4,10.5c0,0,0.1,0,0.1,0c0,0,0,0,0.1,0h0.1c10.3,0,17.3-2.1,21.1-3.3l0.9-0.3l1.3-1.1l1.3-1.2l1.1-17.8
	l-2.8-1.2L203.6,132.2z M136.4,111.1l-0.6,1.9l-2.3-2.1l-24,0.6v-6.1l26,0.2l0.5-0.5l2,1.5C137.3,108.2,136.8,109.6,136.4,111.1z"/>
<path class="st2" d="M426.1,115.1L426.1,115.1c-3.6-2-7-3.2-9.7-4.1l-0.2-0.1L413,110c-4.4-1.4-7.8-2.5-9.9-3.5l-2.7-1.3l2.8-1
	c1.1-0.4,2.7-0.7,4.8-0.7c8,0.1,12.2,2.3,16.5,4.5l1.6,0.8l2.7-0.9l2.6-0.9l1.3-16.2l-1.9-2l-0.8-0.8l-1.1-0.3
	c-5-1.6-11.1-3.4-22.6-3.4c-0.1,0-0.2,0-0.3,0c-11.6,0-19.9,2.4-25.6,6.7c-2.6,1.9-4.4,4.3-5.8,6.8l-2.4-0.7l0.5-6.3l-1.8-2
	l-0.8-0.8l-1-0.3c-5-1.6-11.2-3.4-22.7-3.5c-0.1,0-0.2,0-0.2,0c-11.6,0-19.9,2.4-25.6,6.7c-4.2,3.1-6.6,7.3-7.7,11.6l-0.8,3.3
	l-1.6-3c-2.1-4-4.5-6.6-6.1-8c-2.2-2.2-4.9-4.1-8-5.6c-6.8-3.4-15.5-4.9-24.2-4.9c-7.6,0-15.5,1-22.6,4c-15.8,6.6-19.4,19-20.2,22.8
	c-0.8,3.4-1.2,6.6-1.2,9.9c0,0,0,0.1,0,0.1v0v0.1c0,0.2,0,0.4,0,0.5c0,6.5,1.4,19.2,13.7,27.8c10.3,7.1,23,7.8,29.4,7.9
	c9.5,0,19.3-1.6,27.3-6.5c5.6-3.5,9.2-7.9,11.6-12.5l2.4,0.7l-0.8,11.8l2.1,2.1l0.8,0.8l1.1,0.3c1.2,0.3,2.5,0.8,4.1,1.1l0,0l0,0
	c2.7,0.7,9.9,2.3,19.1,2.3c3.8,0,12.9-0.2,20.8-2.9c3.9-1.4,7.1-3.4,9.7-5.7l2.3-2.1l-0.2,3.1l-0.1,1.1l2.1,2l0.8,0.8l1.1,0.3
	c1.1,0.3,2.5,0.8,4.2,1.1c2.7,0.7,9.9,2.3,19.2,2.3c3.8,0,12.8-0.2,20.8-2.9c10.9-3.8,16.8-12.4,16.9-21.3c0-0.1,0-0.3,0-0.4
	c0-0.1,0-0.1,0-0.2C436.9,126.1,433.4,119.2,426.1,115.1z M284.5,121.6c0,5.5-1,9.7-2.9,12.2l-1-0.8l1,0.8c-1.7,2.3-4.3,3.9-9.8,4h0
	h0c-3.4-0.1-5.6-0.7-7.3-1.7c-1.7-1-2.7-2.5-3.6-4.1c-1.7-3.4-2.1-8-2.1-11.8c0-0.1,0-0.2,0-0.4c0.1-4.9,0.8-8,1.9-10.3
	c1.1-2.3,2.8-3.5,4.6-4.5l0,0l0,0c2.3-1,4.9-1.3,6.7-1.3c3.5,0,6.6,1.2,8.5,2.9c1.5,1.3,2.2,2.9,2.8,5.1c0.8,2.9,1,5.7,1.1,7.9
	c0,0.5,0,1.2,0,1.8C284.5,121.5,284.5,121.6,284.5,121.6z M347.5,135.7c-1.1,0.8-3.7,2.1-8.9,2.1c-0.1,0-0.1,0-0.1,0l0-1.3l0,1.3
	c-9.7-0.1-14.6-3-17.8-4.9l-1.4-0.9l-2.8,0.6l-3.6,0.9l0.6-2.1c1.1-3.9,1.5-7.6,1.5-10.5c0-0.1,0-0.2,0-0.3c0,0,0-0.1,0-0.1
	c0-0.3,0-0.6-0.1-1l-0.1-3.6l2.4,2.7c1.2,1.4,2.4,2.6,3.7,3.5c4.3,3.1,9,4.7,12.3,5.9l3.9,1.3c4.1,1.3,7.5,2.5,9.5,3.6
	c0.5,0.3,0.9,0.6,1.1,0.7l1.4,1L347.5,135.7z M407.3,135.8c-1.1,0.8-3.6,2.1-8.9,2.1c0,0,0,0,0,0l-0.1,0h0c-9.7,0-14.6-3.1-17.8-4.9
	L379,132l-2,0.5l-0.1-1.5c-0.5-6-3.9-12.1-10.6-16c-3.6-2-7-3.2-9.7-4.1l-0.2-0.1l-3.1-0.9c-4.4-1.4-7.8-2.5-9.9-3.4l-2.7-1.3l2.8-1
	c1.1-0.4,2.7-0.7,4.8-0.7c8,0.1,12.2,2.3,16.6,4.5l1.6,0.8l2.8-0.9l3.4-1.2l0.1,1.7c0.4,6.2,4,11,7.9,13.8c4.3,3.1,9,4.7,12.2,5.9
	l4,1.3c4.1,1.3,7.5,2.5,9.4,3.6c0.5,0.3,0.9,0.6,1.2,0.8l1.3,1L407.3,135.8z"/>
<path d="M104.7,126.5c0.3,11.6,0.5,14.7,1.3,24.8l-0.6,0.5c-10.3,0-12.3,0-20.8,0.3l-0.6-0.5c0.2-10.1,0.5-20.2,0.5-30.3
	c0-15.5-0.5-22.5-1.2-31.1l0.7-0.5c25.3,0.1,31.5,0.1,50.8-0.2l0.7,0.4l-1.3,10.9l-0.7,0.6l-28.7-0.3v14.7l26.7-0.7l0.6,0.5l-1,10.3
	l-0.8,0.5H104.7z"/>
<path d="M202.3,136.4l-0.8,13.1l-0.6,0.5c-3.7,1.2-10.2,3.1-20,3.1c-28.5,0-42.2-14.8-42.2-31.7c0-15.4,10.5-32.9,40.8-32.9
	c10.3,0,17.4,2,21.6,3.2l0.5,0.4l-1.1,12.1l-1,0.2c-2.9-1.7-7.7-4.2-16.5-4.2c-19.1,0-22.6,13.3-22.6,20.8
	c0,12.5,9.4,19.9,22.7,19.9c9.7,0,15.7-3.3,18.4-4.9L202.3,136.4z"/>
<path d="M310.1,120.6c0,7.5-2.3,19.4-13.9,26.6c-6.9,4.3-16,5.9-25,5.9c-6,0-18.1-0.9-27-7.1c-11-7.7-11.9-18.9-11.9-24.8
	c0-3,0.4-6,1.1-9c0.9-3.7,3.5-13.9,17.8-20c6.3-2.7,13.7-3.7,20.9-3.7c8.2,0,16.4,1.5,22.3,4.5c2.7,1.3,5,3,7,4.9
	C304.2,100.6,310.1,106.8,310.1,120.6 M271.5,99.4c-2.2,0-5.4,0.4-8.5,1.8c-5.5,2.6-8.9,8.1-8.9,18.6c0,7.9,1,22.1,17.3,22.1
	c13.6,0,17.3-9.5,16.8-22.6c-0.1-2.2-0.4-5.4-1.3-8.7c-0.7-2.5-1.8-5.1-4.1-7.1C280,100.9,275.9,99.4,271.5,99.4"/>
<path d="M354.6,114.9c2.8,1,5.8,2,9,3.8c6.2,3.6,8.8,9,8.8,14c0,7.5-4.2,14.1-14,17.7c-7,2.4-15.9,2.7-19.4,2.7
	c-8.8,0-15.7-1.5-18.4-2.2c-1.3-0.3-2.6-0.7-3.9-1.1l-0.7-0.7l0.8-12.4l1.2-0.3c3.4,2,9.4,5.5,20,5.5c10.2,0,14-3.9,14-7.3
	c0-4.7-6.2-6.8-14.3-9.4l-3.9-1.3c-6.5-2.4-17.5-6.2-17.5-16.9c0-9.4,7.6-18.7,29.6-18.7c11.4,0,16.6,1.7,21.7,3.3l0.6,0.6
	l-0.9,11.5l-1.1,0.4c-4.3-2.2-9.6-4.9-18.5-4.9c-7.7,0-11.1,3.4-11.1,6.1c0,4,5.1,5.5,15,8.6L354.6,114.9z"/>
<path d="M414.4,114.9c2.8,1,5.9,2,9,3.8c6.2,3.6,8.8,9,8.8,14c0,7.5-4.2,14.1-14,17.7c-7,2.4-15.9,2.7-19.4,2.7
	c-8.8,0-15.7-1.5-18.4-2.2c-1.3-0.3-2.6-0.7-3.8-1.1l-0.7-0.7l0.8-12.4l1.2-0.3c3.4,2,9.3,5.5,20,5.5c10.2,0,14-3.9,14-7.3
	c0-4.7-6.2-6.8-14.3-9.4l-3.9-1.3c-6.6-2.4-17.6-6.2-17.6-16.9c0-9.4,7.6-18.7,29.6-18.7c11.4,0,16.6,1.7,21.6,3.3l0.6,0.6
	l-0.9,11.5l-1.1,0.4c-4.3-2.2-9.6-4.9-18.5-4.9c-7.7,0-11.1,3.4-11.1,6.1c0,4,5.1,5.5,15,8.6L414.4,114.9z"/>
</svg>
