<?xml version="1.0" encoding="UTF-8"?>
<svg width="643px" height="851px" viewBox="0 0 643 851" version="1.1" xmlns="http://www.w3.org/2000/svg" xmlns:xlink="http://www.w3.org/1999/xlink">
    <!-- Generator: Sketch 46.2 (44496) - http://www.bohemiancoding.com/sketch -->
    <title>big</title>
    <desc>Created with Sketch.</desc>
    <defs></defs>
    <g id="Page-1" stroke="none" stroke-width="1" fill="none" fill-rule="evenodd">
        <g id="big" fill-rule="nonzero">
            <path d="M321.395,0.198 C181.293,0.198 0.512,35.885 0.512,35.885 L0.512,534.197 C0.512,569.649 16.398,608.791 47.775,648.868 C75.61,684.344 115.007,720.653 164.866,756.815 C227.121,801.832 290.581,835.338 321.395,850.591 C352.209,835.338 415.668,801.831 477.924,756.815 C527.783,720.653 567.18,684.343 595.016,648.868 C626.393,608.791 642.278,569.649 642.278,534.197 L642.278,35.885 C642.277,35.885 461.496,0.198 321.395,0.198 Z" id="Shape" fill="#FFFFFF"></path>
            <path d="M321.395,24.559 C250.912,24.559 169.291,34.331 109.532,43.238 L109.532,680.405 C128.882,698.749 151.321,717.207 176.716,735.624 C182.57,739.855 188.434,743.975 194.279,747.979 L194.279,661.142 L279.03,661.142 L279.03,800.07 C296.218,809.575 310.871,817.092 321.395,822.301 C331.92,817.092 346.572,809.574 363.76,800.07 L363.76,661.142 L448.512,661.142 L448.512,747.979 C454.356,743.974 460.221,739.855 466.075,735.624 C491.47,717.207 513.909,698.749 533.259,680.405 L533.259,43.238 C473.498,34.332 391.877,24.559 321.395,24.559 Z" id="Shape" fill="#FFDD00"></path>
            <path d="M24.787,57.545 L24.787,530.642 C24.787,563.412 39.467,598.787 68.475,635.846 C80.029,650.567 93.757,665.45 109.532,680.405 L109.532,43.238 C59.499,50.696 24.787,57.545 24.787,57.545 Z" id="Shape" fill="#0055B8"></path>
            <path d="M194.279,661.143 L194.279,747.98 C224.651,768.805 254.44,786.475 279.03,800.071 L279.03,661.143 L194.279,661.143 Z" id="Shape" fill="#0055B8"></path>
            <path d="M574.314,635.847 C603.322,598.787 618.003,563.412 618.003,530.643 L618.003,57.545 C618.003,57.545 583.29,50.695 533.257,43.238 L533.257,680.405 C549.033,665.45 562.762,650.567 574.314,635.847 Z" id="Shape" fill="#0055B8"></path>
            <path d="M363.76,661.143 L363.76,800.071 C388.352,786.475 418.139,768.805 448.512,747.98 L448.512,661.143 L363.76,661.143 Z" id="Shape" fill="#0055B8"></path>
            <path d="M223.23,497.275 L201.565,497.275 L201.565,533.873 L178.914,533.873 L178.914,420.61 L222.248,420.61 C249.009,420.61 261.644,431.438 261.644,458.198 C261.644,474.943 255.407,484.133 245.236,490.541 L261.159,533.873 L236.373,533.873 L223.23,497.275 Z M222.248,442.111 L201.565,442.111 L201.565,475.762 L222.584,475.762 C233.903,475.762 238.506,468.704 238.506,458.522 C238.505,447.694 233.085,442.111 222.248,442.111 L222.248,442.111 Z" id="Shape" fill="#0055B8"></path>
            <polygon id="Shape" fill="#0055B8" points="324.795 489.389 311.432 491.031 311.432 533.873 288.781 533.873 288.781 420.607 311.432 420.607 311.432 469.193 324.459 467.563 344.59 420.607 370.686 420.607 344.654 476.914 371.348 533.873 345.252 533.873"></polygon>
            <path d="M463.715,531.417 C463.715,531.417 444.18,535.845 431.209,535.845 C396.744,535.845 388.537,516.635 388.537,477.246 C388.537,434.559 399.699,418.635 431.209,418.635 C445.166,418.635 463.877,423.401 463.877,423.401 L463.217,443.262 C463.217,443.262 443.358,440.964 434.5,440.964 C417.262,440.964 411.836,447.528 411.836,477.246 C411.836,505.31 415.779,513.517 435.149,513.517 C443.358,513.517 463.217,511.06 463.217,511.06 L463.715,531.417 Z" id="Shape" fill="#0055B8"></path>
            <polygon id="Shape" fill="#0055B8" points="189.538 575.461 195.625 606.532 196.711 606.532 202.903 575.573 210.132 575.573 216.425 606.532 217.461 606.532 223.492 575.461 230.17 575.461 221.913 613.043 211.97 613.043 206.489 584.916 201.113 613.043 191.165 613.043 182.857 575.461"></polygon>
            <path d="M245.17,575.461 L257.725,575.461 L266.576,613.043 L260.17,613.043 L258.1,605.658 L244.466,605.658 L242.619,613.043 L236.216,613.043 L245.17,575.461 Z M245.826,599.522 L256.851,599.522 L252.673,581.322 L250.115,581.322 L245.826,599.522 Z" id="Shape" fill="#0055B8"></path>
            <path d="M281.301,575.461 L293.849,575.461 L302.705,613.043 L296.293,613.043 L294.229,605.658 L280.589,605.658 L278.749,613.043 L272.345,613.043 L281.301,575.461 Z M281.956,599.522 L292.982,599.522 L288.795,581.322 L286.245,581.322 L281.956,599.522 Z" id="Shape" fill="#0055B8"></path>
            <polygon id="Shape" fill="#0055B8" points="311.399 613.043 311.399 575.461 317.757 575.461 317.757 606.907 332.316 606.907 332.316 613.043"></polygon>
            <polygon id="Shape" fill="#0055B8" points="345.623 575.461 351.713 606.532 352.795 606.532 358.982 575.573 366.219 575.573 372.516 606.532 373.555 606.532 379.578 575.461 386.264 575.461 378.008 613.043 368.063 613.043 362.574 584.916 357.201 613.043 347.26 613.043 338.951 575.461"></polygon>
            <rect id="Rectangle-path" fill="#0055B8" x="395.119" y="575.461" width="6.412" height="37.582"></rect>
            <path d="M421.736,606.907 C421.736,615.216 418.384,616.898 410.55,616.898 L410.55,610.922 C413.866,610.922 415.337,610.224 415.337,606.469 L415.337,575.46 L421.689,575.46 C421.689,586.975 421.736,595.282 421.736,606.907" id="Shape" fill="#0055B8"></path>
            <polygon id="Shape" fill="#0055B8" points="445.051 597.677 439.625 598.113 439.625 613.043 433.262 613.043 433.262 575.461 439.625 575.461 439.625 591.976 444.938 591.54 452.225 575.461 459.547 575.461 450.641 594.197 459.932 613.043 452.484 613.043"></polygon>
            <path d="M285.804,122.35 C292.22,122.35 293.593,120.107 303.697,120.107 C304.628,120.107 310.895,120.157 310.895,121.448 C310.895,122.74 307.951,122.069 303.697,122.796 C293.949,124.436 290.17,129.328 283.32,129.328 C277.147,129.328 270.81,125.146 273.287,116.184 C273.666,114.69 274.563,115.029 274.77,116.032 C275.725,120.058 280.609,122.35 285.804,122.35 M385.635,147.038 C385.635,152.328 378.735,158.311 370.565,153.752 C369.493,155.246 358.067,170.121 375.616,175.818 C376.429,176.071 376.677,176.826 375.479,177.33 C362.545,182.741 356.221,172.785 356.221,172.785 C349.684,187.697 359.664,196.035 359.664,196.035 C358.303,198.713 352.08,203.188 342.639,205.322 C339.057,203.414 334.08,199.759 332.01,194.127 C332.01,194.127 329.426,200.661 331.76,206.9 C305.188,209.289 295.808,188.087 275.383,191.925 C274.771,192.025 274.485,191.644 274.485,191.043 C274.485,177.918 282.53,154.002 307.795,149.159 C333.07,144.289 326.273,133.942 326.273,133.942 C315.606,133.442 309.48,138.111 309.48,138.111 C307.567,134.918 310.284,131.431 310.284,131.431 C309.275,130.219 308.709,125.899 308.709,125.899 C320.686,125.88 323.84,123.284 323.84,123.284 C325.674,116.186 320.722,106.136 302.945,116.922 C298.497,112.962 298.816,106.894 298.816,106.894 C297.487,106.269 296.651,104.205 296.651,103.254 C296.651,100.322 310.882,92.314 314.54,91.382 C315.435,87.059 320.947,80.852 337.674,83.087 C345.584,84.038 351.297,82.007 348.627,77.377 C348.176,76.615 349.572,76.47 350.334,77.224 C352.18,79.042 354.713,84.21 347.789,87.689 C340.092,91.612 339.633,99.279 339.596,100.393 C339.42,102.021 341.416,102.124 341.84,100.546 C345.395,87.554 363.133,84.72 373.66,91.662 C372.998,98.585 365.553,103.19 361.449,103.19 C359.078,103.19 355.81,100.858 355.81,97.573 C355.81,96.037 354.986,96.254 354.564,97.493 C352.804,102.071 359.615,111.631 369.806,105.847 C380.134,116.184 376.054,128.951 374.995,133.648 C373.122,142.108 377.278,150.251 384.923,146.42 C385.26,146.271 385.635,146.134 385.635,147.038 M328.154,96.878 C318.262,96.348 314.006,97.321 313.618,101.587 C318.425,107.006 326.271,105.744 328.154,96.878 M230.54,247.41 C232.043,253.59 238.61,253.036 240.456,252.664 C240.631,252.664 240.73,252.542 240.512,252.414 C237.6,250.45 236.677,248.404 236.677,246.857 C236.677,242.784 244.897,237.88 247.453,237.88 C249.917,237.88 250.792,240.433 255.375,240.433 C257.352,240.433 259.746,239.635 261.805,237.172 C262.105,236.844 261.96,236.623 261.58,236.741 C259.516,237.202 257.769,236.819 256.385,235.662 C267.847,229.749 290.308,216.739 321.02,242.023 C356.995,271.742 330.624,308.24 318.937,296.558 C318.426,296.072 318.365,296.571 318.501,297.223 C321.02,307.965 334.729,307.242 336.239,301.788 C336.376,301.367 336.874,300.908 337.147,302.078 C342.674,324.378 383.141,308.112 385.971,353.993 C385.098,354.099 376.104,355.799 372.45,351.527 C370.891,349.643 364.204,341.825 356.046,350.442 C355.523,350.947 356.023,351.343 356.257,351.343 C366.786,351.088 364.466,358.475 364.105,359.844 C357.207,354.099 346.48,355.297 347.105,368.516 C347.203,369.535 347.589,369.449 347.99,368.893 C353.953,361.284 360.564,366.754 361,367.359 C356.047,368.114 347.18,374.537 355.475,384.908 C355.811,385.389 356.323,385.963 356.411,385.081 C357.483,372.75 368.434,376.768 370.704,377.905 C372.339,378.71 379.886,380.996 385.087,374.774 C387.194,384.086 398.833,383.115 399.97,383.05 C400.804,383.025 400.878,382.47 400.118,381.92 C395.091,378.578 390.415,372.142 397.934,369.759 C397.934,369.759 407.926,378.827 416.022,368.892 C416.756,367.996 416.321,367.754 415.834,367.96 C414.885,368.272 403.461,369.632 404.297,358.155 C404.807,350.222 410.709,323.139 399.856,316.285 C399.157,315.802 398.821,315.387 399.594,315.219 C410.508,312.787 411.942,305.18 408.387,296.449 C407.889,295.364 407.315,295.57 407.201,296.386 C406.365,313.962 378.301,305.601 377.402,281.059 C392.384,284.889 418.304,279.703 418.304,255.186 C418.304,230.949 387.417,218.068 387.417,200.511 C387.417,197.53 387.368,185.348 401.661,185.348 C413.362,185.348 422.044,194.124 424.403,203.411 C424.438,203.862 424.964,203.99 425.399,203.467 C427.11,201.239 426.786,192.094 422.604,187.213 C422.168,186.684 422.62,185.866 423.542,186.397 C424.839,187.158 428.98,188.426 433.358,188.426 C442.913,188.426 448.077,183.147 448.077,174.384 C448.077,168.889 446.182,166.12 446.956,164.324 C447.341,163.476 446.308,162.849 445.796,163.963 C444.423,166.645 441.941,173.771 432.112,173.771 C431.975,173.771 411.891,173.789 408.462,173.789 C382.091,173.789 379.71,195.128 379.71,200.383 C379.71,221.985 407.126,231.358 407.126,253.272 C407.126,258.439 404.532,267.033 390.349,267.033 C384.511,267.033 378.349,265.334 374.683,263.753 C374.683,263.753 368.345,225.33 349.747,212.034 C349.747,212.034 327.893,222.661 306.354,210.942 C289.815,202.051 282.094,196.067 267.63,206.055 C253.159,216.062 228.194,233.837 226.61,233.534 C223.286,233.534 222.619,227.092 217.541,227.092 C215.971,227.092 214.392,227.84 212.734,229.609 C212.584,229.83 212.651,230.132 213.094,230.132 C216.991,230.347 219.207,232.692 218.365,236.129 C213.55,232.093 206.272,232.754 206.439,241.921 C206.439,242.388 206.815,242.528 207.064,242.132 C210.437,237.245 215.751,240.847 216.27,241.383 C212.726,241.863 206.682,245.933 212.085,253.326 C212.302,253.588 212.483,253.453 212.521,253.199 C212.602,251.646 213.388,247.605 218.196,247.605 C223.253,247.607 226.628,252.146 230.54,247.41 M232.148,134.318 C227.365,138.512 230.913,144.082 232.11,145.531 C232.192,145.684 232.348,145.715 232.36,145.466 C232.753,141.973 234.144,140.186 235.491,139.469 C242.202,138.742 242.689,144.758 242.389,146.335 C241.996,148.353 239.813,149.9 244.379,156.773 C244.721,157.275 245.282,157.072 245.332,156.523 C245.52,154.823 246.411,151.852 248.742,151.852 C250.988,151.852 261.286,159.567 270.055,168.342 C270.055,168.342 275.081,153.143 287.169,148.455 C280.314,147.402 250.69,140.228 250.69,127.309 C250.69,122.928 245.806,121.963 242.663,122.167 C241.103,119.235 246.479,117.882 244.122,113.341 C243.387,111.975 241.99,110.903 239.645,110.269 C239.395,110.244 239.132,110.441 239.344,110.818 C240.991,114.377 239.931,117.429 236.482,118.284 C237.811,112.146 233.843,106.015 225.836,110.441 C225.398,110.647 225.461,111.012 225.898,111.056 C231.799,111.77 231.1,118.175 230.863,118.858 C228.768,115.967 222.369,112.524 218.365,120.71 C218.21,121.044 218.409,121.116 218.645,121.044 C220.079,120.392 224.002,119.235 226.235,123.463 C228.58,127.975 226.129,133.039 232.148,134.318 M275.919,350.655 C276.197,350.602 276.247,350.345 276.042,350.224 C272.924,348.182 270.455,345.366 270.455,342.256 C270.455,336.705 281.144,329.412 286.215,329.412 C289.227,329.412 291.41,333.038 297.266,333.038 C300.317,333.038 303.821,331.845 306.74,328.133 C306.953,327.864 306.835,327.65 306.473,327.694 C304.058,328.071 297.461,329.693 294.398,317.789 C291.23,305.403 290.169,296.407 295.633,291.688 C300.317,287.662 320.744,279.941 332.021,275.65 C332.558,275.388 332.544,274.98 332.021,274.871 C328.878,274 325.845,272.11 325.433,268.246 C325.173,265.863 325.671,262.621 328.365,261.006 C322.814,255.003 311.787,250.799 305.974,250.799 C283.702,250.799 264.803,280.976 255.754,280.976 C254.638,280.976 253.158,280.562 251.844,278.612 C251.531,278.247 251.207,278.197 251.207,278.886 C251.207,287.976 256.06,288.806 258.641,288.806 C260.089,288.806 261.622,288.344 262.752,287.721 C263.077,287.514 263.212,287.66 263.212,287.976 C263.212,288.396 263.139,289.246 263.139,289.909 C263.139,300.605 274.366,312.371 274.366,312.371 C269.259,317.672 256.595,326.516 253.053,321.773 C251.532,319.868 244.92,307.934 236.058,317.436 C235.709,317.787 235.958,318.202 236.527,318.202 C241.559,318.202 245.432,321.611 244.074,326.785 C236.87,321.038 226.971,321.99 226.971,335.208 C226.971,335.713 227.482,335.869 227.744,335.463 C232.503,328.668 239.962,333.25 241.048,334.278 C236.058,335.023 227.309,340.921 234.953,351.393 C235.285,351.842 235.584,351.744 235.651,351.393 C236.437,344.513 240.63,343.353 244.035,343.353 C251.076,343.353 256.234,349.795 261.579,342.932 C263.533,351.893 273.499,351.088 275.919,350.655" id="Shape" fill="#0055B8"></path>
        </g>
    </g>
</svg>