<svg xmlns="http://www.w3.org/2000/svg" xml:space="preserve" overflow="visible" height="253.44" width="253.44" viewBox="0 0 253.44 253.441" version="1.1" enable-background="new 0 0 253.44 253.441">
<title>Roda JC Kerkrade (2011)</title>
<linearGradient id="XMLID_4_" y2="252.4" gradientUnits="userSpaceOnUse" x2="126.72" y1="-1.0391" x1="126.72">
<stop stop-color="#FFE614" offset="0"/>
<stop stop-color="#FFE313" offset="0.4222"/>
<stop stop-color="#FEDB11" offset="0.6226"/>
<stop stop-color="#FDCD0F" offset="0.7762"/>
<stop stop-color="#FBBA0A" offset="0.9052"/>
<stop stop-color="#FAA806" offset="0.9944"/>
</linearGradient>
<circle fill-rule="evenodd" cy="126.72" cx="126.72" clip-rule="evenodd" r="126.72" fill="url(#XMLID_4_)"/>
<linearGradient id="XMLID_5_" y2="14.23" gradientUnits="userSpaceOnUse" x2="126.72" y1="85.57" x1="126.72">
<stop stop-color="#FFE614" offset="0.0281"/>
<stop stop-color="#FFE648" offset="0.1011"/>
<stop stop-color="#FEE66B" offset="0.1573"/>
<stop stop-color="#FFEB70" offset="0.5067"/>
<stop stop-color="#FFF076" offset="0.6798"/>
<stop stop-color="#FFF785" offset="1"/>
</linearGradient>
<path fill="url(#XMLID_5_)" clip-rule="evenodd" d="M126.72,89.541c20.648,0,43.102-3.968,62.34-9.355,5.815-1.628,24.884-7.439,26.166-16.931,1.348-9.967-11.03-28.218-30.334-38.574-17.148-9.199-37.02-14.399-58.172-14.399h0.001c-21.152,0-41.022,5.2-58.171,14.399-19.313,10.356-31.691,28.608-30.344,38.574,1.282,9.491,20.351,15.302,26.166,16.931,19.239,5.387,41.689,9.355,62.339,9.355z" fill-rule="evenodd"/>
<path d="M204.87,34.275v184.88l-0.014,0.007c-10.959,9.271-23.588,16.631-37.373,21.561l-0.013,0.005v-53.622l0.021-0.018c19.351-13.096,32.069-35.25,32.069-60.373,0-25.122-12.717-47.273-32.064-60.369l-0.026-0.018v-53.632l0.03,0.008c13.77,4.926,26.387,12.277,37.336,21.537l0.02,0.019z"/>
<path d="M48.599,219.18c10.953,9.265,23.575,16.617,37.351,21.545l0.018,0.007v-53.626l-0.021-0.014c-19.351-13.096-32.071-35.249-32.071-60.373,0-25.123,12.718-47.275,32.068-60.371l0.023-0.016v-53.622l-0.022,0.005c-13.782,4.93-26.409,12.288-37.366,21.559h-0.011v184.88l0.031,0.02z"/>
<path d="M145.42,56.297v-49.19l-0.019,0.002c-6.089-0.943-12.328-1.433-18.681-1.433-6.352,0-12.589,0.489-18.676,1.432l-0.023,0.007v49.181l0.022-0.004c5.96-1.577,12.221-2.417,18.677-2.417,6.457,0,12.717,0.84,18.678,2.417l0.02,0.005z"/>
<path d="M81.939,78.533l6.284-4.933c2.397-1.881,3.947-0.73,4.641,0.154,0.827,1.054,0.935,2.064,0.23,3.185l0.019,0.024c1.152-0.65,2.337,0.534,3.002,1.382,0.333,0.423,1.167,1.412,1.921,1.524l-2.567,2.015c-0.532-0.229-0.819-0.57-1.532-1.479-0.95-1.21-1.708-1.105-2.435-0.535l-2.918,2.291,2.49,3.172-2.349,1.844-6.786-8.644zm5.352,1.983l3.111-2.442c0.521-0.409,0.898-1.175,0.261-1.986-0.675-0.859-1.524-0.545-2.093-0.099l-2.991,2.348,1.712,2.179z"/>
<path d="M100.79,66.165c5.432-2.329,7.664,0.533,8.567,2.641s1.438,5.697-3.995,8.026-7.664-0.533-8.567-2.641-1.437-5.697,3.997-8.026zm3.75,8.743c2.49-1.067,2.579-3.283,1.906-4.853s-2.339-3.033-4.829-1.966-2.579,3.282-1.905,4.853c0.665,1.57,2.335,3.033,4.825,1.966z"/>
<path d="M112.49,62.444l6.794-0.864c3.741-0.476,5.635,1.486,6.053,4.769,0.417,3.283-0.986,5.665-4.406,6.1l-7.054,0.897-1.38-10.902zm4.09,8.449l3.298-0.419c1.954-0.249,2.69-1.537,2.397-3.843-0.256-2.015-1.271-3.159-3.531-2.871l-3.023,0.385,0.85,6.748z"/>
<path d="M136.33,70.648l-5.01-0.625-1.166,2.135-3.192-0.398,6.157-10.307,3.574,0.446,3.435,11.503-3.192-0.398-0.6-2.356zm-1.71-6.62l-2.25,4.109,3.42,0.427-1.17-4.536z"/>
<path d="M154.67,67.398l2.725,1.223-2.748,6.123c-0.775,1.727-1.963,4.146-5.923,2.369-2.331-1.046-4.222-2.62-2.942-5.471l0.283-0.632,2.725,1.223-0.316,0.702c-0.421,0.941-0.137,1.811,0.775,2.221,1.418,0.636,1.994-0.118,2.522-1.297l2.89-6.461z"/>
<path d="M166.61,79.928c0.742-1.428,0.179-2.846-1.057-3.79-2.252-1.719-4.074-0.321-4.979,0.865-0.907,1.187-1.774,3.313,0.477,5.031,1.149,0.878,2.684,1.178,3.972-0.027l2.581,1.971c-2.236,2.32-5.132,1.775-7.909-0.345-3.18-2.429-4.115-5.313-1.641-8.554s5.504-3.099,8.684-0.67c2.104,1.607,4.373,4.19,2.43,7.471l-2.55-1.952z"/>
<path d="M87.603,166.48l1.853,1.551-2.925,3.493,6.217-0.736,2.313,1.938-6.079,0.57-0.659,8.122-2.324-1.947,0.635-5.913-1.961,0.186-2.273,2.713-1.853-1.551,7.056-8.42z"/>
<path d="M96.513,173.57l7.2,3.963-0.98,1.78-5.083-2.798-1.135,2.063,4.665,2.568-0.906,1.646-4.665-2.569-1.299,2.359,5.191,2.859-0.98,1.779-7.308-4.023,5.304-9.63z"/>
<path d="M105.59,178.36l5.648,1.793c1.877,0.596,2.651,2.279,2.148,3.863-0.391,1.232-1.184,1.998-2.492,2.1l-0.009,0.029c1.037,0.652,1.01,1.855,0.748,2.934-0.166,0.676-0.572,1.902-0.347,2.619l-2.304-0.73c-0.068-0.749,0.282-1.752,0.43-2.625,0.188-1.152-0.083-1.771-1.243-2.139l-2.303-0.732-1.3,4.094-2.303-0.732,3.31-10.47zm0.79,5.47l2.523,0.801c1.027,0.327,1.724,0.064,2.06-0.992,0.322-1.013-0.096-1.63-1.123-1.955l-2.523-0.803-0.94,2.95z"/>
<path d="M116.48,181.57l2.404,0.247-0.466,4.532,4.738-4.094,3.001,0.31-4.715,3.878,4.005,7.096-3.017-0.31-2.786-5.253-1.521,1.251-0.362,3.522-2.404-0.248,1.13-10.94z"/>
<path d="M127.82,182.49l5.896-0.586c1.961-0.195,3.337,1.045,3.502,2.699,0.127,1.287-0.299,2.303-1.459,2.914l0.003,0.03c1.209,0.189,1.66,1.305,1.847,2.399,0.114,0.685,0.227,1.973,0.717,2.543l-2.405,0.238c-0.359-0.66-0.434-1.72-0.644-2.58-0.282-1.133-0.776-1.594-1.986-1.474l-2.404,0.239,0.424,4.273-2.404,0.238-1.09-10.93zm2.9,4.71l2.634-0.261c1.072-0.107,1.608-0.625,1.499-1.728-0.105-1.057-0.732-1.458-1.805-1.353l-2.635,0.262,0.32,3.08z"/>
<path d="M141.97,180.22l2.368-0.73,7.164,9.291-2.397,0.74-1.515-2.094-3.928,1.21-0.103,2.593-2.339,0.721,0.76-11.73zm1.76,6.51l2.722-0.838-2.512-3.446-0.029,0.009-0.18,4.28z"/>
<path d="M149.36,177.73l4.155-2.28c2.496-1.37,5.231-0.835,6.986,2.363,1.533,2.793,1.243,5.655-1.697,7.271l-4.156,2.281-5.29-9.63zm6.43,6.69l1.889-1.036c1.229-0.674,1.987-2.074,0.817-4.207-1.067-1.942-2.423-2.813-4.528-1.658l-1.511,0.83,3.33,6.08z"/>
<path d="M159.44,171.85l6.296-5.284,1.306,1.556-4.444,3.731,1.514,1.803,4.078-3.424,1.208,1.439-4.079,3.424,1.732,2.063,4.539-3.81,1.306,1.556-6.39,5.363-7.08-8.42z"/>
<path d="M178.9,130.35c-0.039,7.177-1.13,12.23-3.98,15.482-2.903,3.398-7.549,5.013-14.518,5.013-17.754,0-19.662-11.215-19.662-24.215,0-12.914,1.908-24.13,19.662-24.13,14.426,0,18.362,5.413,18.496,18.654l0.002,0.043h-14.09v-1.833c0-4.559-1.01-6.5-4.34-6.5-3.634,0-4.441,1.942-4.441,13.339,0,11.229,0.304,13.423,4.341,13.423,3.694,0,4.673-2.037,4.74-9.279h13.683l0.11,0.02z"/>
<path d="M80.768,168.8c-10.157-11.086-16.355-25.859-16.355-42.08,0-16.033,6.056-30.653,16.006-41.695l2.703,3.6c-8.903,10.181-14.297,23.508-14.297,38.095,0,15.051,5.743,28.76,15.157,39.057l-3.214,3.02z"/>
<path d="M172.67,168.8c10.157-11.086,16.355-25.859,16.355-42.08,0-16.033-6.056-30.653-16.006-41.695l-2.702,3.6c8.902,10.181,14.297,23.508,14.297,38.095,0,15.051-5.743,28.76-15.157,39.057l3.22,3.02z"/>
<path stroke="#C66597" stroke-width="0.2" d="M94.963,150.4" fill="none"/>
<path d="M79.225,104.96v42.476l15.285-0.061v-16.849c0.018-4.532,3.83-8.808,8.619-9.919,3.357-0.779,8.379-0.171,8.379-0.171v-16.931c-5.307,0-10.479,1.076-15.207,6.433-0.385,0.437-0.755,0.912-1.144,1.4-0.228,0.286-0.651,0.256-0.648-0.222v-6.709h-15.35v42.968"/>
<path d="M110.64,150.42c0.651,4.916,2.358,6.441,4.894,6.441,3.603,0,4.749-2.664,4.749-16.288v-39.634l-7.244,0.467v-14.557l23.967-3.146v57.385c0,15.773-2.087,29.383-21.511,29.383-7.625,0-12.708-1.959-15.885-6.083-2.509-3.177-3.773-7.769-4.193-13.979l-0.002-0.052h15.215v0.06z"/>
<path d="M108.06,246.33c6.084,0.941,12.318,1.43,18.666,1.43,6.351,0,12.587-0.488,18.674-1.432l0.025-0.004v-49.18h-0.027c-5.959,1.576-12.218,2.416-18.672,2.416-6.458,0-12.721-0.84-18.684-2.418l-0.015-0.007v49.188h0.04z"/>
<path d="M226.93,194.64v-135.84l0.026,0.04c13.137,19.359,20.811,42.724,20.811,67.881,0,25.162-7.678,48.531-20.817,67.893l-0.02,0.03z"/>
<path d="M26.514,194.64v-135.84l-0.027,0.04c-13.135,19.359-20.81,42.721-20.81,67.881s7.676,48.527,20.814,67.887l0.023,0.03z"/>
<linearGradient id="XMLID_6_" y2="81.286" gradientUnits="userSpaceOnUse" x2="126.72" y1="9.9902" x1="126.72">
<stop stop-color="#948C86" offset="0"/>
<stop stop-color="#928A84" offset="0.1529"/>
<stop stop-color="#8D857F" offset="0.2795"/>
<stop stop-color="#847D77" offset="0.3962"/>
<stop stop-color="#78726C" offset="0.5"/>
<stop stop-color="#000" offset="0.9944"/>
</linearGradient>
<path fill="url(#XMLID_6_)" clip-rule="evenodd" d="M48.568,74.085v-33.517l0.004-0.063c5.141-5.864,11.962-11.525,19.977-15.824,5.538-2.971,11.36-5.524,17.418-7.621v0.027,49.246l-0.023,0.016c-6.21,4.203-11.737,9.338-16.379,15.206l-0.019,0.022c-1.745-0.452-3.467-0.916-5.166-1.392-3.084-0.864-9.896-2.904-15.806-6.046l-0.006-0.054zm59.452-62.377v44.589l0.021-0.004c5.96-1.577,12.221-2.417,18.677-2.417,6.457,0,12.718,0.84,18.679,2.417l0.021,0.004v-44.604l0.001-0.031c-6.091-0.908-12.339-1.379-18.702-1.379h0.001c-6.362,0-12.608,0.471-18.698,1.379v0.046zm59.45,5.412v49.214l0.026,0.018c6.21,4.204,11.737,9.34,16.38,15.208l0.012,0.018c1.746-0.452,3.47-0.917,5.168-1.392,3.086-0.864,9.904-2.906,15.815-6.05l-0.003-0.05v-33.542l0.003-0.03c-5.142-5.867-11.965-11.531-19.983-15.833-5.539-2.971-11.362-5.525-17.421-7.622l-0.01,0.061z" fill-rule="evenodd"/>
</svg>