<?xml version="1.0" encoding="UTF-8"?>
<!-- Generator: Adobe Illustrator 21.0.0, SVG Export Plug-In . SVG Version: 6.00 Build 0)  -->
<svg version="1.1" id="FCV_x5F_logo_x5F_pms" xmlns="http://www.w3.org/2000/svg" xmlns:xlink="http://www.w3.org/1999/xlink" x="0px" y="0px" viewBox="0 0 459 498.9" style="enable-background:new 0 0 459 498.9;" xml:space="preserve">
<style type="text/css">
	.st0{fill:#EE7203;}
	.st1{fill:#FFFFFF;}
</style>
<path class="st0" d="M229.5,498.9l-14-20.2c-3-4.4-12.8-13.4-44-24.5c-21-7.5-43.7-13.1-57.2-16.5c-3.1-0.8-5.7-1.4-7.9-2  C83,429.8,59.6,415.6,42,397c-22.7-24.1-34.7-54.5-34.7-87.8c0-28,6.9-51.1,13.6-73.4c5.4-18,10.4-35,10.4-51.7  c0-46.4-20.9-75-21.1-75.3L0,95.5l11.3-12.4L87.5,0l10.8,4.9c43.1,19.6,100.4,21.8,123,21.8c2.8,0,8.1,0.1,8.1,0.1s5.3-0.1,8.1-0.1  c22.6,0,79.9-2.1,123-21.8L371.4,0L459,95.6l-10.3,13.3c-0.9,1.2-21.1,29.5-21.1,75.2c0,16.7,5.1,33.7,10.4,51.7  c6.7,22.4,13.6,45.5,13.6,73.4c0,33.3-12,63.7-34.7,87.8c-17.5,18.6-41,32.8-64.4,38.8c-2.2,0.6-4.8,1.2-7.8,2  c-13.6,3.4-36.3,9-57.3,16.5c-31.2,11.2-40.9,20.2-44,24.5L229.5,498.9z"/>
<g>
	<path class="st1" d="M95.5,406.4c5.5,2.6,11.2,4.6,16.8,6.1c0,0,7.8,2,7.8,1.9c14,3.5,37.4,9.2,59.5,17.2   c23.7,8.5,40,17.3,49.8,26.9c9.8-9.6,26.2-18.5,49.9-26.9c22.2-7.9,45.6-13.7,59.6-17.2l6.5-1.6c0.4-0.1,0.8-0.2,1.2-0.2   c0,0-0.1,0-0.1,0c19.1-4.9,38.3-16.6,52.8-32c18.4-19.6,28.1-44.2,28.1-71.3c0-24.5-6.1-44.9-12.6-66.6   c-5.6-18.9-11.4-38.3-11.4-58.5c0-46.9,18.4-78.4,24.2-87.1c0,0,0,0,0,0L95.5,406.4z M395.5,184.1c0,21.4,6,41.4,11.8,60.8   c6.3,21.1,12.2,41,12.2,64.3c0,25-9,47.8-26,65.8c-13.3,14.1-31.6,25.2-49,29.7c0,0-7.6,1.9-7.6,1.9c-14.1,3.5-37.8,9.3-60.4,17.4   c-21,7.5-36.4,15.2-47.2,23.7c-10.7-8.5-26.2-16.2-47.2-23.7c-22.5-8.1-46.2-13.9-60.3-17.4c0,0-7.7-1.9-7.7-1.9   c-1.3-0.3-2.7-0.7-4.1-1.2l293.5-273.4C399.1,144.8,395.5,163,395.5,184.1z"/>
	<path class="st1" d="M365.4,28.9c-46.7,19.5-104.6,21.8-127.7,21.8c0,0-8.2,0.1-8.3,0.1l-8-0.1h0c-23.2,0-81.1-2.2-127.8-21.8   C88.6,34.3,31.5,96.6,31.2,97c5.9,9.1,24.2,40.9,24.2,87.1c0,20.2-5.6,38.8-11.4,58.5c-6.5,21.7-12.6,42.1-12.6,66.6   c0,9.5,1.2,18.8,3.6,27.6L365.4,28.9C365.4,28.9,365.4,28.9,365.4,28.9z M40.1,321.1c-0.5-3.9-0.7-7.8-0.7-11.8   c0-23.3,5.9-43.2,12.2-64.3c5.8-19.4,11.8-39.5,11.8-60.8c0-42-14.2-72.3-22.2-86.2c11.8-12.9,37.7-41.2,54.5-59.5   c47,18.1,102.7,20.2,125.7,20.2l8,0.1l0.6,0l7.7-0.1c18.2,0,57.1-1.3,95.9-10.9L40.1,321.1z"/>
</g>
<path d="M415.5,184.1c0-48.7,21-79,23.4-82.3l0.1-0.1c0.1-0.1,4.3-5.5,4.3-5.5l-3.4-3.7l-71.5-77.9l-3.9,1.8  c-45.2,20.2-103.8,22.4-126.9,22.4c-0.1,0-8.2,0.1-8.2,0.1c0,0-7.9-0.1-7.9-0.1c-23.2,0-81.8-2.2-127-22.4l-3.9-1.8L20.2,91.2  c0,0-4.5,5-4.5,5l4.2,5.4c0.2,0.3,23.6,32.2,23.6,82.5c0,18.4-5.3,36.3-10.9,55.1c-6.7,22.5-13.1,43.8-13.1,70  c0,30.2,10.9,57.7,31.4,79.5c16,17,37.4,29.9,58.6,35.4c0,0,7.8,2,7.8,2c13.8,3.4,36.8,9.1,58.4,16.8c25.4,9.1,41.9,18.5,49.1,28.2  l4.8,6.4l4.8-6.4c7.2-9.6,23.7-19.1,49.1-28.2c21.6-7.7,44.7-13.4,58.5-16.8c0,0,7.7-1.9,7.7-1.9c21.3-5.5,42.6-18.4,58.6-35.4  c20.5-21.8,31.4-49.3,31.4-79.5c0-26.2-6.3-47.5-13.1-70C421.1,221.2,415.5,202.5,415.5,184.1z M43.9,242.6  c5.9-19.7,11.4-38.4,11.4-58.5c0-46.2-18.3-78-24.2-87.1c0.3-0.3,57.5-62.7,62.4-68.1c46.7,19.5,104.6,21.8,127.8,21.8h0l8,0.1  c0.1,0,8.3-0.1,8.3-0.1c23.2,0,81-2.2,127.7-21.8c0,0,0,0,0,0L35,336.8c-2.4-8.8-3.6-18-3.6-27.6C31.4,284.8,37.5,264.3,43.9,242.6z   M399.4,380.5c-14.5,15.4-33.8,27.1-52.8,32c0,0,0.1,0,0.1,0c-0.4,0.1-0.8,0.1-1.2,0.2l-6.5,1.6c-14,3.5-37.4,9.2-59.6,17.2  c-23.7,8.5-40,17.3-49.9,26.9c-9.8-9.6-26.2-18.5-49.8-26.9c-22.1-7.9-45.5-13.7-59.5-17.2c0.1,0-7.8-1.9-7.8-1.9  c-5.6-1.4-11.3-3.5-16.8-6.1L427.7,96.9c0,0,0,0,0,0c-5.8,8.8-24.2,40.2-24.2,87.1c0,20.2,5.8,39.7,11.4,58.5  c6.5,21.7,12.6,42.1,12.6,66.6C427.5,336.3,417.8,361,399.4,380.5z"/>
<g>
	<path class="st1" d="M48.5,349.3l22.8-21.2l6.3,6.7L63,348.4l8.9,9.6l13.7-12.8l6.3,6.7l-13.7,12.8l16.5,17.7l-8.2,7.7L48.5,349.3z   "/>
	<path class="st1" d="M105.9,321.6c-5.5-5.9-9.1-7.4-12.8-3.9c-4.2,3.9-1.3,9,9.5,20.5c11.5,12.3,15.3,13,18.8,9.7   c3-2.8,3.7-6.3-4.5-15.1l8.2-7.7c8.2,8.8,13.1,18.4,2.3,28.4c-12.3,11.5-22.1,4.1-33.6-8.3c-11.5-12.4-18.2-22.6-5.9-34.1   c11.8-11,20.6-3.1,26.2,2.8L105.9,321.6z"/>
	<path class="st1" d="M127.4,275.8l33.8,24.8l0.2-0.2l-22-35.8l8.5-7.9l28.6,49.5L166,316l-47.3-32L127.4,275.8z"/>
	<path class="st1" d="M163.9,240.3c12.3-11.5,22.1-4.1,33.6,8.3c11.5,12.4,18.2,22.6,5.9,34.1c-12.3,11.5-22.1,4.1-33.6-8.3   C158.2,262,151.6,251.8,163.9,240.3z M197.7,276.6c4.9-4.5,1.8-9.4-8.4-20.4c-10.2-10.9-14.9-14.4-19.7-9.9   c-4.9,4.5-1.7,9.5,8.4,20.4C188.2,277.7,192.9,281.1,197.7,276.6z"/>
	<path class="st1" d="M222,263.8l-38-40.7l8.2-7.7l31.7,34l14.6-13.6l6.3,6.7L222,263.8z"/>
	<path class="st1" d="M233.9,176.6l6.3,6.7l-14.6,13.6l8.9,9.6l13.7-12.8l6.3,6.7l-13.7,12.8l10.2,11l15.1-14.1l6.3,6.7l-23.3,21.7   l-38-40.7L233.9,176.6z"/>
	<path class="st1" d="M248.8,162.7l35.9,18.7l0.1-0.1l-26-27.9l7.5-7l38,40.7l-9.4,8.7l-36.6-19.2l-0.1,0.1l26.6,28.5l-7.5,7   l-38-40.7L248.8,162.7z"/>
	<path class="st1" d="M273.1,140.1l13.5-12.5c11.4-10.6,20.8-4.7,31.9,7.3c13.5,14.4,16.4,23.8,5.5,34l-13,12.1L273.1,140.1z    M313.7,167.1l3.7-3.4c5.7-5.3,3.5-10-6.8-21c-8.6-9.2-13.8-13.3-20-7.4l-3.5,3.2L313.7,167.1z"/>
	<path class="st1" d="M312.2,103.7l10.2-9.5l48.7,30.7l-8.6,8l-9.9-6.9l-10.8,10.1l6.1,10.4l-8.6,8L312.2,103.7z M336.9,128.1l8-7.4   l-21-14.7l-0.1,0.1L336.9,128.1z"/>
	<path class="st1" d="M336.8,80.7l12.2-11.4l32.6,23.3l0.1-0.1l-20.9-34.2L373,47l38,40.7l-7.5,7l-30.3-32.5l-0.1,0.1l23.1,39.3   l-6.4,6l-37.6-25.8l-0.1,0.1l30.3,32.5l-7.5,7L336.8,80.7z"/>
</g>
<g>
	<path class="st1" d="M334.9,260.8l15.1,1.3c1.2,5.4,6.5,24,24.1,45.1l-39.2,9.2V260.8z"/>
	<path class="st1" d="M292.9,311.7c25.9-23.7,34-41.6,37.9-57.1v71.1L292.9,311.7z"/>
	<polygon points="342.7,295.3 339.6,295.3 343.2,285.8 338.3,285.8 338.3,283.3 346.3,283.3 346.2,285.9  "/>
	<polygon points="351.8,295.3 348.7,295.3 352.3,285.8 347.4,285.8 347.4,283.3 355.4,283.3 355.3,285.9  "/>
	<path d="M292.9,311.7c25.9-23.7,34-41.6,37.9-57.1v71.1L292.9,311.7z M334.9,260.8l15.1,1.3c1.2,5.4,6.5,24,24.1,45.1l-39.2,9.2   V260.8z M334.9,334v-10.7v-2.7l46.7-10.9l-2.2-2.6c-21.5-24.7-25.6-47-25.6-47.3l-0.3-1.5l-18.5-1.7v-19.2   c5.2,1.8,17.2,6.5,27.9,13.9l2.3-3.4c-14.5-10.1-31-15.1-31.6-15.3l-2.1-0.6l-0.5,2.2c-0.5,2.4-0.9,4.7-1.4,7.1   c-3.5,18.2-7.4,38.9-41.8,69.5l-2.5,2.3l45.7,16.8v4.2c-13.8,0.4-26.8,4.5-26.8,12.1c0,16.2,13.1,29.3,29.3,29.3   c16.2,0,29.3-13.1,29.3-29.3C362.7,338.4,349.1,334.3,334.9,334"/>
</g>
<g>
	<path class="st1" d="M125.4,159c-21.6,0-39.2-17.6-39.2-39.2c0-10.5,4.1-20.3,11.5-27.7c7.4-7.4,17.2-11.5,27.7-11.5   c21.6,0,39.2,17.6,39.2,39.2C164.6,141.4,147,159,125.4,159"/>
	<path d="M124.1,91.5l11.2,7.3l12.1-0.2v-5.9l-5.2-4.4c-3.9-2.1-8.1-3.4-12.5-3.9l-4.8,1.3L124.1,91.5z M98.5,96.3L98.4,99l10.1-0.1   l12.4-7.5l0.8-6l-2.2-0.9C111.4,85.9,104,90.1,98.5,96.3 M95.3,126l9.4,0.6l7-12.3l-4-12.3h-9.9l-6.9,12.2L95.3,126z M138.6,127   h11.4l5.5-12.8l-7.5-12.4l-12.5,0.2l-5,12.6L138.6,127z M89.7,119.6v0.1c0,6.3,1.7,12.5,4.8,17.9l-1.6-9.6L89.7,119.6z    M153.6,138.6l1.9,0.5c3.7-5.8,5.7-12.4,5.7-19.3c0-1.6-0.1-3.2-0.3-4.7l-2.5,0.2l-5.8,13.6L153.6,138.6z M113.9,140.5H129   l7.1-11.6l-8-12.5l-13.7-0.4l-7.3,12.5L113.9,140.5z M98.9,143.7c2.7,3,5.9,5.5,9.4,7.4l-1.2-1L98.9,143.7z M139.1,151.2l-2.5,2.5   c6.7-2.2,12.6-6.4,17-12l-1-0.3L139.1,151.2z M116.8,154.5c4.6,1.1,9.4,1.3,14,0.6l5.3-5.5l-6.9-6.1h-15.4l-4.1,4.9L116.8,154.5z    M125.4,159c-21.6,0-39.2-17.6-39.2-39.2c0-10.5,4.1-20.3,11.5-27.7c7.4-7.4,17.2-11.5,27.7-11.5c21.6,0,39.2,17.6,39.2,39.2   C164.6,141.4,147,159,125.4,159"/>
</g>
</svg>