<?xml version="1.0" encoding="utf-8"?>
<!-- Generator: Adobe Illustrator 22.0.1, SVG Export Plug-In . SVG Version: 6.00 Build 0)  -->
<svg version="1.1" id="Layer_1" xmlns="http://www.w3.org/2000/svg" xmlns:xlink="http://www.w3.org/1999/xlink" x="0px" y="0px"
	 viewBox="0 0 2500 2500" style="enable-background:new 0 0 2500 2500;" xml:space="preserve">
<style type="text/css">
	.st0{fill:none;}
	.st1{fill:#FFF22D;}
	.st2{fill:#FFFFFF;}
</style>
<g>
	<path class="st0" d="M0,0h2500v2500H0V0z"/>
	<path class="st1" d="M1250,2463.2L1250,2463.2c252.6-191.1,600.8-506.8,845.1-1010.2c134.1-276.2,232.9-612.9,276.6-1011.7h2.9
		c0.9-17.2,1.7-34.6,2.5-52c-785.9,0-1468.2,0-2254.1,0c0.8,17.5,1.6,34.8,2.5,52h2.9c43.7,398.8,142.6,735.5,276.6,1011.7
		C649.2,1956.5,997.4,2272.1,1250,2463.2L1250,2463.2z"/>
	<path d="M1250,1882.4c-131-124.2-246-264.3-342.3-417H471.7c232.1,454.3,548.9,746.4,778.3,920c229.4-173.5,546.2-465.6,778.3-920
		h-435.9C1496,1618.1,1381,1758.1,1250,1882.4L1250,1882.4z M825.5,441.4H1198v972H445.9c-129.2-267.4-228.5-588.6-265.3-972h387
		c34,354,132.5,645.4,258,882.2L825.5,441.4L825.5,441.4z M1674.5,441.4H1302v972h752.1c129.2-267.4,228.5-588.6,265.3-972h-386.9
		c-34,354-132.5,645.4-258,882.2L1674.5,441.4L1674.5,441.4z M328.1,335.9l90-293.1h-84.5l-49.8,179.6L234.1,42.7h-84.6l90,293.1
		H328.1z M606.4,335.9l90-293.1h-84.5l-49.8,179.6L512.4,42.7h-84.6l90,293.1H606.4L606.4,335.9z M884.6,335.9l90-293.1h-84.5
		l-49.8,179.6L790.6,42.7H706l90,293.1H884.6z M1244.3,334l90-293.1h-84.5l-49.8,179.6l-49.7-179.6h-84.6l90,293.1H1244.3
		L1244.3,334z M2215.9,341.4c-18.2,0-35-2.9-50.3-8.8c-15.3-5.8-29.3-14.8-40.9-26.3c-14.5-14-25.4-31-33-51.1
		c-7.5-20-11.3-42.2-11.3-66.5c0-12.8,0.9-24.5,2.6-35.1c1.8-10.6,4.6-21.1,8.6-31.4c7.2-19.3,18.6-36.7,33.3-51
		c11.6-11.6,25.1-20.2,40.4-26c15.3-5.7,32-8.7,50.4-8.7c18.1,0,34.8,2.9,50.2,8.7c15.3,5.7,28.9,14.4,40.9,26
		c14.2,13.8,25.1,30.6,32.6,50.5c7.6,20,11.4,42.3,11.4,66.8c0,24.9-3.6,47.1-10.8,66.7c-7,19.2-18.2,36.6-32.8,50.8
		c-11.7,11.3-25.5,20.1-40.7,26C2251.3,338.4,2234.4,341.4,2215.9,341.4L2215.9,341.4z M2215.5,272.5c14.1,0,24.7-7,31.9-21.1
		c7.2-14.1,10.8-35,10.8-62.6c0-27.5-3.5-48.2-10.6-62.2c-7.1-13.9-17.5-20.9-31.3-20.9c-14.5,0-25.3,6.9-32.5,20.6
		c-7.1,13.8-10.7,34.6-10.7,62.5c0,27.7,3.5,48.6,10.5,62.7C2190.7,265.5,2201.3,272.5,2215.5,272.5L2215.5,272.5z M1882.9,335.9
		V42.7h87.6v225.1H2082v68.1H1882.9L1882.9,335.9z M1598.5,335.9V42.7h86.2l92.2,149.3l0-149.3h75.5v293.1h-73.8l-105.3-171.1v171.1
		H1598.5L1598.5,335.9z M1353,335.9V42.7h215.1V111h-131.6v43.1h108.1v63.5h-108.1v49.7h133.2v68.5L1353,335.9L1353,335.9
		L1353,335.9z M976.6,240.2v-64.4h87.3v64.4H976.6z"/>
	<path class="st2" d="M1250,1175.4c170.6,0,309.7-139.1,309.7-309.7S1420.6,555.9,1250,555.9S940.3,695.1,940.3,865.7
		C940.3,1036.2,1079.4,1175.4,1250,1175.4z"/>
	<path d="M1057.3,1017.3l-27.6-1.9c-24.5-35.5-40-76.4-45-119.2l-4.2-28.9l20-6.7l60.2,75.9L1057.3,1017.3L1057.3,1017.3z
		 M1432,914.4l56.7-59.9l24.3,7.8v19.4c0,51.6-21.2,99-49.7,138.4l-31.2-7.5L1432,914.4z M1306.1,628.9l38.4-11.4
		c48.2,18.8,89.8,51.3,119.8,93.4l-15.8,15.7l-97.9-34.4L1306.1,628.9L1306.1,628.9z M1143.5,701.3l-89.3,30.1l-21.6-21.3
		c31-43.2,74.3-76.2,124.2-94.5l20.4,22.6L1143.5,701.3L1143.5,701.3z M1330.2,1094.3l-3.3,24c-25.5,7.9-52,11.9-78.7,11.9
		c-27.3,0-53.6-4.1-78.4-11.8l-4.6-26.8l84.8-29.9L1330.2,1094.3z M1152.9,894.5l33.9-103.5h115.8l44.3,90.3l-99.5,77L1152.9,894.5
		L1152.9,894.5z"/>
</g>
</svg>
