<?xml version="1.0" standalone="no"?>
<!DOCTYPE svg PUBLIC "-//W3C//DTD SVG 20010904//EN"
 "http://www.w3.org/TR/2001/REC-SVG-20010904/DTD/svg10.dtd">
<svg version="1.0" xmlns="http://www.w3.org/2000/svg"
 width="1280.000000pt" height="640.000000pt" viewBox="0 0 1280.000000 640.000000"
 preserveAspectRatio="xMidYMid meet">
<g transform="translate(0.000000,640.000000) scale(0.100000,-0.100000)"
fill="#607d8b" stroke="none">
<path d="M1585 4960 c-213 -22 -413 -78 -599 -169 -880 -432 -1233 -1471 -801
-2356 241 -495 706 -843 1265 -947 164 -31 446 -31 610 0 213 40 431 121 595
222 236 145 452 359 596 590 187 302 281 691 250 1042 -22 257 -74 442 -187
668 -250 497 -718 841 -1274 934 -120 20 -338 27 -455 16z m305 -127 c0 -5
-20 -33 -43 -63 l-44 -55 -489 -154 -490 -153 -58 19 c-31 10 -58 23 -59 28
-4 22 184 149 318 215 252 123 439 167 718 169 81 1 147 -2 147 -6z m840 -312
c187 -132 377 -362 486 -588 44 -92 124 -313 124 -345 0 -16 -5 -15 -60 5
l-61 22 -304 409 -305 410 0 84 0 84 28 -17 c15 -10 56 -38 92 -64z m-827
-110 c64 -93 117 -175 117 -182 0 -8 -44 -148 -98 -313 l-98 -298 -185 -60
c-101 -32 -191 -60 -200 -60 -9 -1 -129 86 -267 192 l-251 195 -1 212 c0 211
0 212 23 218 23 7 254 80 612 194 121 39 222 70 225 70 3 0 58 -75 123 -168z
m912 -454 c158 -213 262 -363 258 -370 -4 -7 -60 -82 -124 -168 l-117 -156
-114 -6 c-62 -4 -209 -8 -327 -9 l-215 -2 -119 167 -119 167 103 309 103 309
105 33 c59 18 144 45 191 60 47 15 90 27 97 26 7 -1 132 -163 278 -360z
m-2525 -182 l30 -44 -7 -524 -8 -524 -30 -43 -30 -43 -14 34 c-26 65 -72 235
-87 329 -20 116 -22 374 -5 485 25 160 93 391 112 379 5 -3 22 -25 39 -49z
m811 -183 l254 -198 3 -205 2 -205 -241 -169 c-133 -94 -254 -178 -269 -187
-26 -17 -30 -16 -223 48 l-197 66 0 126 c0 70 3 278 7 463 l6 335 191 61 c105
34 196 61 202 62 6 1 125 -88 265 -197z m1840 -614 c62 -89 118 -168 122 -175
6 -9 -75 -131 -254 -383 -144 -204 -265 -372 -269 -375 -4 -2 -95 25 -203 61
l-197 66 -100 305 c-55 168 -100 309 -100 313 0 6 214 305 236 329 2 2 135 7
296 11 161 4 307 7 324 8 28 2 37 -8 145 -160z m-1310 -160 l187 -62 102 -307
c63 -189 99 -312 94 -321 -4 -7 -61 -84 -126 -170 -113 -151 -119 -156 -145
-149 -16 5 -212 69 -438 143 l-410 134 -3 129 c-1 72 1 168 5 215 l8 85 259
182 c143 101 264 183 270 183 6 0 95 -28 197 -62z m1679 -100 c-29 -97 -116
-278 -182 -380 -116 -177 -283 -350 -452 -468 l-71 -50 -3 44 c-3 44 3 53 300
474 l303 430 60 19 c33 11 61 16 63 12 2 -4 -6 -41 -18 -81z m-2334 -789 c104
-33 297 -96 429 -139 132 -43 273 -89 314 -102 60 -19 78 -29 97 -58 21 -31
22 -35 8 -43 -9 -5 -65 -6 -128 -2 -247 15 -475 74 -674 174 -98 49 -244 142
-290 184 l-23 22 33 12 c18 6 36 12 39 12 4 1 92 -26 195 -60z"/>
<path d="M6190 4914 c-360 -52 -680 -196 -927 -416 -272 -242 -475 -594 -555
-961 -19 -87 -22 -134 -23 -312 0 -218 5 -260 52 -450 90 -363 292 -683 578
-912 340 -273 796 -419 1198 -384 466 41 875 234 1157 545 326 361 497 835
460 1283 -35 436 -206 821 -490 1103 -392 390 -935 579 -1450 504z m599 -110
c9 -8 -33 -145 -48 -153 -9 -5 -139 -44 -289 -86 l-273 -78 -92 31 c-97 34
-241 66 -344 78 -35 3 -63 9 -63 12 0 2 9 20 21 38 19 32 23 34 62 28 107 -15
169 -27 259 -51 l97 -26 73 36 c131 64 197 79 353 83 l140 3 14 51 14 50 36
-6 c20 -4 38 -8 40 -10z m124 -34 c32 -1 37 -15 22 -66 -8 -27 -15 -50 -15
-51 0 -1 21 -11 46 -22 126 -56 273 -186 349 -310 23 -37 45 -61 55 -61 27 0
207 -54 290 -88 l75 -30 3 -45 3 -46 -98 40 c-101 42 -234 81 -337 100 l-60
11 -156 161 c-85 89 -179 187 -206 217 l-51 55 20 73 c15 55 23 72 34 68 8 -3
20 -6 26 -6z m-1337 -167 c-29 -55 -186 -240 -287 -339 -100 -96 -295 -252
-304 -242 -5 5 93 155 143 218 105 131 267 275 397 354 33 20 61 36 63 36 1 0
-4 -12 -12 -27z m1402 -242 c111 -115 202 -212 202 -215 0 -11 -293 -408 -305
-412 -6 -3 -130 27 -276 66 -358 96 -339 90 -339 114 -1 12 -14 127 -29 256
-16 129 -27 236 -26 238 3 4 547 160 561 161 6 1 101 -93 212 -208z m-1116
133 c83 -16 237 -60 250 -73 4 -3 22 -127 39 -275 l32 -268 -234 -233 -234
-233 -235 29 c-129 15 -247 28 -261 28 -24 1 -29 9 -57 94 -47 142 -94 412
-74 427 4 3 43 33 87 65 103 77 292 265 380 379 l69 89 78 -7 c43 -4 115 -13
160 -22z m1486 -395 c107 -25 193 -53 293 -95 l107 -45 7 -67 c16 -160 72
-381 144 -563 22 -58 41 -108 41 -113 0 -30 -205 -266 -300 -346 l-46 -38
-238 103 c-130 56 -241 106 -246 111 -4 5 -45 147 -90 317 l-83 307 34 48
c161 225 293 392 310 392 11 0 41 -5 67 -11z m534 -166 c104 -222 168 -479
167 -668 0 -68 0 -69 -15 -42 -60 111 -146 376 -179 548 -18 101 -34 259 -24
259 3 0 26 -44 51 -97z m-2868 -70 c9 -96 41 -241 74 -337 l28 -82 -85 -294
-86 -295 -50 -17 c-84 -28 -84 -28 -99 48 0 4 17 13 39 21 21 7 42 18 46 24 3
6 7 61 7 122 1 136 25 238 82 353 l41 80 -26 96 c-27 100 -55 247 -55 285 0
18 50 62 71 63 3 0 9 -30 13 -67z m1538 -134 c166 -45 304 -82 306 -84 5 -5
162 -600 162 -615 0 -8 -101 -116 -224 -239 l-223 -223 -114 31 c-309 85 -485
131 -496 131 -7 0 -17 19 -24 43 -6 23 -44 164 -84 312 l-73 270 226 228 c125
125 230 227 233 227 4 0 144 -36 311 -81z m-1089 -368 c131 -16 239 -30 241
-32 2 -2 38 -134 81 -294 43 -159 80 -295 82 -301 2 -6 -91 -82 -207 -168
l-211 -157 -209 202 c-116 112 -210 210 -210 218 0 9 34 139 77 289 69 243 79
272 97 272 12 0 128 -13 259 -29z m2546 -267 l22 -36 -43 -57 c-24 -31 -85
-100 -137 -153 l-94 -97 -3 -79 c-7 -137 -48 -262 -136 -414 l-33 -57 33 -34
c36 -37 35 -55 -3 -87 -14 -12 -23 -7 -67 37 l-51 51 74 294 73 293 106 105
c58 58 134 142 169 188 35 45 65 82 67 82 1 0 12 -16 23 -36z m-692 -231 c126
-53 231 -99 235 -102 8 -7 -129 -561 -142 -574 -4 -5 -133 -40 -286 -79 -223
-55 -281 -67 -287 -56 -5 7 -53 114 -107 238 l-98 225 221 223 c122 122 225
222 229 222 5 0 110 -43 235 -97z m-2127 -315 c129 -124 230 -229 230 -239 0
-39 62 -256 99 -345 l39 -95 -46 3 -47 3 -37 96 c-20 53 -48 138 -62 190 l-24
94 -68 45 c-95 62 -190 160 -249 255 -79 130 -81 131 -156 109 -11 -3 -19 6
-27 33 -6 20 -10 38 -9 39 2 3 108 32 120 33 4 1 111 -99 237 -221z m1045 27
c160 -42 297 -78 307 -81 9 -3 21 -17 26 -32 6 -15 53 -126 106 -247 l96 -219
-107 -106 c-60 -59 -143 -133 -187 -165 l-78 -59 -47 18 c-247 94 -396 136
-582 163 l-118 17 -32 71 c-69 155 -135 394 -113 414 43 40 418 309 427 306 7
-2 143 -38 302 -80z m1265 -520 l44 -45 -24 -25 c-29 -31 -41 -31 -70 0 -13
14 -33 25 -45 25 -11 0 -63 -22 -115 -49 -126 -65 -214 -91 -330 -98 l-95 -6
-100 -96 c-55 -53 -125 -116 -157 -139 l-56 -43 -34 20 c-18 12 -33 22 -33 24
0 2 36 32 80 67 44 34 124 108 177 162 l98 100 287 74 c159 40 297 73 308 74
12 0 40 -20 65 -45z m-1636 -309 c76 -14 199 -46 272 -70 131 -44 284 -109
284 -121 0 -9 -172 4 -275 21 -92 15 -187 40 -285 75 -70 25 -270 121 -270
129 0 9 118 -5 274 -34z"/>
<path d="M5615 4378 c-75 -95 -238 -260 -349 -351 l-98 -82 6 -63 c6 -59 35
-213 41 -220 1 -2 31 7 66 18 131 44 281 23 421 -60 l70 -42 129 128 128 128
-20 31 c-105 159 -132 317 -81 468 17 50 17 57 3 62 -20 8 -148 31 -217 40
l-50 6 -49 -63z"/>
<path d="M7383 3939 c-6 -33 -24 -86 -39 -117 -36 -76 -140 -178 -226 -222
-61 -32 -67 -37 -61 -60 4 -14 25 -92 47 -175 l41 -150 70 3 c153 7 291 -44
394 -147 l65 -64 39 44 c40 46 118 145 131 166 4 7 -9 52 -28 100 -51 128
-101 309 -126 458 -12 72 -23 130 -23 131 -30 18 -245 94 -267 94 -3 0 -11
-27 -17 -61z"/>
<path d="M6069 3528 l-124 -133 51 -101 c66 -132 95 -246 102 -396 4 -97 7
-118 21 -122 9 -3 84 -23 166 -46 83 -22 156 -43 163 -45 7 -3 24 20 42 54 37
74 131 192 201 254 47 42 187 141 210 149 5 2 -13 84 -40 183 l-48 180 -31 -3
c-56 -6 -217 17 -308 43 -49 15 -129 46 -177 71 -49 24 -92 44 -96 44 -5 0
-64 -60 -132 -132z"/>
<path d="M6006 2485 c-66 -128 -193 -228 -325 -259 -35 -8 -65 -17 -68 -20 -7
-7 69 -226 91 -263 1 0 59 -11 131 -23 143 -24 323 -73 458 -126 l89 -34 31
22 c18 12 69 53 114 91 l82 69 -58 54 c-63 58 -120 154 -140 237 -6 27 -12 86
-12 133 0 46 -2 84 -4 84 -2 0 -79 20 -172 45 -92 25 -172 45 -178 45 -5 0
-23 -25 -39 -55z"/>
<path d="M10915 4904 c-142 -19 -195 -29 -293 -55 -175 -46 -325 -108 -472
-197 -457 -276 -772 -789 -822 -1339 -27 -297 42 -635 188 -927 101 -202 189
-321 344 -469 124 -118 269 -217 444 -302 369 -181 726 -225 1115 -139 348 78
626 227 861 463 257 258 429 588 498 956 25 138 22 415 -6 567 -60 317 -212
638 -409 860 -248 280 -632 496 -1000 564 -83 15 -381 27 -448 18z m340 -123
l30 -7 -38 -7 c-38 -8 -57 -3 -57 14 0 10 20 10 65 0z m-280 -12 c22 -6 59
-22 82 -35 l43 -25 -34 -47 c-18 -26 -41 -62 -50 -79 -15 -29 -21 -33 -59 -33
-64 0 -211 -28 -296 -57 -102 -34 -255 -113 -352 -183 l-80 -57 -52 18 c-29
10 -85 21 -126 25 l-73 7 5 41 c7 48 46 87 172 171 150 99 342 182 532 229
148 37 220 43 288 25z m1053 -301 c108 -77 269 -238 345 -345 32 -45 82 -128
112 -185 52 -100 130 -296 122 -304 -13 -13 -38 17 -86 102 -75 134 -184 276
-327 423 -88 92 -130 144 -154 191 -18 36 -50 91 -72 123 -21 31 -36 57 -32
57 3 0 45 -28 92 -62z m-897 -59 c65 -33 149 -88 235 -155 l81 -63 7 -68 c8
-84 -6 -248 -33 -379 -27 -133 -77 -305 -93 -320 -7 -6 -69 -33 -138 -59 -69
-26 -183 -74 -255 -107 -71 -33 -142 -65 -156 -71 -25 -10 -39 -1 -224 144
-108 85 -240 188 -294 229 l-96 76 -3 49 c-4 62 13 193 40 310 19 82 24 94 65
133 56 55 204 152 297 197 150 71 279 103 429 104 80 1 105 -3 138 -20z m985
-341 c130 -134 209 -234 281 -355 75 -126 113 -218 113 -271 0 -106 -66 -378
-93 -387 -32 -9 -533 -125 -542 -125 -5 0 -23 21 -40 47 -67 107 -213 271
-332 375 l-52 45 25 84 c64 216 94 387 97 554 l2 100 50 13 c73 19 230 40 306
41 l66 1 119 -122z m-2557 -689 c17 -43 18 -59 9 -117 -6 -38 -8 -137 -5 -232
6 -173 24 -288 72 -440 25 -76 25 -80 8 -114 -9 -20 -20 -36 -23 -36 -11 0
-85 192 -114 295 -48 164 -60 256 -60 450 0 175 10 261 45 390 l12 40 19 -93
c10 -51 27 -116 37 -143z m827 -64 l298 -234 2 -208 c1 -188 16 -333 39 -394
9 -23 -277 -188 -474 -274 -96 -42 -91 -43 -201 30 -118 79 -220 172 -241 223
-34 79 -77 216 -101 324 -20 88 -23 131 -23 293 0 105 3 202 7 217 14 47 194
176 324 232 33 14 62 25 65 26 3 0 141 -106 305 -235z m2120 -530 c16 -49 28
-115 31 -170 5 -87 4 -93 -27 -155 -120 -241 -321 -484 -444 -540 -101 -46
-227 -81 -306 -87 l-75 -6 -82 214 c-46 118 -83 219 -83 225 0 6 22 36 49 67
111 127 206 264 267 387 l43 85 278 66 278 67 23 -37 c12 -20 34 -72 48 -116z
m-1604 -451 c167 -67 323 -104 435 -104 75 0 61 21 164 -249 l73 -194 -40 -34
c-48 -42 -252 -143 -358 -177 -54 -18 -100 -26 -149 -26 -66 0 -77 4 -192 61
-67 33 -201 91 -296 128 -197 76 -196 75 -248 210 -52 134 -57 119 64 175 119
55 313 161 390 213 27 18 54 33 59 33 5 0 49 -16 98 -36z"/>
</g>
</svg>
