<?xml version="1.0" encoding="utf-8"?>
<!-- Generator: Adobe Illustrator 22.0.1, SVG Export Plug-In . SVG Version: 6.00 Build 0)  -->
<svg version="1.1" id="Layer_1" xmlns="http://www.w3.org/2000/svg" xmlns:xlink="http://www.w3.org/1999/xlink" x="0px" y="0px"
	 viewBox="0 0 1088 1280" style="enable-background:new 0 0 1088 1280;" xml:space="preserve">
<style type="text/css">
	.st0{fill:#2CC3FF;}
	.st1{fill:#E9E9E9;}
</style>
<g transform="translate(0.000000,1280.000000) scale(0.100000,-0.100000)">
	<path class="st0" d="M6940,12794c-861-76-1778-448-2789-1131c-433-293-754-560-1210-1008c-944-928-1775-2043-2291-3075
		C278,6838,109,6266,18,5440c-19-176-16-674,5-835c95-712,357-1236,950-1901c581-652,1314-1181,2312-1670c619-304,1366-592,1935-748
		C6361-26,7526-84,8410,126c644,153,1152,444,1494,854c529,634,858,1747,958,3240c17,252,17,1235,0,1535c-49,853-134,1541-282,2285
		c-142,706-347,1435-550,1953l-46,118l-69-88c-527-665-1444-1118-2459-1213c-105-9-125-17-126-47c0-20-140-442-205-618
		c-184-498-491-1207-726-1677c-33-65-59-122-59-126c0-5,50-23,112-41c220-64,525-186,733-295c792-413,1225-1021,1355-1900
		c69-466,79-1217,24-1806c-21-231-60-503-88-613c-94-368-278-602-513-652c-88-19-136-19-231,1c-277,57-422,293-422,687
		c0,158,9,231,56,464c47,231,89,527,109,763c22,247,16,707-9,870c-39,243-107,434-200,563c-238,330-783,569-1515,662
		c-68,9-127,13-132,8c-4-4-54-82-110-173c-388-630-811-1163-1157-1458c-316-269-587-374-883-342c-517,56-1241,432-1685,874
		c-157,157-220,264-243,408c-28,170,59,347,204,418c43,22,64,25,150,25c169-1,176-5,695-405c357-275,425-322,510-348
		c72-22,199-21,265,2c81,29,182,103,244,178c344,422,818,1285,1115,2035c267,672,541,1564,711,2313c14,63,28,124,32,134
		c5,17,1,18-48,12c-589-73-1075-273-1397-572c-43-40-97-96-119-126c-154-199-292-624-348-1068c-20-158-38-229-76-307
		c-96-199-328-306-549-254c-82,20-185,77-232,130c-80,90-128,232-128,381c0,41,9,129,20,195c126,744,478,1294,1115,1740
		c235,164,385,243,606,318c459,156,1220,272,2079,317c884,46,1232,79,1646,155c316,59,499,121,729,248c361,199,709,525,897,839
		l40,68l-77,147c-477,910-1112,1511-1866,1763c-207,70-334,91-569,95C7077,12796,6965,12796,6940,12794z M6944,11050
		c113-29,190-73,276-160c126-125,180-258,180-442c0-318-212-601-527-704c-78-26-102-29-213-28c-109,0-135,3-203,27
		c-203,71-350,229-402,432c-22,85-19,235,5,330c67,260,282,477,542,545C6702,11076,6843,11076,6944,11050z M6308,2804
		c305-89,522-340,593-689c17-85,15-304-5-395c-34-156-90-293-168-410c-339-508-982-611-1368-219c-234,237-318,619-214,975
		c117,407,448,709,834,765C6068,2843,6213,2831,6308,2804z"/>
	<path class="st1" d="M5920,2493c-176-29-370-170-452-328c-79-152-101-338-57-495c63-229,238-402,465-460c331-85,677,126,764,466
		c91,356-117,715-466,804C6102,2499,5988,2504,5920,2493z"/>
</g>
</svg>
