<?xml version="1.0" standalone="no"?>
<!DOCTYPE svg PUBLIC "-//W3C//DTD SVG 20010904//EN"
 "http://www.w3.org/TR/2001/REC-SVG-20010904/DTD/svg10.dtd">
<svg version="1.0" xmlns="http://www.w3.org/2000/svg"
 width="1280.000000pt" height="738.000000pt" viewBox="0 0 1280.000000 738.000000"
 preserveAspectRatio="xMidYMid meet">
<g transform="translate(0.000000,738.000000) scale(0.100000,-0.100000)"
fill="#607d8b" stroke="none">
<path d="M50 3690 l0 -3690 6370 0 6370 0 0 3690 0 3690 -6370 0 -6370 0 0
-3690z m6310 2266 l0 -1313 -66 -7 c-312 -32 -604 -240 -744 -529 -69 -144
-85 -218 -85 -402 0 -176 14 -248 75 -381 134 -296 439 -518 755 -550 l65 -7
0 -1328 0 -1329 -3105 0 -3105 0 0 698 0 698 120 22 c377 69 773 277 1046 547
284 282 434 627 513 1180 72 507 38 1049 -91 1438 -49 150 -87 234 -162 357
-284 465 -705 731 -1323 836 l-103 17 0 684 0 683 3105 0 3105 0 0 -1314z
m6320 630 l0 -683 -57 -6 c-256 -27 -606 -140 -814 -263 -286 -169 -534 -444
-675 -749 -149 -323 -224 -822 -195 -1300 31 -491 128 -892 286 -1172 203
-362 604 -672 1061 -822 119 -39 308 -81 365 -81 l29 0 0 -700 0 -700 -3110 0
-3110 0 2 1327 3 1328 55 7 c394 54 689 301 806 673 27 84 29 101 29 260 0
159 -2 176 -29 260 -115 364 -407 615 -773 668 l-88 12 -3 1313 -2 1312 3110
0 3110 0 0 -684z m0 -2882 c0 -1991 -1 -2095 -17 -2091 -10 3 -40 8 -68 12
-213 28 -528 151 -743 291 -328 214 -531 466 -649 809 -112 325 -158 642 -157
1070 0 298 11 416 59 648 122 593 497 1035 1043 1231 128 46 402 111 525 125
4 1 7 -942 7 -2095z m-12367 2061 c510 -101 857 -314 1112 -680 170 -244 258
-494 311 -885 22 -159 25 -631 6 -795 -85 -711 -259 -1078 -662 -1396 -232
-183 -612 -350 -878 -385 l-52 -7 0 2087 c0 2050 0 2086 19 2086 11 0 75 -11
144 -25z m6047 -2060 l0 -835 -25 0 c-50 0 -181 32 -253 62 -238 99 -414 294
-493 548 -20 64 -24 96 -24 225 0 130 3 160 23 224 83 262 258 453 509 556 65
26 179 53 231 54 l32 1 0 -835z m292 804 c240 -66 465 -269 552 -497 74 -194
75 -424 2 -611 -110 -279 -387 -492 -688 -527 l-58 -7 0 838 0 838 59 -7 c33
-4 92 -16 133 -27z"/>
</g>
</svg>
