<?xml version="1.0" encoding="utf-8"?>
<!-- Generator: Adobe Illustrator 22.0.1, SVG Export Plug-In . SVG Version: 6.00 Build 0)  -->
<svg version="1.1" id="Layer_1" xmlns="http://www.w3.org/2000/svg" xmlns:xlink="http://www.w3.org/1999/xlink" x="0px" y="0px"
	 viewBox="0 0 1280 896" style="enable-background:new 0 0 1280 896;" xml:space="preserve">
<style type="text/css">
	.st0{fill:#DFDFDF;}
	.st1{fill:#2CC3FF;}
</style>
<g transform="translate(0.000000,896.000000) scale(0.100000,-0.100000)">
	<path class="st0" d="M925,8949c-151-22-322-89-458-180c-80-54-222-196-276-276c-326-486-220-1128,244-1476
		c323-242,765-283,1123-103c282,142,487,395,569,703c23,87,26,117,26,263s-3,177-26,265c-31,119-115,292-186,386
		C1706,8841,1309,9004,925,8949z"/>
	<path class="st1" d="M1880,6729c-49-20-60-38-60-102c0-117,59-262,173-422c134-189,168-220,352-321c99-54,180-127,191-171
		c9-38,104-223,157-304c102-159,128-189,199-225c65-33,109-31,151,6c37,32,168,78,247,87c34,4,54,14,83,41c20,20,37,44,37,53
		c0,30,24,37,140,37c163,1,335-43,705-180c214-79,330-134,393-185c55-45,172-95,292-126c128-34,295-54,598-72c235-14,259-18,334-45
		c45-17,95-30,112-30c24,0,288-123,386-180c8-4,71-38,140-75c196-105,250-138,250-153c0-7-39-31-86-53c-154-73-320-198-356-269
		c-13-25-26-46-30-48c-5-2-8-12-8-22s-4-22-10-25c-5-3-10-15-10-25c0-11-9-35-20-55c-11-19-27-65-36-101c-11-42-35-93-65-140
		c-27-41-49-77-49-80s-8-18-19-32c-10-15-36-58-56-97c-51-94-51-95-101-95c-100,0-357,34-464,61c-162,41-307,37-471-11
		c-117-35-182-132-159-236c20-90,51-125,185-210c148-94,189-114,282-134c154-33,295-39,695-31l377,8l58,35c49,31,61,44,79,90
		c24,59,13,54,204,98c52,12,118,33,146,45c60,27,171,128,216,196c36,56,56,61,118,29l40-20v-70c0-66,3-80,37-158
		c19-45,78-101,127-122c48-22,230-42,336-38c51,2,94-3,135-16c42-12,97-18,181-20c75-1,127-6,135-13c8-6,50-21,93-33
		c44-11,87-25,97-30c10-6,50-17,90-25c40-9,86-24,103-34s51-21,76-25c24-4,64-16,88-26c26-12,67-20,96-20s78-7,109-15
		c32-8,94-19,140-25c45-5,96-13,112-17c42-12,255-9,345,5c41,6,109,12,151,12c96,0,208,20,374,65c191,52,862,268,1000,321
		c339,131,634,217,787,230l76,7l27-53c21-42,28-72,32-149c5-77,11-103,29-131c25-37,31-64,93-405c47-254,48-269,37-595
		c-7-240-7-247,18-360c43-194,94-453,99-502l5-48h-52c-28,0-94,12-146,27c-52,14-115,26-140,27c-38,1-46-3-59-26c-15-26-14-29,15-65
		c32-39,55-54,162-99c53-23,69-36,99-82c38-57,110-120,175-153c43-22,44-23,22-74c-18-43-12-85,16-110c20-19,31-17,94,10l40,17
		l-17-24c-45-61-57-86-57-120c0-29,6-41,31-60c17-13,45-38,62-55c31-34,55-40,85-24c15,8,17,1,17-62V5l28,2c60,4,100,35,135,105
		c29,56,34,79,39,159c6,108-10,184-75,343l-37,91l1,245c1,135,7,286,14,335c7,50,15,180,19,290c6,196,5,206-36,505
		c-23,168-53,379-67,470c-15,91-29,197-33,235l-5,70l29,11c39,14,43,37,43,230c0,109,5,170,16,211c22,80,30,372,15,498
		c-15,118-63,314-79,324c-7,4-40,53-75,108c-59,96-295,373-318,373c-5,0-28,12-51,26l-41,26l6,97c7,111,51,279,97,371
		c26,51,38,64,83,86c28,15,72,42,96,60c49,38,119,127,126,161c3,13,7,33,10,46c8,43-14,98-45,110l-28,11l5,127
		c12,268-39,365-260,487c-158,88-221,107-357,107c-106,0-120-2-172-28c-90-44-177-144-242-280c-80-162-83-186-92-590l-7-349l-86,90
		c-47,49-101,97-120,107c-36,18-183,31-498,42c-165,5-325-5-569-37c-61-8-82-6-145,11c-61,17-259,69-359,95c-14,4-110,46-215,94
		c-239,111-261,116-788,206c-135,23-655,191-762,247c-17,8-53,34-80,56c-26,22-82,57-123,78l-75,38l-161-1c-184,0-268-14-301-50
		c-12-13-27-24-34-24c-24,0-11-52,22-85c26-26,49-36,112-51c44-10,73-20,63-22c-27-6-29-32-4-57c21-20,48-29,162-51
		c14-2,27-18,38-49c24-61,83-107,171-134c78-23,214-41,318-41c87,0,181-39,487-199c124-66,252-130,285-144c145-61,472-168,553-181
		c48-8,132-32,187-54s184-67,287-100c200-65,221-74,255-104c21-20,40-26,173-57l75-18l-85-26c-234-70-360-88-745-102l-180-7l-60,27
		c-33,15-87,40-120,57s-84,39-113,49s-67,30-83,44c-17,14-39,25-49,25c-26,0-66,18-360,160c-146,71-328,155-405,188
		c-225,96-729,260-761,248c-25-10-415,42-525,69c-53,13-130,38-172,54c-41,17-146,51-232,76c-148,42-167,46-342,55
		c-216,12-229,14-438,85c-203,68-353,99-624,130c-400,45-795,95-926,116c-282,45-596,118-663,153l-26,14l39,16c52,22,75,44,75,72
		c0,31-38,41-78,20c-17-9-33-20-36-25c-7-11-134,16-154,32c-8,6-31,46-53,89c-21,43-50,85-64,94c-30,20-74,12-76-14
		c-3-34,4-47,48-99c25-29,42-53,39-53c-4,0-28,11-54,24s-58,27-72,31c-14,3-47,17-75,30c-67,30-208,85-219,85c-5,0-23,11-40,24
		s-55,35-85,51c-48,24-93,52-231,141c-19,13-80,46-135,73c-88,44-107,51-160,50C1932,6739,1894,6734,1880,6729z"/>
</g>
</svg>
